<svg width="800" height="800" viewBox="0 0 800 800" fill="none" xmlns="http://www.w3.org/2000/svg">
<path d="M74.9251 138.018C80.4381 129.629 89.7863 116.925 95.6589 109.494C102.73 100.746 107.045 96.3111 108.123 96.7905C109.082 97.1501 109.801 97.6294 109.921 97.8691C109.921 98.1088 105.726 103.622 100.573 109.974C95.2993 116.446 88.4679 125.554 85.232 130.108C81.9961 134.663 76.4831 142.812 73.1273 148.086C69.7716 153.359 62.9402 165.464 58.0264 175.052C52.9928 184.639 46.521 198.302 43.5248 205.613C40.6484 212.924 36.214 224.669 33.9369 231.98C31.5399 239.29 27.9444 251.635 26.0268 259.545C24.1092 267.455 21.7122 278.84 20.6336 284.713C19.555 290.585 17.997 303.05 17.0382 312.278C16.0794 321.506 15.2405 338.525 15.2405 350.03C15.2405 361.536 15.8397 377.236 16.5588 384.786C17.158 392.337 18.8359 405.281 20.1542 413.55C21.4725 421.82 24.1092 434.763 26.0268 442.314C27.9444 449.864 30.9407 460.651 32.6185 466.283C34.4163 471.916 38.4911 482.942 41.6072 490.852C44.7232 498.762 50.8355 512.305 55.0302 520.814C59.3448 529.324 65.9364 541.548 69.7716 547.78C73.4869 554.013 80.1984 564.319 84.5129 570.552C88.9473 576.784 96.4978 586.851 101.412 592.724C106.325 598.596 117.112 610.461 125.381 618.97C133.651 627.36 145.875 638.745 152.467 644.258C159.059 649.652 170.324 658.281 177.635 663.434C184.826 668.468 195.972 675.659 202.204 679.374C208.436 682.969 219.822 689.082 227.372 692.917C234.923 696.632 247.028 702.265 254.338 705.141C261.529 708.138 273.754 712.452 281.304 714.969C288.855 717.366 300.48 720.722 307.072 722.28C313.663 723.838 325.289 726.235 332.839 727.553C340.389 728.991 355.49 730.789 366.397 731.748C377.303 732.707 392.044 733.546 399.355 733.546C406.546 733.546 421.167 732.707 431.714 731.748C442.261 730.789 451.609 729.95 452.328 729.95C453.167 729.95 453.886 728.752 453.886 727.194C453.886 724.797 454.845 724.437 465.511 722.4C471.983 721.321 483.489 718.684 491.039 716.767C498.59 714.849 510.694 711.374 518.005 708.977C525.196 706.58 537.66 701.906 545.57 698.55C553.48 695.194 564.027 690.52 568.941 688.003C573.854 685.486 582.124 680.932 587.158 677.936C592.311 674.94 596.985 672.423 597.704 672.423C598.303 672.423 599.981 674.34 601.3 676.617C602.618 678.895 603.577 681.052 603.337 681.292C603.217 681.411 599.262 683.808 594.708 686.445C590.034 689.082 580.925 693.995 574.334 697.351C567.742 700.587 556.356 705.861 549.166 708.977C541.855 711.973 530.349 716.407 523.398 718.804C516.447 721.081 504.582 724.557 497.031 726.474C489.481 728.512 478.934 730.909 473.661 731.987C468.388 732.946 460.238 733.905 455.684 734.025C451.01 734.265 439.984 735.104 431.115 735.943C420.328 736.901 406.066 737.262 387.969 736.782C369.992 736.303 355.61 735.223 344.824 733.665C335.955 732.227 323.251 730.07 316.659 728.632C310.068 727.194 297.364 723.958 288.495 721.321C279.626 718.804 264.765 713.651 255.537 710.055C246.308 706.34 230.728 699.269 220.781 694.235C210.953 689.202 195.013 679.853 185.425 673.501C175.837 667.269 162.414 657.562 155.463 652.049C148.512 646.536 134.25 633.352 123.703 622.806C113.157 612.139 99.7337 597.278 93.8611 589.727C87.9885 582.177 80.1984 571.391 76.3632 565.758C72.6479 560.125 66.7754 550.657 63.1799 544.784C59.7043 538.912 54.5508 529.444 51.7943 523.811C48.9179 518.178 44.2438 507.991 41.3675 501.039C38.3713 494.088 33.9369 482.583 31.5399 475.272C29.0231 467.961 25.1878 454.778 22.7909 445.909C20.5138 437.04 17.3977 421.34 15.7198 411.153C14.1618 400.966 12.2442 383.109 11.645 371.603C10.8061 357.701 10.8061 343.678 11.5251 330.255C12.2442 319.109 13.8023 302.331 15.2405 293.102C16.6786 283.874 19.3153 269.852 21.2328 261.942C23.0306 254.032 26.8658 240.609 29.7422 231.98C32.4987 223.35 37.6522 209.448 41.2476 200.819C44.7232 192.19 51.5546 177.928 56.3485 169.179C61.1425 160.31 69.5319 146.288 74.9251 138.018Z" fill="#F4F4F4"/>
<path d="M74.9251 138.018C80.4381 129.629 89.7863 116.925 95.6589 109.494C102.73 100.746 107.045 96.3111 108.123 96.7905C109.082 97.1501 109.801 97.6294 109.921 97.8691C109.921 98.1088 105.726 103.622 100.573 109.974C95.2993 116.446 88.4679 125.554 85.232 130.108C81.9961 134.663 76.4831 142.812 73.1273 148.086C69.7716 153.359 62.9402 165.464 58.0264 175.052C52.9928 184.639 46.521 198.302 43.5248 205.613C40.6484 212.924 36.214 224.669 33.9369 231.98C31.5399 239.29 27.9444 251.635 26.0268 259.545C24.1092 267.455 21.7122 278.84 20.6336 284.713C19.555 290.585 17.997 303.05 17.0382 312.278C16.0794 321.506 15.2405 338.525 15.2405 350.03C15.2405 361.536 15.8397 377.236 16.5588 384.786C17.158 392.337 18.8359 405.281 20.1542 413.55C21.4725 421.82 24.1092 434.763 26.0268 442.314C27.9444 449.864 30.9407 460.651 32.6185 466.283C34.4163 471.916 38.4911 482.942 41.6072 490.852C44.7232 498.762 50.8355 512.305 55.0302 520.814C59.3448 529.324 65.9364 541.548 69.7716 547.78C73.4869 554.013 80.1984 564.319 84.5129 570.552C88.9473 576.784 96.4978 586.851 101.412 592.724C106.325 598.596 117.112 610.461 125.381 618.97C133.651 627.36 145.875 638.745 152.467 644.258C159.059 649.652 170.324 658.281 177.635 663.434C184.826 668.468 195.972 675.659 202.204 679.374C208.436 682.969 219.822 689.082 227.372 692.917C234.923 696.632 247.028 702.265 254.338 705.141C261.529 708.138 273.754 712.452 281.304 714.969C288.855 717.366 300.48 720.722 307.072 722.28C313.663 723.838 325.289 726.235 332.839 727.553C340.389 728.991 355.49 730.789 366.397 731.748C377.303 732.707 392.044 733.546 399.355 733.546C406.546 733.546 421.167 732.707 431.714 731.748C442.261 730.789 451.609 729.95 452.328 729.95C453.167 729.95 453.886 728.752 453.886 727.194C453.886 724.797 454.845 724.437 465.511 722.4C471.983 721.321 483.489 718.684 491.039 716.767C498.59 714.849 510.694 711.374 518.005 708.977C525.196 706.58 537.66 701.906 545.57 698.55C553.48 695.194 564.027 690.52 568.941 688.003C573.854 685.486 582.124 680.932 587.158 677.936C592.311 674.94 596.985 672.423 597.704 672.423C598.303 672.423 599.981 674.34 601.3 676.617C602.618 678.895 603.577 681.052 603.337 681.292C603.217 681.411 599.262 683.808 594.708 686.445C590.034 689.082 580.925 693.995 574.334 697.351C567.742 700.587 556.356 705.861 549.166 708.977C541.855 711.973 530.349 716.407 523.398 718.804C516.447 721.081 504.582 724.557 497.031 726.474C489.481 728.512 478.934 730.909 473.661 731.987C468.388 732.946 460.238 733.905 455.684 734.025C451.01 734.265 439.984 735.104 431.115 735.943C420.328 736.901 406.066 737.262 387.969 736.782C369.992 736.303 355.61 735.223 344.824 733.665C335.955 732.227 323.251 730.07 316.659 728.632C310.068 727.194 297.364 723.958 288.495 721.321C279.626 718.804 264.765 713.651 255.537 710.055C246.308 706.34 230.728 699.269 220.781 694.235C210.953 689.202 195.013 679.853 185.425 673.501C175.837 667.269 162.414 657.562 155.463 652.049C148.512 646.536 134.25 633.352 123.703 622.806C113.157 612.139 99.7337 597.278 93.8611 589.727C87.9885 582.177 80.1984 571.391 76.3632 565.758C72.6479 560.125 66.7754 550.657 63.1799 544.784C59.7043 538.912 54.5508 529.444 51.7943 523.811C48.9179 518.178 44.2438 507.991 41.3675 501.039C38.3713 494.088 33.9369 482.583 31.5399 475.272C29.0231 467.961 25.1878 454.778 22.7909 445.909C20.5138 437.04 17.3977 421.34 15.7198 411.153C14.1618 400.966 12.2442 383.109 11.645 371.603C10.8061 357.701 10.8061 343.678 11.5251 330.255C12.2442 319.109 13.8023 302.331 15.2405 293.102C16.6786 283.874 19.3153 269.852 21.2328 261.942C23.0306 254.032 26.8658 240.609 29.7422 231.98C32.4987 223.35 37.6522 209.448 41.2476 200.819C44.7232 192.19 51.5546 177.928 56.3485 169.179C61.1425 160.31 69.5319 146.288 74.9251 138.018Z" fill="black" fill-opacity="0.2"/>
<path d="M776.998 389.82C777.357 383.468 777.837 376.996 778.196 375.438C778.675 373.161 779.514 372.802 789.462 372.802L788.863 378.434C788.623 381.67 788.025 388.502 786.826 403.363L783.11 402.404C780.953 401.925 778.556 401.565 777.717 401.565C776.638 401.565 776.398 398.809 776.998 389.82Z" fill="#F4F4F4"/>
<path d="M776.998 389.82C777.357 383.468 777.837 376.996 778.196 375.438C778.675 373.161 779.514 372.802 789.462 372.802L788.863 378.434C788.623 381.67 788.025 388.502 786.826 403.363L783.11 402.404C780.953 401.925 778.556 401.565 777.717 401.565C776.638 401.565 776.398 398.809 776.998 389.82Z" fill="black" fill-opacity="0.2"/>
<path d="M773.88 435.842L769.685 435.123L768.007 442.074C767.168 445.909 763.573 457.654 760.097 468.201C756.621 478.748 750.988 493.849 747.633 501.759C744.157 509.669 738.045 522.373 733.97 529.923C729.895 537.473 722.225 550.057 716.951 558.087C711.678 565.997 707.004 573.188 706.405 574.027C705.805 574.986 707.124 576.544 710 578.342L714.555 581.338C729.536 558.687 735.887 548.859 738.165 544.904C740.562 540.949 745.475 531.481 749.311 523.931C753.146 516.38 758.779 503.676 761.895 495.766C765.011 487.856 769.205 476.231 771.243 469.999C773.16 463.767 776.157 454.179 777.595 448.786C779.512 442.194 779.992 438.479 779.273 437.759C778.554 437.16 776.157 436.321 773.88 435.842Z" fill="#F4F4F4"/>
<path d="M773.88 435.842L769.685 435.123L768.007 442.074C767.168 445.909 763.573 457.654 760.097 468.201C756.621 478.748 750.988 493.849 747.633 501.759C744.157 509.669 738.045 522.373 733.97 529.923C729.895 537.473 722.225 550.057 716.951 558.087C711.678 565.997 707.004 573.188 706.405 574.027C705.805 574.986 707.124 576.544 710 578.342L714.555 581.338C729.536 558.687 735.887 548.859 738.165 544.904C740.562 540.949 745.475 531.481 749.311 523.931C753.146 516.38 758.779 503.676 761.895 495.766C765.011 487.856 769.205 476.231 771.243 469.999C773.16 463.767 776.157 454.179 777.595 448.786C779.512 442.194 779.992 438.479 779.273 437.759C778.554 437.16 776.157 436.321 773.88 435.842Z" fill="black" fill-opacity="0.2"/>
</svg>
