<svg width="800" height="800" viewBox="0 0 800 800" fill="none" xmlns="http://www.w3.org/2000/svg">
<path d="M650.438 675.06C656.07 670.746 663.022 665.112 666.018 662.595C669.613 659.479 671.651 658.401 672.609 659.239C673.448 660.078 672.849 661.397 670.812 663.554C669.134 665.232 661.823 671.224 654.632 676.857C647.321 682.61 634.737 691.6 626.468 697.113C618.198 702.506 605.494 710.056 598.303 714.011C590.993 717.846 579.128 723.718 571.937 727.075C564.626 730.431 552.282 735.704 544.372 738.7C536.462 741.696 523.278 746.131 515.009 748.528C506.739 750.925 492.238 754.4 482.65 756.318C473.062 758.235 463.114 760.033 460.478 760.393C457.841 760.752 449.571 761.831 442.141 762.909C433.152 764.108 419.01 764.707 398.995 764.707C376.344 764.707 365.198 764.108 351.416 762.31C341.468 760.992 328.524 759.074 322.652 757.996C316.659 756.917 310.667 755.599 309.109 754.999C307.551 754.4 306.712 753.202 307.072 752.123C307.551 750.685 308.39 750.565 311.506 751.524C313.663 752.123 321.933 753.801 329.843 754.999C337.753 756.318 353.093 758.355 364 759.434C378.741 760.872 389.767 761.232 407.145 760.752C419.969 760.393 437.227 759.194 445.497 758.235C453.766 757.157 465.272 755.479 471.264 754.52C477.137 753.441 489.841 750.685 499.428 748.408C509.016 746.011 523.758 741.696 532.387 738.7C540.896 735.704 553.6 730.79 560.551 727.914C567.502 724.917 577.69 720.243 583.322 717.367C588.955 714.61 598.783 709.216 605.135 705.501C611.607 701.786 622.153 695.195 628.505 690.88C634.977 686.446 644.805 679.375 650.438 675.06Z" fill="#F4F4F4"/>
<path d="M650.438 675.06C656.07 670.746 663.022 665.112 666.018 662.595C669.613 659.479 671.651 658.401 672.609 659.239C673.448 660.078 672.849 661.397 670.812 663.554C669.134 665.232 661.823 671.224 654.632 676.857C647.321 682.61 634.737 691.6 626.468 697.113C618.198 702.506 605.494 710.056 598.303 714.011C590.993 717.846 579.128 723.718 571.937 727.075C564.626 730.431 552.282 735.704 544.372 738.7C536.462 741.696 523.278 746.131 515.009 748.528C506.739 750.925 492.238 754.4 482.65 756.318C473.062 758.235 463.114 760.033 460.478 760.393C457.841 760.752 449.571 761.831 442.141 762.909C433.152 764.108 419.01 764.707 398.995 764.707C376.344 764.707 365.198 764.108 351.416 762.31C341.468 760.992 328.524 759.074 322.652 757.996C316.659 756.917 310.667 755.599 309.109 754.999C307.551 754.4 306.712 753.202 307.072 752.123C307.551 750.685 308.39 750.565 311.506 751.524C313.663 752.123 321.933 753.801 329.843 754.999C337.753 756.318 353.093 758.355 364 759.434C378.741 760.872 389.767 761.232 407.145 760.752C419.969 760.393 437.227 759.194 445.497 758.235C453.766 757.157 465.272 755.479 471.264 754.52C477.137 753.441 489.841 750.685 499.428 748.408C509.016 746.011 523.758 741.696 532.387 738.7C540.896 735.704 553.6 730.79 560.551 727.914C567.502 724.917 577.69 720.243 583.322 717.367C588.955 714.61 598.783 709.216 605.135 705.501C611.607 701.786 622.153 695.195 628.505 690.88C634.977 686.446 644.805 679.375 650.438 675.06Z" fill="black" fill-opacity="0.2"/>
<path d="M686.51 645.097C686.869 644.978 688.667 646.655 694.3 652.288L686.63 660.078L683.993 657.682C682.675 656.364 680.997 654.326 680.398 653.127C679.559 651.569 680.158 650.371 682.555 648.094C684.473 646.416 686.15 645.097 686.51 645.097Z" fill="#F4F4F4"/>
<path d="M686.51 645.097C686.869 644.978 688.667 646.655 694.3 652.288L686.63 660.078L683.993 657.682C682.675 656.364 680.997 654.326 680.398 653.127C679.559 651.569 680.158 650.371 682.555 648.094C684.473 646.416 686.15 645.097 686.51 645.097Z" fill="black" fill-opacity="0.2"/>
<path d="M700.892 629.637L704.487 632.753C706.405 634.431 708.083 636.468 707.963 637.187C707.963 637.906 706.525 639.944 701.371 645.097L693.581 637.187L700.892 629.637Z" fill="#F4F4F4"/>
<path d="M700.892 629.637L704.487 632.753C706.405 634.431 708.083 636.468 707.963 637.187C707.963 637.906 706.525 639.944 701.371 645.097L693.581 637.187L700.892 629.637Z" fill="black" fill-opacity="0.2"/>
</svg>
