<svg width="800" height="800" viewBox="0 0 800 800" fill="none" xmlns="http://www.w3.org/2000/svg">
<path fill-rule="evenodd" clip-rule="evenodd" d="M152.585 125.595C154.862 127.393 156.66 129.191 156.66 129.67C156.66 130.27 155.941 130.989 155.222 131.348C154.383 131.828 152.105 130.509 150.188 128.711C148.27 126.674 147.192 124.637 147.551 123.798C148.15 122.599 149.589 123.198 152.585 125.595ZM143.237 129.431C143.716 129.431 145.873 130.989 148.031 132.786C150.747 134.944 151.706 136.422 150.907 137.221C150.108 138.02 148.27 137.301 145.394 135.063C142.997 133.266 141.319 131.228 141.679 130.629C142.158 130.03 142.757 129.431 143.237 129.431ZM139.042 136.142C139.881 136.621 141.679 138.06 143.237 139.498C144.675 140.936 145.873 142.374 145.873 142.854C145.873 143.453 145.154 143.812 144.435 143.812C143.596 143.692 141.319 142.494 139.282 140.936C137.005 139.138 136.046 137.58 136.645 136.741C137.244 136.022 138.323 135.783 139.042 136.142ZM133.169 142.614C133.888 142.614 136.166 144.052 138.083 145.73C140.48 147.767 141.319 149.206 140.48 149.925C139.761 150.644 137.724 149.925 134.847 147.767C132.33 145.85 130.653 144.052 131.132 143.453C131.492 142.973 132.45 142.614 133.169 142.614ZM127.297 148.606C127.656 148.606 129.574 149.805 131.492 151.243C133.529 152.801 135.087 154.719 135.087 155.438C135.087 156.277 134.847 156.996 134.488 156.996C134.128 156.996 132.091 155.797 130.053 154.359C127.896 152.921 125.978 151.603 125.859 151.363C125.619 151.123 125.739 150.404 126.098 149.805C126.578 149.206 127.057 148.606 127.297 148.606ZM122.503 155.797C122.862 155.797 124.9 156.996 127.177 158.434C129.694 160.112 131.012 161.79 130.533 162.629C129.933 163.707 128.495 163.348 125.259 161.19C122.743 159.512 120.945 157.595 121.304 156.996C121.784 156.396 122.263 155.797 122.503 155.797ZM117.469 162.988C118.188 162.988 120.705 164.306 122.862 165.745C125.499 167.502 126.418 168.781 125.619 169.58C124.82 170.379 123.022 169.859 120.226 168.022C117.829 166.584 115.911 164.786 115.911 164.187C115.911 163.587 116.63 162.988 117.469 162.988ZM113.874 169.7C114.713 170.179 116.87 171.737 118.668 173.055C120.905 174.733 121.624 175.972 120.825 176.771C120.026 177.57 118.308 177.01 115.672 175.093C113.514 173.415 111.597 171.977 111.477 171.737C111.237 171.497 111.477 170.778 111.836 170.179C112.196 169.46 113.155 169.34 113.874 169.7ZM108.121 176.171C108.481 176.171 110.638 177.25 112.915 178.568C115.192 179.887 117.11 181.565 117.11 182.164C117.11 182.763 116.75 183.602 116.271 183.842C115.672 184.201 113.514 183.362 111.477 182.044C109.319 180.846 107.522 178.928 107.522 177.969C107.522 177.01 107.761 176.171 108.121 176.171ZM108.6 185.999C110.997 187.437 113.035 188.756 113.275 188.995C113.394 189.235 113.275 189.834 112.915 190.553C112.555 191.272 110.278 190.673 107.522 188.995C104.885 187.557 102.608 185.999 102.488 185.639C102.368 185.28 102.728 184.561 103.327 184.201C103.806 183.722 106.203 184.561 108.6 185.999ZM100.331 191.752C101.05 191.752 103.207 192.591 105.125 193.549C107.162 194.508 108.72 196.186 108.72 197.145C108.72 198.583 107.881 198.583 103.926 196.546C101.29 195.227 99.1324 193.669 99.1324 192.95C99.1324 192.231 99.7317 191.752 100.331 191.752ZM95.8965 198.943C96.0163 198.943 98.2935 199.662 100.93 200.74C103.806 201.819 105.604 203.257 105.364 204.336C105.245 205.295 104.885 206.134 104.526 206.134C104.166 206.134 101.769 205.055 99.1324 203.737C96.4957 202.418 94.5782 200.86 94.9377 200.141C95.4171 199.422 95.7767 198.943 95.8965 198.943ZM92.5407 206.134C92.9003 206.134 95.0576 207.092 97.3347 208.171C99.7317 209.369 101.529 211.047 101.529 211.766C101.529 212.605 101.29 213.324 100.93 213.324C100.571 213.324 98.1736 212.246 95.537 210.928C92.9003 209.609 90.9827 208.051 91.3423 207.332C91.8217 206.613 92.301 206.134 92.5407 206.134ZM92.9003 215.482C95.537 216.441 97.6942 217.999 97.8141 218.957C97.8141 219.796 97.4545 220.515 96.7354 220.515C96.1362 220.515 93.7392 219.557 91.4621 218.358C89.185 217.279 87.5071 215.721 87.7468 215.002C88.1063 213.924 89.5445 214.163 92.9003 215.482ZM85.7094 221.714C86.1888 221.714 88.5857 222.433 91.1026 223.512C93.4995 224.47 95.537 225.789 95.537 226.508C95.537 227.227 94.8179 227.706 94.0988 227.706C93.2598 227.706 90.743 227.227 88.7056 226.508C86.5483 225.909 84.7506 224.47 84.7506 223.512C84.7506 222.553 85.1101 221.714 85.7094 221.714ZM86.9079 230.822C89.4247 231.781 91.4621 232.5 91.7018 232.5C91.8217 232.5 91.9415 233.339 91.9415 234.298C91.9415 235.257 91.7018 236.096 91.3423 236.096C90.9827 236.096 88.5857 235.257 85.9491 234.298C83.3124 233.339 81.0353 232.021 80.9154 231.541C80.7956 230.942 81.1551 230.223 81.6345 229.744C82.1139 229.384 84.5109 229.744 86.9079 230.822ZM79.9566 237.294C80.6757 237.294 83.0727 238.133 85.3498 239.092C87.627 240.051 89.5445 241.369 89.5445 242.088C89.5445 242.807 88.8254 243.287 88.1063 243.287C87.2674 243.287 84.7506 242.568 82.5933 241.729C80.436 241.009 78.7582 239.571 78.7582 238.732C78.7582 238.013 79.3574 237.294 79.9566 237.294ZM77.9192 245.684C78.7582 245.684 81.1551 246.163 83.3124 246.882C85.9491 247.721 86.9079 248.68 86.5483 249.878C86.0689 251.436 85.3498 251.436 80.5559 249.878C77.5597 248.919 75.4024 247.601 75.762 246.882C76.2413 246.163 77.0803 245.684 77.9192 245.684ZM78.3986 254.313C80.9154 255.032 83.5521 255.751 84.1513 256.11C84.9503 256.51 84.9503 257.109 84.1513 257.908C83.4323 258.627 81.0353 258.387 77.7994 257.429C75.0429 256.59 72.6459 255.511 72.526 255.152C72.4062 254.792 72.7657 254.193 73.1253 253.833C73.6047 253.474 76.0016 253.713 78.3986 254.313ZM74.923 261.983C76.7207 262.462 79.1177 263.181 80.1963 263.541C81.3948 263.901 81.8742 264.859 81.3948 265.698C80.7956 266.897 79.5971 266.897 76.0016 265.698C73.6047 264.859 71.5673 263.541 71.5673 262.702C71.5673 261.743 72.6459 261.504 74.923 261.983ZM70.6085 269.653C71.4474 269.653 73.8444 270.133 76.0016 270.852C78.1589 271.571 79.9566 272.649 79.9566 273.249C79.9566 273.968 78.878 274.447 77.5597 274.447C76.2413 274.447 73.8444 273.968 72.1665 273.249C70.4886 272.649 69.1703 271.571 69.1703 270.852C69.1703 270.253 69.7695 269.653 70.6085 269.653ZM68.2115 278.043C69.0504 278.043 71.5673 278.402 73.7245 279.001C75.8818 279.481 77.5597 280.559 77.5597 281.398C77.5597 282.237 77.0803 282.837 76.6009 282.837C76.1215 282.837 73.7245 282.357 71.2077 281.638C68.8107 281.039 66.7733 279.96 66.7733 279.241C66.7733 278.642 67.3726 278.043 68.2115 278.043ZM70.8482 286.911C73.4848 287.271 76.0016 287.87 76.3612 288.23C76.7207 288.589 76.3612 289.428 75.762 290.028C74.923 290.747 72.8856 290.747 70.0092 290.028C67.6123 289.428 65.6947 288.23 65.6947 287.511C65.8545 286.632 67.5723 286.432 70.8482 286.911ZM66.5336 294.102C67.6123 294.342 70.1291 294.941 72.0466 295.301C73.9642 295.78 75.4024 296.739 75.2826 297.578C75.1627 298.657 73.6047 298.776 69.41 298.177C66.2939 297.698 63.6573 296.979 63.4176 296.619C63.2977 296.379 63.5374 295.421 63.8969 294.821C64.2565 294.102 65.455 293.743 66.5336 294.102ZM67.1329 302.731C69.1703 303.091 71.5673 303.69 72.4062 303.93C73.2451 304.17 73.9642 305.009 73.9642 305.608C73.9642 306.327 72.4062 306.806 70.6085 306.806C68.8107 306.806 66.1741 306.567 64.616 306.207C62.9382 305.848 62.2191 305.009 62.5786 303.93C63.058 302.612 64.3763 302.372 67.1329 302.731ZM64.8557 310.881C66.2939 311.241 68.571 311.6 70.0092 311.6C71.6871 311.6 72.7657 312.319 72.7657 313.398C72.7657 314.357 71.807 315.196 70.6085 315.196C69.5298 315.196 66.7733 314.956 64.616 314.596C61.6198 314.117 60.9007 313.518 61.6198 312.08C62.0992 310.881 63.2977 310.522 64.8557 310.881ZM64.8557 319.271C66.8932 319.75 69.1703 319.99 70.0092 319.99C70.8482 319.99 71.5673 320.829 71.5673 321.787C71.5673 322.746 70.8482 323.585 70.0092 323.585C69.1703 323.585 66.7733 323.226 64.616 322.746C62.3389 322.147 60.7809 321.068 60.9007 320.109C61.0206 318.911 62.2191 318.671 64.8557 319.271ZM63.7771 327.66C65.0954 328.019 67.1329 328.379 68.2115 328.379C69.41 328.379 70.3688 329.098 70.3688 329.937C70.3688 330.896 68.571 331.255 64.9756 331.136C61.9794 330.896 59.4626 330.297 59.3427 329.817C59.2229 329.218 59.7023 328.379 60.3015 327.9C60.7809 327.42 62.4588 327.3 63.7771 327.66ZM63.6573 336.049C65.6947 336.529 67.9718 336.768 68.8107 336.768C69.6497 336.768 70.3688 337.368 70.3688 337.967C70.3688 338.686 67.9718 339.165 64.9756 339.165C60.661 339.165 59.5824 338.806 59.7023 337.248C59.9419 335.69 60.7809 335.45 63.6573 336.049ZM62.4588 344.439C63.7771 344.798 66.1741 345.158 67.6123 345.158C69.1703 345.158 70.3688 345.757 70.3688 346.356C70.3688 347.075 67.9718 347.555 64.9756 347.555C60.661 347.555 59.5824 347.195 59.7023 345.637C59.8221 344.319 60.661 343.959 62.4588 344.439ZM64.616 352.588C67.3726 352.828 69.7695 353.667 70.0092 354.506C70.2489 355.465 68.6909 355.944 64.9756 355.944C60.9007 355.944 59.5824 355.465 59.5824 354.146C59.7023 352.708 60.7809 352.349 64.616 352.588ZM64.9756 360.738C68.9306 360.738 70.3688 361.218 70.3688 362.536C70.3688 363.854 68.9306 364.334 64.9756 364.334C61.0206 364.334 59.5824 363.854 59.5824 362.536C59.5824 361.218 61.0206 360.738 64.9756 360.738ZM64.9756 369.128C68.9306 369.128 70.3688 369.607 70.3688 370.925C70.3688 372.244 68.9306 372.723 64.9756 372.723C61.0206 372.723 59.5824 372.244 59.5824 370.925C59.5824 369.607 61.0206 369.128 64.9756 369.128ZM66.1741 377.517C69.1703 377.517 71.5673 378.116 71.5673 378.715C71.5673 379.434 70.7283 380.154 69.7695 380.513C68.8107 380.873 66.2939 381.112 64.3763 381.112C61.9794 381.112 60.7809 380.513 60.7809 379.315C60.7809 377.996 62.2191 377.517 66.1741 377.517ZM71.3276 386.506C71.5673 387.225 71.0879 388.183 70.1291 388.663C69.2901 389.142 67.013 389.382 65.2153 389.262C63.4176 389.022 61.8595 388.423 61.8595 387.704C61.8595 387.105 63.897 386.266 66.4138 385.906C68.9306 385.547 71.0879 385.906 71.3276 386.506ZM70.6085 393.337C71.807 393.217 72.7657 393.936 72.7657 394.895C72.7657 395.854 71.5673 396.932 70.0092 397.292C68.571 397.651 66.1741 397.891 64.616 397.891C63.058 397.891 61.9794 397.172 61.9794 396.093C61.9794 395.015 63.2977 394.176 65.2153 393.936C67.013 393.696 69.5298 393.337 70.6085 393.337ZM71.807 401.726C73.0054 401.606 73.9642 402.206 73.9642 403.045C73.9642 403.884 72.2863 404.962 70.1291 405.442C67.9718 405.921 65.455 406.281 64.616 406.281C63.7771 406.281 63.1779 405.442 63.1779 404.483C63.1779 403.404 64.4962 402.565 66.4138 402.326C68.2115 402.086 70.7283 401.726 71.807 401.726ZM725.94 406.281C727.858 406.281 730.375 406.52 731.333 406.88C732.292 407.239 733.131 408.318 733.131 409.277C733.131 410.595 732.292 410.955 729.775 410.355C727.977 409.996 725.581 409.397 724.382 409.157C723.303 408.917 722.345 408.198 722.345 407.479C722.345 406.88 723.903 406.281 725.94 406.281ZM72.4062 409.996C73.9642 409.996 75.1627 410.595 75.1627 411.434C75.1627 412.273 73.1253 413.232 70.7283 413.711C68.2115 414.191 65.6947 414.31 65.2153 414.071C64.7359 413.711 64.3763 412.992 64.3763 412.273C64.3763 411.674 65.5748 410.835 67.013 410.595C68.571 410.355 70.968 410.116 72.4062 409.996ZM724.981 414.67C727.139 414.67 729.775 415.149 730.734 415.749C731.693 416.348 732.052 417.426 731.573 418.146C730.974 419.104 729.296 419.104 725.94 418.265C723.303 417.666 721.146 416.588 721.146 415.868C721.146 415.269 722.824 414.67 724.981 414.67ZM76.3612 418.865C76.9604 419.584 76.8406 420.423 76.0016 420.902C75.1627 421.262 72.6459 421.861 70.4886 422.101C68.2115 422.34 66.1741 421.981 65.9344 421.262C65.6947 420.662 67.7321 419.584 70.4886 418.865C73.8444 418.026 75.762 418.026 76.3612 418.865ZM722.105 422.34C723.184 422.58 725.581 423.179 727.378 423.539C729.655 424.018 730.494 424.857 730.135 426.056C729.655 427.614 728.816 427.614 724.981 426.535C722.584 425.816 720.067 424.977 719.588 424.737C719.109 424.497 719.109 423.659 719.468 423.059C719.828 422.34 721.026 421.981 722.105 422.34ZM77.2001 425.576C78.0391 425.576 78.7582 426.295 78.7582 427.254C78.7582 428.213 77.5597 429.291 76.0016 429.651C74.5635 430.011 72.1665 430.25 70.6085 430.25C69.1703 430.25 67.852 429.771 67.7321 429.052C67.6123 428.453 69.2901 427.374 71.5673 426.775C73.8444 426.175 76.3612 425.696 77.2001 425.576ZM722.105 430.849C724.502 431.209 727.019 432.168 727.738 432.767C728.337 433.366 728.697 434.085 728.337 434.565C727.978 434.924 725.581 434.804 723.064 434.205C720.427 433.726 718.15 432.527 717.91 431.569C717.671 430.25 718.509 430.13 722.105 430.849ZM78.9979 433.966C80.1963 433.966 81.1551 434.445 81.1551 435.044C81.1551 435.763 79.8368 436.842 78.1589 437.441C76.481 438.16 74.0841 438.64 72.7657 438.64C71.3276 438.64 70.6085 438.04 70.968 437.201C71.3276 436.363 72.7657 435.404 74.3238 434.924C75.762 434.445 77.9192 434.085 78.9979 433.966ZM721.026 438.999C723.543 439.598 725.7 440.917 725.82 441.876C725.94 442.714 725.581 443.434 725.101 443.434C724.622 443.434 722.105 442.834 719.708 441.995C717.191 441.156 715.034 440.198 714.914 439.838C714.914 439.359 715.154 438.759 715.513 438.4C715.993 438.04 718.39 438.28 721.026 438.999ZM82.4735 442.834C83.0727 443.553 82.833 444.392 81.9941 444.872C81.275 445.231 78.878 445.95 76.7207 446.31C73.9642 446.909 72.7657 446.669 72.7657 445.591C72.7657 444.752 74.6833 443.553 77.0803 442.834C80.0765 441.995 81.7544 441.995 82.4735 442.834ZM713.716 445.831C714.195 445.831 716.592 446.43 719.109 447.029C721.745 447.748 723.543 449.066 723.543 450.025C723.543 451.344 722.824 451.703 720.906 451.104C719.348 450.744 716.951 449.905 715.513 449.306C713.955 448.707 712.757 447.748 712.757 447.029C712.757 446.43 713.236 445.831 713.716 445.831ZM83.3124 449.786C84.2712 449.905 84.9903 450.624 84.9903 451.224C84.9903 451.943 82.9529 453.141 80.436 453.98C77.32 454.939 75.4024 455.059 74.5635 454.34C73.8444 453.541 74.8431 452.542 77.5597 451.344C79.9566 450.385 82.4735 449.666 83.3124 449.786ZM715.034 454.699C717.431 455.179 719.948 456.018 720.547 456.617C721.266 457.336 721.386 458.295 720.906 458.774C720.307 459.254 717.79 459.014 715.154 458.175C712.517 457.336 710.48 456.018 710.599 455.299C710.719 454.46 712.277 454.22 715.034 454.699ZM87.5071 457.456C88.1063 457.815 88.5857 458.534 88.4659 459.134C88.4659 459.733 85.9491 461.051 82.9529 462.01C78.0391 463.688 77.6795 463.688 78.1589 461.89C78.5185 460.812 80.5559 459.254 82.5933 458.415C84.6307 457.696 86.9079 457.216 87.5071 457.456ZM709.161 461.411C709.88 461.411 712.277 462.25 714.555 463.209C716.951 464.287 718.749 465.606 718.749 466.205C718.749 466.924 718.39 467.403 717.91 467.403C717.431 467.403 714.914 466.804 712.517 465.965C710 465.126 707.963 463.808 707.963 462.969C707.963 462.13 708.562 461.411 709.161 461.411ZM89.3048 465.126C90.1438 465.126 90.743 465.606 90.743 466.205C90.743 466.924 88.9453 468.242 86.5483 469.201C84.2712 470.28 81.8742 470.999 81.1551 470.999C80.5559 470.999 79.8368 470.28 79.717 469.441C79.5971 468.482 81.275 467.283 83.672 466.564C85.9491 465.845 88.4659 465.246 89.3048 465.126ZM709.88 470.28C712.397 470.999 714.674 472.317 715.034 473.156C715.513 473.995 715.513 474.954 715.154 475.193C714.914 475.553 712.397 474.834 709.641 473.755C706.884 472.557 704.847 470.999 705.086 470.28C705.326 469.321 706.644 469.321 709.88 470.28ZM93.4995 473.036C94.0988 473.396 94.5782 473.995 94.5782 474.474C94.4583 474.834 92.4209 476.032 89.9041 476.991C87.3873 478.07 84.9903 478.909 84.5109 479.148C84.0315 479.268 83.5521 478.669 83.4323 477.71C83.3124 476.871 85.23 475.313 87.7468 474.354C90.2636 473.276 92.9003 472.796 93.4995 473.036ZM703.169 476.991C703.888 476.991 706.285 477.83 708.562 478.789C710.959 479.868 712.757 481.186 712.757 481.785C712.757 482.504 712.277 482.984 711.558 482.984C710.959 482.984 708.562 482.264 706.165 481.186C703.888 480.227 701.97 478.909 701.97 478.19C701.97 477.59 702.57 476.991 703.169 476.991ZM94.698 480.706C95.7767 480.706 96.7354 481.186 96.7354 481.785C96.7354 482.504 94.698 483.823 92.301 484.901C89.3048 486.1 87.3873 486.339 86.5483 485.62C85.8292 484.781 86.6682 483.823 88.9453 482.624C90.9827 481.545 93.4995 480.706 94.698 480.706ZM699.933 484.182C700.053 484.182 702.33 485.021 704.967 485.98C707.603 487.058 709.641 488.257 709.521 488.736C709.401 489.216 708.802 490.055 708.322 490.534C707.843 491.013 705.326 490.294 702.929 488.976C700.412 487.658 698.734 486.1 699.094 485.381C699.454 484.781 699.813 484.182 699.933 484.182ZM98.8927 487.897C99.7317 487.897 100.331 488.377 100.331 488.976C100.331 489.695 98.1736 491.253 95.537 492.571C92.6606 494.01 90.5033 494.489 90.1438 493.77C89.9041 493.171 89.6644 492.452 89.9041 492.212C90.0239 491.972 91.8217 490.894 93.7392 489.815C95.7766 488.736 98.0538 487.897 98.8927 487.897ZM696.697 491.373C696.937 491.373 699.094 492.332 701.491 493.53C703.768 494.729 705.686 496.287 705.686 497.126C705.566 497.965 704.967 498.564 704.128 498.564C703.289 498.564 700.892 497.485 698.734 496.167C696.577 494.849 695.139 493.291 695.499 492.571C695.858 491.972 696.338 491.373 696.697 491.373ZM102.009 495.448C102.608 495.568 103.327 496.167 103.567 496.766C103.806 497.485 102.009 498.923 99.492 500.002C96.9751 501.201 94.5782 501.8 94.0988 501.56C93.6194 501.201 93.0201 500.601 92.9003 500.002C92.7804 499.523 94.5782 498.204 96.8553 497.126C99.1324 496.047 101.409 495.328 102.009 495.448ZM697.296 501.081C699.933 502.399 702.09 503.957 702.09 504.676C702.09 505.275 701.491 505.755 700.772 505.755C700.173 505.755 697.896 504.916 695.738 503.837C693.581 502.759 691.663 501.68 691.544 501.44C691.304 501.201 691.544 500.481 691.903 499.762C692.263 499.163 694.42 499.643 697.296 501.081ZM106.683 502.279C107.162 502.279 107.522 502.878 107.642 503.717C107.642 504.556 105.604 506.114 103.087 507.313C100.211 508.751 98.1736 509.111 97.3347 508.391C96.6156 507.552 97.8141 506.354 100.93 504.796C103.567 503.358 106.203 502.279 106.683 502.279ZM693.701 508.272C696.338 509.59 698.495 511.028 698.495 511.508C698.495 511.987 698.015 512.826 697.536 513.305C697.057 513.785 694.54 512.946 692.143 511.508C689.626 509.949 687.469 508.511 687.349 508.152C687.349 507.672 687.589 507.073 688.068 506.714C688.667 506.234 691.184 506.953 693.701 508.272ZM110.278 509.47C110.758 509.47 111.117 510.069 111.117 510.908C111.237 511.747 109.559 513.305 107.522 514.504C105.604 515.702 103.447 516.541 102.728 516.541C102.129 516.541 101.409 515.822 101.29 514.983C101.17 514.144 102.968 512.586 105.245 511.508C107.522 510.429 109.799 509.47 110.278 509.47ZM684.592 512.946C684.952 512.946 687.109 514.024 689.386 515.343C691.783 516.661 693.581 518.219 693.701 518.698C693.701 519.178 693.461 520.017 693.102 520.496C692.742 520.976 690.585 520.256 688.188 518.938C685.911 517.62 683.993 515.822 683.993 514.743C683.993 513.785 684.353 512.946 684.592 512.946ZM113.874 516.661C114.353 516.661 115.072 517.14 115.312 517.74C115.672 518.459 114.233 520.017 112.076 521.335C109.919 522.653 107.522 523.732 106.683 523.732C105.844 523.732 105.125 523.253 105.125 522.534C105.125 521.934 106.923 520.376 109.08 519.058C111.237 517.859 113.394 516.781 113.874 516.661ZM685.431 522.773C688.068 524.211 690.225 525.77 690.225 526.129C690.105 526.489 689.626 527.208 689.147 527.687C688.667 528.166 686.39 527.328 683.993 526.009C681.716 524.571 679.679 523.133 679.559 523.013C679.319 522.773 679.559 522.054 679.918 521.335C680.398 520.616 682.435 521.095 685.431 522.773ZM118.668 523.732C119.147 523.732 119.507 524.451 119.507 525.29C119.627 526.129 117.949 527.687 115.911 528.886C113.994 530.084 111.836 530.923 111.117 530.923C110.518 530.923 109.919 530.444 109.799 529.724C109.679 529.125 111.477 527.447 113.754 526.129C115.911 524.811 118.188 523.732 118.668 523.732ZM676.562 527.447C677.042 527.447 679.199 528.526 681.356 529.844C683.514 531.163 685.072 532.841 684.832 533.679C684.592 534.518 684.113 534.998 683.634 534.878C683.154 534.758 680.997 533.44 678.6 532.121C676.323 530.803 674.765 529.245 675.124 528.526C675.484 527.927 676.083 527.447 676.562 527.447ZM122.862 531.043C123.701 531.043 124.301 531.522 124.301 532.121C124.301 532.841 122.743 534.399 120.705 535.717C118.788 537.035 116.63 538.114 115.911 538.114C115.312 538.114 114.713 537.515 114.593 536.676C114.473 535.837 115.911 534.159 117.829 533.08C119.746 532.002 122.023 531.043 122.862 531.043ZM672.008 534.518C672.727 534.518 674.885 535.597 676.802 536.915C678.84 538.234 680.398 539.912 680.398 540.511C680.398 541.23 679.798 541.829 678.959 541.829C678.121 541.829 675.963 540.751 674.166 539.432C672.368 538.114 670.81 536.436 670.81 535.717C670.81 535.118 671.409 534.518 672.008 534.518ZM128.256 537.634C128.855 537.994 129.334 538.833 129.214 539.432C129.214 540.031 127.177 541.829 124.9 543.267C122.023 545.065 120.226 545.544 119.507 544.706C118.668 543.986 119.866 542.428 122.623 540.271C125.02 538.593 127.537 537.395 128.256 537.634ZM671.409 543.267C673.806 544.706 675.604 546.623 675.604 547.462C675.604 548.301 675.004 548.9 674.166 548.9C673.327 548.9 671.049 547.582 669.012 546.024C666.975 544.346 665.896 542.668 666.375 541.949C666.975 540.99 668.652 541.47 671.409 543.267ZM131.851 544.226C132.33 544.226 133.05 544.706 133.289 545.305C133.649 546.024 132.211 547.941 130.053 549.5C127.896 551.177 125.739 552.496 125.259 552.496C124.78 552.496 124.181 551.777 124.061 550.818C123.941 549.859 125.379 548.061 127.417 546.743C129.334 545.305 131.372 544.226 131.851 544.226ZM662.181 547.822C662.66 547.822 664.817 548.9 666.975 550.219C669.132 551.537 670.81 553.095 670.81 553.694C670.81 554.413 670.45 555.132 669.971 555.492C669.491 555.732 667.334 554.893 665.177 553.335C663.02 551.896 661.342 550.099 661.342 549.26C661.222 548.421 661.701 547.822 662.181 547.822ZM138.083 551.417C138.922 552.256 138.203 553.574 135.686 555.492C133.769 557.17 131.492 558.488 130.653 558.488C129.814 558.488 128.975 558.009 128.855 557.409C128.735 556.81 130.533 554.893 132.69 553.335C135.407 551.257 137.204 550.618 138.083 551.417ZM662.061 556.93C664.338 558.608 666.255 560.526 666.136 561.125C666.136 561.604 665.417 562.084 664.578 562.084C663.739 562.084 661.462 560.885 659.544 559.447C657.387 557.769 656.428 556.211 656.907 555.252C657.626 554.174 658.945 554.533 662.061 556.93ZM142.038 557.409C142.877 557.409 143.476 557.769 143.596 558.248C143.596 558.728 141.918 560.765 140.001 562.683C137.124 565.559 135.926 566.039 134.847 564.96C133.649 563.761 134.128 562.803 136.885 560.406C138.922 558.728 141.199 557.409 142.038 557.409ZM652.353 560.885C652.593 560.885 654.51 561.964 656.428 563.282C658.465 564.6 660.023 566.518 660.023 567.477C660.023 568.555 659.784 569.274 659.424 569.274C659.184 569.274 657.027 567.956 654.63 566.278C652.353 564.72 650.795 562.803 651.155 562.084C651.514 561.484 651.994 560.885 652.353 560.885ZM147.431 563.402C147.911 563.402 148.51 563.761 148.87 564.241C149.229 564.72 147.791 566.758 145.873 568.675C143.357 571.432 141.798 572.031 140.24 571.312C138.323 570.473 138.682 569.994 142.278 566.878C144.675 564.96 146.952 563.402 147.431 563.402ZM647.2 566.878C648.039 566.878 650.196 568.555 651.994 570.473C653.791 572.51 654.75 574.428 654.031 574.668C653.432 575.027 651.274 573.829 649.237 572.031C647.319 570.233 645.642 568.316 645.642 567.836C645.642 567.357 646.361 566.878 647.2 566.878ZM153.663 570.713C154.502 571.552 153.663 572.99 150.667 575.387C147.791 577.784 146.113 578.503 145.274 577.664C144.555 576.825 145.394 575.267 148.27 572.87C151.147 570.593 152.825 569.874 153.663 570.713ZM641.806 572.87C642.286 572.87 644.203 574.548 646.001 576.465C647.799 578.503 648.997 580.78 648.518 581.619C648.039 582.578 646.481 581.739 643.844 578.862C641.567 576.585 640.009 574.308 640.368 573.829C640.728 573.349 641.327 572.87 641.806 572.87ZM158.098 575.267C158.697 575.267 159.416 575.866 159.656 576.465C160.015 577.185 158.577 579.342 156.42 581.259C153.903 583.417 152.105 584.375 151.267 583.656C150.547 582.937 151.386 581.259 153.663 578.862C155.581 576.945 157.618 575.267 158.098 575.267ZM635.814 578.982C636.293 578.982 638.211 580.301 640.009 581.978C641.806 583.536 643.245 585.454 643.245 586.053C643.245 586.772 642.645 587.252 641.806 587.252C640.967 587.252 639.05 586.053 637.612 584.615C636.054 583.057 634.855 581.259 634.855 580.42C634.855 579.581 635.335 578.982 635.814 578.982ZM164.09 581.259C164.69 581.259 165.289 581.739 165.648 582.218C166.008 582.698 164.45 584.975 162.173 587.252C159.416 590.128 157.978 590.967 157.379 590.008C157.019 589.169 158.098 586.892 159.896 584.855C161.693 582.937 163.611 581.259 164.09 581.259ZM630.061 584.855C630.78 584.855 632.578 586.413 634.256 588.211C635.934 590.008 637.252 591.926 637.252 592.405C637.252 592.885 636.653 593.364 635.814 593.364C634.975 593.364 633.057 591.686 631.619 589.769C630.061 587.731 628.863 585.814 628.863 585.454C628.863 585.214 629.462 584.855 630.061 584.855ZM170.083 587.252C170.682 587.252 171.281 587.731 171.641 588.211C172 588.69 170.442 590.967 168.165 593.244C165.409 596.121 163.97 596.959 163.371 596.001C163.012 595.162 164.09 592.885 165.888 590.847C167.686 588.93 169.603 587.252 170.083 587.252ZM628.024 592.885C629.822 594.802 631.38 596.959 631.38 597.798C631.26 598.637 630.9 599.356 630.421 599.356C629.941 599.356 628.024 597.679 626.226 595.761C624.428 593.724 623.35 591.566 623.709 590.847C624.309 590.008 625.867 590.727 628.024 592.885ZM176.075 593.244C176.674 593.244 177.034 593.963 177.034 594.802C177.034 595.641 175.835 597.559 174.397 598.997C172.839 600.555 171.042 601.753 170.203 601.753C169.364 601.753 168.525 601.274 168.405 600.795C168.285 600.435 169.723 598.518 171.641 596.6C173.558 594.802 175.596 593.244 176.075 593.244ZM617.837 595.641C618.316 595.641 620.234 597.319 622.031 599.237C623.829 601.274 625.028 603.431 624.668 604.031C624.428 604.75 622.511 603.791 620.473 601.993C618.556 600.195 616.878 598.038 616.878 597.199C616.878 596.36 617.357 595.641 617.837 595.641ZM181.948 598.038C182.547 598.038 183.026 598.757 183.026 599.596C183.026 600.435 181.708 602.712 180.15 604.63C178.472 606.787 176.794 607.866 175.955 607.386C175.116 606.787 175.716 605.109 177.753 602.233C179.551 599.956 181.348 598.038 181.948 598.038ZM611.844 601.634C612.324 601.634 614.241 603.311 616.039 605.229C617.837 607.266 619.035 609.424 618.676 610.023C618.436 610.742 616.518 609.783 614.481 607.986C612.563 606.188 610.885 604.031 610.885 603.192C610.885 602.353 611.365 601.634 611.844 601.634ZM187.7 604.031C188.06 604.031 188.899 604.27 189.378 604.63C189.858 604.989 188.779 607.147 186.981 609.424C185.184 611.701 183.266 613.259 182.787 613.019C182.307 612.66 181.828 612.06 181.708 611.461C181.708 610.862 182.787 608.944 184.225 607.266C185.663 605.469 187.221 604.031 187.7 604.031ZM605.852 606.428C606.331 606.428 608.249 608.345 610.047 610.622C612.444 613.738 612.923 615.057 611.844 615.656C610.885 616.135 608.968 614.817 607.05 612.42C605.253 610.143 604.054 607.866 604.414 607.386C604.773 606.907 605.372 606.428 605.852 606.428ZM195.131 608.825C195.73 608.825 196.21 609.304 196.21 609.783C196.21 610.263 195.011 612.42 193.573 614.577C192.015 616.734 190.457 618.412 189.978 618.412C189.498 618.412 188.779 617.933 188.42 617.214C188.18 616.615 189.258 614.457 190.936 612.42C192.614 610.502 194.532 608.825 195.131 608.825ZM602.736 614.817C604.653 617.214 606.211 619.491 606.092 619.97C606.092 620.45 605.492 620.929 604.653 620.929C603.814 620.929 601.897 619.251 600.459 617.334C598.901 615.296 598.062 613.019 598.541 612.18C599.14 611.102 600.459 612.06 602.736 614.817ZM201.243 613.618C201.843 613.618 202.442 614.098 202.801 614.577C203.041 615.057 201.962 617.214 200.404 619.371C198.727 621.528 196.929 623.206 196.21 623.206C195.61 623.206 195.011 622.727 195.011 622.008C195.011 621.409 196.21 619.251 197.648 617.214C199.086 615.296 200.644 613.618 201.243 613.618ZM592.669 616.015C593.148 616.135 594.946 617.933 596.504 620.33C598.501 623.126 599.1 624.924 598.301 625.723C597.582 626.442 596.024 625.364 593.867 622.367C592.069 619.851 590.991 617.454 591.23 616.974C591.59 616.495 592.189 616.015 592.669 616.015ZM208.794 619.491C209.633 620.33 209.153 621.768 207.356 624.405C205.798 626.442 203.88 628 202.801 628C201.843 628 201.004 627.641 201.004 627.281C200.884 626.802 202.322 624.644 204.24 622.367C206.517 619.611 207.955 618.652 208.794 619.491ZM588.953 624.045C590.511 625.963 591.71 628.12 591.71 628.959C591.71 629.798 591.35 630.637 590.871 630.996C590.391 631.236 588.714 629.678 587.275 627.401C585.717 625.124 584.998 622.607 585.478 621.888C586.077 621.049 587.275 621.768 588.953 624.045ZM214.307 623.206C214.906 623.206 215.625 623.686 215.985 624.165C216.224 624.644 215.385 626.802 213.827 628.959C212.389 631.116 210.592 632.794 209.753 632.794C208.914 632.794 208.195 632.555 208.075 632.075C207.955 631.716 209.033 629.558 210.472 627.281C212.03 625.124 213.708 623.206 214.307 623.206ZM579.485 625.723C579.965 625.723 581.523 627.521 583.081 629.918C584.519 632.195 585.717 634.352 585.717 634.592C585.717 634.951 584.998 635.191 583.92 635.191C582.961 635.191 581.163 633.513 579.845 631.356C578.526 629.199 577.807 627.041 578.167 626.562C578.407 626.083 579.006 625.603 579.485 625.723ZM221.378 628C222.097 628 222.576 628.599 222.576 629.199C222.576 629.918 221.618 632.075 220.539 634.113C219.34 636.03 217.782 637.708 216.943 637.708C216.105 637.588 215.385 637.229 215.385 636.749C215.385 636.27 216.464 634.112 217.782 631.955C219.101 629.798 220.779 628 221.378 628ZM572.774 630.397C573.373 630.397 574.811 632.195 576.129 634.352C577.448 636.509 578.526 638.667 578.526 639.146C578.526 639.626 577.807 639.985 576.729 639.985C575.77 639.985 573.852 638.187 572.534 635.79C571.216 633.513 570.497 631.356 570.976 630.996C571.455 630.757 572.174 630.397 572.774 630.397ZM229.288 632.674C230.127 633.513 229.767 635.191 228.089 637.828C226.771 639.865 224.973 641.783 224.134 642.023C223.415 642.262 222.576 641.903 222.457 641.064C222.337 640.345 223.535 637.828 225.093 635.671C227.131 632.794 228.329 631.835 229.288 632.674ZM565.343 633.993C565.703 633.993 567.261 636.15 568.699 638.787C570.377 641.663 570.976 643.94 570.257 644.3C569.538 644.539 568.819 644.659 568.699 644.539C568.459 644.419 567.141 642.382 565.703 640.105C564.264 637.708 563.425 635.431 563.905 634.951C564.264 634.472 564.984 634.113 565.343 633.993ZM235.88 636.51C236.479 636.51 237.078 636.989 237.078 637.708C237.078 638.307 235.999 640.704 234.681 643.101C233.363 645.378 231.685 646.936 231.086 646.697C230.367 646.337 229.887 645.618 229.887 645.139C229.887 644.659 230.966 642.502 232.284 640.345C233.602 638.187 235.16 636.51 235.88 636.51ZM558.272 638.906C558.871 638.906 560.549 640.584 561.867 642.742C563.066 644.899 564.145 647.056 564.264 647.536C564.264 648.015 563.426 648.494 562.467 648.494C561.508 648.494 559.83 646.816 558.871 644.899C557.912 642.861 557.074 640.704 557.074 640.105C557.074 639.386 557.553 638.906 558.272 638.906ZM243.43 640.824C243.909 641.423 243.43 643.94 242.232 646.337C241.033 648.854 239.715 650.891 239.115 650.891C238.636 650.891 238.037 650.292 237.677 649.693C237.318 648.974 238.277 646.577 239.715 644.18C241.153 641.783 242.831 640.345 243.43 640.824ZM551.321 642.502C551.8 642.502 553.358 644.659 554.677 647.296C556.714 651.371 556.834 652.09 555.276 652.689C554.077 653.049 552.639 651.73 551.081 648.734C549.763 646.217 549.044 643.82 549.523 643.341C549.883 642.861 550.722 642.502 551.321 642.502ZM250.621 644.419C251.22 645.019 250.741 647.296 249.542 649.693C248.464 651.97 247.385 654.007 247.145 654.127C246.906 654.247 246.067 654.127 245.467 653.888C244.748 653.528 245.348 651.251 246.906 648.255C248.464 645.498 250.022 643.82 250.621 644.419ZM543.77 645.978C544.13 645.978 545.448 648.015 546.647 650.532C548.085 653.408 548.325 655.446 547.605 656.284C546.886 657.004 545.568 655.805 544.01 652.689C542.692 650.052 541.853 647.416 542.332 646.936C542.692 646.457 543.411 646.097 543.77 645.978ZM258.052 648.375C258.89 649.213 258.531 651.011 257.093 653.888C256.014 656.165 254.456 658.082 253.857 658.082C253.138 658.082 252.658 657.483 252.658 656.884C252.658 656.165 253.617 653.768 254.696 651.371C256.134 648.374 257.213 647.536 258.052 648.375ZM536.1 649.693C537.059 649.693 538.617 651.61 539.576 654.127C540.534 656.644 541.014 659.041 540.774 659.52C540.534 660 539.935 660.479 539.336 660.479C538.857 660.479 537.538 658.562 536.34 656.284C535.261 653.888 534.302 651.491 534.302 650.891C534.302 650.172 535.141 649.693 536.1 649.693ZM264.523 650.771C264.883 650.771 265.602 651.011 266.081 651.371C266.681 651.73 266.081 654.247 264.883 656.884C263.804 659.52 262.486 661.678 261.887 661.678C261.407 661.678 260.808 661.078 260.449 660.479C260.089 659.76 260.688 657.363 261.767 655.086C262.845 652.689 264.164 650.771 264.523 650.771ZM528.55 653.168C529.389 653.168 530.827 655.086 531.546 657.363C532.385 659.76 532.744 662.277 532.265 663.116C531.785 664.075 530.707 663.116 529.389 660.479C528.19 658.082 527.231 655.565 527.111 654.727C527.111 653.888 527.83 653.288 528.55 653.168ZM272.553 654.487C273.512 654.487 274.231 654.966 274.231 655.685C274.231 656.284 273.392 658.562 272.313 660.719C271.235 662.876 270.156 664.794 269.917 664.914C269.677 665.033 268.838 664.914 268.239 664.674C267.52 664.195 267.759 662.277 268.958 659.281C270.036 656.644 271.714 654.487 272.553 654.487ZM521.359 655.685C521.838 655.685 523.156 657.843 524.115 660.479C525.074 663.116 525.913 665.513 525.913 665.872C525.913 666.112 525.194 666.472 524.355 666.472C523.636 666.472 521.958 664.314 520.759 661.678C519.681 659.041 519.082 656.524 519.561 656.284C519.92 655.925 520.759 655.685 521.359 655.685ZM279.744 658.082C280.703 658.082 281.422 658.562 281.422 659.281C281.422 659.88 280.583 662.397 279.624 664.914C278.426 667.91 277.347 668.988 276.628 668.269C275.909 667.43 275.909 665.393 276.868 662.517C277.587 660 278.905 658.082 279.744 658.082ZM513.209 659.281C514.407 659.281 515.606 660.959 516.445 663.715C517.284 666.831 517.284 668.629 516.445 669.468C515.606 670.187 514.887 669.708 514.168 667.67C513.569 665.992 512.61 663.356 512.13 661.917C511.531 659.88 511.771 659.281 513.209 659.281ZM287.894 660.479C288.613 660.479 288.972 661.678 288.733 663.116C288.493 664.554 287.774 667.071 287.295 668.509C286.695 669.947 285.856 671.266 285.257 671.266C284.778 671.266 284.059 671.026 283.459 670.666C282.98 670.307 283.459 667.91 284.538 665.273C285.617 662.636 287.055 660.479 287.894 660.479ZM505.539 661.678C506.138 661.678 507.217 662.876 507.816 664.314C508.295 665.753 509.134 668.269 509.614 669.708C510.093 671.625 509.853 672.464 508.535 672.464C507.576 672.464 506.138 670.666 505.539 668.509C504.82 666.352 504.34 663.955 504.34 663.116C504.34 662.277 504.82 661.678 505.539 661.678ZM295.804 662.876C296.403 662.876 297.002 663.475 297.002 664.314C297.002 665.153 296.523 667.55 295.804 669.708C295.085 671.865 293.766 673.663 292.808 673.663C291.489 673.663 291.25 672.824 291.729 670.906C292.208 669.468 292.927 666.951 293.527 665.513C294.126 664.075 295.085 662.876 295.804 662.876ZM498.587 664.075C499.307 664.075 500.385 665.992 500.865 668.509C501.464 671.026 501.943 673.423 501.943 673.902C501.943 674.382 501.224 674.861 500.385 674.861C499.666 674.861 498.348 672.824 497.509 670.307C496.67 667.91 496.31 665.393 496.67 664.914C497.029 664.434 497.868 664.075 498.587 664.075ZM302.875 665.153C303.234 665.153 303.954 665.513 304.433 665.872C305.032 666.232 304.912 668.629 304.193 671.266C303.474 674.142 302.276 676.06 301.197 676.06C300.238 676.06 299.399 675.58 299.399 675.101C299.399 674.621 299.998 672.224 300.718 669.708C301.437 667.191 302.395 665.153 302.875 665.153ZM490.198 666.472C490.677 666.472 491.636 668.15 492.355 670.307C493.074 672.464 493.554 674.861 493.554 675.7C493.554 676.539 492.835 677.258 491.996 677.258C491.277 677.258 489.719 675.101 488.88 672.464C487.921 669.827 487.561 667.43 488.161 667.071C488.64 666.711 489.599 666.472 490.198 666.472ZM311.384 667.67C312.103 667.67 312.583 668.749 312.583 670.067C312.583 671.385 311.983 673.782 311.384 675.46C310.665 677.018 309.586 678.456 308.987 678.456C308.268 678.456 308.028 676.539 308.508 673.902C308.867 671.385 309.467 668.988 309.706 668.509C310.066 668.03 310.785 667.67 311.384 667.67ZM482.288 668.869C483.846 668.869 484.445 670.067 484.805 673.902C485.045 676.659 484.925 679.295 484.565 679.655C484.206 679.895 483.487 679.655 482.887 679.056C482.288 678.337 481.449 675.82 481.09 673.303C480.371 669.588 480.61 668.869 482.288 668.869ZM319.294 670.067C320.253 670.067 320.972 670.666 320.972 671.505C320.972 672.344 320.493 674.741 319.773 676.898C319.054 679.056 317.976 680.853 317.377 680.853C316.657 680.853 316.178 680.134 316.178 679.295C316.178 678.456 316.418 676.06 316.897 673.902C317.257 671.745 318.335 670.067 319.294 670.067ZM327.084 671.266C327.684 671.266 328.403 671.625 328.642 672.224C328.882 672.824 328.642 675.221 328.043 677.617C327.444 680.254 326.245 682.052 325.167 682.052C324.088 682.052 323.609 681.213 323.848 679.895C324.208 678.696 324.807 676.299 325.167 674.501C325.646 672.704 326.485 671.266 327.084 671.266ZM473.659 671.266C474.738 671.266 475.816 672.464 476.176 673.902C476.415 675.34 476.895 677.617 477.015 678.936C477.254 680.134 476.655 681.333 475.816 681.573C474.977 681.812 474.138 680.614 473.659 678.696C473.299 676.898 472.82 674.501 472.46 673.303C471.981 671.945 472.381 671.266 473.659 671.266ZM466.228 672.464C466.708 672.464 467.427 673.063 467.667 673.902C467.906 674.741 468.505 677.138 468.865 679.295C469.344 682.052 469.105 683.25 468.026 683.25C467.307 683.25 465.749 681.093 464.91 678.456C463.951 675.82 463.592 673.423 464.191 673.063C464.67 672.704 465.629 672.464 466.228 672.464ZM335.354 673.663C336.073 673.663 336.552 674.861 336.552 676.299C336.552 677.737 336.193 680.254 335.953 681.692C335.594 683.131 334.515 684.449 333.556 684.449C332.597 684.449 331.758 683.97 331.758 683.49C331.758 683.011 332.358 680.614 332.957 678.097C333.676 675.58 334.755 673.663 335.354 673.663ZM458.918 674.382C459.277 674.981 459.996 677.378 460.476 679.895C461.075 683.49 460.835 684.449 459.397 684.449C458.199 684.449 457.36 682.891 457 680.254C456.641 677.857 456.76 675.46 457.24 674.741C457.719 674.022 458.438 673.902 458.918 674.382ZM343.743 674.861C344.462 674.861 344.942 676.06 344.942 677.498C344.942 678.936 344.582 681.453 344.342 682.891C343.983 684.329 342.904 685.647 341.945 685.647C340.507 685.647 340.268 684.689 340.867 681.093C341.346 678.576 341.826 676.179 342.185 675.7C342.425 675.221 343.144 674.861 343.743 674.861ZM351.533 676.06C352.492 676.06 353.331 676.659 353.331 677.498C353.331 678.337 352.972 680.734 352.492 682.891C351.893 685.168 350.814 686.846 349.736 686.846C348.297 686.846 348.178 686.007 348.897 682.891C349.376 680.734 349.736 678.337 349.736 677.498C349.736 676.659 350.575 676.06 351.533 676.06ZM443.577 680.494C444.176 683.011 444.296 685.647 443.937 686.486C443.577 687.325 442.858 688.044 442.259 688.044C441.779 688.044 440.82 685.767 440.221 682.891C439.262 678.816 439.382 677.737 440.701 677.018C442.019 676.299 442.738 677.138 443.577 680.494ZM449.809 676.06C451.487 676.06 452.206 677.018 452.446 679.895C452.685 682.052 452.805 684.449 452.805 685.288C452.805 686.127 451.966 686.846 451.008 686.846C450.049 686.846 449.21 686.127 449.21 685.288C449.21 684.449 448.85 682.052 448.371 679.895C447.772 676.659 448.011 676.06 449.809 676.06ZM359.683 677.258C360.642 677.258 361.121 678.337 360.882 679.895C360.762 681.333 360.522 683.85 360.522 685.288C360.522 687.086 359.803 688.044 358.365 688.044C356.687 688.044 356.447 687.445 357.286 684.089C357.765 681.932 358.125 679.535 358.125 678.696C358.125 677.857 358.844 677.258 359.683 677.258ZM433.989 677.258C434.708 677.258 435.427 678.936 435.787 681.093C436.027 683.25 436.027 686.127 435.547 687.445C435.068 688.883 434.349 689.363 433.749 688.644C433.15 687.924 432.311 685.408 431.712 683.011C431.113 680.614 431.233 678.337 431.832 677.977C432.311 677.498 433.39 677.258 433.989 677.258ZM367.833 678.456C368.432 678.456 368.911 680.853 368.911 683.85C368.911 687.805 368.432 689.243 367.114 689.243C366.155 689.243 365.316 688.524 365.316 687.685C365.316 686.846 365.556 684.449 366.035 682.292C366.395 680.134 367.234 678.456 367.833 678.456ZM376.222 678.456C376.821 678.456 377.301 680.853 377.301 683.85C377.301 687.805 376.821 689.243 375.503 689.243C374.544 689.243 373.705 688.524 373.705 687.685C373.705 686.846 373.945 684.449 374.424 682.292C374.784 680.134 375.623 678.456 376.222 678.456ZM418.289 679.056C418.888 679.415 419.368 681.932 419.368 684.449C419.248 687.805 418.768 689.243 417.45 689.243C416.132 689.243 415.532 687.805 415.413 684.569C415.293 682.052 415.652 679.655 416.132 679.295C416.731 678.816 417.69 678.816 418.289 679.056ZM425.24 678.456C425.839 678.456 426.678 679.176 427.038 680.254C427.397 681.213 427.637 683.61 427.637 685.647C427.637 688.044 427.038 689.243 425.839 689.243C424.521 689.243 424.042 687.805 424.042 683.85C424.042 680.853 424.521 678.456 425.24 678.456ZM384.132 679.655C385.091 679.655 385.69 681.213 385.69 684.449C385.69 687.924 385.211 689.243 383.892 689.243C382.574 689.243 382.095 687.924 382.334 684.449C382.454 681.333 383.053 679.655 384.132 679.655ZM392.162 679.655C393.6 679.655 394.08 680.973 394.08 685.048C394.08 688.763 393.6 690.321 392.522 689.962C391.802 689.842 390.964 687.325 390.724 684.569C390.364 680.734 390.724 679.655 392.162 679.655ZM400.671 679.655C401.99 679.655 402.469 680.973 402.469 684.449C402.469 687.086 401.87 689.483 401.27 689.842C400.551 690.082 399.832 689.602 399.473 688.644C399.113 687.565 398.874 685.168 398.874 683.25C398.874 680.853 399.473 679.655 400.671 679.655ZM408.941 679.655C410.379 679.655 410.738 680.734 410.499 684.689C410.379 687.445 409.66 689.842 409.061 689.842C408.342 689.842 407.742 687.445 407.503 684.689C407.143 680.734 407.503 679.655 408.941 679.655Z" fill="#F4F4F4"/>
<path fill-rule="evenodd" clip-rule="evenodd" d="M152.585 125.595C154.862 127.393 156.66 129.191 156.66 129.67C156.66 130.27 155.941 130.989 155.222 131.348C154.383 131.828 152.105 130.509 150.188 128.711C148.27 126.674 147.192 124.637 147.551 123.798C148.15 122.599 149.589 123.198 152.585 125.595ZM143.237 129.431C143.716 129.431 145.873 130.989 148.031 132.786C150.747 134.944 151.706 136.422 150.907 137.221C150.108 138.02 148.27 137.301 145.394 135.063C142.997 133.266 141.319 131.228 141.679 130.629C142.158 130.03 142.757 129.431 143.237 129.431ZM139.042 136.142C139.881 136.621 141.679 138.06 143.237 139.498C144.675 140.936 145.873 142.374 145.873 142.854C145.873 143.453 145.154 143.812 144.435 143.812C143.596 143.692 141.319 142.494 139.282 140.936C137.005 139.138 136.046 137.58 136.645 136.741C137.244 136.022 138.323 135.783 139.042 136.142ZM133.169 142.614C133.888 142.614 136.166 144.052 138.083 145.73C140.48 147.767 141.319 149.206 140.48 149.925C139.761 150.644 137.724 149.925 134.847 147.767C132.33 145.85 130.653 144.052 131.132 143.453C131.492 142.973 132.45 142.614 133.169 142.614ZM127.297 148.606C127.656 148.606 129.574 149.805 131.492 151.243C133.529 152.801 135.087 154.719 135.087 155.438C135.087 156.277 134.847 156.996 134.488 156.996C134.128 156.996 132.091 155.797 130.053 154.359C127.896 152.921 125.978 151.603 125.859 151.363C125.619 151.123 125.739 150.404 126.098 149.805C126.578 149.206 127.057 148.606 127.297 148.606ZM122.503 155.797C122.862 155.797 124.9 156.996 127.177 158.434C129.694 160.112 131.012 161.79 130.533 162.629C129.933 163.707 128.495 163.348 125.259 161.19C122.743 159.512 120.945 157.595 121.304 156.996C121.784 156.396 122.263 155.797 122.503 155.797ZM117.469 162.988C118.188 162.988 120.705 164.306 122.862 165.745C125.499 167.502 126.418 168.781 125.619 169.58C124.82 170.379 123.022 169.859 120.226 168.022C117.829 166.584 115.911 164.786 115.911 164.187C115.911 163.587 116.63 162.988 117.469 162.988ZM113.874 169.7C114.713 170.179 116.87 171.737 118.668 173.055C120.905 174.733 121.624 175.972 120.825 176.771C120.026 177.57 118.308 177.01 115.672 175.093C113.514 173.415 111.597 171.977 111.477 171.737C111.237 171.497 111.477 170.778 111.836 170.179C112.196 169.46 113.155 169.34 113.874 169.7ZM108.121 176.171C108.481 176.171 110.638 177.25 112.915 178.568C115.192 179.887 117.11 181.565 117.11 182.164C117.11 182.763 116.75 183.602 116.271 183.842C115.672 184.201 113.514 183.362 111.477 182.044C109.319 180.846 107.522 178.928 107.522 177.969C107.522 177.01 107.761 176.171 108.121 176.171ZM108.6 185.999C110.997 187.437 113.035 188.756 113.275 188.995C113.394 189.235 113.275 189.834 112.915 190.553C112.555 191.272 110.278 190.673 107.522 188.995C104.885 187.557 102.608 185.999 102.488 185.639C102.368 185.28 102.728 184.561 103.327 184.201C103.806 183.722 106.203 184.561 108.6 185.999ZM100.331 191.752C101.05 191.752 103.207 192.591 105.125 193.549C107.162 194.508 108.72 196.186 108.72 197.145C108.72 198.583 107.881 198.583 103.926 196.546C101.29 195.227 99.1324 193.669 99.1324 192.95C99.1324 192.231 99.7317 191.752 100.331 191.752ZM95.8965 198.943C96.0163 198.943 98.2935 199.662 100.93 200.74C103.806 201.819 105.604 203.257 105.364 204.336C105.245 205.295 104.885 206.134 104.526 206.134C104.166 206.134 101.769 205.055 99.1324 203.737C96.4957 202.418 94.5782 200.86 94.9377 200.141C95.4171 199.422 95.7767 198.943 95.8965 198.943ZM92.5407 206.134C92.9003 206.134 95.0576 207.092 97.3347 208.171C99.7317 209.369 101.529 211.047 101.529 211.766C101.529 212.605 101.29 213.324 100.93 213.324C100.571 213.324 98.1736 212.246 95.537 210.928C92.9003 209.609 90.9827 208.051 91.3423 207.332C91.8217 206.613 92.301 206.134 92.5407 206.134ZM92.9003 215.482C95.537 216.441 97.6942 217.999 97.8141 218.957C97.8141 219.796 97.4545 220.515 96.7354 220.515C96.1362 220.515 93.7392 219.557 91.4621 218.358C89.185 217.279 87.5071 215.721 87.7468 215.002C88.1063 213.924 89.5445 214.163 92.9003 215.482ZM85.7094 221.714C86.1888 221.714 88.5857 222.433 91.1026 223.512C93.4995 224.47 95.537 225.789 95.537 226.508C95.537 227.227 94.8179 227.706 94.0988 227.706C93.2598 227.706 90.743 227.227 88.7056 226.508C86.5483 225.909 84.7506 224.47 84.7506 223.512C84.7506 222.553 85.1101 221.714 85.7094 221.714ZM86.9079 230.822C89.4247 231.781 91.4621 232.5 91.7018 232.5C91.8217 232.5 91.9415 233.339 91.9415 234.298C91.9415 235.257 91.7018 236.096 91.3423 236.096C90.9827 236.096 88.5857 235.257 85.9491 234.298C83.3124 233.339 81.0353 232.021 80.9154 231.541C80.7956 230.942 81.1551 230.223 81.6345 229.744C82.1139 229.384 84.5109 229.744 86.9079 230.822ZM79.9566 237.294C80.6757 237.294 83.0727 238.133 85.3498 239.092C87.627 240.051 89.5445 241.369 89.5445 242.088C89.5445 242.807 88.8254 243.287 88.1063 243.287C87.2674 243.287 84.7506 242.568 82.5933 241.729C80.436 241.009 78.7582 239.571 78.7582 238.732C78.7582 238.013 79.3574 237.294 79.9566 237.294ZM77.9192 245.684C78.7582 245.684 81.1551 246.163 83.3124 246.882C85.9491 247.721 86.9079 248.68 86.5483 249.878C86.0689 251.436 85.3498 251.436 80.5559 249.878C77.5597 248.919 75.4024 247.601 75.762 246.882C76.2413 246.163 77.0803 245.684 77.9192 245.684ZM78.3986 254.313C80.9154 255.032 83.5521 255.751 84.1513 256.11C84.9503 256.51 84.9503 257.109 84.1513 257.908C83.4323 258.627 81.0353 258.387 77.7994 257.429C75.0429 256.59 72.6459 255.511 72.526 255.152C72.4062 254.792 72.7657 254.193 73.1253 253.833C73.6047 253.474 76.0016 253.713 78.3986 254.313ZM74.923 261.983C76.7207 262.462 79.1177 263.181 80.1963 263.541C81.3948 263.901 81.8742 264.859 81.3948 265.698C80.7956 266.897 79.5971 266.897 76.0016 265.698C73.6047 264.859 71.5673 263.541 71.5673 262.702C71.5673 261.743 72.6459 261.504 74.923 261.983ZM70.6085 269.653C71.4474 269.653 73.8444 270.133 76.0016 270.852C78.1589 271.571 79.9566 272.649 79.9566 273.249C79.9566 273.968 78.878 274.447 77.5597 274.447C76.2413 274.447 73.8444 273.968 72.1665 273.249C70.4886 272.649 69.1703 271.571 69.1703 270.852C69.1703 270.253 69.7695 269.653 70.6085 269.653ZM68.2115 278.043C69.0504 278.043 71.5673 278.402 73.7245 279.001C75.8818 279.481 77.5597 280.559 77.5597 281.398C77.5597 282.237 77.0803 282.837 76.6009 282.837C76.1215 282.837 73.7245 282.357 71.2077 281.638C68.8107 281.039 66.7733 279.96 66.7733 279.241C66.7733 278.642 67.3726 278.043 68.2115 278.043ZM70.8482 286.911C73.4848 287.271 76.0016 287.87 76.3612 288.23C76.7207 288.589 76.3612 289.428 75.762 290.028C74.923 290.747 72.8856 290.747 70.0092 290.028C67.6123 289.428 65.6947 288.23 65.6947 287.511C65.8545 286.632 67.5723 286.432 70.8482 286.911ZM66.5336 294.102C67.6123 294.342 70.1291 294.941 72.0466 295.301C73.9642 295.78 75.4024 296.739 75.2826 297.578C75.1627 298.657 73.6047 298.776 69.41 298.177C66.2939 297.698 63.6573 296.979 63.4176 296.619C63.2977 296.379 63.5374 295.421 63.8969 294.821C64.2565 294.102 65.455 293.743 66.5336 294.102ZM67.1329 302.731C69.1703 303.091 71.5673 303.69 72.4062 303.93C73.2451 304.17 73.9642 305.009 73.9642 305.608C73.9642 306.327 72.4062 306.806 70.6085 306.806C68.8107 306.806 66.1741 306.567 64.616 306.207C62.9382 305.848 62.2191 305.009 62.5786 303.93C63.058 302.612 64.3763 302.372 67.1329 302.731ZM64.8557 310.881C66.2939 311.241 68.571 311.6 70.0092 311.6C71.6871 311.6 72.7657 312.319 72.7657 313.398C72.7657 314.357 71.807 315.196 70.6085 315.196C69.5298 315.196 66.7733 314.956 64.616 314.596C61.6198 314.117 60.9007 313.518 61.6198 312.08C62.0992 310.881 63.2977 310.522 64.8557 310.881ZM64.8557 319.271C66.8932 319.75 69.1703 319.99 70.0092 319.99C70.8482 319.99 71.5673 320.829 71.5673 321.787C71.5673 322.746 70.8482 323.585 70.0092 323.585C69.1703 323.585 66.7733 323.226 64.616 322.746C62.3389 322.147 60.7809 321.068 60.9007 320.109C61.0206 318.911 62.2191 318.671 64.8557 319.271ZM63.7771 327.66C65.0954 328.019 67.1329 328.379 68.2115 328.379C69.41 328.379 70.3688 329.098 70.3688 329.937C70.3688 330.896 68.571 331.255 64.9756 331.136C61.9794 330.896 59.4626 330.297 59.3427 329.817C59.2229 329.218 59.7023 328.379 60.3015 327.9C60.7809 327.42 62.4588 327.3 63.7771 327.66ZM63.6573 336.049C65.6947 336.529 67.9718 336.768 68.8107 336.768C69.6497 336.768 70.3688 337.368 70.3688 337.967C70.3688 338.686 67.9718 339.165 64.9756 339.165C60.661 339.165 59.5824 338.806 59.7023 337.248C59.9419 335.69 60.7809 335.45 63.6573 336.049ZM62.4588 344.439C63.7771 344.798 66.1741 345.158 67.6123 345.158C69.1703 345.158 70.3688 345.757 70.3688 346.356C70.3688 347.075 67.9718 347.555 64.9756 347.555C60.661 347.555 59.5824 347.195 59.7023 345.637C59.8221 344.319 60.661 343.959 62.4588 344.439ZM64.616 352.588C67.3726 352.828 69.7695 353.667 70.0092 354.506C70.2489 355.465 68.6909 355.944 64.9756 355.944C60.9007 355.944 59.5824 355.465 59.5824 354.146C59.7023 352.708 60.7809 352.349 64.616 352.588ZM64.9756 360.738C68.9306 360.738 70.3688 361.218 70.3688 362.536C70.3688 363.854 68.9306 364.334 64.9756 364.334C61.0206 364.334 59.5824 363.854 59.5824 362.536C59.5824 361.218 61.0206 360.738 64.9756 360.738ZM64.9756 369.128C68.9306 369.128 70.3688 369.607 70.3688 370.925C70.3688 372.244 68.9306 372.723 64.9756 372.723C61.0206 372.723 59.5824 372.244 59.5824 370.925C59.5824 369.607 61.0206 369.128 64.9756 369.128ZM66.1741 377.517C69.1703 377.517 71.5673 378.116 71.5673 378.715C71.5673 379.434 70.7283 380.154 69.7695 380.513C68.8107 380.873 66.2939 381.112 64.3763 381.112C61.9794 381.112 60.7809 380.513 60.7809 379.315C60.7809 377.996 62.2191 377.517 66.1741 377.517ZM71.3276 386.506C71.5673 387.225 71.0879 388.183 70.1291 388.663C69.2901 389.142 67.013 389.382 65.2153 389.262C63.4176 389.022 61.8595 388.423 61.8595 387.704C61.8595 387.105 63.897 386.266 66.4138 385.906C68.9306 385.547 71.0879 385.906 71.3276 386.506ZM70.6085 393.337C71.807 393.217 72.7657 393.936 72.7657 394.895C72.7657 395.854 71.5673 396.932 70.0092 397.292C68.571 397.651 66.1741 397.891 64.616 397.891C63.058 397.891 61.9794 397.172 61.9794 396.093C61.9794 395.015 63.2977 394.176 65.2153 393.936C67.013 393.696 69.5298 393.337 70.6085 393.337ZM71.807 401.726C73.0054 401.606 73.9642 402.206 73.9642 403.045C73.9642 403.884 72.2863 404.962 70.1291 405.442C67.9718 405.921 65.455 406.281 64.616 406.281C63.7771 406.281 63.1779 405.442 63.1779 404.483C63.1779 403.404 64.4962 402.565 66.4138 402.326C68.2115 402.086 70.7283 401.726 71.807 401.726ZM725.94 406.281C727.858 406.281 730.375 406.52 731.333 406.88C732.292 407.239 733.131 408.318 733.131 409.277C733.131 410.595 732.292 410.955 729.775 410.355C727.977 409.996 725.581 409.397 724.382 409.157C723.303 408.917 722.345 408.198 722.345 407.479C722.345 406.88 723.903 406.281 725.94 406.281ZM72.4062 409.996C73.9642 409.996 75.1627 410.595 75.1627 411.434C75.1627 412.273 73.1253 413.232 70.7283 413.711C68.2115 414.191 65.6947 414.31 65.2153 414.071C64.7359 413.711 64.3763 412.992 64.3763 412.273C64.3763 411.674 65.5748 410.835 67.013 410.595C68.571 410.355 70.968 410.116 72.4062 409.996ZM724.981 414.67C727.139 414.67 729.775 415.149 730.734 415.749C731.693 416.348 732.052 417.426 731.573 418.146C730.974 419.104 729.296 419.104 725.94 418.265C723.303 417.666 721.146 416.588 721.146 415.868C721.146 415.269 722.824 414.67 724.981 414.67ZM76.3612 418.865C76.9604 419.584 76.8406 420.423 76.0016 420.902C75.1627 421.262 72.6459 421.861 70.4886 422.101C68.2115 422.34 66.1741 421.981 65.9344 421.262C65.6947 420.662 67.7321 419.584 70.4886 418.865C73.8444 418.026 75.762 418.026 76.3612 418.865ZM722.105 422.34C723.184 422.58 725.581 423.179 727.378 423.539C729.655 424.018 730.494 424.857 730.135 426.056C729.655 427.614 728.816 427.614 724.981 426.535C722.584 425.816 720.067 424.977 719.588 424.737C719.109 424.497 719.109 423.659 719.468 423.059C719.828 422.34 721.026 421.981 722.105 422.34ZM77.2001 425.576C78.0391 425.576 78.7582 426.295 78.7582 427.254C78.7582 428.213 77.5597 429.291 76.0016 429.651C74.5635 430.011 72.1665 430.25 70.6085 430.25C69.1703 430.25 67.852 429.771 67.7321 429.052C67.6123 428.453 69.2901 427.374 71.5673 426.775C73.8444 426.175 76.3612 425.696 77.2001 425.576ZM722.105 430.849C724.502 431.209 727.019 432.168 727.738 432.767C728.337 433.366 728.697 434.085 728.337 434.565C727.978 434.924 725.581 434.804 723.064 434.205C720.427 433.726 718.15 432.527 717.91 431.569C717.671 430.25 718.509 430.13 722.105 430.849ZM78.9979 433.966C80.1963 433.966 81.1551 434.445 81.1551 435.044C81.1551 435.763 79.8368 436.842 78.1589 437.441C76.481 438.16 74.0841 438.64 72.7657 438.64C71.3276 438.64 70.6085 438.04 70.968 437.201C71.3276 436.363 72.7657 435.404 74.3238 434.924C75.762 434.445 77.9192 434.085 78.9979 433.966ZM721.026 438.999C723.543 439.598 725.7 440.917 725.82 441.876C725.94 442.714 725.581 443.434 725.101 443.434C724.622 443.434 722.105 442.834 719.708 441.995C717.191 441.156 715.034 440.198 714.914 439.838C714.914 439.359 715.154 438.759 715.513 438.4C715.993 438.04 718.39 438.28 721.026 438.999ZM82.4735 442.834C83.0727 443.553 82.833 444.392 81.9941 444.872C81.275 445.231 78.878 445.95 76.7207 446.31C73.9642 446.909 72.7657 446.669 72.7657 445.591C72.7657 444.752 74.6833 443.553 77.0803 442.834C80.0765 441.995 81.7544 441.995 82.4735 442.834ZM713.716 445.831C714.195 445.831 716.592 446.43 719.109 447.029C721.745 447.748 723.543 449.066 723.543 450.025C723.543 451.344 722.824 451.703 720.906 451.104C719.348 450.744 716.951 449.905 715.513 449.306C713.955 448.707 712.757 447.748 712.757 447.029C712.757 446.43 713.236 445.831 713.716 445.831ZM83.3124 449.786C84.2712 449.905 84.9903 450.624 84.9903 451.224C84.9903 451.943 82.9529 453.141 80.436 453.98C77.32 454.939 75.4024 455.059 74.5635 454.34C73.8444 453.541 74.8431 452.542 77.5597 451.344C79.9566 450.385 82.4735 449.666 83.3124 449.786ZM715.034 454.699C717.431 455.179 719.948 456.018 720.547 456.617C721.266 457.336 721.386 458.295 720.906 458.774C720.307 459.254 717.79 459.014 715.154 458.175C712.517 457.336 710.48 456.018 710.599 455.299C710.719 454.46 712.277 454.22 715.034 454.699ZM87.5071 457.456C88.1063 457.815 88.5857 458.534 88.4659 459.134C88.4659 459.733 85.9491 461.051 82.9529 462.01C78.0391 463.688 77.6795 463.688 78.1589 461.89C78.5185 460.812 80.5559 459.254 82.5933 458.415C84.6307 457.696 86.9079 457.216 87.5071 457.456ZM709.161 461.411C709.88 461.411 712.277 462.25 714.555 463.209C716.951 464.287 718.749 465.606 718.749 466.205C718.749 466.924 718.39 467.403 717.91 467.403C717.431 467.403 714.914 466.804 712.517 465.965C710 465.126 707.963 463.808 707.963 462.969C707.963 462.13 708.562 461.411 709.161 461.411ZM89.3048 465.126C90.1438 465.126 90.743 465.606 90.743 466.205C90.743 466.924 88.9453 468.242 86.5483 469.201C84.2712 470.28 81.8742 470.999 81.1551 470.999C80.5559 470.999 79.8368 470.28 79.717 469.441C79.5971 468.482 81.275 467.283 83.672 466.564C85.9491 465.845 88.4659 465.246 89.3048 465.126ZM709.88 470.28C712.397 470.999 714.674 472.317 715.034 473.156C715.513 473.995 715.513 474.954 715.154 475.193C714.914 475.553 712.397 474.834 709.641 473.755C706.884 472.557 704.847 470.999 705.086 470.28C705.326 469.321 706.644 469.321 709.88 470.28ZM93.4995 473.036C94.0988 473.396 94.5782 473.995 94.5782 474.474C94.4583 474.834 92.4209 476.032 89.9041 476.991C87.3873 478.07 84.9903 478.909 84.5109 479.148C84.0315 479.268 83.5521 478.669 83.4323 477.71C83.3124 476.871 85.23 475.313 87.7468 474.354C90.2636 473.276 92.9003 472.796 93.4995 473.036ZM703.169 476.991C703.888 476.991 706.285 477.83 708.562 478.789C710.959 479.868 712.757 481.186 712.757 481.785C712.757 482.504 712.277 482.984 711.558 482.984C710.959 482.984 708.562 482.264 706.165 481.186C703.888 480.227 701.97 478.909 701.97 478.19C701.97 477.59 702.57 476.991 703.169 476.991ZM94.698 480.706C95.7767 480.706 96.7354 481.186 96.7354 481.785C96.7354 482.504 94.698 483.823 92.301 484.901C89.3048 486.1 87.3873 486.339 86.5483 485.62C85.8292 484.781 86.6682 483.823 88.9453 482.624C90.9827 481.545 93.4995 480.706 94.698 480.706ZM699.933 484.182C700.053 484.182 702.33 485.021 704.967 485.98C707.603 487.058 709.641 488.257 709.521 488.736C709.401 489.216 708.802 490.055 708.322 490.534C707.843 491.013 705.326 490.294 702.929 488.976C700.412 487.658 698.734 486.1 699.094 485.381C699.454 484.781 699.813 484.182 699.933 484.182ZM98.8927 487.897C99.7317 487.897 100.331 488.377 100.331 488.976C100.331 489.695 98.1736 491.253 95.537 492.571C92.6606 494.01 90.5033 494.489 90.1438 493.77C89.9041 493.171 89.6644 492.452 89.9041 492.212C90.0239 491.972 91.8217 490.894 93.7392 489.815C95.7766 488.736 98.0538 487.897 98.8927 487.897ZM696.697 491.373C696.937 491.373 699.094 492.332 701.491 493.53C703.768 494.729 705.686 496.287 705.686 497.126C705.566 497.965 704.967 498.564 704.128 498.564C703.289 498.564 700.892 497.485 698.734 496.167C696.577 494.849 695.139 493.291 695.499 492.571C695.858 491.972 696.338 491.373 696.697 491.373ZM102.009 495.448C102.608 495.568 103.327 496.167 103.567 496.766C103.806 497.485 102.009 498.923 99.492 500.002C96.9751 501.201 94.5782 501.8 94.0988 501.56C93.6194 501.201 93.0201 500.601 92.9003 500.002C92.7804 499.523 94.5782 498.204 96.8553 497.126C99.1324 496.047 101.409 495.328 102.009 495.448ZM697.296 501.081C699.933 502.399 702.09 503.957 702.09 504.676C702.09 505.275 701.491 505.755 700.772 505.755C700.173 505.755 697.896 504.916 695.738 503.837C693.581 502.759 691.663 501.68 691.544 501.44C691.304 501.201 691.544 500.481 691.903 499.762C692.263 499.163 694.42 499.643 697.296 501.081ZM106.683 502.279C107.162 502.279 107.522 502.878 107.642 503.717C107.642 504.556 105.604 506.114 103.087 507.313C100.211 508.751 98.1736 509.111 97.3347 508.391C96.6156 507.552 97.8141 506.354 100.93 504.796C103.567 503.358 106.203 502.279 106.683 502.279ZM693.701 508.272C696.338 509.59 698.495 511.028 698.495 511.508C698.495 511.987 698.015 512.826 697.536 513.305C697.057 513.785 694.54 512.946 692.143 511.508C689.626 509.949 687.469 508.511 687.349 508.152C687.349 507.672 687.589 507.073 688.068 506.714C688.667 506.234 691.184 506.953 693.701 508.272ZM110.278 509.47C110.758 509.47 111.117 510.069 111.117 510.908C111.237 511.747 109.559 513.305 107.522 514.504C105.604 515.702 103.447 516.541 102.728 516.541C102.129 516.541 101.409 515.822 101.29 514.983C101.17 514.144 102.968 512.586 105.245 511.508C107.522 510.429 109.799 509.47 110.278 509.47ZM684.592 512.946C684.952 512.946 687.109 514.024 689.386 515.343C691.783 516.661 693.581 518.219 693.701 518.698C693.701 519.178 693.461 520.017 693.102 520.496C692.742 520.976 690.585 520.256 688.188 518.938C685.911 517.62 683.993 515.822 683.993 514.743C683.993 513.785 684.353 512.946 684.592 512.946ZM113.874 516.661C114.353 516.661 115.072 517.14 115.312 517.74C115.672 518.459 114.233 520.017 112.076 521.335C109.919 522.653 107.522 523.732 106.683 523.732C105.844 523.732 105.125 523.253 105.125 522.534C105.125 521.934 106.923 520.376 109.08 519.058C111.237 517.859 113.394 516.781 113.874 516.661ZM685.431 522.773C688.068 524.211 690.225 525.77 690.225 526.129C690.105 526.489 689.626 527.208 689.147 527.687C688.667 528.166 686.39 527.328 683.993 526.009C681.716 524.571 679.679 523.133 679.559 523.013C679.319 522.773 679.559 522.054 679.918 521.335C680.398 520.616 682.435 521.095 685.431 522.773ZM118.668 523.732C119.147 523.732 119.507 524.451 119.507 525.29C119.627 526.129 117.949 527.687 115.911 528.886C113.994 530.084 111.836 530.923 111.117 530.923C110.518 530.923 109.919 530.444 109.799 529.724C109.679 529.125 111.477 527.447 113.754 526.129C115.911 524.811 118.188 523.732 118.668 523.732ZM676.562 527.447C677.042 527.447 679.199 528.526 681.356 529.844C683.514 531.163 685.072 532.841 684.832 533.679C684.592 534.518 684.113 534.998 683.634 534.878C683.154 534.758 680.997 533.44 678.6 532.121C676.323 530.803 674.765 529.245 675.124 528.526C675.484 527.927 676.083 527.447 676.562 527.447ZM122.862 531.043C123.701 531.043 124.301 531.522 124.301 532.121C124.301 532.841 122.743 534.399 120.705 535.717C118.788 537.035 116.63 538.114 115.911 538.114C115.312 538.114 114.713 537.515 114.593 536.676C114.473 535.837 115.911 534.159 117.829 533.08C119.746 532.002 122.023 531.043 122.862 531.043ZM672.008 534.518C672.727 534.518 674.885 535.597 676.802 536.915C678.84 538.234 680.398 539.912 680.398 540.511C680.398 541.23 679.798 541.829 678.959 541.829C678.121 541.829 675.963 540.751 674.166 539.432C672.368 538.114 670.81 536.436 670.81 535.717C670.81 535.118 671.409 534.518 672.008 534.518ZM128.256 537.634C128.855 537.994 129.334 538.833 129.214 539.432C129.214 540.031 127.177 541.829 124.9 543.267C122.023 545.065 120.226 545.544 119.507 544.706C118.668 543.986 119.866 542.428 122.623 540.271C125.02 538.593 127.537 537.395 128.256 537.634ZM671.409 543.267C673.806 544.706 675.604 546.623 675.604 547.462C675.604 548.301 675.004 548.9 674.166 548.9C673.327 548.9 671.049 547.582 669.012 546.024C666.975 544.346 665.896 542.668 666.375 541.949C666.975 540.99 668.652 541.47 671.409 543.267ZM131.851 544.226C132.33 544.226 133.05 544.706 133.289 545.305C133.649 546.024 132.211 547.941 130.053 549.5C127.896 551.177 125.739 552.496 125.259 552.496C124.78 552.496 124.181 551.777 124.061 550.818C123.941 549.859 125.379 548.061 127.417 546.743C129.334 545.305 131.372 544.226 131.851 544.226ZM662.181 547.822C662.66 547.822 664.817 548.9 666.975 550.219C669.132 551.537 670.81 553.095 670.81 553.694C670.81 554.413 670.45 555.132 669.971 555.492C669.491 555.732 667.334 554.893 665.177 553.335C663.02 551.896 661.342 550.099 661.342 549.26C661.222 548.421 661.701 547.822 662.181 547.822ZM138.083 551.417C138.922 552.256 138.203 553.574 135.686 555.492C133.769 557.17 131.492 558.488 130.653 558.488C129.814 558.488 128.975 558.009 128.855 557.409C128.735 556.81 130.533 554.893 132.69 553.335C135.407 551.257 137.204 550.618 138.083 551.417ZM662.061 556.93C664.338 558.608 666.255 560.526 666.136 561.125C666.136 561.604 665.417 562.084 664.578 562.084C663.739 562.084 661.462 560.885 659.544 559.447C657.387 557.769 656.428 556.211 656.907 555.252C657.626 554.174 658.945 554.533 662.061 556.93ZM142.038 557.409C142.877 557.409 143.476 557.769 143.596 558.248C143.596 558.728 141.918 560.765 140.001 562.683C137.124 565.559 135.926 566.039 134.847 564.96C133.649 563.761 134.128 562.803 136.885 560.406C138.922 558.728 141.199 557.409 142.038 557.409ZM652.353 560.885C652.593 560.885 654.51 561.964 656.428 563.282C658.465 564.6 660.023 566.518 660.023 567.477C660.023 568.555 659.784 569.274 659.424 569.274C659.184 569.274 657.027 567.956 654.63 566.278C652.353 564.72 650.795 562.803 651.155 562.084C651.514 561.484 651.994 560.885 652.353 560.885ZM147.431 563.402C147.911 563.402 148.51 563.761 148.87 564.241C149.229 564.72 147.791 566.758 145.873 568.675C143.357 571.432 141.798 572.031 140.24 571.312C138.323 570.473 138.682 569.994 142.278 566.878C144.675 564.96 146.952 563.402 147.431 563.402ZM647.2 566.878C648.039 566.878 650.196 568.555 651.994 570.473C653.791 572.51 654.75 574.428 654.031 574.668C653.432 575.027 651.274 573.829 649.237 572.031C647.319 570.233 645.642 568.316 645.642 567.836C645.642 567.357 646.361 566.878 647.2 566.878ZM153.663 570.713C154.502 571.552 153.663 572.99 150.667 575.387C147.791 577.784 146.113 578.503 145.274 577.664C144.555 576.825 145.394 575.267 148.27 572.87C151.147 570.593 152.825 569.874 153.663 570.713ZM641.806 572.87C642.286 572.87 644.203 574.548 646.001 576.465C647.799 578.503 648.997 580.78 648.518 581.619C648.039 582.578 646.481 581.739 643.844 578.862C641.567 576.585 640.009 574.308 640.368 573.829C640.728 573.349 641.327 572.87 641.806 572.87ZM158.098 575.267C158.697 575.267 159.416 575.866 159.656 576.465C160.015 577.185 158.577 579.342 156.42 581.259C153.903 583.417 152.105 584.375 151.267 583.656C150.547 582.937 151.386 581.259 153.663 578.862C155.581 576.945 157.618 575.267 158.098 575.267ZM635.814 578.982C636.293 578.982 638.211 580.301 640.009 581.978C641.806 583.536 643.245 585.454 643.245 586.053C643.245 586.772 642.645 587.252 641.806 587.252C640.967 587.252 639.05 586.053 637.612 584.615C636.054 583.057 634.855 581.259 634.855 580.42C634.855 579.581 635.335 578.982 635.814 578.982ZM164.09 581.259C164.69 581.259 165.289 581.739 165.648 582.218C166.008 582.698 164.45 584.975 162.173 587.252C159.416 590.128 157.978 590.967 157.379 590.008C157.019 589.169 158.098 586.892 159.896 584.855C161.693 582.937 163.611 581.259 164.09 581.259ZM630.061 584.855C630.78 584.855 632.578 586.413 634.256 588.211C635.934 590.008 637.252 591.926 637.252 592.405C637.252 592.885 636.653 593.364 635.814 593.364C634.975 593.364 633.057 591.686 631.619 589.769C630.061 587.731 628.863 585.814 628.863 585.454C628.863 585.214 629.462 584.855 630.061 584.855ZM170.083 587.252C170.682 587.252 171.281 587.731 171.641 588.211C172 588.69 170.442 590.967 168.165 593.244C165.409 596.121 163.97 596.959 163.371 596.001C163.012 595.162 164.09 592.885 165.888 590.847C167.686 588.93 169.603 587.252 170.083 587.252ZM628.024 592.885C629.822 594.802 631.38 596.959 631.38 597.798C631.26 598.637 630.9 599.356 630.421 599.356C629.941 599.356 628.024 597.679 626.226 595.761C624.428 593.724 623.35 591.566 623.709 590.847C624.309 590.008 625.867 590.727 628.024 592.885ZM176.075 593.244C176.674 593.244 177.034 593.963 177.034 594.802C177.034 595.641 175.835 597.559 174.397 598.997C172.839 600.555 171.042 601.753 170.203 601.753C169.364 601.753 168.525 601.274 168.405 600.795C168.285 600.435 169.723 598.518 171.641 596.6C173.558 594.802 175.596 593.244 176.075 593.244ZM617.837 595.641C618.316 595.641 620.234 597.319 622.031 599.237C623.829 601.274 625.028 603.431 624.668 604.031C624.428 604.75 622.511 603.791 620.473 601.993C618.556 600.195 616.878 598.038 616.878 597.199C616.878 596.36 617.357 595.641 617.837 595.641ZM181.948 598.038C182.547 598.038 183.026 598.757 183.026 599.596C183.026 600.435 181.708 602.712 180.15 604.63C178.472 606.787 176.794 607.866 175.955 607.386C175.116 606.787 175.716 605.109 177.753 602.233C179.551 599.956 181.348 598.038 181.948 598.038ZM611.844 601.634C612.324 601.634 614.241 603.311 616.039 605.229C617.837 607.266 619.035 609.424 618.676 610.023C618.436 610.742 616.518 609.783 614.481 607.986C612.563 606.188 610.885 604.031 610.885 603.192C610.885 602.353 611.365 601.634 611.844 601.634ZM187.7 604.031C188.06 604.031 188.899 604.27 189.378 604.63C189.858 604.989 188.779 607.147 186.981 609.424C185.184 611.701 183.266 613.259 182.787 613.019C182.307 612.66 181.828 612.06 181.708 611.461C181.708 610.862 182.787 608.944 184.225 607.266C185.663 605.469 187.221 604.031 187.7 604.031ZM605.852 606.428C606.331 606.428 608.249 608.345 610.047 610.622C612.444 613.738 612.923 615.057 611.844 615.656C610.885 616.135 608.968 614.817 607.05 612.42C605.253 610.143 604.054 607.866 604.414 607.386C604.773 606.907 605.372 606.428 605.852 606.428ZM195.131 608.825C195.73 608.825 196.21 609.304 196.21 609.783C196.21 610.263 195.011 612.42 193.573 614.577C192.015 616.734 190.457 618.412 189.978 618.412C189.498 618.412 188.779 617.933 188.42 617.214C188.18 616.615 189.258 614.457 190.936 612.42C192.614 610.502 194.532 608.825 195.131 608.825ZM602.736 614.817C604.653 617.214 606.211 619.491 606.092 619.97C606.092 620.45 605.492 620.929 604.653 620.929C603.814 620.929 601.897 619.251 600.459 617.334C598.901 615.296 598.062 613.019 598.541 612.18C599.14 611.102 600.459 612.06 602.736 614.817ZM201.243 613.618C201.843 613.618 202.442 614.098 202.801 614.577C203.041 615.057 201.962 617.214 200.404 619.371C198.727 621.528 196.929 623.206 196.21 623.206C195.61 623.206 195.011 622.727 195.011 622.008C195.011 621.409 196.21 619.251 197.648 617.214C199.086 615.296 200.644 613.618 201.243 613.618ZM592.669 616.015C593.148 616.135 594.946 617.933 596.504 620.33C598.501 623.126 599.1 624.924 598.301 625.723C597.582 626.442 596.024 625.364 593.867 622.367C592.069 619.851 590.991 617.454 591.23 616.974C591.59 616.495 592.189 616.015 592.669 616.015ZM208.794 619.491C209.633 620.33 209.153 621.768 207.356 624.405C205.798 626.442 203.88 628 202.801 628C201.843 628 201.004 627.641 201.004 627.281C200.884 626.802 202.322 624.644 204.24 622.367C206.517 619.611 207.955 618.652 208.794 619.491ZM588.953 624.045C590.511 625.963 591.71 628.12 591.71 628.959C591.71 629.798 591.35 630.637 590.871 630.996C590.391 631.236 588.714 629.678 587.275 627.401C585.717 625.124 584.998 622.607 585.478 621.888C586.077 621.049 587.275 621.768 588.953 624.045ZM214.307 623.206C214.906 623.206 215.625 623.686 215.985 624.165C216.224 624.644 215.385 626.802 213.827 628.959C212.389 631.116 210.592 632.794 209.753 632.794C208.914 632.794 208.195 632.555 208.075 632.075C207.955 631.716 209.033 629.558 210.472 627.281C212.03 625.124 213.708 623.206 214.307 623.206ZM579.485 625.723C579.965 625.723 581.523 627.521 583.081 629.918C584.519 632.195 585.717 634.352 585.717 634.592C585.717 634.951 584.998 635.191 583.92 635.191C582.961 635.191 581.163 633.513 579.845 631.356C578.526 629.199 577.807 627.041 578.167 626.562C578.407 626.083 579.006 625.603 579.485 625.723ZM221.378 628C222.097 628 222.576 628.599 222.576 629.199C222.576 629.918 221.618 632.075 220.539 634.113C219.34 636.03 217.782 637.708 216.943 637.708C216.105 637.588 215.385 637.229 215.385 636.749C215.385 636.27 216.464 634.112 217.782 631.955C219.101 629.798 220.779 628 221.378 628ZM572.774 630.397C573.373 630.397 574.811 632.195 576.129 634.352C577.448 636.509 578.526 638.667 578.526 639.146C578.526 639.626 577.807 639.985 576.729 639.985C575.77 639.985 573.852 638.187 572.534 635.79C571.216 633.513 570.497 631.356 570.976 630.996C571.455 630.757 572.174 630.397 572.774 630.397ZM229.288 632.674C230.127 633.513 229.767 635.191 228.089 637.828C226.771 639.865 224.973 641.783 224.134 642.023C223.415 642.262 222.576 641.903 222.457 641.064C222.337 640.345 223.535 637.828 225.093 635.671C227.131 632.794 228.329 631.835 229.288 632.674ZM565.343 633.993C565.703 633.993 567.261 636.15 568.699 638.787C570.377 641.663 570.976 643.94 570.257 644.3C569.538 644.539 568.819 644.659 568.699 644.539C568.459 644.419 567.141 642.382 565.703 640.105C564.264 637.708 563.425 635.431 563.905 634.951C564.264 634.472 564.984 634.113 565.343 633.993ZM235.88 636.51C236.479 636.51 237.078 636.989 237.078 637.708C237.078 638.307 235.999 640.704 234.681 643.101C233.363 645.378 231.685 646.936 231.086 646.697C230.367 646.337 229.887 645.618 229.887 645.139C229.887 644.659 230.966 642.502 232.284 640.345C233.602 638.187 235.16 636.51 235.88 636.51ZM558.272 638.906C558.871 638.906 560.549 640.584 561.867 642.742C563.066 644.899 564.145 647.056 564.264 647.536C564.264 648.015 563.426 648.494 562.467 648.494C561.508 648.494 559.83 646.816 558.871 644.899C557.912 642.861 557.074 640.704 557.074 640.105C557.074 639.386 557.553 638.906 558.272 638.906ZM243.43 640.824C243.909 641.423 243.43 643.94 242.232 646.337C241.033 648.854 239.715 650.891 239.115 650.891C238.636 650.891 238.037 650.292 237.677 649.693C237.318 648.974 238.277 646.577 239.715 644.18C241.153 641.783 242.831 640.345 243.43 640.824ZM551.321 642.502C551.8 642.502 553.358 644.659 554.677 647.296C556.714 651.371 556.834 652.09 555.276 652.689C554.077 653.049 552.639 651.73 551.081 648.734C549.763 646.217 549.044 643.82 549.523 643.341C549.883 642.861 550.722 642.502 551.321 642.502ZM250.621 644.419C251.22 645.019 250.741 647.296 249.542 649.693C248.464 651.97 247.385 654.007 247.145 654.127C246.906 654.247 246.067 654.127 245.467 653.888C244.748 653.528 245.348 651.251 246.906 648.255C248.464 645.498 250.022 643.82 250.621 644.419ZM543.77 645.978C544.13 645.978 545.448 648.015 546.647 650.532C548.085 653.408 548.325 655.446 547.605 656.284C546.886 657.004 545.568 655.805 544.01 652.689C542.692 650.052 541.853 647.416 542.332 646.936C542.692 646.457 543.411 646.097 543.77 645.978ZM258.052 648.375C258.89 649.213 258.531 651.011 257.093 653.888C256.014 656.165 254.456 658.082 253.857 658.082C253.138 658.082 252.658 657.483 252.658 656.884C252.658 656.165 253.617 653.768 254.696 651.371C256.134 648.374 257.213 647.536 258.052 648.375ZM536.1 649.693C537.059 649.693 538.617 651.61 539.576 654.127C540.534 656.644 541.014 659.041 540.774 659.52C540.534 660 539.935 660.479 539.336 660.479C538.857 660.479 537.538 658.562 536.34 656.284C535.261 653.888 534.302 651.491 534.302 650.891C534.302 650.172 535.141 649.693 536.1 649.693ZM264.523 650.771C264.883 650.771 265.602 651.011 266.081 651.371C266.681 651.73 266.081 654.247 264.883 656.884C263.804 659.52 262.486 661.678 261.887 661.678C261.407 661.678 260.808 661.078 260.449 660.479C260.089 659.76 260.688 657.363 261.767 655.086C262.845 652.689 264.164 650.771 264.523 650.771ZM528.55 653.168C529.389 653.168 530.827 655.086 531.546 657.363C532.385 659.76 532.744 662.277 532.265 663.116C531.785 664.075 530.707 663.116 529.389 660.479C528.19 658.082 527.231 655.565 527.111 654.727C527.111 653.888 527.83 653.288 528.55 653.168ZM272.553 654.487C273.512 654.487 274.231 654.966 274.231 655.685C274.231 656.284 273.392 658.562 272.313 660.719C271.235 662.876 270.156 664.794 269.917 664.914C269.677 665.033 268.838 664.914 268.239 664.674C267.52 664.195 267.759 662.277 268.958 659.281C270.036 656.644 271.714 654.487 272.553 654.487ZM521.359 655.685C521.838 655.685 523.156 657.843 524.115 660.479C525.074 663.116 525.913 665.513 525.913 665.872C525.913 666.112 525.194 666.472 524.355 666.472C523.636 666.472 521.958 664.314 520.759 661.678C519.681 659.041 519.082 656.524 519.561 656.284C519.92 655.925 520.759 655.685 521.359 655.685ZM279.744 658.082C280.703 658.082 281.422 658.562 281.422 659.281C281.422 659.88 280.583 662.397 279.624 664.914C278.426 667.91 277.347 668.988 276.628 668.269C275.909 667.43 275.909 665.393 276.868 662.517C277.587 660 278.905 658.082 279.744 658.082ZM513.209 659.281C514.407 659.281 515.606 660.959 516.445 663.715C517.284 666.831 517.284 668.629 516.445 669.468C515.606 670.187 514.887 669.708 514.168 667.67C513.569 665.992 512.61 663.356 512.13 661.917C511.531 659.88 511.771 659.281 513.209 659.281ZM287.894 660.479C288.613 660.479 288.972 661.678 288.733 663.116C288.493 664.554 287.774 667.071 287.295 668.509C286.695 669.947 285.856 671.266 285.257 671.266C284.778 671.266 284.059 671.026 283.459 670.666C282.98 670.307 283.459 667.91 284.538 665.273C285.617 662.636 287.055 660.479 287.894 660.479ZM505.539 661.678C506.138 661.678 507.217 662.876 507.816 664.314C508.295 665.753 509.134 668.269 509.614 669.708C510.093 671.625 509.853 672.464 508.535 672.464C507.576 672.464 506.138 670.666 505.539 668.509C504.82 666.352 504.34 663.955 504.34 663.116C504.34 662.277 504.82 661.678 505.539 661.678ZM295.804 662.876C296.403 662.876 297.002 663.475 297.002 664.314C297.002 665.153 296.523 667.55 295.804 669.708C295.085 671.865 293.766 673.663 292.808 673.663C291.489 673.663 291.25 672.824 291.729 670.906C292.208 669.468 292.927 666.951 293.527 665.513C294.126 664.075 295.085 662.876 295.804 662.876ZM498.587 664.075C499.307 664.075 500.385 665.992 500.865 668.509C501.464 671.026 501.943 673.423 501.943 673.902C501.943 674.382 501.224 674.861 500.385 674.861C499.666 674.861 498.348 672.824 497.509 670.307C496.67 667.91 496.31 665.393 496.67 664.914C497.029 664.434 497.868 664.075 498.587 664.075ZM302.875 665.153C303.234 665.153 303.954 665.513 304.433 665.872C305.032 666.232 304.912 668.629 304.193 671.266C303.474 674.142 302.276 676.06 301.197 676.06C300.238 676.06 299.399 675.58 299.399 675.101C299.399 674.621 299.998 672.224 300.718 669.708C301.437 667.191 302.395 665.153 302.875 665.153ZM490.198 666.472C490.677 666.472 491.636 668.15 492.355 670.307C493.074 672.464 493.554 674.861 493.554 675.7C493.554 676.539 492.835 677.258 491.996 677.258C491.277 677.258 489.719 675.101 488.88 672.464C487.921 669.827 487.561 667.43 488.161 667.071C488.64 666.711 489.599 666.472 490.198 666.472ZM311.384 667.67C312.103 667.67 312.583 668.749 312.583 670.067C312.583 671.385 311.983 673.782 311.384 675.46C310.665 677.018 309.586 678.456 308.987 678.456C308.268 678.456 308.028 676.539 308.508 673.902C308.867 671.385 309.467 668.988 309.706 668.509C310.066 668.03 310.785 667.67 311.384 667.67ZM482.288 668.869C483.846 668.869 484.445 670.067 484.805 673.902C485.045 676.659 484.925 679.295 484.565 679.655C484.206 679.895 483.487 679.655 482.887 679.056C482.288 678.337 481.449 675.82 481.09 673.303C480.371 669.588 480.61 668.869 482.288 668.869ZM319.294 670.067C320.253 670.067 320.972 670.666 320.972 671.505C320.972 672.344 320.493 674.741 319.773 676.898C319.054 679.056 317.976 680.853 317.377 680.853C316.657 680.853 316.178 680.134 316.178 679.295C316.178 678.456 316.418 676.06 316.897 673.902C317.257 671.745 318.335 670.067 319.294 670.067ZM327.084 671.266C327.684 671.266 328.403 671.625 328.642 672.224C328.882 672.824 328.642 675.221 328.043 677.617C327.444 680.254 326.245 682.052 325.167 682.052C324.088 682.052 323.609 681.213 323.848 679.895C324.208 678.696 324.807 676.299 325.167 674.501C325.646 672.704 326.485 671.266 327.084 671.266ZM473.659 671.266C474.738 671.266 475.816 672.464 476.176 673.902C476.415 675.34 476.895 677.617 477.015 678.936C477.254 680.134 476.655 681.333 475.816 681.573C474.977 681.812 474.138 680.614 473.659 678.696C473.299 676.898 472.82 674.501 472.46 673.303C471.981 671.945 472.381 671.266 473.659 671.266ZM466.228 672.464C466.708 672.464 467.427 673.063 467.667 673.902C467.906 674.741 468.505 677.138 468.865 679.295C469.344 682.052 469.105 683.25 468.026 683.25C467.307 683.25 465.749 681.093 464.91 678.456C463.951 675.82 463.592 673.423 464.191 673.063C464.67 672.704 465.629 672.464 466.228 672.464ZM335.354 673.663C336.073 673.663 336.552 674.861 336.552 676.299C336.552 677.737 336.193 680.254 335.953 681.692C335.594 683.131 334.515 684.449 333.556 684.449C332.597 684.449 331.758 683.97 331.758 683.49C331.758 683.011 332.358 680.614 332.957 678.097C333.676 675.58 334.755 673.663 335.354 673.663ZM458.918 674.382C459.277 674.981 459.996 677.378 460.476 679.895C461.075 683.49 460.835 684.449 459.397 684.449C458.199 684.449 457.36 682.891 457 680.254C456.641 677.857 456.76 675.46 457.24 674.741C457.719 674.022 458.438 673.902 458.918 674.382ZM343.743 674.861C344.462 674.861 344.942 676.06 344.942 677.498C344.942 678.936 344.582 681.453 344.342 682.891C343.983 684.329 342.904 685.647 341.945 685.647C340.507 685.647 340.268 684.689 340.867 681.093C341.346 678.576 341.826 676.179 342.185 675.7C342.425 675.221 343.144 674.861 343.743 674.861ZM351.533 676.06C352.492 676.06 353.331 676.659 353.331 677.498C353.331 678.337 352.972 680.734 352.492 682.891C351.893 685.168 350.814 686.846 349.736 686.846C348.297 686.846 348.178 686.007 348.897 682.891C349.376 680.734 349.736 678.337 349.736 677.498C349.736 676.659 350.575 676.06 351.533 676.06ZM443.577 680.494C444.176 683.011 444.296 685.647 443.937 686.486C443.577 687.325 442.858 688.044 442.259 688.044C441.779 688.044 440.82 685.767 440.221 682.891C439.262 678.816 439.382 677.737 440.701 677.018C442.019 676.299 442.738 677.138 443.577 680.494ZM449.809 676.06C451.487 676.06 452.206 677.018 452.446 679.895C452.685 682.052 452.805 684.449 452.805 685.288C452.805 686.127 451.966 686.846 451.008 686.846C450.049 686.846 449.21 686.127 449.21 685.288C449.21 684.449 448.85 682.052 448.371 679.895C447.772 676.659 448.011 676.06 449.809 676.06ZM359.683 677.258C360.642 677.258 361.121 678.337 360.882 679.895C360.762 681.333 360.522 683.85 360.522 685.288C360.522 687.086 359.803 688.044 358.365 688.044C356.687 688.044 356.447 687.445 357.286 684.089C357.765 681.932 358.125 679.535 358.125 678.696C358.125 677.857 358.844 677.258 359.683 677.258ZM433.989 677.258C434.708 677.258 435.427 678.936 435.787 681.093C436.027 683.25 436.027 686.127 435.547 687.445C435.068 688.883 434.349 689.363 433.749 688.644C433.15 687.924 432.311 685.408 431.712 683.011C431.113 680.614 431.233 678.337 431.832 677.977C432.311 677.498 433.39 677.258 433.989 677.258ZM367.833 678.456C368.432 678.456 368.911 680.853 368.911 683.85C368.911 687.805 368.432 689.243 367.114 689.243C366.155 689.243 365.316 688.524 365.316 687.685C365.316 686.846 365.556 684.449 366.035 682.292C366.395 680.134 367.234 678.456 367.833 678.456ZM376.222 678.456C376.821 678.456 377.301 680.853 377.301 683.85C377.301 687.805 376.821 689.243 375.503 689.243C374.544 689.243 373.705 688.524 373.705 687.685C373.705 686.846 373.945 684.449 374.424 682.292C374.784 680.134 375.623 678.456 376.222 678.456ZM418.289 679.056C418.888 679.415 419.368 681.932 419.368 684.449C419.248 687.805 418.768 689.243 417.45 689.243C416.132 689.243 415.532 687.805 415.413 684.569C415.293 682.052 415.652 679.655 416.132 679.295C416.731 678.816 417.69 678.816 418.289 679.056ZM425.24 678.456C425.839 678.456 426.678 679.176 427.038 680.254C427.397 681.213 427.637 683.61 427.637 685.647C427.637 688.044 427.038 689.243 425.839 689.243C424.521 689.243 424.042 687.805 424.042 683.85C424.042 680.853 424.521 678.456 425.24 678.456ZM384.132 679.655C385.091 679.655 385.69 681.213 385.69 684.449C385.69 687.924 385.211 689.243 383.892 689.243C382.574 689.243 382.095 687.924 382.334 684.449C382.454 681.333 383.053 679.655 384.132 679.655ZM392.162 679.655C393.6 679.655 394.08 680.973 394.08 685.048C394.08 688.763 393.6 690.321 392.522 689.962C391.802 689.842 390.964 687.325 390.724 684.569C390.364 680.734 390.724 679.655 392.162 679.655ZM400.671 679.655C401.99 679.655 402.469 680.973 402.469 684.449C402.469 687.086 401.87 689.483 401.27 689.842C400.551 690.082 399.832 689.602 399.473 688.644C399.113 687.565 398.874 685.168 398.874 683.25C398.874 680.853 399.473 679.655 400.671 679.655ZM408.941 679.655C410.379 679.655 410.738 680.734 410.499 684.689C410.379 687.445 409.66 689.842 409.061 689.842C408.342 689.842 407.742 687.445 407.503 684.689C407.143 680.734 407.503 679.655 408.941 679.655Z" fill="black" fill-opacity="0.2"/>
</svg>
