<svg width="800" height="800" viewBox="0 0 800 800" fill="none" xmlns="http://www.w3.org/2000/svg">
<path d="M190.936 403.243C190.457 400.846 189.498 399.288 188.42 399.288C187.341 399.288 186.622 400.487 186.622 402.284C186.622 403.962 188.539 411.153 190.817 418.224C193.213 425.295 198.127 437.28 201.723 444.831C205.318 452.381 211.311 463.167 215.026 468.8C218.741 474.433 223.655 481.384 226.052 484.381C228.329 487.377 233.243 493.129 236.958 497.085C240.554 501.159 246.906 507.631 251.1 511.466L258.651 518.537L267.999 507.751C252.778 492.89 245.587 485.339 242.351 481.504C236.838 475.152 236.119 474.553 233.602 475.871C232.164 476.59 230.367 476.95 229.767 476.59C229.048 476.231 225.453 471.197 221.618 465.444C217.902 459.572 212.389 449.624 209.393 443.272C205.678 435.243 203.401 431.767 201.843 431.767C200.404 431.647 199.086 429.61 197.528 425.415C196.33 421.939 194.532 416.426 193.453 413.071C192.375 409.835 191.296 405.4 190.936 403.243Z" fill="#F4F4F4"/>
<path d="M190.936 403.243C190.457 400.846 189.498 399.288 188.42 399.288C187.341 399.288 186.622 400.487 186.622 402.284C186.622 403.962 188.539 411.153 190.817 418.224C193.213 425.295 198.127 437.28 201.723 444.831C205.318 452.381 211.311 463.167 215.026 468.8C218.741 474.433 223.655 481.384 226.052 484.381C228.329 487.377 233.243 493.129 236.958 497.085C240.554 501.159 246.906 507.631 251.1 511.466L258.651 518.537L267.999 507.751C252.778 492.89 245.587 485.339 242.351 481.504C236.838 475.152 236.119 474.553 233.602 475.871C232.164 476.59 230.367 476.95 229.767 476.59C229.048 476.231 225.453 471.197 221.618 465.444C217.902 459.572 212.389 449.624 209.393 443.272C205.678 435.243 203.401 431.767 201.843 431.767C200.404 431.647 199.086 429.61 197.528 425.415C196.33 421.939 194.532 416.426 193.453 413.071C192.375 409.835 191.296 405.4 190.936 403.243Z" fill="black" fill-opacity="0.2"/>
<path d="M224.734 490.013C225.932 488.455 225.812 487.976 224.494 487.976C223.535 487.976 222.457 488.455 222.217 488.935C221.857 489.414 222.217 490.733 223.056 491.931C224.015 493.369 225.213 493.729 226.771 493.249C228.808 492.53 228.928 492.65 227.73 494.088C226.531 495.526 226.651 496.246 228.329 497.923C230.247 499.961 230.486 499.961 232.164 498.043C233.842 496.246 233.722 496.126 230.966 496.965C228.569 497.684 228.209 497.564 229.528 496.246C230.726 494.927 230.606 494.208 229.168 492.53C228.089 491.212 226.651 490.733 225.333 491.212C223.535 491.931 223.415 491.811 224.734 490.013Z" fill="#F4F4F4"/>
<path d="M224.734 490.013C225.932 488.455 225.812 487.976 224.494 487.976C223.535 487.976 222.457 488.455 222.217 488.935C221.857 489.414 222.217 490.733 223.056 491.931C224.015 493.369 225.213 493.729 226.771 493.249C228.808 492.53 228.928 492.65 227.73 494.088C226.531 495.526 226.651 496.246 228.329 497.923C230.247 499.961 230.486 499.961 232.164 498.043C233.842 496.246 233.722 496.126 230.966 496.965C228.569 497.684 228.209 497.564 229.528 496.246C230.726 494.927 230.606 494.208 229.168 492.53C228.089 491.212 226.651 490.733 225.333 491.212C223.535 491.931 223.415 491.811 224.734 490.013Z" fill="black" fill-opacity="0.2"/>
<path d="M625.267 359.498C625.267 354.345 624.788 350.15 624.309 350.15C623.709 350.15 622.75 350.51 622.271 350.989C621.672 351.349 621.312 355.064 621.432 359.019C621.552 363.094 620.833 372.322 619.874 379.513C618.796 386.824 616.638 397.85 615.08 404.082C613.522 410.314 610.526 420.381 608.489 426.254C606.331 432.246 602.256 441.954 599.38 447.827C596.504 453.819 590.511 464.246 585.957 471.197C581.403 478.148 573.732 488.695 568.699 494.568C563.665 500.56 556.954 507.871 553.838 510.867C550.602 513.863 545.928 518.058 543.411 520.095C539.456 523.571 538.737 523.811 536.819 522.133C535.741 521.174 534.182 520.335 533.583 520.335C532.864 520.335 529.149 522.612 525.194 525.489C521.239 528.365 514.048 533.159 509.254 536.035C502.902 539.87 500.745 541.788 501.224 543.106C501.943 544.664 501.823 544.664 499.906 543.106C497.988 541.428 497.988 541.548 498.707 544.904C499.426 547.9 499.067 548.859 496.79 550.417C495.232 551.496 489.119 554.252 483.247 556.529C477.254 558.926 470.064 561.683 467.067 562.642C464.071 563.6 458.199 565.278 453.884 566.237C449.569 567.316 443.337 568.634 440.101 569.353C436.746 570.072 429.195 571.151 423.323 571.87C417.33 572.469 406.064 573.068 398.154 573.068C390.244 573.068 377.54 572.229 369.99 571.271C362.44 570.312 350.814 568.155 344.223 566.477C337.631 564.919 326.605 561.443 319.654 558.806C310.425 555.331 306.83 554.372 306.231 555.451C305.751 556.29 305.751 557.248 306.231 557.728C306.71 558.087 312.223 560.365 318.455 562.642C324.687 565.039 335.234 568.274 341.826 569.952C348.417 571.63 359.204 573.907 365.795 574.866C373.466 576.185 385.211 576.904 398.754 576.784C412.057 576.784 424.042 576.185 431.712 574.866C438.304 573.907 448.85 571.75 455.082 570.192C461.315 568.514 470.543 565.758 475.457 563.96C480.37 562.282 488.52 558.926 493.434 556.769C500.265 553.653 502.662 553.054 503.262 554.132C503.741 554.971 504.22 556.17 504.22 556.649C504.22 557.129 504.82 557.488 505.659 557.488C506.497 557.488 509.853 556.05 513.209 554.372C516.445 552.574 523.876 548.02 529.628 544.185C535.381 540.23 540.415 536.634 540.774 535.915C541.134 535.316 539.695 532.44 537.658 529.683L533.943 524.53C541.014 532.56 543.531 534.597 544.01 534.238C544.489 533.878 544.01 532.2 542.812 530.522C540.774 527.526 540.774 527.526 546.767 522.492C550.002 519.856 556.714 513.504 561.628 508.47C566.422 503.436 573.852 495.047 577.927 489.774C582.122 484.5 588.234 475.632 591.71 469.999C595.185 464.366 600.698 454.418 603.934 447.827C607.17 441.235 611.844 429.37 614.361 421.46C616.998 413.55 619.874 403.003 620.953 398.09C621.912 393.176 623.35 384.547 623.949 378.914C624.668 373.281 625.267 364.532 625.267 359.498Z" fill="#F4F4F4"/>
<path d="M625.267 359.498C625.267 354.345 624.788 350.15 624.309 350.15C623.709 350.15 622.75 350.51 622.271 350.989C621.672 351.349 621.312 355.064 621.432 359.019C621.552 363.094 620.833 372.322 619.874 379.513C618.796 386.824 616.638 397.85 615.08 404.082C613.522 410.314 610.526 420.381 608.489 426.254C606.331 432.246 602.256 441.954 599.38 447.827C596.504 453.819 590.511 464.246 585.957 471.197C581.403 478.148 573.732 488.695 568.699 494.568C563.665 500.56 556.954 507.871 553.838 510.867C550.602 513.863 545.928 518.058 543.411 520.095C539.456 523.571 538.737 523.811 536.819 522.133C535.741 521.174 534.182 520.335 533.583 520.335C532.864 520.335 529.149 522.612 525.194 525.489C521.239 528.365 514.048 533.159 509.254 536.035C502.902 539.87 500.745 541.788 501.224 543.106C501.943 544.664 501.823 544.664 499.906 543.106C497.988 541.428 497.988 541.548 498.707 544.904C499.426 547.9 499.067 548.859 496.79 550.417C495.232 551.496 489.119 554.252 483.247 556.529C477.254 558.926 470.064 561.683 467.067 562.642C464.071 563.6 458.199 565.278 453.884 566.237C449.569 567.316 443.337 568.634 440.101 569.353C436.746 570.072 429.195 571.151 423.323 571.87C417.33 572.469 406.064 573.068 398.154 573.068C390.244 573.068 377.54 572.229 369.99 571.271C362.44 570.312 350.814 568.155 344.223 566.477C337.631 564.919 326.605 561.443 319.654 558.806C310.425 555.331 306.83 554.372 306.231 555.451C305.751 556.29 305.751 557.248 306.231 557.728C306.71 558.087 312.223 560.365 318.455 562.642C324.687 565.039 335.234 568.274 341.826 569.952C348.417 571.63 359.204 573.907 365.795 574.866C373.466 576.185 385.211 576.904 398.754 576.784C412.057 576.784 424.042 576.185 431.712 574.866C438.304 573.907 448.85 571.75 455.082 570.192C461.315 568.514 470.543 565.758 475.457 563.96C480.37 562.282 488.52 558.926 493.434 556.769C500.265 553.653 502.662 553.054 503.262 554.132C503.741 554.971 504.22 556.17 504.22 556.649C504.22 557.129 504.82 557.488 505.659 557.488C506.497 557.488 509.853 556.05 513.209 554.372C516.445 552.574 523.876 548.02 529.628 544.185C535.381 540.23 540.415 536.634 540.774 535.915C541.134 535.316 539.695 532.44 537.658 529.683L533.943 524.53C541.014 532.56 543.531 534.597 544.01 534.238C544.489 533.878 544.01 532.2 542.812 530.522C540.774 527.526 540.774 527.526 546.767 522.492C550.002 519.856 556.714 513.504 561.628 508.47C566.422 503.436 573.852 495.047 577.927 489.774C582.122 484.5 588.234 475.632 591.71 469.999C595.185 464.366 600.698 454.418 603.934 447.827C607.17 441.235 611.844 429.37 614.361 421.46C616.998 413.55 619.874 403.003 620.953 398.09C621.912 393.176 623.35 384.547 623.949 378.914C624.668 373.281 625.267 364.532 625.267 359.498Z" fill="black" fill-opacity="0.2"/>
</svg>
