<svg width="800" height="800" viewBox="0 0 800 800" fill="none" xmlns="http://www.w3.org/2000/svg">
<path d="M285.257 608.064C282.381 606.626 279.385 605.428 278.306 605.428C277.347 605.428 276.508 606.147 276.508 606.986C276.508 607.824 279.864 610.102 284.059 612.019C288.133 613.937 295.804 617.053 301.077 618.97C306.35 620.888 317.976 624.364 326.845 626.641C335.833 628.918 350.335 631.794 359.204 633.113C370.709 634.671 382.215 635.39 398.514 635.39C419.727 635.39 421.525 635.27 421.525 633.352C421.525 631.435 420.207 631.315 405.705 631.674C396.956 631.914 383.053 631.555 374.784 630.716C366.634 629.996 353.93 628.199 346.62 626.88C339.429 625.562 327.803 622.806 320.852 620.888C314.021 618.851 304.313 615.734 299.279 613.937C294.366 612.019 288.014 609.383 285.257 608.064Z" fill="#F4F4F4"/>
<path d="M285.257 608.064C282.381 606.626 279.385 605.428 278.306 605.428C277.347 605.428 276.508 606.147 276.508 606.986C276.508 607.824 279.864 610.102 284.059 612.019C288.133 613.937 295.804 617.053 301.077 618.97C306.35 620.888 317.976 624.364 326.845 626.641C335.833 628.918 350.335 631.794 359.204 633.113C370.709 634.671 382.215 635.39 398.514 635.39C419.727 635.39 421.525 635.27 421.525 633.352C421.525 631.435 420.207 631.315 405.705 631.674C396.956 631.914 383.053 631.555 374.784 630.716C366.634 629.996 353.93 628.199 346.62 626.88C339.429 625.562 327.803 622.806 320.852 620.888C314.021 618.851 304.313 615.734 299.279 613.937C294.366 612.019 288.014 609.383 285.257 608.064Z" fill="black" fill-opacity="0.2"/>
<path d="M385.333 41.0609C386.291 41.78 386.651 41.0609 386.531 38.6639C386.411 35.428 386.651 35.3082 391.924 35.0685C396.479 34.8288 397.437 35.1883 396.958 36.6265C396.598 37.5853 396.838 38.4242 397.557 38.4242C398.156 38.4242 398.756 39.5029 398.756 40.8212C398.756 42.8586 397.917 43.2182 392.763 43.2182C389.408 43.2182 386.411 43.338 385.932 43.4579C385.572 43.6976 384.853 42.9785 384.494 42.0197C384.094 40.8212 384.374 40.5016 385.333 41.0609Z" fill="#F4F4F4"/>
<path d="M385.333 41.0609C386.291 41.78 386.651 41.0609 386.531 38.6639C386.411 35.428 386.651 35.3082 391.924 35.0685C396.479 34.8288 397.437 35.1883 396.958 36.6265C396.598 37.5853 396.838 38.4242 397.557 38.4242C398.156 38.4242 398.756 39.5029 398.756 40.8212C398.756 42.8586 397.917 43.2182 392.763 43.2182C389.408 43.2182 386.411 43.338 385.932 43.4579C385.572 43.6976 384.853 42.9785 384.494 42.0197C384.094 40.8212 384.374 40.5016 385.333 41.0609Z" fill="black" fill-opacity="0.2"/>
<path fill-rule="evenodd" clip-rule="evenodd" d="M375.863 36.0273C377.66 36.0273 378.14 36.8663 378.02 39.8625C377.9 42.0198 377.061 43.9373 375.982 44.2969C374.664 44.6564 374.424 44.2969 375.143 42.8587C375.623 41.6602 375.503 41.061 374.784 41.4205C374.185 41.7801 373.585 40.7014 373.585 39.0236C373.585 36.8663 374.185 36.0273 375.863 36.0273ZM330.8 42.2595C331.638 42.619 332.477 44.6564 332.717 46.9336C333.077 50.6489 332.837 50.8886 330.56 50.0496C329.122 49.5702 328.043 49.6901 328.043 50.4092C328.043 51.1283 326.964 51.368 325.646 51.0084C324.328 50.6489 323.249 50.8886 323.249 51.6076C323.249 52.3267 322.29 52.8061 321.212 52.8061C319.773 52.8061 319.534 52.4865 320.493 51.8473C321.332 51.368 321.691 49.8099 321.451 48.2519C321.092 46.574 320.373 45.9748 319.414 46.4542C318.375 47.0934 318.176 46.8936 318.815 45.8549C319.294 45.1358 320.253 44.6564 320.852 45.016C321.571 45.3755 323.129 45.016 324.567 44.177C326.845 42.8587 326.964 42.9786 325.406 44.8961C324.088 46.6939 324.088 46.9336 326.006 46.8137C327.084 46.8137 328.283 45.7351 328.642 44.2969C329.002 42.8587 329.961 42.0198 330.8 42.2595ZM310.665 48.0122C311.624 48.0122 312.822 49.4504 313.182 51.2481C313.541 53.1657 313.541 54.8436 313.182 55.2031C312.822 55.5626 311.624 55.4428 310.665 54.8436C309.706 54.3642 308.867 52.6863 308.867 51.0084C308.867 49.0908 309.586 48.0122 310.665 48.0122ZM269.797 66.349C270.875 68.1467 271.475 69.9445 271.115 70.4239C270.755 71.0231 270.516 70.6636 270.516 69.8246C270.516 69.1055 269.557 68.3864 268.478 68.3864C267.28 68.2666 265.482 69.1055 264.523 70.1842C262.965 71.862 262.965 72.1017 265.123 72.1017C266.92 71.9819 266.681 72.4613 263.924 73.7796C262.007 74.8583 259.849 75.5773 259.13 75.5773C258.531 75.5773 258.771 74.9781 259.729 74.3789C260.928 73.5799 261.048 73.1804 260.089 73.1804C259.25 73.1804 258.531 72.3414 258.531 71.2628C258.531 70.0643 258.052 69.8246 257.093 70.4239C256.134 71.0631 255.894 70.7834 256.374 69.5849C256.733 68.6261 257.812 67.907 259.01 68.0269C260.089 68.2666 260.928 67.7872 260.928 67.188C260.928 66.4689 262.007 65.7498 263.325 65.3902C264.643 65.0307 265.962 65.2704 266.321 65.9895C266.681 66.5887 267.52 67.188 268.119 67.188C268.838 67.188 268.958 66.2292 268.598 65.0307C268.239 63.952 268.838 64.4314 269.797 66.2292V66.349ZM248.823 73.3002C250.261 73.3002 251.58 74.1392 251.939 75.0979C252.299 76.0567 252.538 77.7346 252.538 78.6934C252.538 79.6522 251.7 80.4911 250.741 80.4911C249.782 80.4911 248.943 79.8919 248.943 79.2926C248.943 78.6934 249.662 78.4537 250.501 78.9331C251.34 79.2926 251.46 79.1728 250.98 78.5736C250.381 77.9743 249.303 77.4949 248.583 77.4949C247.745 77.4949 247.025 76.5361 246.786 75.3376C246.426 73.8995 247.145 73.3002 248.823 73.3002ZM210.831 97.2699C211.67 97.2699 212.988 98.5883 213.827 100.266C215.146 102.783 215.146 103.382 213.827 104.101C212.869 104.581 211.311 105.779 210.352 106.858C208.674 108.416 208.195 108.416 206.517 106.858C204.719 105.3 204.479 105.3 204.599 107.098C204.599 108.296 205.198 109.255 206.037 109.255C206.996 109.255 207.116 109.694 206.397 110.573C205.678 111.292 204.479 111.532 203.76 111.172C202.801 110.693 202.562 109.495 203.041 107.697C203.76 105.54 203.52 105.18 201.843 105.899C200.644 106.498 199.805 106.378 199.805 105.659C199.805 105.06 200.644 104.461 201.603 104.461C202.562 104.461 203.64 103.622 204 102.663C204.359 101.704 205.438 100.865 206.397 100.865C207.356 100.865 208.434 100.026 208.794 99.0676C209.033 98.1089 209.992 97.2699 210.831 97.2699ZM194.772 110.453C196.449 110.453 196.569 110.693 195.011 111.532C193.573 112.371 193.693 112.73 195.97 113.33C197.408 113.689 198.607 114.888 198.607 115.846C198.607 116.805 197.768 117.644 196.809 117.644C195.85 117.644 194.172 116.446 193.213 114.888C192.255 113.45 191.775 111.891 192.135 111.292C192.494 110.813 193.693 110.453 194.772 110.453ZM162.053 142.812C163.132 142.812 163.851 144.011 163.851 145.809C163.851 147.486 164.45 148.565 165.049 148.206C165.768 147.846 165.409 148.925 164.45 150.603C163.491 152.28 162.173 153.599 161.454 153.599C160.854 153.599 160.495 152.76 160.854 151.801C161.214 150.842 160.974 150.003 160.255 150.003C159.656 150.003 158.577 151.202 158.098 152.64C157.139 155.277 157.019 155.277 155.222 150.603L154.383 152.999C153.903 154.318 153.184 154.797 152.825 154.198C152.345 153.599 153.424 151.561 154.982 149.644C156.54 147.846 157.858 147.007 157.858 147.606C157.858 148.206 158.937 148.805 160.255 148.805C161.933 148.805 162.652 147.966 162.652 146.048C162.652 144.011 162.412 143.771 161.454 145.209C160.854 146.168 160.135 146.648 159.776 146.048C159.416 145.569 159.296 144.61 159.656 144.011C160.135 143.412 161.214 142.812 162.053 142.812ZM148.031 158.393C148.51 158.393 150.188 159.351 151.746 160.55C153.304 161.629 154.263 163.187 153.783 164.026C153.424 164.864 152.585 165.584 151.866 165.584C151.267 165.584 150.907 164.984 151.267 164.385C151.626 163.786 151.147 163.546 150.428 163.906C149.589 164.265 148.15 163.666 147.431 162.707C146.592 161.629 146.113 160.19 146.473 159.591C146.952 158.992 147.551 158.393 148.031 158.393ZM131.252 178.767C131.731 178.767 133.888 179.846 136.046 181.164C139.761 183.441 139.761 183.681 138.083 186.557C137.124 188.235 135.566 189.553 134.847 189.553C134.008 189.553 131.971 188.714 130.293 187.516C128.615 186.437 127.057 185.359 126.698 185.239C126.338 184.999 127.057 183.441 128.256 181.763C129.334 180.085 130.772 178.767 131.252 178.767ZM90.3835 266.616L95.4171 267.934C100.091 269.133 100.451 269.492 100.091 272.848C99.7317 276.204 99.492 276.443 94.9377 276.084C92.301 275.964 89.7842 275.365 89.4247 274.885C89.0651 274.406 89.0651 272.369 89.5445 270.331L90.3835 266.616ZM85.8292 302.211C87.5071 302.211 90.0239 302.57 91.3423 302.93C93.4995 303.529 93.6194 304.128 92.5407 310.361C91.9415 314.196 91.4621 332.533 91.4621 351.349C91.4621 381.67 91.7018 387.183 94.2186 400.487C95.6568 408.756 98.4133 421.46 100.331 428.651C102.129 435.962 105.604 447.228 108.001 453.819C110.398 460.411 112.316 466.044 112.316 466.403C112.316 466.763 110.278 467.722 107.762 468.561C105.365 469.519 102.968 469.759 102.488 469.16C101.889 468.68 99.6118 462.808 97.2148 456.216C94.9377 449.624 91.9415 440.156 90.6232 435.243C89.3048 430.329 86.9079 419.782 85.3498 411.872C83.7918 403.962 81.9941 392.097 81.275 385.506C80.6757 378.914 79.717 368.367 79.3574 362.135C78.878 355.903 79.1177 342.72 79.8368 332.772C80.5559 322.945 81.5147 312.038 81.8742 308.563C82.5933 302.69 82.833 302.211 85.8292 302.211ZM115.072 473.714C115.552 473.714 116.51 474.673 117.11 475.991C117.829 477.309 118.308 478.987 118.308 479.587C118.308 480.306 116.271 481.864 109.32 485.459L107.881 482.583C107.042 480.905 106.204 479.107 106.084 478.388C105.964 477.789 107.762 476.471 110.039 475.512C112.316 474.553 114.593 473.834 115.072 473.714ZM121.304 488.096C122.023 487.976 123.222 489.414 124.061 491.332C124.9 493.129 125.499 494.688 125.259 494.807C125.14 494.807 123.222 495.766 121.065 496.845C118.907 497.923 116.87 498.762 116.51 498.762C116.271 498.762 115.192 497.324 114.233 495.526C112.675 492.291 112.675 492.171 116.391 490.133C118.428 489.055 120.705 488.096 121.304 488.096ZM672.008 495.167C672.488 495.167 672.727 495.766 672.488 496.365C672.248 497.085 672.727 497.324 673.566 497.085C674.405 496.725 675.843 496.965 676.802 497.564C678.001 498.163 678.36 499.362 677.761 500.56C676.922 502.238 676.443 502.238 673.207 500.56C670.81 499.362 669.851 498.163 670.33 496.965C670.69 496.006 671.529 495.167 672.008 495.167ZM129.095 501.279C129.454 501.159 130.413 502.478 131.252 504.156C132.091 505.833 132.69 507.511 132.69 507.751C132.69 508.111 130.892 509.429 128.495 510.747C126.218 512.066 124.181 513.264 124.061 513.264C123.821 513.264 122.982 511.586 121.904 509.669C120.945 507.631 120.465 505.833 120.705 505.594C121.065 505.354 122.982 504.275 124.9 503.197C126.937 502.118 128.855 501.279 129.095 501.279ZM667.094 503.556C667.454 503.556 668.293 504.515 669.012 505.474C669.971 507.032 669.851 507.272 668.173 506.672C666.735 506.273 666.016 506.632 666.016 507.751C666.016 508.83 665.417 509.788 664.578 510.028C663.379 510.268 663.379 510.508 664.578 511.227C665.417 511.586 666.855 511.227 667.814 510.148C668.892 509.189 669.611 508.83 669.611 509.309C669.611 509.788 670.45 509.429 671.409 508.35C672.847 507.152 673.327 507.032 673.327 508.111C673.327 508.949 672.488 509.908 671.409 510.148C670.45 510.508 669.851 511.227 670.211 511.706C670.45 512.185 670.091 513.384 669.491 514.343C668.413 515.901 668.293 515.781 668.892 514.103C669.372 512.904 669.252 511.946 668.772 511.946C668.293 511.946 666.975 512.665 665.776 513.504C664.338 514.582 663.978 515.541 664.817 516.74C665.616 517.938 666.016 518.058 666.016 517.099C666.016 516.26 666.615 515.901 667.214 516.14C667.933 516.5 668.173 517.339 667.814 517.938C667.574 518.657 666.495 519.137 665.417 519.137C664.458 519.137 663.379 518.058 663.02 516.74C662.66 515.421 661.821 514.702 660.982 515.062C660.143 515.421 660.263 515.062 661.222 514.223C662.301 513.264 663.139 512.066 663.139 511.346C663.139 510.747 663.859 508.71 664.817 506.912C665.656 505.114 666.735 503.556 667.094 503.556ZM136.405 514.343C137.005 514.343 139.761 517.818 142.518 521.893C145.274 525.968 150.188 532.919 153.424 537.114C156.66 541.428 164.69 550.896 171.401 558.087C178.232 565.398 187.94 575.226 193.213 579.9C198.487 584.694 207.715 592.124 213.588 596.679C219.58 601.113 229.288 607.825 235.16 611.54C241.153 615.255 252.059 621.367 259.49 625.083C266.92 628.798 278.186 633.951 284.658 636.468C291.01 639.105 300.957 642.581 306.47 644.378C312.103 646.056 322.65 648.813 329.841 650.491C337.152 652.049 348.297 654.206 354.769 655.165C361.121 656.243 369.151 656.962 372.387 656.962C375.743 656.962 378.619 657.442 378.979 657.921C379.218 658.401 379.099 659.479 378.619 660.318C378.02 661.636 375.503 661.636 365.795 660.558C359.204 659.839 349.017 658.401 343.024 657.442C337.152 656.363 327.444 654.326 321.451 652.768C315.579 651.21 304.193 647.734 296.283 645.097C288.373 642.341 277.107 638.026 271.115 635.39C265.242 632.753 253.857 627 245.947 622.566C238.037 618.012 228.089 612.019 223.775 609.143C219.58 606.266 210.951 599.795 204.599 594.881C198.367 589.847 186.862 579.66 179.071 571.99C171.281 564.32 160.615 552.694 155.341 546.103C150.188 539.511 143.237 530.163 139.881 525.129C136.645 520.215 134.248 515.781 134.608 515.301C134.967 514.822 135.806 514.343 136.405 514.343ZM638.091 551.855C639.649 553.293 640.608 554.971 640.248 555.451C639.889 555.93 639.05 556.409 638.211 556.409C637.372 556.409 635.814 555.451 634.615 554.252C633.057 552.694 632.818 551.855 633.896 550.657C635.095 549.458 635.934 549.698 638.091 551.855ZM629.102 557.009C629.822 557.368 630.301 558.687 630.181 560.005C630.101 561.603 630.661 562.162 631.859 561.683C632.938 561.443 633.657 561.563 633.657 562.042C633.657 562.522 631.499 565.039 624.069 572.469L621.672 570.072C620.354 568.754 619.275 567.076 619.275 566.237C619.275 565.398 620.114 564.679 621.073 564.679C622.151 564.679 622.87 564.2 622.87 563.481C622.87 562.881 623.589 562.761 624.428 563.241C625.267 563.72 625.507 563.6 625.028 562.881C624.548 562.282 625.028 560.484 626.106 559.046C627.065 557.488 628.503 556.649 629.102 557.009ZM587.875 594.881C588.833 595.121 590.272 596.079 590.871 597.038C591.59 598.117 591.71 599.914 591.35 601.233C590.511 603.63 590.391 603.63 587.395 600.634C585.478 598.836 584.639 597.038 585.118 596.079C585.597 595.24 586.916 594.761 587.875 594.881ZM579.845 600.753C580.204 600.753 580.564 601.113 580.564 601.592C580.684 602.072 580.804 603.51 580.804 604.828C580.923 606.866 581.163 606.986 582.002 605.428C582.841 604.109 583.201 603.989 583.8 605.188C584.279 606.027 583.68 607.345 582.721 608.184C581.642 609.023 580.923 609.263 580.923 608.783C580.923 608.304 579.845 608.903 578.526 610.221C576.849 612.019 575.65 612.379 574.332 611.42C573.013 610.581 572.534 610.821 572.294 612.259C572.055 613.937 571.575 613.697 567.74 607.825L571.455 608.783C574.452 609.502 575.051 609.263 575.051 607.585C574.931 606.386 574.332 605.428 573.493 605.428C572.654 605.428 573.613 604.469 575.53 603.15C577.568 601.952 579.485 600.873 579.845 600.753ZM531.186 629.397C532.265 629.397 533.583 630.716 534.302 632.154C535.261 634.071 535.261 635.15 534.302 635.989C533.344 636.828 532.385 636.468 531.186 634.79C530.227 633.472 529.389 631.794 529.389 630.955C529.389 630.116 530.227 629.397 531.186 629.397ZM522.198 633.113C522.797 633.113 523.037 633.592 522.797 634.311C522.557 634.91 522.557 636.229 522.917 637.307C523.276 638.266 524.115 638.626 524.954 638.146C525.913 637.587 526.153 637.906 525.673 639.105C525.314 640.064 524.115 640.663 523.037 640.543C521.958 640.423 521.119 640.783 521.119 641.502C521.119 642.101 520.52 642.7 519.921 642.7C519.201 642.7 518.962 642.101 519.321 641.502C519.681 640.783 519.082 640.303 518.123 640.303C517.164 640.303 516.085 641.382 515.726 642.7C515.366 644.019 514.527 645.097 513.928 645.097C513.209 645.097 512.13 643.659 511.531 642.101C510.812 640.423 510.572 638.506 510.932 637.906C511.291 637.187 512.01 636.708 512.49 636.708C513.089 636.708 513.329 637.307 512.969 638.146C512.73 638.985 513.209 638.745 514.168 637.547C515.007 636.348 516.685 635.51 517.883 635.51C518.962 635.51 520.16 634.91 520.52 634.311C520.879 633.592 521.718 633.113 522.198 633.113ZM471.502 652.648C472.341 654.086 473.06 655.884 473.18 656.723C473.18 657.562 472.101 658.281 470.783 658.281C469.105 658.281 468.146 657.202 467.667 654.925C467.307 653.007 467.667 651.329 468.505 650.85C469.464 650.251 470.663 650.97 471.502 652.648ZM460.236 652.408C460.835 652.288 461.195 652.768 461.195 653.487C461.195 654.086 460.476 654.206 459.757 653.727C458.678 653.127 458.438 653.487 459.157 654.925C459.637 656.123 459.996 657.562 459.996 658.281C459.996 658.88 460.476 659.12 461.195 658.88C461.794 658.52 462.393 658.76 462.393 659.479C462.393 660.078 461.315 660.318 459.996 660.078C458.678 659.719 457.36 659.959 457 660.678C456.641 661.277 455.442 661.517 454.243 661.277C453.165 660.917 451.367 661.277 450.408 662.116C448.85 663.434 448.85 663.434 450.408 661.517C451.966 659.599 451.966 659.359 450.049 659.359C448.97 659.359 448.011 658.88 448.011 658.281C448.011 657.562 448.491 657.322 449.21 657.681C449.809 657.921 450.408 657.681 450.408 657.082C450.408 656.363 449.689 655.524 448.85 655.284C448.131 654.925 448.611 654.925 450.049 655.284C451.607 655.524 452.805 655.284 452.805 654.685C452.805 653.966 454.243 653.247 456.041 653.007C457.959 652.768 459.757 652.528 460.236 652.408ZM424.162 654.805C424.521 654.685 424.641 655.884 424.281 657.322C423.922 658.76 422.723 662.475 421.645 665.472C420.446 668.348 419.008 670.985 418.409 671.104C417.929 671.344 416.012 668.468 414.094 664.872C412.297 661.157 410.858 657.681 410.858 657.082C410.858 656.363 413.735 655.644 417.09 655.404C420.566 655.284 423.802 654.925 424.162 654.805ZM389.286 657.082C392.522 657.082 395.278 657.322 395.278 657.681C395.278 657.921 393.96 660.917 392.282 664.273C390.604 667.509 389.046 670.266 388.686 670.266C388.327 670.266 387.009 667.749 385.69 664.872C384.372 661.876 383.293 658.88 383.293 658.281C383.293 657.562 385.93 657.082 389.286 657.082Z" fill="#F4F4F4"/>
<path fill-rule="evenodd" clip-rule="evenodd" d="M375.863 36.0273C377.66 36.0273 378.14 36.8663 378.02 39.8625C377.9 42.0198 377.061 43.9373 375.982 44.2969C374.664 44.6564 374.424 44.2969 375.143 42.8587C375.623 41.6602 375.503 41.061 374.784 41.4205C374.185 41.7801 373.585 40.7014 373.585 39.0236C373.585 36.8663 374.185 36.0273 375.863 36.0273ZM330.8 42.2595C331.638 42.619 332.477 44.6564 332.717 46.9336C333.077 50.6489 332.837 50.8886 330.56 50.0496C329.122 49.5702 328.043 49.6901 328.043 50.4092C328.043 51.1283 326.964 51.368 325.646 51.0084C324.328 50.6489 323.249 50.8886 323.249 51.6076C323.249 52.3267 322.29 52.8061 321.212 52.8061C319.773 52.8061 319.534 52.4865 320.493 51.8473C321.332 51.368 321.691 49.8099 321.451 48.2519C321.092 46.574 320.373 45.9748 319.414 46.4542C318.375 47.0934 318.176 46.8936 318.815 45.8549C319.294 45.1358 320.253 44.6564 320.852 45.016C321.571 45.3755 323.129 45.016 324.567 44.177C326.845 42.8587 326.964 42.9786 325.406 44.8961C324.088 46.6939 324.088 46.9336 326.006 46.8137C327.084 46.8137 328.283 45.7351 328.642 44.2969C329.002 42.8587 329.961 42.0198 330.8 42.2595ZM310.665 48.0122C311.624 48.0122 312.822 49.4504 313.182 51.2481C313.541 53.1657 313.541 54.8436 313.182 55.2031C312.822 55.5626 311.624 55.4428 310.665 54.8436C309.706 54.3642 308.867 52.6863 308.867 51.0084C308.867 49.0908 309.586 48.0122 310.665 48.0122ZM269.797 66.349C270.875 68.1467 271.475 69.9445 271.115 70.4239C270.755 71.0231 270.516 70.6636 270.516 69.8246C270.516 69.1055 269.557 68.3864 268.478 68.3864C267.28 68.2666 265.482 69.1055 264.523 70.1842C262.965 71.862 262.965 72.1017 265.123 72.1017C266.92 71.9819 266.681 72.4613 263.924 73.7796C262.007 74.8583 259.849 75.5773 259.13 75.5773C258.531 75.5773 258.771 74.9781 259.729 74.3789C260.928 73.5799 261.048 73.1804 260.089 73.1804C259.25 73.1804 258.531 72.3414 258.531 71.2628C258.531 70.0643 258.052 69.8246 257.093 70.4239C256.134 71.0631 255.894 70.7834 256.374 69.5849C256.733 68.6261 257.812 67.907 259.01 68.0269C260.089 68.2666 260.928 67.7872 260.928 67.188C260.928 66.4689 262.007 65.7498 263.325 65.3902C264.643 65.0307 265.962 65.2704 266.321 65.9895C266.681 66.5887 267.52 67.188 268.119 67.188C268.838 67.188 268.958 66.2292 268.598 65.0307C268.239 63.952 268.838 64.4314 269.797 66.2292V66.349ZM248.823 73.3002C250.261 73.3002 251.58 74.1392 251.939 75.0979C252.299 76.0567 252.538 77.7346 252.538 78.6934C252.538 79.6522 251.7 80.4911 250.741 80.4911C249.782 80.4911 248.943 79.8919 248.943 79.2926C248.943 78.6934 249.662 78.4537 250.501 78.9331C251.34 79.2926 251.46 79.1728 250.98 78.5736C250.381 77.9743 249.303 77.4949 248.583 77.4949C247.745 77.4949 247.025 76.5361 246.786 75.3376C246.426 73.8995 247.145 73.3002 248.823 73.3002ZM210.831 97.2699C211.67 97.2699 212.988 98.5883 213.827 100.266C215.146 102.783 215.146 103.382 213.827 104.101C212.869 104.581 211.311 105.779 210.352 106.858C208.674 108.416 208.195 108.416 206.517 106.858C204.719 105.3 204.479 105.3 204.599 107.098C204.599 108.296 205.198 109.255 206.037 109.255C206.996 109.255 207.116 109.694 206.397 110.573C205.678 111.292 204.479 111.532 203.76 111.172C202.801 110.693 202.562 109.495 203.041 107.697C203.76 105.54 203.52 105.18 201.843 105.899C200.644 106.498 199.805 106.378 199.805 105.659C199.805 105.06 200.644 104.461 201.603 104.461C202.562 104.461 203.64 103.622 204 102.663C204.359 101.704 205.438 100.865 206.397 100.865C207.356 100.865 208.434 100.026 208.794 99.0676C209.033 98.1089 209.992 97.2699 210.831 97.2699ZM194.772 110.453C196.449 110.453 196.569 110.693 195.011 111.532C193.573 112.371 193.693 112.73 195.97 113.33C197.408 113.689 198.607 114.888 198.607 115.846C198.607 116.805 197.768 117.644 196.809 117.644C195.85 117.644 194.172 116.446 193.213 114.888C192.255 113.45 191.775 111.891 192.135 111.292C192.494 110.813 193.693 110.453 194.772 110.453ZM162.053 142.812C163.132 142.812 163.851 144.011 163.851 145.809C163.851 147.486 164.45 148.565 165.049 148.206C165.768 147.846 165.409 148.925 164.45 150.603C163.491 152.28 162.173 153.599 161.454 153.599C160.854 153.599 160.495 152.76 160.854 151.801C161.214 150.842 160.974 150.003 160.255 150.003C159.656 150.003 158.577 151.202 158.098 152.64C157.139 155.277 157.019 155.277 155.222 150.603L154.383 152.999C153.903 154.318 153.184 154.797 152.825 154.198C152.345 153.599 153.424 151.561 154.982 149.644C156.54 147.846 157.858 147.007 157.858 147.606C157.858 148.206 158.937 148.805 160.255 148.805C161.933 148.805 162.652 147.966 162.652 146.048C162.652 144.011 162.412 143.771 161.454 145.209C160.854 146.168 160.135 146.648 159.776 146.048C159.416 145.569 159.296 144.61 159.656 144.011C160.135 143.412 161.214 142.812 162.053 142.812ZM148.031 158.393C148.51 158.393 150.188 159.351 151.746 160.55C153.304 161.629 154.263 163.187 153.783 164.026C153.424 164.864 152.585 165.584 151.866 165.584C151.267 165.584 150.907 164.984 151.267 164.385C151.626 163.786 151.147 163.546 150.428 163.906C149.589 164.265 148.15 163.666 147.431 162.707C146.592 161.629 146.113 160.19 146.473 159.591C146.952 158.992 147.551 158.393 148.031 158.393ZM131.252 178.767C131.731 178.767 133.888 179.846 136.046 181.164C139.761 183.441 139.761 183.681 138.083 186.557C137.124 188.235 135.566 189.553 134.847 189.553C134.008 189.553 131.971 188.714 130.293 187.516C128.615 186.437 127.057 185.359 126.698 185.239C126.338 184.999 127.057 183.441 128.256 181.763C129.334 180.085 130.772 178.767 131.252 178.767ZM90.3835 266.616L95.4171 267.934C100.091 269.133 100.451 269.492 100.091 272.848C99.7317 276.204 99.492 276.443 94.9377 276.084C92.301 275.964 89.7842 275.365 89.4247 274.885C89.0651 274.406 89.0651 272.369 89.5445 270.331L90.3835 266.616ZM85.8292 302.211C87.5071 302.211 90.0239 302.57 91.3423 302.93C93.4995 303.529 93.6194 304.128 92.5407 310.361C91.9415 314.196 91.4621 332.533 91.4621 351.349C91.4621 381.67 91.7018 387.183 94.2186 400.487C95.6568 408.756 98.4133 421.46 100.331 428.651C102.129 435.962 105.604 447.228 108.001 453.819C110.398 460.411 112.316 466.044 112.316 466.403C112.316 466.763 110.278 467.722 107.762 468.561C105.365 469.519 102.968 469.759 102.488 469.16C101.889 468.68 99.6118 462.808 97.2148 456.216C94.9377 449.624 91.9415 440.156 90.6232 435.243C89.3048 430.329 86.9079 419.782 85.3498 411.872C83.7918 403.962 81.9941 392.097 81.275 385.506C80.6757 378.914 79.717 368.367 79.3574 362.135C78.878 355.903 79.1177 342.72 79.8368 332.772C80.5559 322.945 81.5147 312.038 81.8742 308.563C82.5933 302.69 82.833 302.211 85.8292 302.211ZM115.072 473.714C115.552 473.714 116.51 474.673 117.11 475.991C117.829 477.309 118.308 478.987 118.308 479.587C118.308 480.306 116.271 481.864 109.32 485.459L107.881 482.583C107.042 480.905 106.204 479.107 106.084 478.388C105.964 477.789 107.762 476.471 110.039 475.512C112.316 474.553 114.593 473.834 115.072 473.714ZM121.304 488.096C122.023 487.976 123.222 489.414 124.061 491.332C124.9 493.129 125.499 494.688 125.259 494.807C125.14 494.807 123.222 495.766 121.065 496.845C118.907 497.923 116.87 498.762 116.51 498.762C116.271 498.762 115.192 497.324 114.233 495.526C112.675 492.291 112.675 492.171 116.391 490.133C118.428 489.055 120.705 488.096 121.304 488.096ZM672.008 495.167C672.488 495.167 672.727 495.766 672.488 496.365C672.248 497.085 672.727 497.324 673.566 497.085C674.405 496.725 675.843 496.965 676.802 497.564C678.001 498.163 678.36 499.362 677.761 500.56C676.922 502.238 676.443 502.238 673.207 500.56C670.81 499.362 669.851 498.163 670.33 496.965C670.69 496.006 671.529 495.167 672.008 495.167ZM129.095 501.279C129.454 501.159 130.413 502.478 131.252 504.156C132.091 505.833 132.69 507.511 132.69 507.751C132.69 508.111 130.892 509.429 128.495 510.747C126.218 512.066 124.181 513.264 124.061 513.264C123.821 513.264 122.982 511.586 121.904 509.669C120.945 507.631 120.465 505.833 120.705 505.594C121.065 505.354 122.982 504.275 124.9 503.197C126.937 502.118 128.855 501.279 129.095 501.279ZM667.094 503.556C667.454 503.556 668.293 504.515 669.012 505.474C669.971 507.032 669.851 507.272 668.173 506.672C666.735 506.273 666.016 506.632 666.016 507.751C666.016 508.83 665.417 509.788 664.578 510.028C663.379 510.268 663.379 510.508 664.578 511.227C665.417 511.586 666.855 511.227 667.814 510.148C668.892 509.189 669.611 508.83 669.611 509.309C669.611 509.788 670.45 509.429 671.409 508.35C672.847 507.152 673.327 507.032 673.327 508.111C673.327 508.949 672.488 509.908 671.409 510.148C670.45 510.508 669.851 511.227 670.211 511.706C670.45 512.185 670.091 513.384 669.491 514.343C668.413 515.901 668.293 515.781 668.892 514.103C669.372 512.904 669.252 511.946 668.772 511.946C668.293 511.946 666.975 512.665 665.776 513.504C664.338 514.582 663.978 515.541 664.817 516.74C665.616 517.938 666.016 518.058 666.016 517.099C666.016 516.26 666.615 515.901 667.214 516.14C667.933 516.5 668.173 517.339 667.814 517.938C667.574 518.657 666.495 519.137 665.417 519.137C664.458 519.137 663.379 518.058 663.02 516.74C662.66 515.421 661.821 514.702 660.982 515.062C660.143 515.421 660.263 515.062 661.222 514.223C662.301 513.264 663.139 512.066 663.139 511.346C663.139 510.747 663.859 508.71 664.817 506.912C665.656 505.114 666.735 503.556 667.094 503.556ZM136.405 514.343C137.005 514.343 139.761 517.818 142.518 521.893C145.274 525.968 150.188 532.919 153.424 537.114C156.66 541.428 164.69 550.896 171.401 558.087C178.232 565.398 187.94 575.226 193.213 579.9C198.487 584.694 207.715 592.124 213.588 596.679C219.58 601.113 229.288 607.825 235.16 611.54C241.153 615.255 252.059 621.367 259.49 625.083C266.92 628.798 278.186 633.951 284.658 636.468C291.01 639.105 300.957 642.581 306.47 644.378C312.103 646.056 322.65 648.813 329.841 650.491C337.152 652.049 348.297 654.206 354.769 655.165C361.121 656.243 369.151 656.962 372.387 656.962C375.743 656.962 378.619 657.442 378.979 657.921C379.218 658.401 379.099 659.479 378.619 660.318C378.02 661.636 375.503 661.636 365.795 660.558C359.204 659.839 349.017 658.401 343.024 657.442C337.152 656.363 327.444 654.326 321.451 652.768C315.579 651.21 304.193 647.734 296.283 645.097C288.373 642.341 277.107 638.026 271.115 635.39C265.242 632.753 253.857 627 245.947 622.566C238.037 618.012 228.089 612.019 223.775 609.143C219.58 606.266 210.951 599.795 204.599 594.881C198.367 589.847 186.862 579.66 179.071 571.99C171.281 564.32 160.615 552.694 155.341 546.103C150.188 539.511 143.237 530.163 139.881 525.129C136.645 520.215 134.248 515.781 134.608 515.301C134.967 514.822 135.806 514.343 136.405 514.343ZM638.091 551.855C639.649 553.293 640.608 554.971 640.248 555.451C639.889 555.93 639.05 556.409 638.211 556.409C637.372 556.409 635.814 555.451 634.615 554.252C633.057 552.694 632.818 551.855 633.896 550.657C635.095 549.458 635.934 549.698 638.091 551.855ZM629.102 557.009C629.822 557.368 630.301 558.687 630.181 560.005C630.101 561.603 630.661 562.162 631.859 561.683C632.938 561.443 633.657 561.563 633.657 562.042C633.657 562.522 631.499 565.039 624.069 572.469L621.672 570.072C620.354 568.754 619.275 567.076 619.275 566.237C619.275 565.398 620.114 564.679 621.073 564.679C622.151 564.679 622.87 564.2 622.87 563.481C622.87 562.881 623.589 562.761 624.428 563.241C625.267 563.72 625.507 563.6 625.028 562.881C624.548 562.282 625.028 560.484 626.106 559.046C627.065 557.488 628.503 556.649 629.102 557.009ZM587.875 594.881C588.833 595.121 590.272 596.079 590.871 597.038C591.59 598.117 591.71 599.914 591.35 601.233C590.511 603.63 590.391 603.63 587.395 600.634C585.478 598.836 584.639 597.038 585.118 596.079C585.597 595.24 586.916 594.761 587.875 594.881ZM579.845 600.753C580.204 600.753 580.564 601.113 580.564 601.592C580.684 602.072 580.804 603.51 580.804 604.828C580.923 606.866 581.163 606.986 582.002 605.428C582.841 604.109 583.201 603.989 583.8 605.188C584.279 606.027 583.68 607.345 582.721 608.184C581.642 609.023 580.923 609.263 580.923 608.783C580.923 608.304 579.845 608.903 578.526 610.221C576.849 612.019 575.65 612.379 574.332 611.42C573.013 610.581 572.534 610.821 572.294 612.259C572.055 613.937 571.575 613.697 567.74 607.825L571.455 608.783C574.452 609.502 575.051 609.263 575.051 607.585C574.931 606.386 574.332 605.428 573.493 605.428C572.654 605.428 573.613 604.469 575.53 603.15C577.568 601.952 579.485 600.873 579.845 600.753ZM531.186 629.397C532.265 629.397 533.583 630.716 534.302 632.154C535.261 634.071 535.261 635.15 534.302 635.989C533.344 636.828 532.385 636.468 531.186 634.79C530.227 633.472 529.389 631.794 529.389 630.955C529.389 630.116 530.227 629.397 531.186 629.397ZM522.198 633.113C522.797 633.113 523.037 633.592 522.797 634.311C522.557 634.91 522.557 636.229 522.917 637.307C523.276 638.266 524.115 638.626 524.954 638.146C525.913 637.587 526.153 637.906 525.673 639.105C525.314 640.064 524.115 640.663 523.037 640.543C521.958 640.423 521.119 640.783 521.119 641.502C521.119 642.101 520.52 642.7 519.921 642.7C519.201 642.7 518.962 642.101 519.321 641.502C519.681 640.783 519.082 640.303 518.123 640.303C517.164 640.303 516.085 641.382 515.726 642.7C515.366 644.019 514.527 645.097 513.928 645.097C513.209 645.097 512.13 643.659 511.531 642.101C510.812 640.423 510.572 638.506 510.932 637.906C511.291 637.187 512.01 636.708 512.49 636.708C513.089 636.708 513.329 637.307 512.969 638.146C512.73 638.985 513.209 638.745 514.168 637.547C515.007 636.348 516.685 635.51 517.883 635.51C518.962 635.51 520.16 634.91 520.52 634.311C520.879 633.592 521.718 633.113 522.198 633.113ZM471.502 652.648C472.341 654.086 473.06 655.884 473.18 656.723C473.18 657.562 472.101 658.281 470.783 658.281C469.105 658.281 468.146 657.202 467.667 654.925C467.307 653.007 467.667 651.329 468.505 650.85C469.464 650.251 470.663 650.97 471.502 652.648ZM460.236 652.408C460.835 652.288 461.195 652.768 461.195 653.487C461.195 654.086 460.476 654.206 459.757 653.727C458.678 653.127 458.438 653.487 459.157 654.925C459.637 656.123 459.996 657.562 459.996 658.281C459.996 658.88 460.476 659.12 461.195 658.88C461.794 658.52 462.393 658.76 462.393 659.479C462.393 660.078 461.315 660.318 459.996 660.078C458.678 659.719 457.36 659.959 457 660.678C456.641 661.277 455.442 661.517 454.243 661.277C453.165 660.917 451.367 661.277 450.408 662.116C448.85 663.434 448.85 663.434 450.408 661.517C451.966 659.599 451.966 659.359 450.049 659.359C448.97 659.359 448.011 658.88 448.011 658.281C448.011 657.562 448.491 657.322 449.21 657.681C449.809 657.921 450.408 657.681 450.408 657.082C450.408 656.363 449.689 655.524 448.85 655.284C448.131 654.925 448.611 654.925 450.049 655.284C451.607 655.524 452.805 655.284 452.805 654.685C452.805 653.966 454.243 653.247 456.041 653.007C457.959 652.768 459.757 652.528 460.236 652.408ZM424.162 654.805C424.521 654.685 424.641 655.884 424.281 657.322C423.922 658.76 422.723 662.475 421.645 665.472C420.446 668.348 419.008 670.985 418.409 671.104C417.929 671.344 416.012 668.468 414.094 664.872C412.297 661.157 410.858 657.681 410.858 657.082C410.858 656.363 413.735 655.644 417.09 655.404C420.566 655.284 423.802 654.925 424.162 654.805ZM389.286 657.082C392.522 657.082 395.278 657.322 395.278 657.681C395.278 657.921 393.96 660.917 392.282 664.273C390.604 667.509 389.046 670.266 388.686 670.266C388.327 670.266 387.009 667.749 385.69 664.872C384.372 661.876 383.293 658.88 383.293 658.281C383.293 657.562 385.93 657.082 389.286 657.082Z" fill="black" fill-opacity="0.2"/>
</svg>
