<svg width="304" height="85" viewBox="0 0 304 85" fill="none" xmlns="http://www.w3.org/2000/svg">
<path d="M6.156 28.554C6.156 30.606 6.624 32.082 7.56 32.982C8.532 33.882 9.738 34.566 11.178 35.034C12.654 35.466 14.832 35.772 17.712 35.952C20.628 36.096 23.418 36.222 26.082 36.33C28.782 36.438 30.924 36.582 32.508 36.762C34.128 36.942 35.604 37.338 36.936 37.95C38.304 38.526 39.24 39.408 39.744 40.596C40.284 41.784 40.554 43.314 40.554 45.186C40.554 48.426 39.726 50.838 38.07 52.422C36.45 54.006 34.434 55.05 32.022 55.554C29.646 56.094 26.532 56.364 22.68 56.364C18.72 56.364 15.39 56.076 12.69 55.5C9.99 54.888 7.686 53.718 5.778 51.99C3.906 50.262 2.97 47.238 2.97 42.918H5.886C5.886 47.13 7.29 49.992 10.098 51.504C12.942 52.98 17.028 53.718 22.356 53.718C28.296 53.718 32.328 53.034 34.452 51.666C36.576 50.262 37.638 48.156 37.638 45.348C37.638 43.98 37.278 42.738 36.558 41.622C35.838 40.506 34.29 39.768 31.914 39.408C29.574 39.048 26.964 38.814 24.084 38.706C21.24 38.598 19.098 38.526 17.658 38.49C16.254 38.418 14.382 38.238 12.042 37.95C9.738 37.662 8.01 37.23 6.858 36.654C5.742 36.042 4.806 35.106 4.05 33.846C3.33 32.586 2.97 30.786 2.97 28.446C2.97 25.746 3.636 23.676 4.968 22.236C6.3 20.76 8.37 19.698 11.178 19.05C14.022 18.402 17.514 18.078 21.654 18.078C25.902 18.078 29.25 18.42 31.698 19.104C34.146 19.788 36.216 21.048 37.908 22.884C39.6 24.684 40.446 27.348 40.446 30.876H37.584C37.584 27.312 36.216 24.738 33.48 23.154C30.78 21.57 26.928 20.778 21.924 20.778C17.424 20.778 13.662 21.228 10.638 22.128C7.65 23.028 6.156 25.17 6.156 28.554ZM46.4759 55.5V18.78H49.6619V55.5H46.4759ZM48.9599 55.5V52.908H79.0379V55.5H48.9599ZM48.9599 21.372V18.78H79.0379V21.372H48.9599ZM48.9599 38.112V35.574H78.0119V38.112H48.9599ZM84.972 55.5V18.78H88.158V55.5H84.972ZM87.456 55.5V52.908H117.534V55.5H87.456ZM87.456 21.372V18.78H117.534V21.372H87.456ZM87.456 38.112V35.574H116.508V38.112H87.456ZM134.806 55.5V18.78H137.992V55.5H134.806ZM137.29 55.5V52.908H167.368V55.5H137.29ZM137.29 21.372V18.78H167.368V21.372H137.29ZM137.29 38.112V35.574H166.342V38.112H137.29ZM173.302 55.5V18.78H176.488V55.5H173.302ZM207.214 55.5V18.78H210.346V55.5H207.214ZM206.782 55.5L173.302 18.78H176.866L210.346 55.5H206.782ZM219.467 28.554C219.467 30.606 219.935 32.082 220.871 32.982C221.843 33.882 223.049 34.566 224.489 35.034C225.965 35.466 228.143 35.772 231.023 35.952C233.939 36.096 236.729 36.222 239.393 36.33C242.093 36.438 244.235 36.582 245.819 36.762C247.439 36.942 248.915 37.338 250.247 37.95C251.615 38.526 252.551 39.408 253.055 40.596C253.595 41.784 253.865 43.314 253.865 45.186C253.865 48.426 253.037 50.838 251.381 52.422C249.761 54.006 247.745 55.05 245.333 55.554C242.957 56.094 239.843 56.364 235.991 56.364C232.031 56.364 228.701 56.076 226.001 55.5C223.301 54.888 220.997 53.718 219.089 51.99C217.217 50.262 216.281 47.238 216.281 42.918H219.197C219.197 47.13 220.601 49.992 223.409 51.504C226.253 52.98 230.339 53.718 235.667 53.718C241.607 53.718 245.639 53.034 247.763 51.666C249.887 50.262 250.949 48.156 250.949 45.348C250.949 43.98 250.589 42.738 249.869 41.622C249.149 40.506 247.601 39.768 245.225 39.408C242.885 39.048 240.275 38.814 237.395 38.706C234.551 38.598 232.409 38.526 230.969 38.49C229.565 38.418 227.693 38.238 225.353 37.95C223.049 37.662 221.321 37.23 220.169 36.654C219.053 36.042 218.117 35.106 217.361 33.846C216.641 32.586 216.281 30.786 216.281 28.446C216.281 25.746 216.947 23.676 218.279 22.236C219.611 20.76 221.681 19.698 224.489 19.05C227.333 18.402 230.825 18.078 234.965 18.078C239.213 18.078 242.561 18.42 245.009 19.104C247.457 19.788 249.527 21.048 251.219 22.884C252.911 24.684 253.757 27.348 253.757 30.876H250.895C250.895 27.312 249.527 24.738 246.791 23.154C244.091 21.57 240.239 20.778 235.235 20.778C230.735 20.778 226.973 21.228 223.949 22.128C220.961 23.028 219.467 25.17 219.467 28.554ZM280.36 56.526C275.428 56.526 271.486 55.806 268.534 54.366C265.618 52.89 263.422 50.658 261.946 47.67C260.506 44.682 259.786 41.19 259.786 37.194C259.786 33.198 260.47 29.724 261.838 26.772C263.206 23.784 265.402 21.534 268.426 20.022C271.45 18.51 275.428 17.754 280.36 17.754C285.328 17.754 289.288 18.528 292.24 20.076C295.228 21.624 297.424 23.874 298.828 26.826C300.268 29.742 300.988 33.198 300.988 37.194C300.988 41.19 300.268 44.664 298.828 47.616C297.388 50.568 295.192 52.8 292.24 54.312C289.288 55.788 285.328 56.526 280.36 56.526ZM280.36 53.826C284.644 53.826 288.01 53.232 290.458 52.044C292.906 50.82 294.724 48.912 295.912 46.32C297.136 43.692 297.748 40.668 297.748 37.248C297.748 33.756 297.136 30.75 295.912 28.23C294.688 25.674 292.852 23.73 290.404 22.398C287.992 21.066 284.644 20.4 280.36 20.4C276.112 20.4 272.728 21.048 270.208 22.344C267.724 23.604 265.906 25.53 264.754 28.122C263.638 30.714 263.08 33.756 263.08 37.248C263.08 40.668 263.692 43.71 264.916 46.374C266.14 49.038 267.958 50.946 270.37 52.098C272.782 53.25 276.112 53.826 280.36 53.826Z" fill="#F4F4F4"/>
<path d="M93.0098 75.4072C93.0098 76.5238 92.8115 77.4603 92.415 78.2168C92.0231 78.9733 91.4398 79.543 90.665 79.9258C89.8949 80.3086 88.9401 80.5 87.8008 80.5H85.4082V70.5059H88.1152C89.1816 70.5059 90.0771 70.6927 90.8018 71.0664C91.5264 71.4401 92.0755 71.9915 92.4492 72.7207C92.8229 73.4453 93.0098 74.3408 93.0098 75.4072ZM92.2715 75.4346C92.2715 74.4821 92.1165 73.6868 91.8066 73.0488C91.4967 72.4108 91.0228 71.9323 90.3848 71.6133C89.7467 71.2897 88.9378 71.1279 87.958 71.1279H86.1123V79.8779H87.7666C89.2751 79.8779 90.403 79.5088 91.1504 78.7705C91.8978 78.0277 92.2715 76.9157 92.2715 75.4346ZM97.533 80.5V70.5059H98.2371V80.5H97.533ZM107.245 75.4551H110.916V80.042C110.437 80.2425 109.927 80.3929 109.384 80.4932C108.842 80.5889 108.265 80.6367 107.655 80.6367C106.593 80.6367 105.697 80.4362 104.968 80.0352C104.244 79.6296 103.695 79.0439 103.321 78.2783C102.947 77.5127 102.76 76.5921 102.76 75.5166C102.76 74.514 102.963 73.623 103.369 72.8438C103.779 72.0645 104.364 71.4538 105.126 71.0117C105.887 70.5697 106.798 70.3486 107.86 70.3486C108.407 70.3486 108.922 70.3988 109.405 70.499C109.892 70.5993 110.355 70.7497 110.792 70.9502L110.512 71.5791C110.079 71.3786 109.637 71.2282 109.186 71.1279C108.739 71.0277 108.286 70.9775 107.826 70.9775C106.923 70.9775 106.146 71.1712 105.495 71.5586C104.848 71.9414 104.351 72.4746 104.004 73.1582C103.663 73.8372 103.492 74.6211 103.492 75.5098C103.492 76.5169 103.658 77.3532 103.991 78.0186C104.323 78.6839 104.809 79.1829 105.447 79.5156C106.089 79.8483 106.869 80.0146 107.785 80.0146C108.286 80.0146 108.735 79.9782 109.131 79.9053C109.532 79.8324 109.895 79.7367 110.218 79.6182V76.0977H107.245V75.4551ZM115.671 80.5V70.5059H116.375V80.5H115.671ZM124.05 80.5H123.339V71.1416H120.099V70.5059H127.29V71.1416H124.05V80.5ZM137.275 80.5L135.915 76.9658H131.718L130.33 80.5H129.612L133.543 70.4717H134.185L138.013 80.5H137.275ZM135.689 76.3301L134.308 72.584C134.272 72.4883 134.226 72.3652 134.172 72.2148C134.122 72.0645 134.067 71.9049 134.008 71.7363C133.953 71.5677 133.898 71.4082 133.844 71.2578C133.798 71.4173 133.748 71.5768 133.693 71.7363C133.638 71.8958 133.586 72.0508 133.536 72.2012C133.486 72.347 133.438 72.4792 133.392 72.5977L131.957 76.3301H135.689ZM141.669 80.5V70.5059H142.373V79.8574H147.13V80.5H141.669ZM163.218 80.5L161.857 76.9658H157.66L156.273 80.5H155.555L159.485 70.4717H160.128L163.956 80.5H163.218ZM161.632 76.3301L160.251 72.584C160.215 72.4883 160.169 72.3652 160.114 72.2148C160.064 72.0645 160.01 71.9049 159.95 71.7363C159.896 71.5677 159.841 71.4082 159.786 71.2578C159.741 71.4173 159.691 71.5768 159.636 71.7363C159.581 71.8958 159.529 72.0508 159.479 72.2012C159.428 72.347 159.381 72.4792 159.335 72.5977L157.899 76.3301H161.632ZM171.556 75.4551H175.226V80.042C174.748 80.2425 174.237 80.3929 173.695 80.4932C173.153 80.5889 172.576 80.6367 171.966 80.6367C170.904 80.6367 170.008 80.4362 169.279 80.0352C168.555 79.6296 168.005 79.0439 167.632 78.2783C167.258 77.5127 167.071 76.5921 167.071 75.5166C167.071 74.514 167.274 73.623 167.68 72.8438C168.09 72.0645 168.675 71.4538 169.436 71.0117C170.197 70.5697 171.109 70.3486 172.171 70.3486C172.718 70.3486 173.233 70.3988 173.716 70.499C174.203 70.5993 174.666 70.7497 175.103 70.9502L174.823 71.5791C174.39 71.3786 173.948 71.2282 173.497 71.1279C173.05 71.0277 172.597 70.9775 172.137 70.9775C171.234 70.9775 170.457 71.1712 169.806 71.5586C169.158 71.9414 168.662 72.4746 168.315 73.1582C167.973 73.8372 167.803 74.6211 167.803 75.5098C167.803 76.5169 167.969 77.3532 168.302 78.0186C168.634 78.6839 169.12 79.1829 169.758 79.5156C170.4 79.8483 171.18 80.0146 172.096 80.0146C172.597 80.0146 173.046 79.9782 173.442 79.9053C173.843 79.8324 174.206 79.7367 174.529 79.6182V76.0977H171.556V75.4551ZM185.444 80.5H179.982V70.5059H185.444V71.1416H180.686V74.9287H185.177V75.5645H180.686V79.8643H185.444V80.5ZM197.234 80.5H196.516L190.61 71.6611H190.576C190.585 71.9072 190.591 72.1579 190.596 72.4131C190.605 72.6637 190.612 72.9235 190.617 73.1924C190.626 73.4567 190.63 73.7301 190.63 74.0127V80.5H189.96V70.5059H190.685L196.571 79.3174H196.605C196.6 79.1169 196.593 78.8844 196.584 78.6201C196.58 78.3558 196.573 78.0846 196.564 77.8066C196.559 77.5286 196.557 77.2666 196.557 77.0205V70.5059H197.234V80.5ZM206.549 70.998C205.911 70.998 205.341 71.1074 204.84 71.3262C204.339 71.5404 203.915 71.8457 203.568 72.2422C203.222 72.6387 202.958 73.1126 202.776 73.6641C202.593 74.2109 202.502 74.8148 202.502 75.4756C202.502 76.387 202.646 77.1846 202.933 77.8682C203.22 78.5472 203.651 79.0736 204.225 79.4473C204.803 79.821 205.524 80.0078 206.385 80.0078C206.886 80.0078 207.342 79.9714 207.752 79.8984C208.162 79.821 208.543 79.723 208.894 79.6045V80.2197C208.561 80.3428 208.185 80.443 207.766 80.5205C207.351 80.598 206.868 80.6367 206.317 80.6367C205.318 80.6367 204.48 80.4225 203.801 79.9941C203.126 79.5658 202.618 78.9642 202.276 78.1895C201.935 77.4147 201.764 76.5101 201.764 75.4756C201.764 74.7327 201.871 74.0514 202.085 73.4316C202.299 72.8073 202.611 72.2673 203.022 71.8115C203.436 71.3512 203.94 70.9958 204.532 70.7451C205.125 70.4899 205.799 70.3623 206.556 70.3623C207.034 70.3623 207.49 70.4102 207.923 70.5059C208.36 70.597 208.771 70.7314 209.153 70.9092L208.88 71.5244C208.511 71.3421 208.133 71.21 207.745 71.1279C207.358 71.0413 206.959 70.998 206.549 70.998ZM215.529 75.9609L218.448 70.5059H219.221L215.891 76.6377V80.5H215.187V76.6924L211.831 70.5059H212.61L215.529 75.9609Z" fill="#F4F4F4"/>
</svg>
