<svg width="360" height="360" viewBox="0 0 360 360" fill="none" xmlns="http://www.w3.org/2000/svg">
<path d="M145.176 23.3437C151.255 21.9408 161.075 20.4209 166.804 19.9533C172.532 19.4857 179.196 19.018 181.417 19.018C183.639 18.9011 190.536 19.3688 196.616 19.9533C202.695 20.6548 212.749 22.2915 218.828 23.5775C224.908 24.9804 233.325 27.4355 237.534 28.9553C241.743 30.592 251.212 34.9177 258.578 38.7757C265.943 42.5168 276.231 49.0637 281.375 53.1555C286.519 57.2473 295.17 65.1972 300.548 70.9257C306.043 76.6542 313.174 85.5393 316.564 90.6833C319.838 95.8274 324.164 103.193 326.034 107.051C328.022 110.909 331.412 118.858 333.75 124.587C335.971 130.316 339.011 140.837 340.414 147.969C342.051 156.036 342.752 162.699 342.284 165.856C341.817 168.779 342.051 170.766 342.752 170.766C343.454 170.766 343.921 175.209 343.921 181.872C343.921 187.952 343.57 192.745 343.103 192.511C342.518 192.277 342.401 193.68 342.635 195.785C342.869 197.772 341.934 204.67 340.531 211.1C339.128 217.53 336.907 226.532 335.504 230.974C334.101 235.417 330.71 243.601 327.905 249.095C325.099 254.59 321.475 261.371 319.838 264.293C318.201 267.216 314.694 272.477 312.005 275.984C309.316 279.492 301.834 287.675 295.404 294.105C288.974 300.535 281.959 307.082 279.972 308.485C277.868 309.888 276.114 310.823 276.114 310.473C276.114 310.122 274.126 311.174 271.788 312.811C269.333 314.447 266.177 316.786 264.774 318.072C263.254 319.358 261.383 320.41 260.682 320.41C259.864 320.41 257.876 321.462 256.239 322.748C254.603 324.151 252.031 325.437 250.394 325.788C248.757 326.138 246.185 327.074 244.548 328.009C242.912 328.827 236.599 331.165 230.519 333.153C224.44 335.14 217.893 336.777 215.906 336.66C213.918 336.66 213.217 336.309 214.152 335.959C215.087 335.608 217.192 334.205 218.828 332.919C221.05 331.165 221.167 330.815 219.413 331.516C218.127 332.101 214.854 332.568 212.165 332.568C209.593 332.685 206.904 333.036 206.436 333.621C205.968 334.088 204.449 334.439 203.163 334.439C201.76 334.439 199.188 335.257 197.2 336.193C194.745 337.479 190.303 338.063 182.937 337.946C176.04 337.946 172.299 337.479 172.649 336.777C173 336.076 172.065 335.608 170.662 335.725C169.142 335.842 166.921 335.842 165.635 335.725C163.764 335.608 163.881 335.257 166.804 333.737C169.61 332.335 173.701 331.984 186.678 332.218C196.733 332.452 205.968 331.867 210.645 330.932C214.854 330.113 219.062 328.71 219.997 327.775C220.933 326.957 222.57 326.255 223.505 326.489C224.44 326.606 226.661 326.372 228.532 325.905C230.286 325.437 232.858 324.034 234.377 322.748C235.78 321.462 236.365 320.41 235.78 320.41C235.079 320.41 234.027 320.877 233.442 321.462C232.741 322.047 225.96 324.268 218.244 326.255C206.904 329.178 202.695 329.763 196.031 329.295C190.575 328.905 189.211 329.022 191.939 329.646C194.511 330.23 189.835 330.464 179.43 330.464C170.428 330.347 163.18 329.996 163.413 329.529C163.647 328.944 162.478 328.243 160.608 327.892C158.854 327.541 156.516 327.541 155.347 327.892C154.295 328.243 153.125 328.126 152.775 327.424C152.424 326.723 151.021 326.489 149.618 326.84C148.098 327.074 145.409 326.372 139.915 322.748L147.514 323.566C151.723 324.151 164.115 324.385 174.988 324.385C192.992 324.268 196.148 323.917 208.307 320.761C216.724 318.539 226.778 314.798 235.196 310.823C242.561 307.199 252.849 301.237 257.993 297.379C263.137 293.521 271.204 286.506 275.88 281.713C280.556 276.92 286.986 269.437 290.026 264.878C293.183 260.435 297.625 252.953 299.846 248.511C302.068 244.068 305.458 235.885 307.446 230.39C309.316 224.895 311.654 216.478 312.473 211.684C313.291 206.891 313.992 195.785 313.992 187.133C313.876 178.482 313.291 167.96 312.473 163.752C311.654 159.543 309.784 152.996 308.147 149.138C306.627 145.28 305.107 140.837 304.757 139.201C304.406 137.564 303.354 135.109 302.418 133.706C301.483 132.186 300.431 131.017 300.08 131.017C299.73 131.017 299.73 132.186 299.963 133.706C300.197 135.109 301.132 137.798 302.185 139.785C303.12 141.773 304.289 144.578 304.523 146.215C304.874 147.852 306.043 153.113 307.095 157.906C308.147 162.699 309.316 172.754 309.667 180.119C310.134 190.056 309.784 196.837 308.264 205.839C307.095 212.62 304.99 221.505 303.588 225.713C302.068 229.922 299.613 236.235 297.976 239.743C296.339 243.25 292.481 250.147 289.325 254.941C286.168 259.734 280.673 266.749 277.166 270.607C273.659 274.348 267.813 279.725 264.189 282.531C260.448 285.337 257.175 287.441 256.824 287.091C256.473 286.74 260.331 282.297 265.241 277.037C270.268 271.893 276.582 264.644 279.387 261.02C282.193 257.279 286.753 249.563 289.558 243.834C292.364 238.106 296.105 228.285 297.742 222.206C299.496 216.127 301.366 206.307 302.068 200.578C302.652 194.849 302.886 185.847 302.535 180.703C302.185 175.559 300.431 166.09 298.794 159.66C297.158 153.23 294.001 144.228 291.897 139.785C289.675 135.343 285.817 128.211 283.012 124.002C280.323 119.794 273.893 112.195 268.632 107.051C263.488 101.79 256.59 95.8274 253.317 93.6061C250.16 91.3848 243.496 87.6437 238.703 85.3055C233.91 82.8504 224.674 79.4601 218.244 77.5895C207.605 74.6668 204.916 74.3161 187.263 74.433C169.61 74.433 167.155 74.6668 157.451 77.7064C151.723 79.4601 142.721 82.9673 137.577 85.5393C132.433 87.9944 124.249 93.3723 119.573 97.3472C114.779 101.439 107.765 108.454 103.907 112.896C100.166 117.339 95.9569 123.184 94.554 125.756C93.0342 128.328 90.2284 134.524 88.124 139.551C86.1365 144.462 83.4476 152.645 82.3954 157.555C81.1094 163.518 80.408 171.117 80.5249 179.534C80.6418 189.238 81.4602 195.2 83.6815 203.851C85.3182 210.048 88.3578 218.465 90.3453 222.44C92.4496 226.532 96.1907 232.962 98.7627 236.82C101.452 240.678 108.232 248.628 113.961 254.356C119.689 260.085 126.353 267.801 128.808 271.308C131.147 274.815 134.303 279.959 135.706 282.648C136.992 285.454 138.979 291.066 139.915 295.274C141.551 302.289 141.551 303.224 139.681 307.199C138.044 310.706 135.94 312.46 130.562 315.149C124.483 318.189 121.911 318.656 111.857 319.124C101.218 319.475 99.1135 319.241 88.4747 315.85C81.5771 313.629 74.5625 310.473 71.2891 308.017C68.1325 305.796 62.1702 299.951 57.9614 295.041C53.6358 290.013 47.6734 282.297 44.6338 277.738C41.5942 273.179 36.5671 264.527 33.5274 258.448C30.4878 252.369 26.7467 243.601 25.2269 239.158C23.824 234.715 21.4858 226.766 20.1998 221.622C18.9138 216.478 17.2771 206.19 16.6925 198.824C15.8741 189.705 15.8741 180.703 16.6925 170.766C17.2771 162.699 18.9138 151.944 20.1998 146.8C21.4858 141.656 24.0578 133.238 25.8114 128.094C27.682 122.95 31.0723 114.767 33.5274 109.973C35.9825 105.18 40.8927 96.7626 44.5169 91.2679C48.1411 85.7732 56.7923 75.6021 63.9238 68.3537C71.9905 60.287 80.9925 52.571 87.8902 48.0115C93.9694 43.9197 103.79 38.425 109.518 35.736C115.247 33.0471 123.197 29.7737 127.055 28.3708C130.913 26.9679 139.096 24.7466 145.176 23.3437Z" fill="#06050B"/>
<path d="M185.509 340.167L194.278 338.648C199.071 337.829 204.098 337.011 205.267 336.894C207.137 336.777 207.371 337.011 206.085 338.18C205.267 339.115 200.824 339.817 185.509 340.167Z" fill="#06050B"/>
<path d="M292.249 119.325C291.08 117.688 290.145 115.934 290.145 115.233C290.262 114.648 290.963 114.999 291.665 116.285C292.483 117.454 294.354 120.26 295.99 122.481C297.627 124.82 299.147 127.392 299.264 128.21C299.381 129.145 298.796 129.613 297.744 129.262C296.809 128.911 295.64 127.275 295.172 125.521C294.821 123.65 293.418 120.962 292.249 119.325Z" fill="#06050B"/>
<path d="M276.7 298.547C275.414 299.131 276.934 296.91 280.208 293.636C283.364 290.363 286.17 287.674 286.287 287.674C286.521 287.674 285.001 289.895 282.896 292.467C280.792 295.156 277.986 297.845 276.7 298.547Z" fill="#06050B"/>
<path d="M266.88 312.225C267.815 312.225 269.803 310.939 271.322 309.302C272.842 307.665 274.713 306.379 275.297 306.379C275.882 306.379 275.531 307.315 274.596 308.484C273.661 309.536 270.621 311.757 268.049 313.394C264.191 315.732 263.489 315.966 264.191 314.212C264.775 313.16 265.945 312.225 266.88 312.225Z" fill="#06050B"/>
<path d="M239.289 320.409C238.003 320.409 241.394 318.187 246.771 315.381C252.149 312.693 256.943 310.588 257.293 310.822C257.644 310.939 257.527 311.523 256.826 312.108C256.124 312.693 252.5 314.797 248.642 316.784C244.784 318.772 240.575 320.409 239.289 320.409Z" fill="#06050B"/>
<path d="M223.857 331.515C223.623 330.813 225.494 329.761 227.832 329.06C230.287 328.358 233.21 327.657 234.262 327.54C235.431 327.54 236.367 327.891 236.367 328.592C236.367 329.294 234.145 330.229 231.339 330.93L231.338 330.931C228.65 331.515 225.962 332.1 225.377 332.333C224.793 332.567 224.091 332.216 223.857 331.515Z" fill="#06050B"/>
</svg>
