<svg width="70" height="70" viewBox="0 0 70 70" fill="none" xmlns="http://www.w3.org/2000/svg">
<g id="email">
<g id="Group">
<path id="Vector" d="M35.0003 4.67578C18.2508 4.67578 4.67578 18.2508 4.67578 35.0003C4.67578 51.7499 18.2508 65.3249 35.0003 65.3249C51.7499 65.3249 65.3249 51.7499 65.3249 35.0003C65.3249 18.2508 51.7499 4.67578 35.0003 4.67578ZM53.9295 53.9177C51.4656 56.3815 48.6109 58.3124 45.4244 59.6509C42.1314 61.0487 38.6251 61.7476 35.0003 61.7476C31.3875 61.7476 27.8812 61.0368 24.5763 59.6509C21.3898 58.3005 18.5232 56.3697 16.0712 53.9177C13.6073 51.4538 11.6765 48.599 10.3379 45.4126C8.94017 42.1195 8.22944 38.6132 8.22944 35.0003C8.22944 31.3875 8.94017 27.8812 10.3261 24.5763C11.6765 21.3898 13.6073 18.5232 16.0593 16.0712C18.5351 13.6073 21.3898 11.6765 24.5763 10.3261C27.8812 8.94017 31.3875 8.22944 35.0003 8.22944C38.6132 8.22944 42.1195 8.94017 45.4244 10.3261C48.6109 11.6765 51.4775 13.6073 53.9295 16.0593C56.3934 18.5232 58.3242 21.378 59.6628 24.5644C61.0605 27.8575 61.7594 31.3638 61.7594 34.9885C61.7594 38.6014 61.0487 42.1077 59.6628 45.4126C58.3124 48.599 56.3815 51.4656 53.9295 53.9177Z" fill="#F4F4F4"/>
<path id="Vector_2" fill-rule="evenodd" clip-rule="evenodd" d="M46.572 22.9277C49.0636 22.9277 51.0833 24.9475 51.0833 27.4391V42.477C51.0833 44.9686 49.0636 46.9883 46.572 46.9883H22.5114C20.0198 46.9883 18 44.9686 18 42.477V27.4391C18 24.9475 20.0198 22.9277 22.5114 22.9277H46.572ZM45.4485 25.9353H23.635L33.6099 33.8102C34.1562 34.2416 34.9271 34.2416 35.4736 33.8102L45.4485 25.9353ZM21.0076 27.6929V42.477C21.0076 43.3075 21.6809 43.9808 22.5114 43.9808H46.572C47.4025 43.9808 48.0758 43.3075 48.0758 42.477V27.693L37.3371 36.1708C35.6981 37.4649 33.3853 37.4649 31.7463 36.1708L21.0076 27.6929Z" fill="#FFFAFA"/>
</g>
</g>
</svg>
