<svg width="70" height="70" viewBox="0 0 70 70" fill="none" xmlns="http://www.w3.org/2000/svg">
<g id="instagram">
<g id="Group">
<path id="Vector" d="M35 5C18.4297 5 5 18.4297 5 35C5 51.5703 18.4297 65 35 65C51.5703 65 65 51.5703 65 35C65 18.4297 51.5703 5 35 5ZM53.7266 53.7148C51.2891 56.1523 48.4648 58.0625 45.3125 59.3867C42.0547 60.7695 38.5859 61.4609 35 61.4609C31.4258 61.4609 27.957 60.7578 24.6875 59.3867C21.5352 58.0508 18.6992 56.1406 16.2734 53.7148C13.8359 51.2773 11.9258 48.4531 10.6016 45.3008C9.21875 42.043 8.51562 38.5742 8.51562 35C8.51562 31.4258 9.21875 27.957 10.5898 24.6875C11.9258 21.5352 13.8359 18.6992 16.2617 16.2734C18.7109 13.8359 21.5352 11.9258 24.6875 10.5898C27.957 9.21875 31.4258 8.51562 35 8.51562C38.5742 8.51562 42.043 9.21875 45.3125 10.5898C48.4648 11.9258 51.3008 13.8359 53.7266 16.2617C56.1641 18.6992 58.0742 21.5234 59.3984 24.6758C60.7812 27.9336 61.4727 31.4023 61.4727 34.9883C61.4727 38.5625 60.7695 42.0312 59.3984 45.3008C58.0625 48.4531 56.1523 51.2891 53.7266 53.7148Z" fill="#F4F4F4"/>
<path id="Vector_2" fill-rule="evenodd" clip-rule="evenodd" d="M34.8039 43.9185C39.8772 43.9185 43.99 39.8057 43.99 34.7324C43.99 29.659 39.8772 25.5463 34.8039 25.5463C29.7305 25.5463 25.6178 29.659 25.6178 34.7324C25.6178 39.8057 29.7305 43.9185 34.8039 43.9185ZM34.8039 40.8565C38.1861 40.8565 40.928 38.1146 40.928 34.7324C40.928 31.3502 38.1861 28.6083 34.8039 28.6083C31.4216 28.6083 28.6798 31.3502 28.6798 34.7324C28.6798 38.1146 31.4216 40.8565 34.8039 40.8565Z" fill="#F4F4F4"/>
<path id="Vector_3" d="M44.2084 24.2333C43.3628 24.2333 42.6773 24.9188 42.6773 25.7643C42.6773 26.6099 43.3628 27.2954 44.2084 27.2954C45.0539 27.2954 45.7394 26.6099 45.7394 25.7643C45.7394 24.9188 45.0539 24.2333 44.2084 24.2333Z" fill="#F4F4F4"/>
<path id="Vector_4" fill-rule="evenodd" clip-rule="evenodd" d="M19.1828 23.1258C18.1816 25.0909 18.1816 27.6632 18.1816 32.8079V37.0948C18.1816 42.2395 18.1816 44.8119 19.1828 46.7768C20.0635 48.5053 21.4688 49.9107 23.1973 50.7913C25.1623 51.7926 27.7347 51.7926 32.8794 51.7926H37.1663C42.311 51.7926 44.8834 51.7926 46.8483 50.7913C48.5768 49.9107 49.9821 48.5053 50.8628 46.7768C51.8641 44.8119 51.8641 42.2395 51.8641 37.0948V32.8079C51.8641 27.6632 51.8641 25.0909 50.8628 23.1258C49.9821 21.3973 48.5768 19.992 46.8483 19.1113C44.8834 18.1101 42.311 18.1101 37.1663 18.1101H32.8794C27.7347 18.1101 25.1623 18.1101 23.1973 19.1113C21.4688 19.992 20.0635 21.3973 19.1828 23.1258ZM37.1663 21.1722H32.8794C30.2565 21.1722 28.4735 21.1745 27.0953 21.2871C25.7529 21.3968 25.0664 21.5956 24.5875 21.8396C23.4351 22.4268 22.4983 23.3636 21.9111 24.516C21.6671 24.9949 21.4683 25.6814 21.3586 27.0238C21.246 28.402 21.2437 30.185 21.2437 32.8079V37.0948C21.2437 39.7177 21.246 41.5006 21.3586 42.8788C21.4683 44.2214 21.6671 44.9079 21.9111 45.3868C22.4983 46.539 23.4351 47.4759 24.5875 48.063C25.0664 48.3071 25.7529 48.5059 27.0953 48.6156C28.4735 48.7281 30.2565 48.7305 32.8794 48.7305H37.1663C39.7892 48.7305 41.5721 48.7281 42.9503 48.6156C44.2929 48.5059 44.9794 48.3071 45.4583 48.063C46.6105 47.4759 47.5474 46.539 48.1345 45.3868C48.3786 44.9079 48.5774 44.2214 48.6871 42.8788C48.7996 41.5006 48.802 39.7177 48.802 37.0948V32.8079C48.802 30.185 48.7996 28.402 48.6871 27.0238C48.5774 25.6814 48.3786 24.9949 48.1345 24.516C47.5474 23.3636 46.6105 22.4268 45.4583 21.8396C44.9794 21.5956 44.2929 21.3968 42.9503 21.2871C41.5721 21.1745 39.7892 21.1722 37.1663 21.1722Z" fill="#F4F4F4"/>
</g>
</g>
</svg>
