<svg width="70" height="70" viewBox="0 0 70 70" fill="none" xmlns="http://www.w3.org/2000/svg">
<path d="M35 19.6875C28.9587 19.6875 24.0625 24.9661 24.0625 30.625C24.0625 33.6371 25.5664 35.047 28.4375 40.1825C30.9604 44.692 33.0667 48.7873 33.0667 48.7873C34.1113 50.8188 35.8246 50.821 36.8713 48.7915C36.8713 48.7915 38.9926 44.6899 41.5624 40.1825C44.489 35.047 45.9374 33.6392 45.9374 30.625C45.9375 24.9661 41.0413 19.6875 35 19.6875ZM35 37.1875C31.377 37.1875 28.4375 34.248 28.4375 30.625C28.4375 27.0009 31.377 24.0625 35 24.0625C38.6252 24.0625 41.5625 27.0009 41.5625 30.625C41.5625 34.248 38.6252 37.1875 35 37.1875Z" fill="#F4F4F4"/>
<path d="M35 5C18.4297 5 5 18.4297 5 35C5 51.5703 18.4297 65 35 65C51.5703 65 65 51.5703 65 35C65 18.4297 51.5703 5 35 5ZM53.7266 53.7148C51.2891 56.1523 48.4648 58.0625 45.3125 59.3867C42.0547 60.7695 38.5859 61.4609 35 61.4609C31.4258 61.4609 27.957 60.7578 24.6875 59.3867C21.5352 58.0508 18.6992 56.1406 16.2734 53.7148C13.8359 51.2773 11.9258 48.4531 10.6016 45.3008C9.21875 42.043 8.51562 38.5742 8.51562 35C8.51562 31.4258 9.21875 27.957 10.5898 24.6875C11.9258 21.5352 13.8359 18.6992 16.2617 16.2734C18.7109 13.8359 21.5352 11.9258 24.6875 10.5898C27.957 9.21875 31.4258 8.51562 35 8.51562C38.5742 8.51562 42.043 9.21875 45.3125 10.5898C48.4648 11.9258 51.3008 13.8359 53.7266 16.2617C56.1641 18.6992 58.0742 21.5234 59.3984 24.6758C60.7813 27.9336 61.4727 31.4023 61.4727 34.9883C61.4727 38.5625 60.7695 42.0312 59.3984 45.3008C58.0625 48.4531 56.1523 51.2891 53.7266 53.7148Z" fill="#F4F4F4"/>
</svg>
