<svg width="70" height="70" viewBox="0 0 70 70" fill="none" xmlns="http://www.w3.org/2000/svg">
<g id="phone-call">
<g id="Group">
<path id="Vector" d="M35.0003 4.67578C18.2508 4.67578 4.67578 18.2508 4.67578 35.0003C4.67578 51.7499 18.2508 65.3249 35.0003 65.3249C51.7499 65.3249 65.3249 51.7499 65.3249 35.0003C65.3249 18.2508 51.7499 4.67578 35.0003 4.67578ZM53.9295 53.9177C51.4656 56.3815 48.6109 58.3124 45.4244 59.6509C42.1314 61.0487 38.6251 61.7476 35.0003 61.7476C31.3875 61.7476 27.8812 61.0368 24.5763 59.6509C21.3898 58.3005 18.5232 56.3697 16.0712 53.9177C13.6073 51.4538 11.6765 48.599 10.3379 45.4126C8.94017 42.1195 8.22944 38.6132 8.22944 35.0003C8.22944 31.3875 8.94017 27.8812 10.3261 24.5763C11.6765 21.3898 13.6073 18.5232 16.0593 16.0712C18.5351 13.6073 21.3898 11.6765 24.5763 10.3261C27.8812 8.94017 31.3875 8.22944 35.0003 8.22944C38.6132 8.22944 42.1195 8.94017 45.4244 10.3261C48.6109 11.6765 51.4775 13.6073 53.9295 16.0593C56.3934 18.5232 58.3242 21.378 59.6628 24.5644C61.0605 27.8575 61.7594 31.3638 61.7594 34.9885C61.7594 38.6014 61.0487 42.1077 59.6628 45.4126C58.3124 48.599 56.3815 51.4656 53.9295 53.9177Z" fill="#F4F4F4"/>
<g id="phone-calling-rounded-svgrepo-com 1">
<path id="Vector_2" d="M36.002 21.9277C36.002 21.9277 39.302 22.2277 43.502 26.4277C47.702 30.6277 48.002 33.9277 48.002 33.9277" stroke="#F4F4F4" stroke-width="2.5" stroke-linecap="round"/>
<path id="Vector_3" d="M36.3105 27.2314C36.3105 27.2314 37.7955 27.6557 40.0229 29.8831C42.2502 32.1105 42.6746 33.5954 42.6746 33.5954" stroke="#F4F4F4" stroke-width="2.5" stroke-linecap="round"/>
<path id="Vector_4" d="M21.0098 30.8274C20.9013 33.6896 21.6257 38.5503 26.5016 43.4262C27.6779 44.6025 28.8533 45.5371 30 46.2768M23.3067 26.3336C25.3961 24.2442 28.7298 24.5249 30.0564 26.902L31.0299 28.6464C31.9085 30.2206 31.5558 32.2857 30.1721 33.6694C30.1721 33.6694 28.4938 35.3479 31.5368 38.391C34.5788 41.433 36.2583 39.7557 36.2583 39.7557C37.6421 38.3719 39.7071 38.0193 41.2814 38.8978L43.0257 39.8713C45.4029 41.1979 45.6836 44.5315 43.5942 46.621C42.3387 47.8765 40.8006 48.8535 39.1004 48.9178C37.8794 48.9642 36.2945 48.8589 34.5 48.3444" stroke="#F4F4F4" stroke-width="2.5" stroke-linecap="round"/>
</g>
</g>
</g>
</svg>
