<svg width="70" height="70" viewBox="0 0 70 70" fill="none" xmlns="http://www.w3.org/2000/svg">
<g id="telegram">
<path id="Vector" fill-rule="evenodd" clip-rule="evenodd" d="M64.1576 35.0006C64.1576 51.1088 51.0991 64.1673 34.9909 64.1673C18.8826 64.1673 5.82422 51.1088 5.82422 35.0006C5.82422 18.8923 18.8826 5.83398 34.9909 5.83398C51.0991 5.83398 64.1576 18.8923 64.1576 35.0006ZM36.036 27.3661C33.1992 28.5461 27.5294 30.9882 19.0267 34.6926C17.646 35.2419 16.9227 35.7791 16.8569 36.3041C16.7456 37.1919 17.8572 37.5414 19.3709 38.0174C19.5767 38.0821 19.7901 38.1492 20.0088 38.2201C21.498 38.7042 23.5012 39.2706 24.5426 39.2931C25.4872 39.3135 26.5416 38.9241 27.7056 38.1247C35.6498 32.7621 39.7509 30.0516 40.0082 29.993C40.1899 29.9519 40.4416 29.9 40.6122 30.0516C40.7828 30.2033 40.7659 30.4903 40.7478 30.5673C40.6379 31.0369 36.2745 35.0934 34.0165 37.1925C33.3127 37.847 32.8133 38.3111 32.7112 38.4172C32.4826 38.6546 32.2495 38.8792 32.0255 39.0951C30.6422 40.4289 29.6044 41.429 32.083 43.0623C33.2739 43.8472 34.227 44.4962 35.1779 45.1437C36.2162 45.8509 37.2519 46.5562 38.5921 47.4347C38.9334 47.6584 39.2595 47.8909 39.5771 48.1172C40.7855 48.9788 41.871 49.7529 43.2124 49.6292C43.9917 49.5577 44.7967 48.8248 45.2057 46.639C46.172 41.4736 48.0713 30.2815 48.5102 25.6697C48.5487 25.2656 48.5003 24.7485 48.4612 24.5215C48.4225 24.2945 48.3414 23.971 48.0462 23.7316C47.6968 23.4481 47.1572 23.3883 46.916 23.3923C45.819 23.4119 44.1358 23.9971 36.036 27.3661Z" stroke="#F4F4F4" stroke-width="3" stroke-linejoin="round"/>
</g>
</svg>
