<svg width="70" height="70" viewBox="0 0 70 70" fill="none" xmlns="http://www.w3.org/2000/svg">
<g id="tiktok">
<g id="Group">
<path id="Vector" d="M35 5C18.4297 5 5 18.4297 5 35C5 51.5703 18.4297 65 35 65C51.5703 65 65 51.5703 65 35C65 18.4297 51.5703 5 35 5ZM53.7266 53.7148C51.2891 56.1523 48.4648 58.0625 45.3125 59.3867C42.0547 60.7695 38.5859 61.4609 35 61.4609C31.4258 61.4609 27.957 60.7578 24.6875 59.3867C21.5352 58.0508 18.6992 56.1406 16.2734 53.7148C13.8359 51.2773 11.9258 48.4531 10.6016 45.3008C9.21875 42.043 8.51562 38.5742 8.51562 35C8.51562 31.4258 9.21875 27.957 10.5898 24.6875C11.9258 21.5352 13.8359 18.6992 16.2617 16.2734C18.7109 13.8359 21.5352 11.9258 24.6875 10.5898C27.957 9.21875 31.4258 8.51562 35 8.51562C38.5742 8.51562 42.043 9.21875 45.3125 10.5898C48.4648 11.9258 51.3008 13.8359 53.7266 16.2617C56.1641 18.6992 58.0742 21.5234 59.3984 24.6758C60.7812 27.9336 61.4727 31.4023 61.4727 34.9883C61.4727 38.5625 60.7695 42.0312 59.3984 45.3008C58.0625 48.4531 56.1523 51.2891 53.7266 53.7148Z" fill="#F4F4F4"/>
<g id="tiktok-outline-svgrepo-com 1">
<path id="Vector_2" d="M43.0362 23.5573C41.8144 22.1566 41.0799 20.3301 41.0799 18.3333H39.5489M43.0362 23.5573C44.1497 24.8344 45.6574 25.7631 47.3742 26.1268C47.9077 26.2429 48.4644 26.3049 49.0444 26.3049V32.0318C46.075 32.0318 43.322 31.08 41.0795 29.4702V41.1178C41.0795 46.9378 36.347 51.6667 30.5398 51.6667C27.5007 51.6667 24.7556 50.3663 22.8301 48.3C21.0748 46.4117 19.9999 43.8885 19.9999 41.1178C19.9999 35.383 24.5932 30.7085 30.2846 30.5846M43.0362 23.5573C43.0065 23.5379 42.9769 23.5183 42.9474 23.4986M26.6425 43.9195C26.0703 43.1302 25.7301 42.1628 25.7301 41.1102C25.7301 38.4557 27.8875 36.2963 30.5399 36.2963C31.0348 36.2963 31.5142 36.3813 31.9627 36.5207V30.6699C31.4987 30.6079 31.0271 30.5691 30.5399 30.5691C30.4548 30.5691 29.7696 30.6147 29.6846 30.6147M39.5407 18.3333H35.3495L35.3419 41.2958C35.249 43.8653 33.1302 45.9318 30.5398 45.9318C28.9313 45.9318 27.5162 45.1347 26.6347 43.9273" stroke="#F4F4F4" stroke-width="2" stroke-linejoin="round"/>
</g>
</g>
</g>
</svg>
