<svg width="70" height="70" viewBox="0 0 70 70" fill="none" xmlns="http://www.w3.org/2000/svg">
<g id="youtube">
<g id="Group">
<path id="Vector" d="M35 5C18.4297 5 5 18.4297 5 35C5 51.5703 18.4297 65 35 65C51.5703 65 65 51.5703 65 35C65 18.4297 51.5703 5 35 5ZM53.7266 53.7148C51.2891 56.1523 48.4648 58.0625 45.3125 59.3867C42.0547 60.7695 38.5859 61.4609 35 61.4609C31.4258 61.4609 27.957 60.7578 24.6875 59.3867C21.5352 58.0508 18.6992 56.1406 16.2734 53.7148C13.8359 51.2773 11.9258 48.4531 10.6016 45.3008C9.21875 42.043 8.51562 38.5742 8.51562 35C8.51562 31.4258 9.21875 27.957 10.5898 24.6875C11.9258 21.5352 13.8359 18.6992 16.2617 16.2734C18.7109 13.8359 21.5352 11.9258 24.6875 10.5898C27.957 9.21875 31.4258 8.51562 35 8.51562C38.5742 8.51562 42.043 9.21875 45.3125 10.5898C48.4648 11.9258 51.3008 13.8359 53.7266 16.2617C56.1641 18.6992 58.0742 21.5234 59.3984 24.6758C60.7812 27.9336 61.4727 31.4023 61.4727 34.9883C61.4727 38.5625 60.7695 42.0312 59.3984 45.3008C58.0625 48.4531 56.1523 51.2891 53.7266 53.7148Z" fill="#F4F4F4"/>
<path id="Vector_2" d="M44.832 24.4766H25.168C25.168 24.4766 20 24.4766 20 29.6445V40.3672C20 40.3672 20 45.5352 25.168 45.5352H44.832C44.832 45.5352 50 45.5352 50 40.3672V29.6445C50 29.6445 50 24.4766 44.832 24.4766ZM31.0039 40.7773V29.2344L40.8242 35.0117L31.0039 40.7773Z" fill="#F4F4F4"/>
</g>
</g>
</svg>
