<svg width="434" height="421" xmlns="http://www.w3.org/2000/svg"><path clip-rule="evenodd" d="M203.76.52c1.16 0 1.47.54 1.39 2.47-.08 1.39-.62 2.62-1.31 2.85-.85.24-1 0-.54-.92.31-.77.23-1.16-.23-.93-.39.23-.77-.46-.77-1.54 0-1.39.38-1.93 1.46-1.93zm-28.99 4.01c.54.23 1.08 1.55 1.23 3.01.24 2.39.08 2.54-1.38 2-.93-.3-1.62-.23-1.62.24 0 .46-.7.61-1.54.38-.85-.23-1.55-.08-1.55.39 0 .46-.61.77-1.31.77-.92 0-1.08-.21-.46-.62.54-.31.77-1.31.62-2.31-.23-1.08-.7-1.47-1.31-1.16-.67.41-.8.28-.39-.38.31-.47.93-.77 1.31-.54.46.23 1.47 0 2.39-.54 1.47-.85 1.54-.77.54.46-.85 1.16-.85 1.31.39 1.23.69 0 1.46-.69 1.69-1.62.24-.92.85-1.46 1.39-1.31zm-12.95 3.7c.61 0 1.39.93 1.62 2.09.23 1.23.23 2.31 0 2.54-.23.23-1.01.15-1.62-.23-.62-.31-1.16-1.39-1.16-2.47 0-1.23.46-1.93 1.16-1.93zm-26.3 11.8c.7 1.16 1.08 2.31.85 2.62-.23.39-.38.16-.38-.38 0-.47-.62-.93-1.31-.93-.78-.07-1.93.46-2.55 1.16-1 1.08-1 1.23.39 1.23 1.15-.07 1 .23-.77 1.08-1.24.7-2.63 1.16-3.09 1.16-.38 0-.23-.39.39-.77.77-.52.85-.77.23-.77-.54 0-1-.54-1-1.24 0-.77-.31-.92-.93-.54-.62.41-.77.23-.46-.54.23-.61.92-1.08 1.69-1 .7.16 1.24-.15 1.24-.54 0-.46.69-.92 1.54-1.16.85-.23 1.7-.07 1.93.39.23.39.77.77 1.15.77.47 0 .54-.62.31-1.39-.23-.69.16-.38.77.77v.08zm-13.49 4.47c.92 0 1.77.54 2 1.16.24.62.39 1.7.39 2.31 0 .62-.54 1.16-1.16 1.16-.61 0-1.15-.39-1.15-.77 0-.39.46-.54 1-.23.54.23.62.15.31-.23-.39-.39-1.08-.7-1.54-.7-.54 0-1.01-.61-1.16-1.39-.23-.92.23-1.31 1.31-1.31zM97.59 39.93c.54 0 1.38.84 1.92 1.92.85 1.62.85 2.01 0 2.47-.61.31-1.61 1.08-2.23 1.77-1.08 1.01-1.39 1.01-2.47 0-1.16-1-1.31-1-1.23.16 0 .77.38 1.39.92 1.39.62 0 .7.28.23.84-.46.47-1.23.62-1.69.39-.62-.31-.77-1.08-.47-2.24.47-1.38.31-1.62-.77-1.15-.77.38-1.31.31-1.31-.16 0-.38.54-.77 1.16-.77.62 0 1.31-.54 1.54-1.15.23-.62.93-1.16 1.54-1.16.62 0 1.31-.54 1.55-1.16.15-.61.77-1.15 1.31-1.15zm-10.34 8.48c1.08 0 1.16.15.16.69-.93.54-.85.77.62 1.16.92.23 1.69 1 1.69 1.62 0 .61-.54 1.15-1.15 1.15-.62 0-1.7-.77-2.32-1.77-.61-.93-.92-1.93-.69-2.31.23-.31 1-.54 1.69-.54zm-27.14 9.1c1.47 1.15 2.62 2.31 2.62 2.62 0 .38-.46.85-.92 1.08-.54.31-2.01-.54-3.24-1.7-1.23-1.31-1.93-2.62-1.7-3.16.39-.77 1.32-.39 3.24 1.16zm-6.01 2.46c.31 0 1.69 1.01 3.08 2.16 1.75 1.39 2.37 2.34 1.85 2.86-.51.51-1.69.05-3.54-1.39-1.55-1.16-2.63-2.47-2.39-2.86.3-.38.69-.77 1-.77zm-2.7 4.32c.54.31 1.7 1.23 2.7 2.16.92.93 1.69 1.85 1.69 2.16 0 .38-.46.62-.92.62-.54-.08-2.01-.85-3.32-1.85-1.46-1.16-2.08-2.16-1.69-2.7.38-.47 1.08-.62 1.54-.39zm-3.78 4.16c.46 0 1.93.93 3.16 2.01 1.54 1.31 2.08 2.24 1.54 2.7-.46.46-1.77 0-3.62-1.39-1.62-1.23-2.7-2.39-2.39-2.78.23-.3.85-.54 1.31-.54zm18.58.78c.7 0 1.16.77 1.16 1.92 0 1.08.39 1.78.77 1.55.46-.24.23.46-.38 1.54-.62 1.08-1.47 1.93-1.93 1.93-.39 0-.62-.54-.39-1.16.23-.62.08-1.16-.38-1.16-.39 0-1.08.77-1.39 1.7-.62 1.7-.69 1.7-1.85-1.31l-.54 1.54c-.31.85-.77 1.16-1 .77-.31-.38.38-1.7 1.38-2.93 1.01-1.16 1.86-1.7 1.86-1.31 0 .39.69.77 1.54.77 1.08 0 1.54-.54 1.54-1.77 0-1.31-.15-1.47-.77-.54-.39.62-.85.92-1.08.54-.23-.31-.31-.93-.08-1.31.31-.39 1-.77 1.54-.77zm-22.36 3.08c.23 0 1.47.77 2.7 1.7 1.31 1 2.31 2.23 2.31 2.7 0 .54-.15 1-.38 1s-1.54-.77-2.85-1.7c-1.39-.92-2.63-1.77-2.7-1.93-.16-.15-.08-.61.15-1 .31-.38.62-.77.77-.77zm-3.08 4.63c.23 0 1.54.77 3.01 1.69 1.62 1.08 2.46 2.16 2.15 2.7-.38.7-1.31.46-3.39-.92-1.62-1.08-2.77-2.32-2.54-2.7.31-.39.61-.77.77-.77zm16.42 2.31c.31 0 1.39.62 2.39 1.39 1.01.69 1.62 1.69 1.31 2.23-.23.54-.77 1.01-1.23 1.01-.39 0-.62-.39-.39-.77.24-.39-.07-.54-.54-.31-.53.23-1.46-.16-1.92-.77-.54-.7-.85-1.62-.62-2.01.31-.38.69-.77 1-.77zm-19.66 2.31c.46 0 2.08.85 3.47 1.78 1.7 1.13 2.29 1.95 1.77 2.46-.51.52-1.67.18-3.47-1-1.54-.92-2.77-2.08-2.77-2.47 0-.38.46-.77 1-.77zm-2.31 4.32c.54.31 1.92 1.31 3.08 2.16 1.44 1.08 1.9 1.88 1.39 2.39-.51.51-1.62.15-3.32-1.08-1.38-1.08-2.62-2-2.7-2.16-.15-.15 0-.61.24-1 .23-.46.84-.54 1.31-.31zm-3.7 4.17c.23 0 1.62.69 3.08 1.54 1.47.85 2.7 1.92 2.7 2.31 0 .39-.23.93-.54 1.08-.39.23-1.77-.31-3.09-1.16-1.38-.77-2.54-2-2.54-2.62 0-.62.15-1.15.39-1.15zm14.88 2.31c.31 0 1.69.69 3.08 1.54 2.39 1.47 2.39 1.62 1.31 3.47-.61 1.08-1.62 1.93-2.08 1.93-.54 0-1.85-.54-2.93-1.31-1.08-.7-2.08-1.39-2.31-1.47-.23-.15.23-1.15 1-2.23.69-1.08 1.62-1.93 1.93-1.93zm-14.58 4.01c1.55.92 2.86 1.77 3.01 1.93.08.15 0 .54-.23 1-.23.46-1.7.08-3.47-1-1.7-.93-3.16-1.93-3.24-2.16-.08-.23.16-.7.54-.93.31-.31 1.85.23 3.39 1.16zm-5.32 3.7c.47 0 1.85.54 3.09 1.16 1.31.61 2.31 1.69 2.31 2.31 0 .92-.54.92-3.08-.39-1.7-.84-3.09-1.85-3.09-2.31 0-.46.39-.77.77-.77zm-2.85 4.62c.08 0 1.54.47 3.24 1.16 1.85.7 3.01 1.62 2.85 2.32-.07.61-.31 1.15-.54 1.15-.23 0-1.77-.69-3.47-1.54-1.69-.85-2.93-1.85-2.7-2.31.31-.47.54-.78.62-.78zm-2.16 4.63c.23 0 1.62.62 3.09 1.31 1.54.77 2.7 1.85 2.7 2.32 0 .54-.16 1-.39 1s-1.77-.7-3.47-1.54c-1.7-.85-2.93-1.85-2.7-2.32.31-.46.62-.77.77-.77zm.23 6.02c1.7.61 3.09 1.61 3.16 2.23 0 .54-.23 1.01-.69 1.01-.38 0-1.93-.62-3.39-1.39-1.47-.7-2.55-1.7-2.39-2.16.23-.7 1.15-.54 3.31.31zm-4.62 4.01c.31 0 1.85.46 3.47 1.15 1.54.62 2.85 1.47 2.85 1.93 0 .46-.46.77-.93.77-.54 0-2.15-.31-3.47-.77-1.38-.39-2.54-1.31-2.54-1.93 0-.61.23-1.15.62-1.15zm.77 5.86c1.62.61 2.93 1.07 3.08 1.07.08 0 .16.55.16 1.16 0 .62-.16 1.16-.39 1.16s-1.77-.54-3.47-1.16c-1.7-.61-3.16-1.46-3.24-1.77-.07-.39.16-.85.47-1.16.3-.23 1.85 0 3.39.7zm-4.47 4.16c.46 0 2 .54 3.47 1.16 1.46.61 2.69 1.46 2.69 1.92 0 .47-.46.77-.92.77-.54 0-2.16-.46-3.55-1-1.39-.46-2.47-1.38-2.47-1.93 0-.46.39-.92.78-.92zm-1.32 5.4c.54 0 2.09.31 3.47.77 1.7.54 2.32 1.15 2.09 1.93-.31 1-.77 1-3.86 0-1.93-.62-3.31-1.47-3.08-1.93.31-.46.85-.77 1.38-.77zm.31 5.55c1.62.46 3.32.92 3.7 1.16.52.25.52.64 0 1.15-.46.46-2 .31-4.08-.31-1.78-.54-3.32-1.23-3.39-1.46-.08-.23.15-.62.38-.85.31-.23 1.85-.08 3.39.31zm-2.23 4.93c1.15.31 2.7.78 3.39 1.01.77.23 1.08.84.77 1.38-.38.77-1.16.77-3.47 0-1.54-.54-2.85-1.38-2.85-1.92 0-.62.69-.78 2.16-.47zm9.94 3.63 3.24.85c3.01.77 3.24 1 3.01 3.16-.23 2.16-.39 2.31-3.32 2.08-1.69-.08-3.31-.46-3.54-.77-.23-.31-.23-1.62.07-2.93l.54-2.39zm-12.72 1.31c.54 0 2.08.31 3.47.77 1.39.46 2.55 1.16 2.55 1.54 0 .47-.7.77-1.55.77-.84 0-2.39-.3-3.47-.77-1.08-.38-1.92-1.08-1.92-1.54 0-.39.38-.77.92-.77zm-1.54 5.4c.54 0 2.16.23 3.55.61 1.38.31 2.46 1.01 2.46 1.55 0 .53-.3.92-.61.92s-1.85-.31-3.47-.77c-1.55-.39-2.86-1.08-2.86-1.54 0-.39.39-.77.93-.77zm1.7 5.7c1.69.23 3.31.62 3.54.85.23.23 0 .77-.38 1.16-.54.46-1.85.46-3.7 0-1.55-.39-2.78-1.16-2.78-1.62.1-.57 1.21-.7 3.32-.39zm-2.78 4.63c.69.15 2.31.54 3.55.77 1.23.31 2.16.93 2.08 1.47-.08.69-1.08.77-3.78.38-2-.31-3.7-.77-3.86-1-.07-.16.08-.77.31-1.16.23-.46 1.01-.69 1.7-.46zm.39 5.55c1.31.23 2.85.62 3.39.77.54.16 1 .7 1 1.08 0 .46-1 .77-2.16.77-1.16 0-2.85-.15-3.85-.38-1.08-.24-1.55-.77-1.31-1.47.3-.85 1.15-1 2.93-.77zm12.02.31c1.08 0 2.7.23 3.55.46 1.39.39 1.47.77.77 4.78-.38 2.47-.69 14.27-.69 26.37 0 19.51.15 23.06 1.77 31.62.93 5.32 2.7 13.49 3.93 18.12 1.16 4.7 3.4 11.95 4.94 16.19 1.54 4.24 2.77 7.86 2.77 8.1 0 .23-1.31.84-2.93 1.38-1.54.62-3.08.77-3.39.39-.38-.31-1.85-4.09-3.39-8.33-1.47-4.24-3.39-10.33-4.24-13.49-.85-3.16-2.39-9.95-3.39-15.04-1.01-5.09-2.16-12.72-2.63-16.96-.38-4.24-1-11.03-1.23-15.04-.31-4.01-.15-12.49.31-18.89.46-6.32 1.08-13.34 1.31-15.57.46-3.78.62-4.09 2.54-4.09zm-13.49 4.93c.93.23 2.39.47 3.32.47 1.08 0 1.77.46 1.77 1.15 0 .62-.62 1.16-1.39 1.16-.69 0-2.47-.15-3.85-.39-1.93-.31-2.39-.69-1.93-1.61.31-.78 1.08-1.01 2.08-.78zm0 5.4c1.31.31 2.78.46 3.32.46s1 .54 1 1.16c0 .62-.46 1.16-1 1.16s-2.09-.23-3.47-.54c-1.47-.39-2.47-1.08-2.39-1.7.07-.77.84-.92 2.54-.54zm-.69 5.4c.84.23 2.16.46 2.85.46.77 0 1.39.46 1.39 1 0 .62-1.16.85-3.47.78-1.93-.16-3.55-.54-3.63-.85-.07-.39.23-.93.62-1.24.31-.31 1.39-.38 2.24-.15zm-.08 5.4c1.31.3 2.77.46 3.31.46s1.01.38 1.01.77c0 .46-1.55.77-3.47.77-2.78 0-3.47-.23-3.4-1.23.16-1 .7-1.16 2.55-.77zm-.77 5.39c.85.23 2.39.47 3.31.47 1.01 0 1.78.38 1.78.77 0 .46-1.55.77-3.47.77-2.78 0-3.47-.23-3.4-1.24.08-.84.62-1.07 1.78-.77zm1.39 5.25c1.77.15 3.31.69 3.47 1.23.15.62-.85.93-3.24.93-2.62 0-3.47-.31-3.47-1.16.07-.93.77-1.16 3.24-1zm.23 5.24c2.54 0 3.47.31 3.47 1.16 0 .84-.93 1.15-3.47 1.15-2.55 0-3.47-.31-3.47-1.15 0-.85.92-1.16 3.47-1.16zm0 5.4c2.54 0 3.47.31 3.47 1.15 0 .85-.93 1.16-3.47 1.16-2.55 0-3.47-.31-3.47-1.16 0-.84.92-1.15 3.47-1.15zm.77 5.4c1.93 0 3.47.38 3.47.77 0 .46-.54.92-1.16 1.15-.62.23-2.23.39-3.47.39-1.54 0-2.31-.39-2.31-1.16 0-.85.92-1.15 3.47-1.15zm3.31 5.78c.16.46-.15 1.08-.77 1.39-.54.3-2 .46-3.16.38-1.16-.15-2.16-.54-2.16-1 0-.39 1.31-.93 2.93-1.16 1.62-.23 3.01 0 3.16.39zm-.46 4.39c.77-.07 1.39.39 1.39 1.01 0 .61-.77 1.31-1.77 1.54-.93.23-2.47.38-3.47.38-1.01 0-1.7-.46-1.7-1.15 0-.7.85-1.24 2.08-1.39 1.16-.15 2.78-.39 3.47-.39zm.77 5.4c.77-.08 1.39.31 1.39.85s-1.08 1.23-2.47 1.54c-1.39.31-3 .54-3.54.54s-.93-.54-.93-1.16c0-.69.85-1.23 2.08-1.38 1.16-.16 2.78-.39 3.47-.39zm420.85 2.93c1.24 0 2.86.16 3.47.39.62.23 1.16.92 1.16 1.54 0 .85-.54 1.08-2.16.69-1.15-.23-2.7-.61-3.47-.77-.69-.15-1.31-.62-1.31-1.08 0-.38 1-.77 2.31-.77zM8.53 240.48c1 0 1.77.39 1.77.93s-1.31 1.15-2.85 1.46c-1.62.31-3.24.39-3.55.23-.31-.23-.54-.69-.54-1.15 0-.39.77-.93 1.7-1.08 1-.16 2.54-.31 3.47-.39zm419.85 3.01c1.38 0 3.08.31 3.7.69.61.39.85 1.08.54 1.54-.39.62-1.47.62-3.63.08-1.69-.38-3.08-1.08-3.08-1.54 0-.39 1.08-.77 2.47-.77zm-417.31 2.7c.39.46.31 1-.23 1.31-.54.23-2.16.62-3.55.77-1.46.15-2.77-.08-2.93-.54-.15-.39 1.16-1.08 2.93-1.54 2.16-.54 3.4-.54 3.78 0zm415.46 2.23c.69.16 2.23.54 3.39.77 1.46.31 2 .85 1.77 1.62-.31 1.01-.85 1.01-3.31.31-1.55-.46-3.16-1-3.47-1.15-.31-.16-.31-.7-.08-1.08.23-.47 1-.7 1.7-.47zM11.61 250.5c.54 0 1 .47 1 1.09 0 .61-.77 1.31-1.77 1.54-.92.23-2.47.38-3.47.38-.92 0-1.77-.31-1.85-.77-.08-.38 1-1.08 2.47-1.46 1.46-.39 3.08-.7 3.62-.78zm414.92 3.4c1.54.23 3.16.85 3.62 1.23.39.39.62.85.39 1.16-.23.23-1.78.15-3.4-.23-1.69-.31-3.16-1.08-3.31-1.7-.16-.85.38-.92 2.7-.46zm-413.76 2c.77 0 1.39.31 1.39.7 0 .46-.85 1.15-1.93 1.54-1.08.46-2.62.77-3.47.77-.93 0-1.39-.39-1.16-.92.23-.55 1.16-1.16 2.16-1.47.93-.31 2.31-.54 3.01-.62zm413.06 3.24c1.62.39 3.01 1.24 3.09 1.85.07.54-.16 1-.47 1-.3 0-1.92-.38-3.47-.92-1.61-.54-3-1.16-3.08-1.39 0-.31.15-.69.39-.92.3-.24 1.85-.08 3.54.38zM15 261.61c.39.46.24 1-.3 1.31-.47.23-2.01.69-3.4.93-1.77.38-2.54.23-2.54-.47 0-.54 1.23-1.31 2.78-1.77 1.92-.54 3-.54 3.46 0zm406.13 1.93c.31 0 1.85.38 3.47.77 1.7.46 2.85 1.31 2.85 1.93 0 .84-.46 1.07-1.7.69-1-.23-2.54-.77-3.46-1.16-1.01-.38-1.78-1-1.78-1.46 0-.39.31-.77.62-.77zm-405.59 2.54c.62.08 1.08.54 1.08.93 0 .46-1.31 1.23-2.93 1.77-2 .62-3.23.69-3.77.23-.47-.51.18-1.16 1.92-1.93 1.55-.61 3.16-1.08 3.7-1zm406.44 3.16c1.54.31 3.16.85 3.54 1.24.47.46.54 1.08.23 1.38-.38.31-2 .16-3.7-.38-1.69-.54-3-1.39-2.93-1.85.08-.54 1.08-.7 2.86-.39zm-403.74 1.78c.39.23.7.69.62 1.08 0 .38-1.62 1.23-3.55 1.85-3.16 1.07-3.39 1.07-3.08-.08.23-.69 1.54-1.7 2.85-2.24 1.31-.46 2.78-.77 3.16-.61zm399.96 2.54c.46 0 2 .54 3.47 1.16 1.54.69 2.7 1.54 2.7 1.92 0 .47-.23.78-.54.78-.31 0-1.93-.39-3.47-.93-1.62-.54-2.93-1.39-2.93-1.93s.38-1 .77-1zm-398.8 2.39c.54 0 .93.31.93.69 0 .47-1.16 1.31-2.7 1.93-1.47.7-3.01 1.16-3.47 1.16-.39 0-.85-.46-.93-1-.08-.62 1-1.39 2.55-1.85 1.46-.47 3.08-.85 3.62-.93zm399.26 3.32c1.62.46 3.09 1.31 3.32 1.85.31.54.31 1.15.07 1.31-.15.23-1.77-.23-3.54-.93-1.78-.77-3.09-1.77-2.93-2.23.15-.62 1-.62 3.08 0zM22.1 281.04c.38.23.69.62.69.92-.07.24-1.39 1.01-3 1.62-1.62.7-3.17 1.24-3.47 1.39-.31.08-.62-.31-.7-.92-.08-.54 1.16-1.55 2.78-2.16 1.62-.7 3.31-1.01 3.7-.85zm13.88 1.08c.31 0 .92.62 1.31 1.46.46.85.77 1.93.77 2.32 0 .46-1.31 1.46-5.78 3.78l-.93-1.86c-.54-1.07-1.08-2.23-1.15-2.69-.08-.39 1.07-1.24 2.54-1.85 1.46-.62 2.93-1.08 3.24-1.16zm378.36 1.46c.47 0 2.01.54 3.47 1.16 1.55.7 2.7 1.54 2.7 1.93 0 .46-.31.77-.77.77-.38 0-1.93-.46-3.47-1.16-1.46-.61-2.7-1.46-2.7-1.92 0-.39.39-.78.77-.78zm-391.47 2.4c.69 0 1.31.3 1.31.69 0 .46-1.31 1.31-2.85 2-1.93.77-3.16.93-3.7.47-.47-.54.07-1.16 1.54-1.93 1.31-.7 2.93-1.23 3.7-1.23zm389.39 2.23c.08 0 1.54.54 3.24 1.16 1.7.69 3.01 1.46 2.93 1.77-.08.31-.46.85-.77 1.16-.31.31-1.93-.16-3.47-1-1.62-.85-2.7-1.86-2.47-2.32.23-.38.46-.77.54-.77zM25.57 290.6c.54 0 .92.31.92.7 0 .46-1.38 1.46-3.08 2.31-1.85.92-3.24 1.23-3.47.77-.15-.39-.31-.85-.15-1 .07-.16 1.23-.85 2.46-1.55 1.31-.69 2.78-1.23 3.32-1.23zm14.42.77c.46-.07 1.23.85 1.77 2.08.54 1.16.93 2.16.77 2.24-.07 0-1.31.62-2.7 1.31-1.38.69-2.7 1.24-2.93 1.24-.15 0-.84-.93-1.46-2.09-1-2.08-1-2.16 1.39-3.47 1.31-.69 2.77-1.31 3.16-1.31zm370.19 1.47c.15 0 1.54.61 3.08 1.39 1.47.77 2.7 1.77 2.7 2.31-.07.54-.46.92-1 .92s-2.08-.69-3.47-1.54c-1.39-.85-2.31-1.85-2.08-2.31.23-.39.54-.77.77-.77zm-382.61 2.62c.39.08.85.46 1.01.85.15.46-1.01 1.38-2.63 2.08-1.62.77-3.16 1.16-3.47 1-.3-.23-.69-.62-.77-1-.07-.31 1.08-1.16 2.55-1.85 1.46-.7 2.93-1.16 3.31-1.08zm366.73.46c.3 0 .46.39.3.77-.15.46.16.62.7.46.54-.23 1.46-.07 2.08.31.77.39 1 1.16.62 1.93-.54 1.08-.85 1.08-2.93 0-1.55-.77-2.16-1.54-1.85-2.31.23-.62.77-1.16 1.08-1.16zm16.26 3.16c1.7.85 3.09 1.85 3.09 2.32 0 .38-.39.69-.85.69-.38 0-1.85-.54-3.24-1.23-1.38-.7-2.62-1.39-2.7-1.55-.15-.15 0-.61.24-1.07.23-.39 1.61-.08 3.46.84zm-379.98.77c.31 0 .54.39.62.93 0 .54-1.31 1.54-2.93 2.31-1.85.93-3.16 1.16-3.7.7-.47-.54.3-1.31 2.31-2.32 1.7-.92 3.39-1.62 3.7-1.62zm14.42 0c.23-.07.85.78 1.39 1.85.54 1.08.92 2.16.92 2.32 0 .23-1.15 1.08-2.7 1.92-1.46.85-2.77 1.62-2.85 1.62-.15 0-.69-1.07-1.39-2.31-.61-1.31-.92-2.47-.77-2.62.23-.15 1.47-.85 2.7-1.54 1.31-.7 2.55-1.24 2.7-1.24zm346.13 1.47c.24 0 .77.62 1.24 1.23.62 1.01.54 1.16-.54.77-.93-.25-1.39-.02-1.39.7 0 .69-.38 1.31-.93 1.46-.77.16-.77.31 0 .77.55.24 1.47 0 2.09-.69.69-.62 1.15-.85 1.15-.54 0 .31.54.08 1.16-.62.92-.77 1.23-.84 1.23-.15 0 .54-.54 1.16-1.23 1.31-.62.23-1 .69-.77 1 .15.31-.08 1.08-.46 1.7-.7 1-.78.92-.39-.16.31-.77.23-1.38-.08-1.38s-1.15.46-1.92 1c-.93.69-1.16 1.31-.62 2.08.51.77.77.85.77.23 0-.54.39-.77.77-.61.46.23.62.77.39 1.15-.16.46-.85.77-1.54.77-.62 0-1.32-.69-1.55-1.54-.23-.85-.77-1.31-1.31-1.08-.54.23-.46 0 .16-.54.69-.62 1.23-1.39 1.23-1.85 0-.39.46-1.7 1.08-2.85.54-1.16 1.23-2.16 1.46-2.16zm17.12 2.39c1.7.85 3.09 1.77 3.09 2.08 0 .31-.31.85-.62 1.16-.31.31-1.93-.23-3.47-1.16-1.62-1-3.01-1.93-3.08-2.16 0-.31.15-.69.46-.92.38-.31 2 .15 3.62 1zm-375.36.77c.31 0 .54.39.54.93.08.53-1 1.54-2.31 2.31-1.23.77-2.62 1.31-3.08 1.31-.39 0-.85-.46-.93-1-.08-.54 1.08-1.54 2.55-2.24 1.46-.69 2.93-1.31 3.23-1.31zm369.5 2.24c.23 0 1.62.69 3.09 1.54 1.54.85 2.7 1.85 2.77 2.16 0 .31-.15.85-.38 1.15-.24.31-1.62-.15-3.17-1-1.46-.85-2.69-2-2.69-2.7 0-.61.23-1.15.38-1.15zM49.7 308.26c.39 0 2.16 2.24 3.94 4.86 1.77 2.62 4.93 7.09 7.01 9.79 2.08 2.78 7.25 8.87 11.57 13.49 4.39 4.71 10.64 11.03 14.03 14.04 3.39 3.08 9.33 7.86 13.11 10.79 3.86 2.85 10.1 7.17 13.88 9.56 3.85 2.39 10.87 6.33 15.65 8.72 4.78 2.39 12.03 5.7 16.2 7.32 4.08 1.7 10.48 3.93 14.03 5.09 3.62 1.08 10.41 2.85 15.03 3.93 4.71 1.01 11.88 2.39 16.04 3.01 4.09.69 9.25 1.16 11.34 1.16 2.16 0 4.01.3 4.24.61.15.31.07 1-.23 1.55-.39.84-2.01.84-8.25.15-4.24-.46-10.8-1.39-14.65-2.01-3.78-.69-10.03-2-13.88-3-3.78-1.01-11.11-3.24-16.2-4.94-5.09-1.77-12.33-4.55-16.19-6.24-3.78-1.7-11.1-5.4-16.19-8.25-5.09-2.93-11.49-6.79-14.27-8.64-2.69-1.85-8.25-6.01-12.33-9.18-4.01-3.23-11.41-9.79-16.43-14.72-5.01-4.94-11.87-12.42-15.26-16.66-3.32-4.24-7.79-10.25-9.95-13.49-2.08-3.16-3.62-6.02-3.39-6.32.23-.31.77-.62 1.15-.62zm-14.49.85c.31 0 .77.31.92.69.23.46-.69 1.47-2.08 2.31-1.39.85-2.93 1.55-3.47 1.55s-1-.31-1-.78c0-.38 1.15-1.38 2.54-2.23 1.39-.77 2.78-1.47 3.09-1.54zm367.72 3.93c1.7.92 3.09 1.93 3.09 2.16-.08.23-.39.69-.7 1-.31.31-1.77-.23-3.31-1.08-1.47-.92-2.78-1.85-2.86-1.93-.15-.15 0-.61.23-1.08.31-.46 1.62-.15 3.55.93zm-364.64.62c.31 0 .54.46.54 1 .08.54-1 1.54-2.31 2.31-1.24.77-2.62 1.31-3.09 1.31-.38 0-.77-.31-.84-.77-.08-.38 1.07-1.46 2.54-2.31 1.39-.85 2.85-1.54 3.16-1.54zm358.94 2.39c.3 0 1.69.69 3.08 1.54 1.39.85 2.39 1.93 2.24 2.47-.16.54-.47.84-.78.77-.3-.08-1.69-.93-3.23-1.78-1.47-.85-2.47-1.85-2.24-2.31.23-.38.62-.69.93-.69zm-356.24 2.31c.54 0 .93.31.93.69 0 .47-1.01 1.47-2.32 2.32-1.23.84-2.62 1.54-3.08 1.54-.39 0-.77-.39-.85-.93-.08-.54.85-1.62 2.08-2.31 1.24-.69 2.7-1.31 3.24-1.31zm353.31 2.24c.46 0 1.85.69 3.08 1.54 1.31.85 2.31 1.93 2.31 2.31 0 .46-.38.85-.92.85s-1.93-.69-3.09-1.54c-1.15-.85-2.16-1.93-2.16-2.39 0-.39.39-.77.78-.77zm-349.84 2c.39.23.69.77.62 1.16 0 .38-1.31 1.54-2.78 2.47-1.85 1.15-3.01 1.46-3.47.92-.54-.46.23-1.46 2.01-2.85 1.54-1.08 3.16-1.85 3.62-1.7zm349.45 3.63c1.54.92 2.7 2.15 2.7 2.69s-.39.93-.93.93-2-.85-3.31-1.85c-1.31-1.08-2.01-2.16-1.7-2.62.39-.62 1.47-.31 3.24.85zm-347.14.61c.31 0 .77.31.93.7.23.46-.7 1.69-2.08 2.69-1.39 1.08-2.78 1.93-3.09 1.93-.31 0-.69-.46-.77-1.08-.08-.62.85-1.77 2.16-2.62 1.23-.92 2.54-1.62 2.85-1.62zm341.2 2.31c.31 0 1.7.7 3.09 1.55 1.38.85 2.46 1.85 2.46 2.23 0 .47-.23.93-.53 1.16-.31.15-1.7-.39-3.09-1.39-1.39-.92-2.47-2.08-2.47-2.62-.07-.54.23-.93.54-.93zm-337.19 2.32c.54.54.08 1.39-1.54 2.62-1.23 1.08-2.7 1.93-3.24 1.93s-1.08-.31-1.15-.7c-.08-.38 1.07-1.62 2.46-2.62 1.75-1.33 2.91-1.75 3.47-1.23zm321.69.92c1.01.93 1.62 2.01 1.39 2.32-.23.3-.77.61-1.31.61s-1.54-.61-2.31-1.38c-1-1.01-1.16-1.55-.47-2.32.78-.77 1.32-.62 2.7.77zm15.43 2.62c1.46 1.08 2.69 2.32 2.62 2.7 0 .31-.46.62-1.01.62-.53 0-2-.77-3.23-1.7-1.39-1.07-2.01-2.08-1.7-2.69.46-.7 1.31-.47 3.32 1.07zm-334.57.31c.54 0 .92.24 1 .54 0 .31-1.08 1.62-2.31 2.86-1.85 1.85-2.63 2.16-3.32 1.46-.77-.77-.46-1.39 1.31-2.93 1.31-1.08 2.78-1.93 3.32-1.93zm313.36.39c.46.23.77 1.08.69 1.93-.05 1.02.31 1.38 1.08 1.08.7-.16 1.16-.08 1.16.23s-1.39 1.93-6.17 6.71l-1.54-1.55c-.85-.85-1.54-1.92-1.54-2.46s.54-1.01 1.15-1.01c.7 0 1.16-.31 1.16-.77 0-.38.46-.46 1-.15.54.31.7.23.39-.23-.31-.39 0-1.55.69-2.47.62-1 1.55-1.54 1.93-1.31zm14.96 1.85c.15 0 1.39.69 2.62 1.54 1.31.85 2.31 2.08 2.31 2.7 0 .69-.15 1.16-.38 1.16-.15 0-1.54-.85-3.08-1.93-1.47-1-2.47-2.24-2.24-2.7.23-.39.54-.77.77-.77zM56.8 339.18c.31 0 .69.23.92.54.23.31-.69 1.62-1.93 2.85-1.61 1.78-2.62 2.16-3.62 1.7-1.23-.54-1-.85 1.31-2.85 1.54-1.24 3.01-2.24 3.32-2.24zm321.53 2.24c.54 0 1.93 1.07 3.09 2.31 1.15 1.31 1.77 2.54 1.31 2.7-.39.23-1.77-.54-3.09-1.7-1.23-1.16-2.31-2.39-2.31-2.7 0-.31.47-.61 1-.61zm-317.52 2.46c.54.54 0 1.47-1.93 3.01-1.85 1.54-2.93 2-3.47 1.46-.46-.54.08-1.54 1.93-3.08 1.85-1.46 2.93-1.93 3.47-1.39zm314.06 1.39c.3 0 1.54 1.08 2.69 2.31 1.16 1.31 1.93 2.78 1.62 3.32-.31.62-1.31.08-3-1.77-1.47-1.47-2.47-2.94-2.24-3.24.23-.31.62-.62.93-.62zm-311.21 1.54c.39 0 .85.39 1 .77.23.47-.69 1.85-2.08 3.09-1.62 1.39-2.78 2-3.32 1.54-.46-.46.08-1.54 1.55-3.08 1.23-1.24 2.54-2.32 2.85-2.32zm307.35 2.39c.31 0 1.54.85 2.7 1.93 1.16 1 2.08 2.24 2.08 2.62 0 .46-.39.77-.92.77-.55 0-1.78-.77-2.7-1.69-1.01-1.01-1.78-2.16-1.78-2.7s.31-.93.62-.93zm-303.5 1.47c.39 0 .78.31 1.01.61.23.31-.77 1.78-2.24 3.24-1.77 1.85-2.7 2.39-3.08 1.78-.23-.54.46-2.01 1.62-3.32 1.15-1.23 2.39-2.31 2.7-2.31h-.01zm299.8 2.31c.46 0 1.62 1 2.7 2.16 1.08 1.16 1.92 2.39 1.92 2.7 0 .31-.38.61-.92.61s-1.77-1.07-2.7-2.31c-1-1.31-1.77-2.54-1.77-2.77 0-.16.38-.39.77-.39zm-295.94 1.54c.39 0 .77.31 1 .62.23.31-.77 1.77-2.23 3.24-1.78 1.85-2.7 2.39-3.09 1.77-.23-.54.47-2 1.62-3.31 1.16-1.24 2.39-2.32 2.7-2.32zM366 358.15c1.15 1.23 2.16 2.62 2.16 3.16-.08.54-.31 1-.62 1s-1.54-1.08-2.7-2.31c-1.16-1.31-1.85-2.7-1.62-3.16.39-.54 1.39-.08 2.78 1.31zm-290.77.23c.38 0 .61.46.61 1s-.77 1.77-1.69 2.7c-1.01 1-2.16 1.77-2.7 1.77s-1.08-.31-1.16-.61c-.08-.24.85-1.47 2.08-2.7 1.24-1.16 2.55-2.16 2.86-2.16zm264.94 1.69c.61.16 1.54.78 1.92 1.39.47.7.54 1.85.31 2.7-.54 1.54-.61 1.54-2.54-.38-1.24-1.16-1.78-2.32-1.47-2.93.31-.54 1.16-.85 1.78-.78zm19.27-.15c.31 0 1.55 1.08 2.7 2.31 1.16 1.31 1.93 2.7 1.7 3.09-.16.46-1.39-.16-2.7-1.31-1.23-1.16-2.31-2.55-2.31-3.09s.3-1 .61-1zM79 361.46c.39 0 .7.47.7 1 0 .54-.85 2.01-1.85 3.24-1.08 1.39-2.16 2.09-2.7 1.78-.54-.39-.16-1.47 1.16-3.32 1.15-1.46 2.31-2.7 2.69-2.7zm256 2.39c.23 0 .46.23.46.54.08.31.16 1.24.16 2.09.07 1.31.23 1.38.77.38.54-.85.77-.92 1.16-.15.3.54-.08 1.38-.7 1.92-.69.54-1.16.7-1.16.39 0-.31-.69.08-1.54.92-1.08 1.16-1.85 1.39-2.7.77-.84-.53-1.15-.38-1.31.54-.15 1.08-.46.93-2.93-2.85l2.39.62c1.93.46 2.32.31 2.32-.77-.08-.77-.47-1.39-1.01-1.39s.08-.62 1.31-1.47c1.32-.77 2.55-1.46 2.78-1.54zm20.59-.07c.31 0 1.54 1.08 2.7 2.31 1.15 1.31 1.92 2.7 1.69 3.08-.15.47-1.38-.15-2.7-1.31-1.23-1.15-2.31-2.54-2.31-3.08s.31-1 .62-1zm-272.88 1.54c.23 0 .77.15 1.07.38.31.24-.38 1.62-1.54 3.09-1.15 1.46-2.39 2.46-2.7 2.31-.3-.23-.61-.62-.69-1 0-.39.69-1.62 1.62-2.7.92-1.16 1.93-2.08 2.24-2.08zm269.02 1.54c.31 0 1.54 1.23 2.7 2.7 1.54 2 1.85 2.85 1.16 3.24-.62.31-1.85-.54-3.09-2.09-1.15-1.46-1.92-2.92-1.69-3.23.23-.31.61-.62.92-.62zM87.49 368.4c.38 0 .69.31.69.62s-.77 1.69-1.7 3.08c-1 1.39-2 2.47-2.31 2.47-.31 0-.77-.31-1-.77-.16-.39.54-1.77 1.62-3.09 1.08-1.23 2.31-2.31 2.7-2.31zm262.24 3.86c1.23 1.54 2.23 3 2.16 3.31 0 .31-.39.62-.93.62s-1.77-1.08-2.7-2.31c-1-1.31-1.54-2.78-1.23-3.32.38-.69 1.23-.08 2.7 1.7zm-258.31-.77c.38 0 .77.31 1 .61.15.31-.54 1.7-1.54 3.09-1.08 1.39-2.24 2.46-2.7 2.46-.39 0-.77-.3-.77-.77 0-.38.77-1.77 1.7-3.08.92-1.23 1.92-2.31 2.31-2.31zm251.83 1.54c.31.08 1.47 1.23 2.47 2.77 1.28 1.8 1.67 2.96 1.16 3.47-.47.47-1.47-.23-2.86-2.15-1.15-1.62-1.85-3.17-1.7-3.48.24-.3.62-.61.93-.61zm-246.97 2.23c.54.54.23 1.47-.93 3.17-1 1.31-2.24 2.31-2.93 2.31-.62 0-1.16-.23-1.16-.46-.07-.31.85-1.7 2.09-3.16 1.46-1.78 2.39-2.39 2.93-1.86zm244.58 2.93c1 1.24 1.77 2.63 1.77 3.17s-.23 1.08-.54 1.31c-.3.15-1.38-.85-2.31-2.32-1-1.46-1.46-3.08-1.16-3.54.39-.54 1.16-.08 2.24 1.38zm-241.04-.54c.39 0 .85.31 1.08.62.16.31-.38 1.7-1.39 3.09-.92 1.38-2.08 2.46-2.62 2.46s-1-.15-1.08-.46c-.07-.23.62-1.62 1.55-3.08 1-1.39 2.08-2.63 2.46-2.63zm234.95 1.62c.31 0 1.31 1.16 2.31 2.7.93 1.47 1.7 2.86 1.7 3.01 0 .23-.46.39-1.16.39-.62 0-1.77-1.08-2.62-2.47-.85-1.39-1.31-2.78-1.08-3.09.15-.3.54-.61.85-.54zm-230.4 1.47c.46 0 .77.39.77.77 0 .46-.61 1.85-1.31 3.16-.77 1.24-1.77 2.32-2.31 2.32-.54-.08-1-.31-1-.62s.69-1.7 1.54-3.09c.85-1.38 1.93-2.54 2.31-2.54zm199.32 1.54c.7 0 1.55.85 2.01 1.78.62 1.23.62 1.92 0 2.46s-1.23.31-2.01-.77c-.61-.85-1.15-1.93-1.15-2.47 0-.54.54-1 1.15-1zm26.76 0c.39 0 1.31 1.16 2.16 2.55.85 1.38 1.54 2.77 1.54 3.08 0 .31-.46.54-1.15.54-.62 0-1.86-1.16-2.7-2.7-.85-1.46-1.31-2.85-1.01-3.08.31-.16.77-.39 1.16-.39zm-220.99 1.47c.54.54.31 1.62-.77 3.31-.85 1.31-2 2.55-2.54 2.7-.47.16-1.01-.08-1.08-.62-.08-.46.69-2.08 1.69-3.47 1.31-1.85 2.08-2.46 2.7-1.92zm188.45.92c.39 0 .54.31.39.77-.16.39-.16 1.24.07 1.93.24.62.77.85 1.32.54.61-.36.77-.15.46.62-.23.61-1.01 1-1.7.92-.69-.07-1.23.16-1.23.62 0 .38-.39.77-.77.77-.47 0-.62-.39-.39-.77.23-.46-.15-.77-.77-.77s-1.31.69-1.54 1.54c-.23.85-.77 1.54-1.16 1.54-.46 0-1.16-.92-1.54-1.93-.46-1.07-.62-2.31-.39-2.69.23-.47.7-.77 1.01-.77.38 0 .54.38.3.92-.15.54.16.39.78-.39.54-.77 1.62-1.31 2.39-1.31.69 0 1.46-.38 1.69-.77.23-.46.77-.77 1.08-.77zm27.76-.07c.23 0 1.23 1.38 2.16 3.08 1.08 1.85 1.46 3.32 1 3.55-.46.15-.92.23-1 .15-.15-.08-1-1.39-1.93-2.85-.92-1.54-1.46-3.01-1.15-3.32.23-.31.69-.54.92-.61zm-211.97 1.61c.39 0 .77.31.77.78 0 .38-.69 1.92-1.54 3.46-.85 1.47-1.93 2.47-2.31 2.32-.46-.23-.77-.7-.77-1 0-.31.69-1.7 1.54-3.09.85-1.39 1.85-2.47 2.31-2.47zm207.42 1.55c.39 0 1.47 1.08 2.31 2.46.77 1.39 1.47 2.78 1.55 3.09 0 .31-.54.62-1.16.62-.62 0-1.7-1.08-2.31-2.32-.62-1.31-1.16-2.7-1.16-3.08 0-.47.31-.77.77-.77zm-202.56 1.23c.31.39 0 2.01-.77 3.55-.77 1.62-1.62 2.93-2.01 2.93-.3 0-.69-.39-.92-.77-.23-.47.38-2.01 1.31-3.55.92-1.54 2-2.47 2.39-2.16zm198.09 1.08c.31 0 1.31 1.39 2.16 3.08 1.31 2.62 1.38 3.09.38 3.47-.77.24-1.69-.61-2.7-2.54-.84-1.62-1.31-3.16-1-3.47.23-.31.77-.54 1.16-.54zm-193.46 1.23c.38.39.07 1.85-.7 3.4-.69 1.46-1.38 2.77-1.54 2.85-.15.08-.69 0-1.08-.16-.46-.23-.08-1.69.93-3.62 1-1.77 2-2.85 2.39-2.47zm188.6 1.01c.23 0 1.08 1.31 1.85 2.93.93 1.85 1.08 3.16.62 3.7-.46.46-1.31-.31-2.32-2.32-.84-1.69-1.38-3.39-1.07-3.7.23-.31.69-.54.92-.61zm-183.82 1.54c.54.54.31 1.69-.62 3.54-.69 1.47-1.7 2.7-2.08 2.7-.46 0-.77-.38-.77-.77 0-.46.61-2 1.31-3.55.92-1.92 1.62-2.46 2.16-1.92zm178.89.85c.61 0 1.62 1.23 2.23 2.85.62 1.62.93 3.16.77 3.47-.15.31-.54.61-.92.61-.31 0-1.16-1.23-1.93-2.69-.69-1.55-1.31-3.09-1.31-3.47 0-.47.54-.77 1.16-.77zm-174.73.69c.23 0 .69.15 1 .38.39.24 0 1.86-.77 3.55-.69 1.7-1.54 3.09-1.93 3.09-.3 0-.69-.39-.92-.78-.23-.46.15-2 .85-3.46.69-1.55 1.54-2.78 1.77-2.78zm133.17 1.85c.53.93 1 2.08 1.08 2.62 0 .54-.7 1-1.55 1-1.08 0-1.69-.69-2-2.16-.23-1.23 0-2.31.54-2.62.61-.38 1.38.08 1.93 1.16zm-7.25-.15c.38-.08.61.23.61.69 0 .39-.46.46-.92.15-.69-.38-.85-.15-.39.77.31.78.54 1.7.54 2.16 0 .39.31.54.77.39.39-.23.78-.08.78.38 0 .39-.7.55-1.55.39-.84-.23-1.69-.08-1.92.39-.24.38-1.01.54-1.78.38-.69-.23-1.85 0-2.47.54-1 .85-1 .85 0-.38 1.01-1.24 1.01-1.39-.23-1.39-.69 0-1.31-.31-1.31-.7 0-.46.31-.61.77-.38.39.15.77 0 .77-.39 0-.46-.46-1-1-1.15-.46-.24-.15-.24.77 0 1.01.15 1.78 0 1.78-.39 0-.46.92-.92 2.08-1.08 1.23-.15 2.39-.31 2.7-.38zm43.95-.16c.54 0 1.46 1.24 1.93 2.7.54 1.54.77 3.16.46 3.7-.31.62-1 0-1.85-1.7-.77-1.54-1.39-3.16-1.47-3.7 0-.54.47-.92.93-1zm-164.7.85c.61 0 1.08.31 1.08.77 0 .39-.54 1.85-1.24 3.24-.69 1.39-1.39 2.62-1.54 2.7-.15.08-.69 0-1.08-.16-.46-.3-.31-1.54.46-3.47.7-1.69 1.78-3.08 2.32-3.08zm97.54.85c.23-.08.31.69.07 1.62-.23.92-1 3.31-1.69 5.24-.77 1.85-1.7 3.55-2.08 3.63-.31.15-1.55-1.7-2.78-4.01-1.16-2.4-2.08-4.63-2.08-5.02 0-.46 1.85-.92 4.01-1.08 2.24-.07 4.32-.31 4.55-.38zm62.53-.08c.31 0 1.16 1.39 1.77 3.08.62 1.7 1.16 3.24 1.16 3.48 0 .15-.46.38-1 .38-.46 0-1.54-1.39-2.31-3.08-.7-1.7-1.08-3.32-.78-3.47.24-.24.78-.39 1.16-.39zm-155.45 1.54c.62 0 1.08.31 1.08.77 0 .39-.54 2.01-1.15 3.63-.78 1.93-1.47 2.62-1.93 2.16-.46-.54-.46-1.85.15-3.7.47-1.62 1.31-2.86 1.85-2.86zm70.48 0c2.08 0 3.85.16 3.85.39 0 .15-.84 2.08-1.92 4.24-1.08 2.08-2.08 3.85-2.32 3.85-.23 0-1.08-1.61-1.92-3.46-.85-1.93-1.55-3.86-1.55-4.25 0-.46 1.7-.77 3.86-.77zm79.73.77c.77 0 1.54 1.08 2.08 2.86.54 2 .54 3.16 0 3.7-.54.46-1 .15-1.46-1.16-.39-1.08-1.01-2.77-1.32-3.7-.38-1.31-.23-1.7.7-1.7zm-144.96.77c.46 0 .69.78.54 1.7-.16.93-.62 2.55-.93 3.47-.38.93-.92 1.77-1.31 1.77-.31 0-.77-.15-1.16-.38-.31-.23 0-1.77.7-3.47.69-1.7 1.62-3.09 2.16-3.09zm140.02.78c.39 0 1.08.77 1.47 1.69.31.93.85 2.55 1.15 3.47.31 1.24.16 1.78-.69 1.78-.62 0-1.54-1.16-1.93-2.55-.46-1.39-.77-2.93-.77-3.47s.31-.92.77-.92zm-134.93.77c.38 0 .77.38.77.92s-.31 2.09-.77 3.47c-.47 1.39-1.32 2.55-1.93 2.55-.85 0-1-.54-.7-1.78.31-.92.78-2.54 1.16-3.47.39-.92 1-1.69 1.47-1.69zm130.46.77c.46 0 1.16 1.23 1.47 2.85.38 1.62.69 3.16.69 3.47 0 .31-.46.62-1 .62-.46 0-1.31-1.31-1.85-2.93-.54-1.54-.77-3.16-.54-3.47.23-.31.77-.54 1.23-.54zm-125.91.69c.23 0 .69.23 1 .47.38.23.31 1.77-.16 3.46-.46 1.86-1.23 3.09-1.92 3.09-.62 0-1.16-.31-1.16-.62s.39-1.85.85-3.47c.46-1.62 1.08-2.93 1.39-2.93zm120.51.85c.31 0 .93 1.08 1.39 2.47.46 1.39.77 2.93.77 3.47s-.46 1-1 1c-.46 0-1.47-1.39-2-3.08-.62-1.7-.85-3.24-.47-3.47.31-.24.93-.39 1.31-.39zm-115.04.77c.46 0 .77.7.77 1.54 0 .85-.39 2.39-.77 3.47-.46 1.01-1.16 1.93-1.54 1.93-.46 0-.62-1.23-.31-2.93.23-1.62.62-3.16.77-3.47.23-.31.69-.54 1.08-.54zm109.96.77c1 0 1.38.77 1.61 3.24.16 1.78.08 3.47-.15 3.7-.23.16-.69 0-1.08-.38-.38-.47-.93-2.09-1.16-3.7-.46-2.39-.31-2.86.78-2.86zm-104.87.77c.62 0 1.08.39 1.08.93s-.31 2.08-.77 3.47c-.46 1.39-1.16 2.54-1.55 2.54-.46 0-.77-.46-.77-1s.16-2.08.47-3.47c.23-1.39.92-2.47 1.54-2.47zm5.01.77c.39 0 .85.24 1 .62.16.39 0 1.93-.38 3.47-.39 1.7-1.16 2.85-1.85 2.85-.7 0-1-.53-.85-1.38.23-.77.62-2.32.85-3.47.31-1.16.85-2.09 1.23-2.09zm94.3 0c.7 0 1.39.78 1.62 1.7.16.93.46 2.39.54 3.24.16.77-.23 1.54-.77 1.7-.54.15-1.08-.62-1.39-1.85-.23-1.16-.54-2.7-.77-3.47-.31-.88-.05-1.32.77-1.32zm-4.78.78c.31 0 .77.38.93.92.15.54.54 2.08.77 3.47.31 1.77.15 2.55-.54 2.55-.46 0-1.47-1.39-2.01-3.09-.61-1.7-.84-3.24-.46-3.47.31-.23.93-.38 1.31-.38zm-84.2.77c.46 0 .77.77.77 1.69 0 .93-.23 2.55-.38 3.47-.24.93-.93 1.78-1.55 1.78-.61 0-1.15-.31-1.15-.62s.38-1.85.77-3.47c.46-1.62 1.16-2.85 1.54-2.85zm79.5.46c.23.38.69 1.93 1 3.55.39 2.31.23 2.93-.69 2.93-.77 0-1.31-1-1.54-2.7-.24-1.54-.16-3.09.15-3.55.31-.46.77-.54 1.08-.23zm-74.1.31c.46 0 .77.77.77 1.69 0 .93-.23 2.55-.39 3.48-.23.92-.92 1.77-1.54 1.77-.92 0-1.08-.62-.69-2.93.31-1.62.62-3.16.85-3.47.15-.31.61-.54 1-.54zm5.01.77c.62 0 1.16.39 1.16.92 0 .54-.23 2.09-.54 3.48-.39 1.46-1.08 2.54-1.78 2.54-.92 0-1-.54-.54-2.54.31-1.39.54-2.94.54-3.48 0-.53.54-.92 1.16-.92zm59.22 2.85c.39 1.62.46 3.32.23 3.86s-.69 1-1.08 1c-.31 0-.92-1.47-1.31-3.31-.62-2.63-.54-3.32.31-3.78.85-.47 1.31.07 1.85 2.23zm4.01-2.85c1.08 0 1.54.62 1.69 2.47.16 1.38.24 2.93.24 3.47s-.54 1-1.16 1c-.62 0-1.16-.46-1.16-1s-.23-2.09-.54-3.47c-.38-2.08-.23-2.47.93-2.47zm-57.99.77c.62 0 .93.69.78 1.7-.08.92-.24 2.54-.24 3.47 0 1.15-.46 1.77-1.38 1.77-1.08 0-1.24-.38-.7-2.54.31-1.39.54-2.93.54-3.47s.46-.93 1-.93zm47.81 0c.46 0 .93 1.08 1.16 2.47.15 1.39.15 3.24-.16 4.09-.31.92-.77 1.23-1.15.77-.39-.47-.93-2.09-1.32-3.63-.38-1.54-.3-3.01.08-3.24.31-.31 1.01-.46 1.39-.46zm-42.56.77c.38 0 .69 1.54.69 3.47 0 2.55-.31 3.47-1.16 3.47-.61 0-1.15-.46-1.15-1s.15-2.08.46-3.47c.23-1.39.77-2.47 1.16-2.47zm5.4 0c.38 0 .69 1.54.69 3.47 0 2.55-.31 3.47-1.16 3.47-.62 0-1.15-.46-1.15-1s.15-2.08.46-3.47c.23-1.39.77-2.47 1.16-2.47zm27.06.39c.38.23.69 1.85.69 3.47-.07 2.16-.38 3.08-1.23 3.08s-1.23-.92-1.31-3.01c-.08-1.62.15-3.16.46-3.39.39-.31 1-.31 1.39-.15zm4.47-.39c.39 0 .93.46 1.16 1.16.23.62.38 2.16.38 3.47 0 1.54-.38 2.31-1.15 2.31-.85 0-1.16-.92-1.16-3.47 0-1.93.31-3.47.77-3.47zm-26.45.77c.62 0 1.01 1.01 1.01 3.09 0 2.23-.31 3.08-1.16 3.08-.85 0-1.16-.85-1-3.08.07-2.01.46-3.09 1.15-3.09zm5.17 0c.93 0 1.23.85 1.23 3.47 0 2.39-.3 3.39-1 3.16-.46-.07-1-1.69-1.16-3.47-.23-2.46 0-3.16.93-3.16zm5.47 0c.85 0 1.16.85 1.16 3.09 0 1.69-.38 3.24-.77 3.47-.46.15-.92-.16-1.16-.77-.23-.7-.38-2.24-.38-3.47 0-1.55.38-2.32 1.15-2.32zm5.32 0c.93 0 1.16.7 1.01 3.24-.08 1.78-.54 3.32-.93 3.32-.46 0-.85-1.54-1-3.32-.23-2.54 0-3.24.92-3.24z" fill="#F4F4F4" fill-rule="evenodd" class="layer"/></svg>