<svg viewBox="0 0 434 434" xmlns="http://www.w3.org/2000/svg">
<path fill-rule="evenodd" clip-rule="evenodd" d="M203.652 7C204.809 7 205.117 7.53975 205.04 9.46743C204.963 10.8554 204.423 12.0891 203.729 12.3204C202.881 12.5517 202.727 12.3204 203.19 11.3951C203.498 10.624 203.421 10.2385 202.958 10.4698C202.573 10.7011 202.187 10.0072 202.187 8.92768C202.187 7.53975 202.573 7 203.652 7ZM174.66 11.0096C175.2 11.2409 175.739 12.5517 175.894 14.0168C176.125 16.4071 175.971 16.5613 174.506 16.0215C173.58 15.7131 172.886 15.7902 172.886 16.2529C172.886 16.7155 172.192 16.8697 171.344 16.6384C170.496 16.4071 169.802 16.5613 169.802 17.0239C169.802 17.4866 169.185 17.795 168.491 17.795C167.566 17.795 167.412 17.5894 168.029 17.1782C168.568 16.8697 168.8 15.8673 168.645 14.8649C168.414 13.7854 167.952 13.3999 167.335 13.7083C166.666 14.1196 166.538 13.9911 166.949 13.3228C167.258 12.8602 167.874 12.5517 168.26 12.783C168.723 13.0144 169.725 12.783 170.65 12.2433C172.115 11.3951 172.192 11.4722 171.19 12.7059C170.342 13.8625 170.342 14.0168 171.576 13.9397C172.27 13.9397 173.041 13.2457 173.272 12.3204C173.503 11.3951 174.12 10.8554 174.66 11.0096ZM161.706 14.7107C162.323 14.7107 163.094 15.636 163.325 16.7926C163.556 18.0263 163.556 19.1058 163.325 19.3372C163.094 19.5685 162.323 19.4914 161.706 19.1058C161.089 18.7974 160.549 17.7179 160.549 16.6384C160.549 15.4047 161.012 14.7107 161.706 14.7107ZM135.412 26.5081C136.106 27.6647 136.492 28.8214 136.26 29.1298C136.029 29.5153 135.875 29.284 135.875 28.7442C135.875 28.2816 135.258 27.819 134.564 27.819C133.793 27.7419 132.636 28.2816 132.02 28.9756C131.017 30.0551 131.017 30.2093 132.405 30.2093C133.562 30.1322 133.407 30.4406 131.634 31.2888C130.4 31.9828 129.012 32.4454 128.55 32.4454C128.164 32.4454 128.318 32.0599 128.935 31.6743C129.706 31.1603 129.783 30.9033 129.167 30.9033C128.627 30.9033 128.164 30.3635 128.164 29.6695C128.164 28.8985 127.856 28.7442 127.239 29.1298C126.622 29.541 126.468 29.3611 126.776 28.59C127.008 27.9732 127.702 27.5105 128.473 27.5876C129.167 27.7419 129.706 27.4334 129.706 27.0479C129.706 26.5852 130.4 26.1226 131.248 25.8913C132.097 25.66 132.945 25.8142 133.176 26.2768C133.407 26.6624 133.947 27.0479 134.333 27.0479C134.795 27.0479 134.872 26.431 134.641 25.66C134.41 24.966 134.795 25.2744 135.412 26.431V26.5081ZM121.918 30.9804C122.844 30.9804 123.692 31.5201 123.923 32.137C124.155 32.7538 124.309 33.8333 124.309 34.4502C124.309 35.067 123.769 35.6068 123.152 35.6068C122.535 35.6068 121.996 35.2213 121.996 34.8357C121.996 34.4502 122.458 34.296 122.998 34.6044C123.538 34.8357 123.615 34.7586 123.306 34.3731C122.921 33.9875 122.227 33.6791 121.764 33.6791C121.225 33.6791 120.762 33.0623 120.608 32.2912C120.376 31.3659 120.839 30.9804 121.918 30.9804ZM97.4755 46.4018C98.0152 46.4018 98.8634 47.25 99.4031 48.3295C100.251 49.9487 100.251 50.3343 99.4031 50.7969C98.7863 51.1054 97.7839 51.8764 97.167 52.5704C96.0875 53.5728 95.7791 53.5728 94.6996 52.5704C93.543 51.568 93.3888 51.568 93.4659 52.7246C93.4659 53.4957 93.8514 54.1125 94.3912 54.1125C95.008 54.1125 95.0851 54.3953 94.6225 54.9607C94.1599 55.4234 93.3888 55.5776 92.9261 55.3463C92.3093 55.0378 92.1551 54.2668 92.4635 53.1101C92.9261 51.7222 92.7719 51.4909 91.6924 51.9535C90.9214 52.3391 90.3816 52.262 90.3816 51.7993C90.3816 51.4138 90.9214 51.0282 91.5382 51.0282C92.1551 51.0282 92.849 50.4885 93.0804 49.8716C93.3117 49.2548 94.0056 48.715 94.6225 48.715C95.2394 48.715 95.9333 48.1753 96.1646 47.5584C96.3189 46.9416 96.9357 46.4018 97.4755 46.4018ZM87.1431 54.8836C88.2226 54.8836 88.2997 55.0378 87.2973 55.5776C86.372 56.1173 86.4491 56.3487 87.9142 56.7342C88.8395 56.9655 89.6105 57.7366 89.6105 58.3534C89.6105 58.9703 89.0708 59.51 88.4539 59.51C87.8371 59.51 86.7576 58.739 86.1407 57.7366C85.5238 56.8113 85.2154 55.8089 85.4467 55.4234C85.6781 55.1149 86.4491 54.8836 87.1431 54.8836ZM60.0013 63.9823C61.4664 65.1389 62.623 66.2955 62.623 66.6039C62.623 66.9895 62.1603 67.4521 61.6977 67.6834C61.1579 67.9918 59.6929 67.1437 58.4592 65.9871C57.2255 64.6762 56.5315 63.3654 56.7628 62.8257C57.1484 62.0546 58.0737 62.4401 60.0013 63.9823ZM53.987 66.4497C54.2954 66.4497 55.6833 67.4521 57.0713 68.6087C58.819 69.9966 59.4359 70.9476 58.9218 71.4617C58.4078 71.9757 57.2255 71.5131 55.3749 70.0737C53.8328 68.9171 52.7533 67.6063 52.9846 67.2208C53.293 66.8352 53.6785 66.4497 53.987 66.4497ZM51.2882 70.7677C51.828 71.0761 52.9846 72.0014 53.987 72.9267C54.9123 73.852 55.6833 74.7773 55.6833 75.0857C55.6833 75.4713 55.2207 75.7026 54.758 75.7026C54.2183 75.6255 52.7533 74.8544 51.4424 73.852C49.9774 72.6954 49.3605 71.693 49.7461 71.1532C50.1316 70.6906 50.8256 70.5364 51.2882 70.7677ZM47.51 74.9315C47.9726 74.9315 49.4376 75.8568 50.6714 76.9363C52.2135 78.2471 52.7533 79.1724 52.2135 79.635C51.7509 80.0977 50.44 79.635 48.5895 78.2471C46.9702 77.0134 45.8907 75.8568 46.1991 75.4713C46.4305 75.1628 47.0473 74.9315 47.51 74.9315ZM66.0928 75.7026C66.7868 75.7026 67.2494 76.4736 67.2494 77.6302C67.2494 78.7098 67.635 79.4037 68.0205 79.1724C68.4831 78.9411 68.2518 79.635 67.635 80.7145C67.0181 81.794 66.1699 82.6422 65.7073 82.6422C65.3217 82.6422 65.0904 82.1025 65.3217 81.4856C65.5531 80.8688 65.3989 80.329 64.9362 80.329C64.5507 80.329 63.8567 81.1001 63.5483 82.0254C62.9314 83.7217 62.8543 83.7217 61.6977 80.7145L61.158 82.2567C60.8495 83.1049 60.3869 83.4133 60.1556 83.0278C59.8471 82.6422 60.5411 81.3314 61.5435 80.0977C62.5459 78.9411 63.3941 78.4013 63.3941 78.7869C63.3941 79.1724 64.088 79.5579 64.9362 79.5579C66.0157 79.5579 66.4784 79.0182 66.4784 77.7845C66.4784 76.4736 66.3241 76.3194 65.7073 77.2447C65.3217 77.8616 64.8591 78.17 64.6278 77.7845C64.3965 77.476 64.3193 76.8592 64.5507 76.4736C64.8591 76.0881 65.5531 75.7026 66.0928 75.7026ZM43.7317 78.7869C43.963 78.7869 45.1968 79.5579 46.4305 80.4832C47.7413 81.4856 48.7437 82.7193 48.7437 83.182C48.7437 83.7217 48.5895 84.1844 48.3581 84.1844C48.1268 84.1844 46.816 83.4133 45.5052 82.488C44.1172 81.5627 42.8835 80.7145 42.8064 80.5603C42.6522 80.4061 42.7293 79.9435 42.9606 79.5579C43.2691 79.1724 43.5775 78.7869 43.7317 78.7869ZM40.6474 83.4133C40.8787 83.4133 42.1896 84.1844 43.6546 85.1097C45.2739 86.1892 46.122 87.2687 45.8136 87.8084C45.4281 88.5024 44.5028 88.271 42.4209 86.8831C40.8016 85.8036 39.645 84.5699 39.8763 84.1844C40.1848 83.7988 40.4932 83.4133 40.6474 83.4133ZM57.0713 85.7265C57.3797 85.7265 58.4592 86.3434 59.4616 87.1144C60.464 87.8084 61.0808 88.8108 60.7724 89.3506C60.5411 89.8903 60.0013 90.353 59.5387 90.353C59.1532 90.353 58.9218 89.9674 59.1532 89.5819C59.3845 89.1963 59.0761 89.0421 58.6134 89.2734C58.0737 89.5048 57.1484 89.1192 56.6857 88.5024C56.146 87.8084 55.8375 86.8831 56.0689 86.4976C56.3773 86.1121 56.7628 85.7265 57.0713 85.7265ZM37.4089 88.0397C37.8716 88.0397 39.4908 88.8879 40.8787 89.8132C42.5751 90.9441 43.1663 91.7666 42.6522 92.2806C42.1382 92.7947 40.9816 92.4605 39.1824 91.2782C37.6402 90.3529 36.4065 89.1963 36.4065 88.8108C36.4065 88.4253 36.8692 88.0397 37.4089 88.0397ZM35.0957 92.3577C35.6354 92.6662 37.0234 93.6686 38.18 94.5167C39.6193 95.5962 40.082 96.393 39.5679 96.9071C39.0539 97.4211 37.9487 97.0613 36.2523 95.8276C34.8644 94.7481 33.6307 93.8228 33.5536 93.6686C33.3993 93.5143 33.5536 93.0517 33.7849 92.6662C34.0162 92.2035 34.6331 92.1264 35.0957 92.3577ZM31.3946 96.5215C31.6259 96.5215 33.0138 97.2155 34.4788 98.0637C35.9439 98.9119 37.1776 99.9914 37.1776 100.377C37.1776 100.762 36.9463 101.302 36.6378 101.456C36.2523 101.688 34.8644 101.148 33.5536 100.3C32.1656 99.5287 31.009 98.295 31.009 97.6781C31.009 97.0613 31.1632 96.5215 31.3946 96.5215ZM46.2762 98.8348C46.5847 98.8348 47.9726 99.5287 49.3605 100.377C51.7509 101.842 51.7509 101.996 50.6714 103.847C50.0545 104.926 49.0521 105.774 48.5895 105.774C48.0497 105.774 46.7389 105.235 45.6594 104.464C44.5799 103.77 43.5775 103.076 43.3462 102.999C43.1149 102.844 43.5775 101.842 44.3486 100.762C45.0425 99.6829 45.9678 98.8348 46.2762 98.8348ZM31.703 102.844C33.2451 103.77 34.5559 104.618 34.7102 104.772C34.7873 104.926 34.7102 105.312 34.4788 105.774C34.2475 106.237 32.7825 105.852 31.009 104.772C29.3127 103.847 27.8476 102.844 27.7705 102.613C27.6934 102.382 27.9247 101.919 28.3103 101.688C28.6187 101.379 30.1608 101.919 31.703 102.844ZM26.3826 106.545C26.8452 106.545 28.2332 107.085 29.4669 107.702C30.7777 108.319 31.7801 109.398 31.7801 110.015C31.7801 110.941 31.2403 110.941 28.6958 109.63C26.9994 108.782 25.6115 107.779 25.6115 107.317C25.6115 106.854 25.997 106.545 26.3826 106.545ZM23.5296 111.172C23.6067 111.172 25.0718 111.635 26.7681 112.329C28.6187 113.023 29.7753 113.948 29.6211 114.642C29.544 115.259 29.3127 115.798 29.0813 115.798C28.85 115.798 27.3079 115.104 25.6115 114.256C23.9151 113.408 22.6814 112.406 22.9127 111.943C23.2212 111.48 23.4525 111.172 23.5296 111.172ZM21.3706 115.798C21.6019 115.798 22.9899 116.415 24.4549 117.109C25.997 117.88 27.1537 118.96 27.1537 119.422C27.1537 119.962 26.9994 120.425 26.7681 120.425C26.5368 120.425 24.9946 119.731 23.2983 118.883C21.6019 118.034 20.3682 117.032 20.5995 116.569C20.908 116.107 21.2164 115.798 21.3706 115.798ZM21.6019 121.813C23.2983 122.43 24.6862 123.432 24.7633 124.049C24.7633 124.589 24.532 125.051 24.0694 125.051C23.6838 125.051 22.1417 124.434 20.6766 123.663C19.2116 122.969 18.1321 121.967 18.2863 121.504C18.5176 120.81 19.4429 120.965 21.6019 121.813ZM16.9755 125.822C17.2839 125.822 18.8261 126.285 20.4453 126.979C21.9875 127.596 23.2983 128.444 23.2983 128.907C23.2983 129.369 22.8356 129.678 22.373 129.678C21.8332 129.678 20.214 129.369 18.9032 128.907C17.5152 128.521 16.3586 127.596 16.3586 126.979C16.3586 126.362 16.59 125.822 16.9755 125.822ZM17.7466 131.682C19.3658 132.299 20.6766 132.762 20.8309 132.762C20.908 132.762 20.9851 133.302 20.9851 133.919C20.9851 134.535 20.8309 135.075 20.5995 135.075C20.3682 135.075 18.8261 134.535 17.1297 133.919C15.4333 133.302 13.9683 132.454 13.8912 132.145C13.8141 131.76 14.0454 131.297 14.3538 130.988C14.6623 130.757 16.2044 130.988 17.7466 131.682ZM13.2743 135.846C13.737 135.846 15.2791 136.386 16.7442 137.003C18.2092 137.62 19.4429 138.468 19.4429 138.931C19.4429 139.393 18.9803 139.702 18.5176 139.702C17.9779 139.702 16.3586 139.239 14.9707 138.699C13.5828 138.237 12.5033 137.311 12.5033 136.772C12.5033 136.309 12.8888 135.846 13.2743 135.846ZM11.9635 141.244C12.5033 141.244 14.0454 141.552 15.4333 142.015C17.1297 142.555 17.7466 143.171 17.5152 143.943C17.2068 144.945 16.7442 144.945 13.6599 143.943C11.7322 143.326 10.3443 142.477 10.5756 142.015C10.884 141.552 11.4238 141.244 11.9635 141.244ZM12.2719 146.795C13.8912 147.258 15.5876 147.721 15.9731 147.952C16.4871 148.209 16.4871 148.595 15.9731 149.109C15.5105 149.571 13.9683 149.417 11.8864 148.8C10.1129 148.26 8.5708 147.567 8.49369 147.335C8.41659 147.104 8.64791 146.718 8.87923 146.487C9.18766 146.256 10.7298 146.41 12.2719 146.795ZM10.0358 151.73C11.1924 152.039 12.7346 152.501 13.4286 152.733C14.1996 152.964 14.5081 153.581 14.1996 154.121C13.8141 154.892 13.043 154.892 10.7298 154.121C9.18766 153.581 7.87684 152.733 7.87684 152.193C7.87684 151.576 8.5708 151.422 10.0358 151.73ZM19.9827 155.354L23.2212 156.203C26.2284 156.974 26.4597 157.205 26.2284 159.364C25.997 161.523 25.8428 161.677 22.9127 161.446C21.2164 161.369 19.5971 160.983 19.3658 160.675C19.1345 160.366 19.1345 159.056 19.4429 157.745L19.9827 155.354ZM7.25998 156.665C7.79973 156.665 9.34187 156.974 10.7298 157.436C12.1177 157.899 13.2743 158.593 13.2743 158.978C13.2743 159.441 12.5804 159.749 11.7322 159.749C10.884 159.749 9.34187 159.441 8.26237 158.978C7.18287 158.593 6.33469 157.899 6.33469 157.436C6.33469 157.051 6.72023 156.665 7.25998 156.665ZM5.71783 162.063C6.25758 162.063 7.87683 162.294 9.26477 162.68C10.6527 162.988 11.7322 163.682 11.7322 164.222C11.7322 164.761 11.4238 165.147 11.1153 165.147C10.8069 165.147 9.26477 164.839 7.64551 164.376C6.10337 163.99 4.79254 163.296 4.79254 162.834C4.79254 162.448 5.17808 162.063 5.71783 162.063ZM7.41419 167.769C9.11055 168 10.7298 168.386 10.9611 168.617C11.1924 168.848 10.9611 169.388 10.5756 169.773C10.0358 170.236 8.72502 170.236 6.87444 169.773C5.3323 169.388 4.09858 168.617 4.09858 168.154C4.20139 167.589 5.30659 167.46 7.41419 167.769ZM4.63833 172.395C5.3323 172.549 6.95155 172.935 8.18526 173.166C9.41898 173.475 10.3443 174.091 10.2672 174.631C10.1901 175.325 9.18766 175.402 6.4889 175.017C4.48412 174.708 2.78776 174.246 2.63354 174.014C2.55643 173.86 2.71065 173.243 2.94197 172.858C3.17329 172.395 3.94436 172.164 4.63833 172.395ZM5.02387 177.947C6.33469 178.178 7.87683 178.564 8.41659 178.718C8.95634 178.872 9.41898 179.412 9.41898 179.797C9.41898 180.26 8.41659 180.568 7.25998 180.568C6.10337 180.568 4.40701 180.414 3.40461 180.183C2.32511 179.952 1.86247 179.412 2.09379 178.718C2.40222 177.87 3.2504 177.715 5.02387 177.947ZM17.0526 178.255C18.1321 178.255 19.7514 178.487 20.5995 178.718C21.9875 179.103 22.0646 179.489 21.3706 183.499C20.9851 185.966 20.6766 197.763 20.6766 209.869C20.6766 229.377 20.8309 232.924 22.4501 241.483C23.3754 246.804 25.1489 254.977 26.3826 259.603C27.5392 264.307 29.7753 271.555 31.3174 275.796C32.8596 280.037 34.0933 283.661 34.0933 283.892C34.0933 284.124 32.7825 284.74 31.1632 285.28C29.6211 285.897 28.0789 286.051 27.7705 285.666C27.385 285.357 25.9199 281.579 24.3778 277.338C22.9128 273.097 20.9851 267.006 20.1369 263.844C19.2887 260.683 17.7466 253.897 16.7442 248.808C15.7418 243.719 14.5852 236.086 14.1225 231.845C13.737 227.604 13.1201 220.818 12.8888 216.809C12.5804 212.799 12.7346 204.317 13.1972 197.918C13.6599 191.595 14.2767 184.578 14.5081 182.342C14.9707 178.564 15.1249 178.255 17.0526 178.255ZM3.55883 183.19C4.48412 183.421 5.94915 183.653 6.87444 183.653C7.95394 183.653 8.64791 184.115 8.64791 184.809C8.64791 185.426 8.03105 185.966 7.25998 185.966C6.56601 185.966 4.79254 185.812 3.40461 185.58C1.47693 185.272 1.01429 184.886 1.47693 183.961C1.78536 183.19 2.55643 182.959 3.55883 183.19ZM3.55883 188.588C4.86965 188.896 6.33469 189.05 6.87444 189.05C7.41419 189.05 7.87684 189.59 7.87684 190.207C7.87684 190.824 7.41419 191.363 6.87444 191.363C6.33469 191.363 4.79254 191.132 3.40461 190.824C1.93958 190.438 0.937182 189.744 1.01429 189.127C1.0914 188.356 1.86247 188.202 3.55883 188.588ZM2.86486 193.985C3.71304 194.216 5.02387 194.448 5.71783 194.448C6.4889 194.448 7.10576 194.91 7.10576 195.45C7.10576 196.067 5.94915 196.298 3.63594 196.221C1.70825 196.067 0.0890019 195.681 0.0118947 195.373C-0.0652126 194.988 0.243216 194.448 0.628753 194.139C0.937182 193.831 2.01668 193.754 2.86486 193.985ZM2.78776 199.383C4.09858 199.691 5.56362 199.845 6.10337 199.845C6.64312 199.845 7.10576 200.231 7.10576 200.616C7.10576 201.079 5.56362 201.387 3.63594 201.387C0.860074 201.387 0.166109 201.156 0.243216 200.154C0.397431 199.151 0.937182 198.997 2.78776 199.383ZM2.01668 204.78C2.86486 205.011 4.40701 205.243 5.3323 205.243C6.33469 205.243 7.10576 205.628 7.10576 206.014C7.10576 206.476 5.56362 206.785 3.63594 206.785C0.860074 206.785 0.166109 206.554 0.243216 205.551C0.320324 204.703 0.860074 204.472 2.01668 204.78ZM3.40461 210.023C5.17808 210.178 6.72023 210.717 6.87444 211.257C7.02866 211.874 6.02626 212.182 3.63594 212.182C1.01429 212.182 0.166109 211.874 0.166109 211.026C0.243216 210.101 0.937182 209.869 3.40461 210.023ZM3.63594 215.267C6.18048 215.267 7.10576 215.575 7.10576 216.423C7.10576 217.272 6.18048 217.58 3.63594 217.58C1.0914 217.58 0.166109 217.272 0.166109 216.423C0.166109 215.575 1.0914 215.267 3.63594 215.267ZM3.63594 220.664C6.18048 220.664 7.10576 220.973 7.10576 221.821C7.10576 222.669 6.18048 222.977 3.63594 222.977C1.0914 222.977 0.166109 222.669 0.166109 221.821C0.166109 220.973 1.0914 220.664 3.63594 220.664ZM4.40701 226.062C6.33469 226.062 7.87684 226.447 7.87684 226.833C7.87684 227.295 7.33708 227.758 6.72023 227.989C6.10337 228.221 4.48412 228.375 3.2504 228.375C1.70825 228.375 0.937182 227.989 0.937182 227.218C0.937182 226.37 1.86247 226.062 4.40701 226.062ZM7.72262 231.845C7.87683 232.307 7.56841 232.924 6.95155 233.233C6.4118 233.541 4.94676 233.695 3.79015 233.618C2.63354 233.464 1.63115 233.079 1.63115 232.616C1.63115 232.23 2.94197 231.691 4.56122 231.459C6.18048 231.228 7.56841 231.459 7.72262 231.845ZM7.25998 236.24C8.03105 236.163 8.64791 236.625 8.64791 237.242C8.64791 237.859 7.87683 238.553 6.87444 238.784C5.94915 239.016 4.40701 239.17 3.40461 239.17C2.40222 239.17 1.70825 238.707 1.70825 238.013C1.70825 237.319 2.55643 236.78 3.79015 236.625C4.94676 236.471 6.56601 236.24 7.25998 236.24ZM8.03105 241.637C8.80212 241.56 9.41898 241.946 9.41898 242.486C9.41898 243.025 8.33948 243.719 6.95155 244.028C5.56362 244.336 3.94436 244.568 3.40461 244.568C2.86486 244.568 2.47933 244.028 2.47933 243.411C2.47933 242.717 3.32751 242.177 4.56122 242.023C5.71783 241.869 7.33708 241.637 8.03105 241.637ZM428.882 244.568C430.116 244.568 431.735 244.722 432.352 244.953C432.969 245.184 433.509 245.878 433.509 246.495C433.509 247.343 432.969 247.575 431.35 247.189C430.193 246.958 428.651 246.572 427.88 246.418C427.186 246.264 426.569 245.801 426.569 245.339C426.569 244.953 427.572 244.568 428.882 244.568ZM8.41659 246.958C9.41898 246.958 10.1901 247.343 10.1901 247.883C10.1901 248.423 8.87923 249.04 7.33708 249.348C5.71783 249.657 4.09858 249.734 3.79015 249.579C3.48172 249.348 3.2504 248.886 3.2504 248.423C3.2504 248.037 4.02147 247.498 4.94676 247.343C5.94915 247.189 7.4913 247.035 8.41659 246.958ZM428.266 249.965C429.654 249.965 431.35 250.273 431.967 250.659C432.584 251.045 432.815 251.738 432.507 252.201C432.121 252.818 431.041 252.818 428.882 252.278C427.186 251.893 425.798 251.199 425.798 250.736C425.798 250.351 426.878 249.965 428.266 249.965ZM10.9611 252.664C11.3467 253.126 11.2696 253.666 10.7298 253.975C10.1901 254.206 8.5708 254.591 7.18287 254.746C5.71783 254.9 4.40701 254.669 4.25279 254.206C4.09858 253.82 5.4094 253.126 7.18287 252.664C9.34187 252.124 10.5756 252.124 10.9611 252.664ZM426.415 254.9C427.109 255.054 428.651 255.44 429.808 255.671C431.273 255.979 431.813 256.519 431.581 257.29C431.273 258.293 430.733 258.293 428.266 257.599C426.723 257.136 425.104 256.596 424.796 256.442C424.487 256.288 424.487 255.748 424.719 255.363C424.95 254.9 425.721 254.669 426.415 254.9ZM11.5009 256.982C12.0406 256.982 12.5033 257.444 12.5033 258.061C12.5033 258.678 11.7322 259.372 10.7298 259.603C9.80452 259.835 8.26237 259.989 7.25998 259.989C6.33469 259.989 5.48651 259.681 5.4094 259.218C5.3323 258.832 6.4118 258.138 7.87684 257.753C9.34187 257.367 10.9611 257.059 11.5009 256.982ZM426.415 260.374C427.957 260.606 429.576 261.223 430.039 261.608C430.425 261.994 430.656 262.456 430.425 262.765C430.193 262.996 428.651 262.919 427.032 262.533C425.336 262.225 423.871 261.454 423.716 260.837C423.562 259.989 424.102 259.912 426.415 260.374ZM12.6575 262.379C13.4286 262.379 14.0454 262.688 14.0454 263.073C14.0454 263.536 13.1972 264.23 12.1177 264.615C11.0382 265.078 9.49609 265.386 8.64791 265.386C7.72262 265.386 7.25998 265.001 7.4913 264.461C7.72262 263.921 8.64791 263.305 9.6503 262.996C10.5756 262.688 11.9635 262.456 12.6575 262.379ZM425.721 265.618C427.34 266.003 428.728 266.851 428.805 267.468C428.882 268.008 428.651 268.471 428.343 268.471C428.034 268.471 426.415 268.085 424.873 267.545C423.254 267.006 421.866 266.389 421.789 266.158C421.789 265.849 421.943 265.464 422.174 265.232C422.483 265.001 424.025 265.155 425.721 265.618ZM14.8936 268.085C15.2791 268.548 15.1249 269.088 14.5852 269.396C14.1225 269.627 12.5804 270.09 11.1924 270.321C9.41898 270.707 8.64791 270.553 8.64791 269.859C8.64791 269.319 9.88162 268.548 11.4238 268.085C13.3514 267.545 14.431 267.545 14.8936 268.085ZM421.018 270.013C421.326 270.013 422.868 270.398 424.487 270.784C426.184 271.247 427.34 272.095 427.34 272.712C427.34 273.56 426.878 273.791 425.644 273.406C424.642 273.174 423.099 272.635 422.174 272.249C421.172 271.863 420.401 271.247 420.401 270.784C420.401 270.398 420.709 270.013 421.018 270.013ZM15.4333 272.557C16.0502 272.635 16.5128 273.097 16.5128 273.483C16.5128 273.945 15.202 274.716 13.5828 275.256C11.578 275.873 10.3443 275.95 9.80452 275.487C9.34187 274.973 9.98443 274.331 11.7322 273.56C13.2743 272.943 14.8936 272.48 15.4333 272.557ZM421.866 275.719C423.408 276.027 425.027 276.567 425.413 276.953C425.875 277.415 425.952 278.032 425.644 278.34C425.258 278.649 423.639 278.495 421.943 277.955C420.246 277.415 418.936 276.567 419.013 276.104C419.09 275.565 420.092 275.41 421.866 275.719ZM18.1321 277.492C18.5176 277.724 18.8261 278.186 18.749 278.572C18.749 278.957 17.1297 279.806 15.202 280.422C12.0406 281.502 11.8093 281.502 12.1177 280.345C12.3491 279.651 13.6599 278.649 14.9707 278.109C16.2815 277.646 17.7466 277.338 18.1321 277.492ZM418.087 280.037C418.55 280.037 420.092 280.577 421.557 281.193C423.099 281.887 424.256 282.736 424.256 283.121C424.256 283.584 424.025 283.892 423.716 283.892C423.408 283.892 421.789 283.507 420.246 282.967C418.627 282.427 417.316 281.579 417.316 281.039C417.316 280.499 417.702 280.037 418.087 280.037ZM19.2887 282.427C19.8285 282.427 20.214 282.736 20.214 283.121C20.214 283.584 19.0574 284.432 17.5152 285.049C16.0502 285.743 14.5081 286.205 14.0454 286.205C13.6599 286.205 13.1972 285.743 13.1201 285.203C13.043 284.586 14.1225 283.815 15.6647 283.352C17.1297 282.89 18.749 282.504 19.2887 282.427ZM418.55 285.743C420.169 286.205 421.634 287.054 421.866 287.593C422.174 288.133 422.174 288.75 421.943 288.904C421.789 289.135 420.169 288.673 418.396 287.979C416.622 287.208 415.312 286.205 415.466 285.743C415.62 285.126 416.468 285.126 418.55 285.743ZM21.9875 287.516C22.373 287.748 22.6814 288.133 22.6814 288.442C22.6043 288.673 21.2935 289.444 19.6742 290.061C18.055 290.755 16.5128 291.294 16.2044 291.449C15.896 291.526 15.5876 291.14 15.5105 290.523C15.4333 289.984 16.6671 288.981 18.2863 288.364C19.9056 287.67 21.6019 287.362 21.9875 287.516ZM35.8668 288.596C36.1752 288.596 36.7921 289.213 37.1776 290.061C37.6402 290.909 37.9487 291.988 37.9487 292.374C37.9487 292.837 36.6378 293.839 32.1656 296.152L31.2403 294.302C30.7006 293.222 30.1608 292.066 30.0837 291.603C30.0066 291.217 31.1632 290.369 32.6283 289.752C34.0933 289.135 35.5583 288.673 35.8668 288.596ZM414.232 290.061C414.695 290.061 416.237 290.601 417.702 291.217C419.244 291.911 420.401 292.76 420.401 293.145C420.401 293.608 420.092 293.916 419.63 293.916C419.244 293.916 417.702 293.453 416.16 292.76C414.695 292.143 413.461 291.294 413.461 290.832C413.461 290.446 413.847 290.061 414.232 290.061ZM22.7585 292.451C23.4525 292.451 24.0694 292.76 24.0694 293.145C24.0694 293.608 22.7585 294.456 21.2164 295.15C19.2887 295.921 18.055 296.075 17.5152 295.612C17.0526 295.073 17.5923 294.456 19.0574 293.685C20.3682 292.991 21.9875 292.451 22.7585 292.451ZM412.15 294.687C412.227 294.687 413.692 295.227 415.389 295.844C417.085 296.538 418.396 297.309 418.319 297.617C418.242 297.926 417.856 298.465 417.548 298.774C417.239 299.082 415.62 298.62 414.078 297.771C412.459 296.923 411.379 295.921 411.61 295.458C411.842 295.073 412.073 294.687 412.15 294.687ZM25.4573 297.078C25.997 297.078 26.3826 297.386 26.3826 297.771C26.3826 298.234 24.9946 299.237 23.2983 300.085C21.4477 301.01 20.0598 301.318 19.8285 300.856C19.6742 300.47 19.52 300.008 19.6742 299.853C19.7514 299.699 20.908 299.005 22.1417 298.311C23.4525 297.617 24.9175 297.078 25.4573 297.078ZM39.8763 297.849C40.339 297.772 41.1101 298.697 41.6498 299.931C42.1896 301.087 42.5751 302.089 42.4209 302.167C42.3438 302.167 41.1101 302.783 39.7221 303.477C38.3342 304.171 37.0234 304.711 36.7921 304.711C36.6378 304.711 35.9439 303.786 35.327 302.629C34.3246 300.547 34.3246 300.47 36.715 299.159C38.0258 298.465 39.4908 297.849 39.8763 297.849ZM410.068 299.314C410.223 299.314 411.61 299.93 413.153 300.702C414.618 301.473 415.851 302.475 415.851 303.015C415.774 303.555 415.389 303.94 414.849 303.94C414.309 303.94 412.767 303.246 411.379 302.398C409.991 301.55 409.066 300.547 409.297 300.085C409.529 299.699 409.837 299.314 410.068 299.314ZM27.4621 301.935C27.8476 302.012 28.3103 302.398 28.4645 302.783C28.6187 303.246 27.4621 304.171 25.8428 304.865C24.2236 305.636 22.6814 306.022 22.373 305.868C22.0646 305.636 21.679 305.251 21.6019 304.865C21.5248 304.557 22.6814 303.709 24.1465 303.015C25.6115 302.321 27.0765 301.858 27.4621 301.935ZM394.184 302.398C394.493 302.398 394.647 302.783 394.493 303.169C394.338 303.632 394.647 303.786 395.187 303.632C395.726 303.4 396.652 303.555 397.269 303.94C398.04 304.326 398.271 305.097 397.885 305.868C397.346 306.947 397.037 306.947 394.955 305.868C393.413 305.097 392.796 304.326 393.105 303.555C393.336 302.938 393.876 302.398 394.184 302.398ZM410.454 305.559C412.15 306.408 413.538 307.41 413.538 307.873C413.538 308.258 413.153 308.567 412.69 308.567C412.304 308.567 410.839 308.027 409.451 307.333C408.064 306.639 406.83 305.945 406.753 305.791C406.598 305.636 406.753 305.174 406.984 304.711C407.215 304.326 408.603 304.634 410.454 305.559ZM30.4693 306.33C30.7777 306.33 31.009 306.716 31.0861 307.256C31.0861 307.795 29.7753 308.798 28.156 309.569C26.3055 310.494 24.9946 310.725 24.4549 310.263C23.9922 309.723 24.7633 308.952 26.7681 307.95C28.4645 307.024 30.1608 306.33 30.4693 306.33ZM44.8883 306.33C45.1196 306.253 45.7365 307.101 46.2762 308.181C46.816 309.26 47.2015 310.34 47.2015 310.494C47.2015 310.726 46.0449 311.574 44.5028 312.422C43.0377 313.27 41.7269 314.041 41.6498 314.041C41.4956 314.041 40.9558 312.962 40.2619 311.728C39.645 310.417 39.3366 309.26 39.4908 309.106C39.7221 308.952 40.9558 308.258 42.1896 307.564C43.5004 306.87 44.7341 306.33 44.8883 306.33ZM391.023 307.795C391.254 307.795 391.794 308.412 392.257 309.029C392.873 310.032 392.796 310.186 391.717 309.8C390.791 309.543 390.329 309.775 390.329 310.494C390.329 311.188 389.943 311.805 389.404 311.959C388.632 312.113 388.632 312.268 389.404 312.73C389.943 312.962 390.869 312.73 391.485 312.036C392.179 311.419 392.642 311.188 392.642 311.497C392.642 311.805 393.182 311.574 393.799 310.88C394.724 310.109 395.032 310.032 395.032 310.725C395.032 311.265 394.493 311.882 393.799 312.036C393.182 312.268 392.796 312.73 393.028 313.039C393.182 313.347 392.95 314.118 392.565 314.735C391.871 315.738 391.794 315.66 392.179 314.581C392.488 313.81 392.411 313.193 392.102 313.193C391.794 313.193 390.946 313.656 390.175 314.195C389.249 314.889 389.018 315.506 389.558 316.277C390.072 317.048 390.329 317.125 390.329 316.509C390.329 315.969 390.714 315.738 391.1 315.892C391.563 316.123 391.717 316.663 391.485 317.048C391.331 317.511 390.637 317.819 389.943 317.819C389.326 317.819 388.632 317.125 388.401 316.277C388.17 315.429 387.63 314.966 387.09 315.198C386.551 315.429 386.628 315.198 387.245 314.658C387.939 314.041 388.478 313.27 388.478 312.807C388.478 312.422 388.941 311.111 389.558 309.954C390.097 308.798 390.791 307.795 391.023 307.795ZM408.141 310.186C409.837 311.034 411.225 311.959 411.225 312.268C411.225 312.576 410.916 313.116 410.608 313.424C410.3 313.733 408.68 313.193 407.138 312.268C405.519 311.265 404.131 310.34 404.054 310.109C404.054 309.8 404.208 309.415 404.517 309.183C404.902 308.875 406.521 309.338 408.141 310.186ZM32.7825 310.957C33.0909 310.957 33.3222 311.342 33.3222 311.882C33.3993 312.422 32.3198 313.424 31.009 314.195C29.7753 314.966 28.3874 315.506 27.9247 315.506C27.5392 315.506 27.0765 315.044 26.9994 314.504C26.9223 313.964 28.0789 312.962 29.544 312.268C31.009 311.574 32.4741 310.957 32.7825 310.957ZM402.28 313.193C402.512 313.193 403.9 313.887 405.365 314.735C406.907 315.583 408.064 316.586 408.141 316.894C408.141 317.203 407.986 317.742 407.755 318.051C407.524 318.359 406.136 317.896 404.594 317.048C403.129 316.2 401.895 315.044 401.895 314.35C401.895 313.733 402.126 313.193 402.28 313.193ZM49.5919 314.735C49.9774 314.735 51.7509 316.971 53.5243 319.593C55.2978 322.214 58.4592 326.687 60.5411 329.385C62.623 332.161 67.7892 338.253 72.1072 342.879C76.5023 347.583 82.748 353.906 86.1407 356.913C89.5334 359.997 95.4707 364.778 99.2489 367.708C103.104 370.561 109.35 374.879 113.128 377.269C116.984 379.659 124 383.592 128.781 385.982C133.562 388.373 140.81 391.688 144.974 393.307C149.06 395.004 155.46 397.24 159.007 398.396C162.631 399.476 169.417 401.249 174.043 402.329C178.747 403.331 185.917 404.719 190.081 405.336C194.168 406.03 199.334 406.493 201.416 406.493C203.575 406.493 205.426 406.801 205.657 407.11C205.811 407.418 205.734 408.112 205.426 408.652C205.04 409.5 203.421 409.5 197.175 408.806C192.934 408.343 186.38 407.418 182.525 406.801C178.747 406.107 172.501 404.796 168.645 403.794C164.867 402.792 157.542 400.555 152.453 398.859C147.364 397.086 140.116 394.31 136.26 392.613C132.482 390.917 125.157 387.216 120.068 384.363C114.979 381.433 108.579 377.578 105.803 375.727C103.104 373.876 97.5526 369.713 93.4659 366.551C89.4563 363.313 82.054 356.759 77.042 351.824C72.0301 346.889 65.1675 339.409 61.7748 335.169C58.4592 330.928 53.987 324.913 51.828 321.675C49.7461 318.513 48.2039 315.66 48.4353 315.352C48.6666 315.043 49.2063 314.735 49.5919 314.735ZM35.0957 315.583C35.4041 315.583 35.8668 315.892 36.021 316.277C36.2523 316.74 35.327 317.742 33.9391 318.59C32.5512 319.439 31.009 320.133 30.4693 320.133C29.9295 320.133 29.4669 319.824 29.4669 319.362C29.4669 318.976 30.6235 317.974 32.0114 317.125C33.3993 316.354 34.7873 315.66 35.0957 315.583ZM402.82 319.516C404.517 320.441 405.904 321.443 405.904 321.675C405.827 321.906 405.519 322.369 405.211 322.677C404.902 322.986 403.437 322.446 401.895 321.598C400.43 320.672 399.119 319.747 399.042 319.67C398.888 319.516 399.042 319.053 399.273 318.59C399.582 318.128 400.893 318.436 402.82 319.516ZM38.18 320.133C38.4884 320.133 38.7197 320.595 38.7197 321.135C38.7968 321.675 37.7173 322.677 36.4065 323.448C35.1728 324.219 33.7849 324.759 33.3222 324.759C32.9367 324.759 32.5512 324.451 32.4741 323.988C32.3969 323.602 33.5535 322.523 35.0186 321.675C36.4065 320.827 37.8716 320.133 38.18 320.133ZM397.114 322.523C397.423 322.523 398.811 323.217 400.199 324.065C401.587 324.913 402.589 325.993 402.435 326.532C402.28 327.072 401.972 327.381 401.664 327.304C401.355 327.226 399.967 326.378 398.425 325.53C396.96 324.682 395.958 323.68 396.189 323.217C396.42 322.831 396.806 322.523 397.114 322.523ZM40.8787 324.836C41.4185 324.836 41.804 325.145 41.804 325.53C41.804 325.993 40.8016 326.995 39.4908 327.843C38.2571 328.692 36.8692 329.385 36.4065 329.385C36.021 329.385 35.6354 329 35.5583 328.46C35.4812 327.92 36.4065 326.841 37.6402 326.147C38.874 325.453 40.339 324.836 40.8787 324.836ZM394.184 327.072C394.647 327.072 396.035 327.766 397.269 328.614C398.579 329.463 399.582 330.542 399.582 330.928C399.582 331.39 399.196 331.776 398.656 331.776C398.117 331.776 396.729 331.082 395.572 330.234C394.416 329.385 393.413 328.306 393.413 327.843C393.413 327.458 393.799 327.072 394.184 327.072ZM44.3486 329.077C44.7341 329.308 45.0425 329.848 44.9654 330.234C44.9654 330.619 43.6546 331.776 42.1896 332.701C40.339 333.858 39.1824 334.166 38.7197 333.626C38.18 333.164 38.9511 332.161 40.7245 330.773C42.2667 329.694 43.8859 328.923 44.3486 329.077ZM393.799 332.701C395.341 333.626 396.497 334.86 396.497 335.4C396.497 335.94 396.112 336.325 395.572 336.325C395.032 336.325 393.567 335.477 392.257 334.475C390.946 333.395 390.252 332.316 390.56 331.853C390.946 331.236 392.025 331.544 393.799 332.701ZM46.6618 333.318C46.9702 333.318 47.4329 333.626 47.5871 334.012C47.8184 334.475 46.8931 335.708 45.5052 336.711C44.1172 337.79 42.7293 338.638 42.4209 338.638C42.1125 338.638 41.7269 338.176 41.6498 337.559C41.5727 336.942 42.498 335.785 43.8088 334.937C45.0425 334.012 46.3534 333.318 46.6618 333.318ZM387.861 335.631C388.17 335.631 389.558 336.325 390.946 337.173C392.334 338.021 393.413 339.024 393.413 339.409C393.413 339.872 393.182 340.335 392.873 340.566C392.565 340.72 391.177 340.18 389.789 339.178C388.401 338.253 387.322 337.096 387.322 336.556C387.245 336.017 387.553 335.631 387.861 335.631ZM50.6714 337.944C51.2111 338.484 50.7485 339.332 49.1292 340.566C47.8955 341.646 46.4305 342.494 45.8907 342.494C45.351 342.494 44.8112 342.185 44.7341 341.8C44.657 341.414 45.8136 340.18 47.2015 339.178C48.9493 337.842 50.1059 337.43 50.6714 337.944ZM372.363 338.87C373.365 339.795 373.982 340.874 373.751 341.183C373.519 341.491 372.98 341.8 372.44 341.8C371.9 341.8 370.898 341.183 370.127 340.412C369.124 339.409 368.97 338.87 369.664 338.099C370.435 337.327 370.975 337.482 372.363 338.87ZM387.784 341.491C389.249 342.571 390.483 343.805 390.406 344.19C390.406 344.498 389.943 344.807 389.404 344.807C388.864 344.807 387.399 344.036 386.165 343.111C384.777 342.031 384.16 341.029 384.469 340.412C384.931 339.718 385.779 339.949 387.784 341.491ZM53.2159 341.8C53.7557 341.8 54.1412 342.031 54.2183 342.34C54.2183 342.648 53.1388 343.959 51.9051 345.192C50.0545 347.043 49.2834 347.351 48.5895 346.658C47.8184 345.886 48.1268 345.27 49.9003 343.727C51.2111 342.648 52.6762 341.8 53.2159 341.8ZM366.58 342.185C367.042 342.417 367.351 343.265 367.274 344.113C367.222 345.141 367.582 345.501 368.353 345.192C369.047 345.038 369.51 345.115 369.51 345.424C369.51 345.732 368.122 347.351 363.341 352.132L361.799 350.59C360.951 349.742 360.257 348.662 360.257 348.123C360.257 347.583 360.797 347.12 361.414 347.12C362.108 347.12 362.57 346.812 362.57 346.349C362.57 345.964 363.033 345.886 363.573 346.195C364.112 346.503 364.267 346.426 363.958 345.964C363.65 345.578 363.958 344.421 364.652 343.496C365.269 342.494 366.194 341.954 366.58 342.185ZM381.539 344.036C381.693 344.036 382.927 344.73 384.16 345.578C385.471 346.426 386.473 347.66 386.473 348.277C386.473 348.971 386.319 349.433 386.088 349.433C385.934 349.433 384.546 348.585 383.004 347.506C381.539 346.503 380.536 345.27 380.768 344.807C380.999 344.421 381.307 344.036 381.539 344.036ZM56.6857 345.655C56.9942 345.655 57.3797 345.886 57.611 346.195C57.8423 346.503 56.9171 347.814 55.6833 349.048C54.0641 350.821 53.0617 351.207 52.0593 350.744C50.8256 350.204 51.0569 349.896 53.3701 347.891C54.9123 346.658 56.3773 345.655 56.6857 345.655ZM378.223 347.891C378.763 347.891 380.151 348.971 381.307 350.204C382.464 351.515 383.081 352.749 382.618 352.903C382.233 353.135 380.845 352.363 379.534 351.207C378.3 350.05 377.221 348.817 377.221 348.508C377.221 348.2 377.683 347.891 378.223 347.891ZM60.6953 350.359C61.2351 350.898 60.6953 351.824 58.7676 353.366C56.917 354.908 55.8375 355.371 55.2978 354.831C54.8352 354.291 55.3749 353.289 57.2255 351.747C59.0761 350.282 60.1556 349.819 60.6953 350.359ZM374.753 351.747C375.062 351.747 376.295 352.826 377.452 354.06C378.609 355.371 379.38 356.836 379.071 357.375C378.763 357.992 377.76 357.453 376.064 355.602C374.599 354.137 373.597 352.672 373.828 352.363C374.059 352.055 374.445 351.747 374.753 351.747ZM63.5483 353.289C63.9338 353.289 64.3964 353.674 64.5507 354.06C64.782 354.522 63.8567 355.91 62.4688 357.144C60.8495 358.532 59.6929 359.149 59.1532 358.686C58.6905 358.224 59.2303 357.144 60.6953 355.602C61.929 354.368 63.2398 353.289 63.5483 353.289ZM370.898 355.679C371.206 355.679 372.44 356.527 373.597 357.607C374.753 358.609 375.678 359.843 375.678 360.228C375.678 360.691 375.293 360.999 374.753 360.999C374.213 360.999 372.98 360.228 372.054 359.303C371.052 358.301 370.281 357.144 370.281 356.604C370.281 356.065 370.589 355.679 370.898 355.679ZM67.4036 357.144C67.7892 357.144 68.1747 357.452 68.406 357.761C68.6374 358.069 67.635 359.534 66.1699 360.999C64.3965 362.85 63.4712 363.39 63.0856 362.773C62.8543 362.233 63.5483 360.768 64.7049 359.457C65.8615 358.224 67.0952 357.144 67.4036 357.144ZM367.197 359.457C367.659 359.457 368.816 360.46 369.895 361.616C370.975 362.773 371.823 364.007 371.823 364.315C371.823 364.623 371.438 364.932 370.898 364.932C370.358 364.932 369.124 363.852 368.199 362.619C367.197 361.308 366.426 360.074 366.426 359.843C366.426 359.689 366.811 359.457 367.197 359.457ZM71.259 360.999C71.6445 360.999 72.0301 361.308 72.2614 361.616C72.4927 361.925 71.4903 363.39 70.0253 364.855C68.2518 366.705 67.3265 367.245 66.941 366.628C66.7097 366.089 67.4036 364.623 68.5602 363.313C69.7169 362.079 70.9506 360.999 71.259 360.999ZM365.886 364.623C367.042 365.857 368.045 367.245 368.045 367.785C367.968 368.325 367.736 368.787 367.428 368.787C367.12 368.787 365.886 367.708 364.729 366.474C363.573 365.163 362.879 363.775 363.11 363.313C363.495 362.773 364.498 363.236 365.886 364.623ZM75.1144 364.855C75.4999 364.855 75.7312 365.317 75.7312 365.857C75.7312 366.397 74.9601 367.631 74.0349 368.556C73.0325 369.558 71.8759 370.329 71.3361 370.329C70.7964 370.329 70.2566 370.021 70.1795 369.713C70.1024 369.481 71.0277 368.248 72.2614 367.014C73.4951 365.857 74.8059 364.855 75.1144 364.855ZM340.055 366.551C340.672 366.705 341.597 367.322 341.983 367.939C342.445 368.633 342.522 369.79 342.291 370.638C341.751 372.18 341.674 372.18 339.746 370.252C338.513 369.096 337.973 367.939 338.281 367.322C338.59 366.782 339.438 366.474 340.055 366.551ZM359.332 366.397C359.64 366.397 360.874 367.476 362.03 368.71C363.187 370.021 363.958 371.409 363.727 371.794C363.573 372.257 362.339 371.64 361.028 370.484C359.794 369.327 358.715 367.939 358.715 367.399C358.715 366.86 359.023 366.397 359.332 366.397ZM78.8926 367.939C79.2782 367.939 79.5866 368.402 79.5866 368.941C79.5866 369.481 78.7384 370.946 77.736 372.18C76.6565 373.568 75.577 374.262 75.0373 373.953C74.4975 373.568 74.883 372.488 76.1939 370.638C77.3505 369.173 78.5071 367.939 78.8926 367.939ZM334.889 370.329C335.12 370.329 335.351 370.561 335.351 370.869C335.428 371.178 335.506 372.103 335.506 372.951C335.583 374.262 335.737 374.339 336.277 373.337C336.816 372.488 337.048 372.411 337.433 373.182C337.742 373.722 337.356 374.57 336.739 375.11C336.045 375.65 335.583 375.804 335.583 375.496C335.583 375.187 334.889 375.573 334.041 376.421C332.961 377.578 332.19 377.809 331.342 377.192C330.494 376.652 330.185 376.806 330.031 377.732C329.877 378.811 329.568 378.657 327.101 374.879L329.491 375.496C331.419 375.958 331.804 375.804 331.804 374.725C331.727 373.953 331.342 373.337 330.802 373.337C330.262 373.337 330.879 372.72 332.113 371.872C333.424 371.101 334.657 370.407 334.889 370.329ZM355.476 370.252C355.785 370.252 357.019 371.332 358.175 372.566C359.332 373.876 360.103 375.264 359.871 375.65C359.717 376.112 358.484 375.496 357.173 374.339C355.939 373.182 354.859 371.794 354.859 371.255C354.859 370.715 355.168 370.252 355.476 370.252ZM82.5938 371.794C82.8251 371.794 83.3648 371.949 83.6733 372.18C83.9817 372.411 83.2877 373.799 82.1311 375.264C80.9745 376.729 79.7408 377.732 79.4324 377.578C79.1239 377.346 78.8155 376.961 78.7384 376.575C78.7384 376.19 79.4324 374.956 80.3577 373.876C81.2829 372.72 82.2853 371.794 82.5938 371.794ZM351.621 373.337C351.929 373.337 353.163 374.57 354.32 376.035C355.862 378.04 356.17 378.888 355.476 379.274C354.86 379.582 353.626 378.734 352.392 377.192C351.235 375.727 350.464 374.262 350.696 373.953C350.927 373.645 351.313 373.337 351.621 373.337ZM87.3744 374.879C87.76 374.879 88.0684 375.187 88.0684 375.496C88.0684 375.804 87.2973 377.192 86.372 378.58C85.3696 379.968 84.3672 381.047 84.0588 381.047C83.7504 381.047 83.2877 380.739 83.0564 380.276C82.9022 379.891 83.5962 378.503 84.6757 377.192C85.7552 375.958 86.9889 374.879 87.3744 374.879ZM349.616 378.734C350.85 380.276 351.852 381.741 351.775 382.05C351.775 382.358 351.39 382.667 350.85 382.667C350.31 382.667 349.076 381.587 348.151 380.353C347.149 379.043 346.609 377.578 346.917 377.038C347.303 376.344 348.151 376.961 349.616 378.734ZM91.3069 377.963C91.6924 377.963 92.078 378.271 92.3093 378.58C92.4635 378.888 91.7695 380.276 90.7671 381.664C89.6876 383.052 88.531 384.132 88.0684 384.132C87.6828 384.132 87.2973 383.823 87.2973 383.361C87.2973 382.975 88.0684 381.587 88.9937 380.276C89.919 379.043 90.9214 377.963 91.3069 377.963ZM343.139 379.505C343.448 379.582 344.604 380.739 345.607 382.281C346.892 384.08 347.277 385.237 346.763 385.751C346.301 386.214 345.298 385.52 343.91 383.592C342.754 381.973 342.06 380.43 342.214 380.122C342.445 379.814 342.831 379.505 343.139 379.505ZM96.1646 381.741C96.7044 382.281 96.396 383.206 95.2394 384.903C94.237 386.214 93.0032 387.216 92.3093 387.216C91.6924 387.216 91.1527 386.985 91.1527 386.753C91.0756 386.445 92.0009 385.057 93.2346 383.592C94.6996 381.818 95.6249 381.202 96.1646 381.741ZM340.749 384.671C341.751 385.905 342.522 387.293 342.522 387.833C342.522 388.373 342.291 388.912 341.983 389.144C341.674 389.298 340.595 388.295 339.669 386.83C338.667 385.365 338.204 383.746 338.513 383.283C338.898 382.744 339.669 383.206 340.749 384.671ZM99.7116 384.132C100.097 384.132 100.56 384.44 100.791 384.748C100.945 385.057 100.406 386.445 99.4031 387.833C98.4779 389.221 97.3213 390.3 96.7815 390.3C96.2418 390.3 95.7791 390.146 95.702 389.838C95.6249 389.606 96.3189 388.218 97.2441 386.753C98.2465 385.365 99.326 384.132 99.7116 384.132ZM334.657 385.751C334.966 385.751 335.968 386.907 336.971 388.45C337.896 389.915 338.667 391.303 338.667 391.457C338.667 391.688 338.204 391.842 337.51 391.842C336.893 391.842 335.737 390.763 334.889 389.375C334.041 387.987 333.578 386.599 333.809 386.291C333.963 385.982 334.349 385.674 334.657 385.751ZM104.261 387.216C104.724 387.216 105.032 387.601 105.032 387.987C105.032 388.45 104.415 389.838 103.721 391.148C102.95 392.382 101.948 393.462 101.408 393.462C100.868 393.385 100.406 393.153 100.406 392.845C100.406 392.536 101.1 391.148 101.948 389.76C102.796 388.373 103.875 387.216 104.261 387.216ZM303.583 388.758C304.277 388.758 305.125 389.606 305.588 390.532C306.205 391.765 306.205 392.459 305.588 392.999C304.971 393.539 304.354 393.307 303.583 392.228C302.966 391.38 302.427 390.3 302.427 389.76C302.427 389.221 302.966 388.758 303.583 388.758ZM330.339 388.758C330.725 388.758 331.65 389.915 332.498 391.303C333.347 392.691 334.041 394.078 334.041 394.387C334.041 394.695 333.578 394.927 332.884 394.927C332.267 394.927 331.033 393.77 330.185 392.228C329.337 390.763 328.874 389.375 329.183 389.144C329.491 388.989 329.954 388.758 330.339 388.758ZM109.35 390.223C109.89 390.763 109.658 391.842 108.579 393.539C107.731 394.85 106.574 396.083 106.034 396.237C105.572 396.392 105.032 396.16 104.955 395.621C104.878 395.158 105.649 393.539 106.651 392.151C107.962 390.3 108.733 389.683 109.35 390.223ZM297.8 391.148C298.186 391.148 298.34 391.457 298.186 391.919C298.031 392.305 298.031 393.153 298.263 393.847C298.494 394.464 299.034 394.695 299.574 394.387C300.19 394.027 300.345 394.233 300.036 395.004C299.805 395.621 299.034 396.006 298.34 395.929C297.646 395.852 297.106 396.083 297.106 396.546C297.106 396.931 296.721 397.317 296.335 397.317C295.872 397.317 295.718 396.931 295.95 396.546C296.181 396.083 295.795 395.775 295.179 395.775C294.562 395.775 293.868 396.469 293.636 397.317C293.405 398.165 292.865 398.859 292.48 398.859C292.017 398.859 291.323 397.934 290.938 396.931C290.475 395.852 290.321 394.618 290.552 394.233C290.783 393.77 291.246 393.462 291.554 393.462C291.94 393.462 292.094 393.847 291.863 394.387C291.709 394.927 292.017 394.772 292.634 394.001C293.174 393.23 294.253 392.691 295.024 392.691C295.718 392.691 296.489 392.305 296.721 391.919C296.952 391.457 297.492 391.148 297.8 391.148ZM325.559 391.071C325.79 391.071 326.792 392.459 327.718 394.156C328.797 396.006 329.183 397.471 328.72 397.703C328.258 397.857 327.795 397.934 327.718 397.857C327.564 397.78 326.715 396.469 325.79 395.004C324.865 393.462 324.325 391.997 324.633 391.688C324.865 391.38 325.327 391.148 325.559 391.071ZM113.591 392.691C113.976 392.691 114.362 392.999 114.362 393.462C114.362 393.847 113.668 395.389 112.82 396.931C111.972 398.396 110.892 399.399 110.507 399.245C110.044 399.013 109.736 398.551 109.736 398.242C109.736 397.934 110.429 396.546 111.278 395.158C112.126 393.77 113.128 392.691 113.591 392.691ZM321.009 394.233C321.395 394.233 322.474 395.312 323.323 396.7C324.094 398.088 324.788 399.476 324.865 399.784C324.865 400.093 324.325 400.401 323.708 400.401C323.091 400.401 322.012 399.322 321.395 398.088C320.778 396.777 320.238 395.389 320.238 395.004C320.238 394.541 320.547 394.233 321.009 394.233ZM118.449 395.466C118.757 395.852 118.449 397.471 117.678 399.013C116.907 400.633 116.058 401.943 115.673 401.943C115.364 401.943 114.979 401.558 114.747 401.172C114.516 400.71 115.133 399.168 116.058 397.625C116.984 396.083 118.063 395.158 118.449 395.466ZM316.537 396.546C316.846 396.546 317.848 397.934 318.696 399.63C320.007 402.252 320.084 402.715 319.082 403.1C318.311 403.331 317.385 402.483 316.383 400.555C315.535 398.936 315.072 397.394 315.381 397.086C315.612 396.777 316.152 396.546 316.537 396.546ZM123.075 397.78C123.461 398.165 123.152 399.63 122.381 401.172C121.687 402.637 120.993 403.948 120.839 404.025C120.685 404.102 120.145 404.025 119.759 403.871C119.297 403.64 119.682 402.175 120.685 400.247C121.687 398.474 122.69 397.394 123.075 397.78ZM311.679 398.782C311.911 398.782 312.759 400.093 313.53 401.712C314.455 403.563 314.61 404.873 314.147 405.413C313.684 405.876 312.836 405.105 311.834 403.1C310.985 401.404 310.446 399.707 310.754 399.399C310.985 399.09 311.448 398.859 311.679 398.782ZM127.856 400.324C128.395 400.864 128.164 402.021 127.239 403.871C126.545 405.336 125.543 406.57 125.157 406.57C124.694 406.57 124.386 406.184 124.386 405.799C124.386 405.336 125.003 403.794 125.697 402.252C126.622 400.324 127.316 399.784 127.856 400.324ZM306.745 401.172C307.361 401.172 308.364 402.406 308.981 404.025C309.598 405.645 309.906 407.187 309.752 407.495C309.598 407.804 309.212 408.112 308.826 408.112C308.518 408.112 307.67 406.878 306.899 405.413C306.205 403.871 305.588 402.329 305.588 401.943C305.588 401.481 306.128 401.172 306.745 401.172ZM132.02 401.866C132.251 401.866 132.713 402.02 133.022 402.252C133.407 402.483 133.022 404.102 132.251 405.799C131.557 407.495 130.709 408.883 130.323 408.883C130.015 408.883 129.629 408.498 129.398 408.112C129.167 407.649 129.552 406.107 130.246 404.642C130.94 403.1 131.788 401.866 132.02 401.866ZM265.184 403.717C265.724 404.642 266.186 405.799 266.263 406.339C266.263 406.878 265.569 407.341 264.721 407.341C263.642 407.341 263.025 406.647 262.716 405.182C262.485 403.948 262.716 402.869 263.256 402.56C263.873 402.175 264.644 402.637 265.184 403.717ZM257.936 403.563C258.321 403.486 258.553 403.794 258.553 404.257C258.553 404.642 258.09 404.719 257.627 404.411C256.933 404.025 256.779 404.257 257.242 405.182C257.55 405.953 257.781 406.878 257.781 407.341C257.781 407.726 258.09 407.881 258.553 407.726C258.938 407.495 259.324 407.649 259.324 408.112C259.324 408.498 258.63 408.652 257.781 408.498C256.933 408.266 256.085 408.42 255.854 408.883C255.622 409.269 254.851 409.423 254.08 409.269C253.386 409.037 252.23 409.269 251.613 409.808C250.61 410.657 250.61 410.657 251.613 409.423C252.615 408.189 252.615 408.035 251.382 408.035C250.688 408.035 250.071 407.726 250.071 407.341C250.071 406.878 250.379 406.724 250.842 406.955C251.227 407.11 251.613 406.955 251.613 406.57C251.613 406.107 251.15 405.567 250.61 405.413C250.148 405.182 250.456 405.182 251.382 405.413C252.384 405.567 253.155 405.413 253.155 405.028C253.155 404.565 254.08 404.102 255.237 403.948C256.471 403.794 257.627 403.64 257.936 403.563ZM301.887 403.408C302.427 403.408 303.352 404.642 303.814 406.107C304.354 407.649 304.586 409.269 304.277 409.808C303.969 410.425 303.275 409.808 302.427 408.112C301.655 406.57 301.039 404.951 300.962 404.411C300.962 403.871 301.424 403.486 301.887 403.408ZM137.186 404.257C137.803 404.257 138.265 404.565 138.265 405.028C138.265 405.413 137.725 406.878 137.031 408.266C136.338 409.654 135.644 410.888 135.489 410.965C135.335 411.042 134.795 410.965 134.41 410.811C133.947 410.502 134.101 409.269 134.872 407.341C135.566 405.645 136.646 404.257 137.186 404.257ZM234.726 405.105C234.958 405.028 235.035 405.799 234.803 406.724C234.572 407.649 233.801 410.04 233.107 411.967C232.336 413.818 231.411 415.514 231.025 415.591C230.717 415.746 229.483 413.895 228.249 411.582C227.093 409.191 226.167 406.955 226.167 406.57C226.167 406.107 228.018 405.645 230.177 405.49C232.413 405.413 234.495 405.182 234.726 405.105ZM297.26 405.028C297.569 405.028 298.417 406.416 299.034 408.112C299.651 409.808 300.19 411.35 300.19 411.582C300.19 411.736 299.728 411.967 299.188 411.967C298.725 411.967 297.646 410.579 296.875 408.883C296.181 407.187 295.795 405.567 296.104 405.413C296.335 405.182 296.875 405.028 297.26 405.028ZM141.812 406.57C142.429 406.57 142.892 406.878 142.892 407.341C142.892 407.726 142.352 409.346 141.735 410.965C140.964 412.893 140.27 413.587 139.807 413.124C139.345 412.584 139.345 411.273 139.962 409.423C140.424 407.804 141.272 406.57 141.812 406.57ZM212.288 406.57C214.37 406.57 216.144 406.724 216.144 406.955C216.144 407.11 215.295 409.037 214.216 411.196C213.136 413.278 212.134 415.052 211.903 415.052C211.671 415.052 210.823 413.432 209.975 411.582C209.127 409.654 208.433 407.726 208.433 407.341C208.433 406.878 210.129 406.57 212.288 406.57ZM292.017 407.341C292.788 407.341 293.559 408.42 294.099 410.194C294.639 412.199 294.639 413.355 294.099 413.895C293.559 414.358 293.097 414.049 292.634 412.738C292.248 411.659 291.632 409.963 291.323 409.037C290.938 407.726 291.092 407.341 292.017 407.341ZM147.055 408.112C147.518 408.112 147.749 408.883 147.595 409.808C147.441 410.734 146.978 412.353 146.67 413.278C146.284 414.204 145.745 415.052 145.359 415.052C145.051 415.052 144.588 414.897 144.202 414.666C143.894 414.435 144.202 412.893 144.896 411.196C145.59 409.5 146.516 408.112 147.055 408.112ZM287.082 408.883C287.468 408.883 288.162 409.654 288.547 410.579C288.856 411.505 289.395 413.124 289.704 414.049C290.012 415.283 289.858 415.823 289.01 415.823C288.393 415.823 287.468 414.666 287.082 413.278C286.62 411.89 286.311 410.348 286.311 409.808C286.311 409.269 286.62 408.883 287.082 408.883ZM152.145 409.654C152.53 409.654 152.916 410.04 152.916 410.579C152.916 411.119 152.607 412.661 152.145 414.049C151.682 415.437 150.834 416.594 150.217 416.594C149.369 416.594 149.214 416.054 149.523 414.82C149.831 413.895 150.294 412.276 150.679 411.351C151.065 410.425 151.682 409.654 152.145 409.654ZM282.61 410.425C283.073 410.425 283.767 411.659 284.075 413.278C284.461 414.897 284.769 416.44 284.769 416.748C284.769 417.056 284.306 417.365 283.767 417.365C283.304 417.365 282.456 416.054 281.916 414.435C281.376 412.893 281.145 411.273 281.376 410.965C281.608 410.657 282.147 410.425 282.61 410.425ZM156.694 411.119C156.925 411.119 157.388 411.35 157.696 411.582C158.082 411.813 158.005 413.355 157.542 415.052C157.079 416.902 156.308 418.136 155.614 418.136C154.997 418.136 154.458 417.828 154.458 417.519C154.458 417.211 154.843 415.669 155.306 414.049C155.769 412.43 156.385 411.119 156.694 411.119ZM277.212 411.967C277.521 411.967 278.138 413.047 278.6 414.435C279.063 415.823 279.371 417.365 279.371 417.905C279.371 418.444 278.909 418.907 278.369 418.907C277.906 418.907 276.904 417.519 276.364 415.823C275.747 414.126 275.516 412.584 275.902 412.353C276.21 412.122 276.827 411.967 277.212 411.967ZM162.168 412.738C162.631 412.738 162.94 413.432 162.94 414.281C162.94 415.129 162.554 416.671 162.168 417.75C161.706 418.753 161.012 419.678 160.626 419.678C160.164 419.678 160.009 418.444 160.318 416.748C160.549 415.129 160.935 413.587 161.089 413.278C161.32 412.97 161.783 412.738 162.168 412.738ZM272.123 413.51C273.126 413.51 273.511 414.281 273.743 416.748C273.897 418.522 273.82 420.218 273.588 420.449C273.357 420.603 272.894 420.449 272.509 420.064C272.123 419.601 271.584 417.982 271.352 416.363C270.89 413.972 271.044 413.51 272.123 413.51ZM167.258 414.281C167.874 414.281 168.337 414.666 168.337 415.206C168.337 415.746 168.029 417.288 167.566 418.676C167.103 420.064 166.409 421.22 166.024 421.22C165.561 421.22 165.253 420.758 165.253 420.218C165.253 419.678 165.407 418.136 165.715 416.748C165.947 415.36 166.641 414.281 167.258 414.281ZM172.27 415.052C172.655 415.052 173.118 415.283 173.272 415.669C173.426 416.054 173.272 417.596 172.886 419.138C172.501 420.835 171.73 421.991 171.036 421.991C170.342 421.991 170.033 421.452 170.188 420.603C170.419 419.832 170.804 418.29 171.036 417.134C171.344 415.977 171.884 415.052 172.27 415.052ZM266.572 415.052C267.266 415.052 267.96 415.823 268.191 416.748C268.345 417.673 268.654 419.138 268.731 419.987C268.885 420.758 268.499 421.529 267.96 421.683C267.42 421.837 266.88 421.066 266.572 419.832C266.34 418.676 266.032 417.134 265.801 416.363C265.492 415.489 265.749 415.052 266.572 415.052ZM261.791 415.823C262.099 415.823 262.562 416.208 262.716 416.748C262.871 417.288 263.256 418.83 263.487 420.218C263.796 421.991 263.642 422.762 262.948 422.762C262.485 422.762 261.483 421.374 260.943 419.678C260.326 417.982 260.095 416.44 260.48 416.208C260.789 415.977 261.405 415.823 261.791 415.823ZM177.59 416.594C178.053 416.594 178.361 417.365 178.361 418.29C178.361 419.215 178.13 420.835 177.975 421.76C177.744 422.685 177.05 423.533 176.433 423.533C175.816 423.533 175.277 423.225 175.277 422.917C175.277 422.608 175.662 421.066 176.048 419.447C176.51 417.828 177.204 416.594 177.59 416.594ZM257.088 417.056C257.319 417.442 257.781 418.984 258.09 420.603C258.475 422.917 258.321 423.533 257.396 423.533C256.625 423.533 256.085 422.531 255.854 420.835C255.622 419.293 255.7 417.75 256.008 417.288C256.316 416.825 256.779 416.748 257.088 417.056ZM182.987 417.365C183.45 417.365 183.759 418.136 183.759 419.061C183.759 419.987 183.527 421.606 183.373 422.531C183.142 423.456 182.448 424.305 181.831 424.305C180.906 424.305 180.751 423.688 181.137 421.375C181.445 419.755 181.754 418.213 181.985 417.905C182.139 417.596 182.602 417.365 182.987 417.365ZM187.999 418.136C188.616 418.136 189.156 418.521 189.156 419.061C189.156 419.601 188.925 421.143 188.616 422.531C188.231 423.996 187.537 425.076 186.843 425.076C185.918 425.076 185.84 424.536 186.303 422.531C186.611 421.143 186.843 419.601 186.843 419.061C186.843 418.521 187.383 418.136 187.999 418.136ZM247.218 420.989C247.603 422.608 247.68 424.305 247.449 424.844C247.218 425.384 246.755 425.847 246.37 425.847C246.061 425.847 245.444 424.382 245.059 422.531C244.442 419.909 244.519 419.215 245.367 418.753C246.215 418.29 246.678 418.83 247.218 420.989ZM251.227 418.136C252.307 418.136 252.769 418.753 252.924 420.603C253.078 421.991 253.155 423.533 253.155 424.073C253.155 424.613 252.615 425.076 251.998 425.076C251.382 425.076 250.842 424.613 250.842 424.073C250.842 423.533 250.61 421.991 250.302 420.603C249.917 418.521 250.071 418.136 251.227 418.136ZM193.243 418.907C193.86 418.907 194.168 419.601 194.014 420.603C193.937 421.529 193.782 423.148 193.782 424.073C193.782 425.23 193.32 425.847 192.395 425.847C191.315 425.847 191.161 425.461 191.701 423.302C192.009 421.914 192.24 420.372 192.24 419.832C192.24 419.293 192.703 418.907 193.243 418.907ZM241.049 418.907C241.512 418.907 241.974 419.987 242.206 421.375C242.36 422.762 242.36 424.613 242.052 425.461C241.743 426.386 241.281 426.695 240.895 426.232C240.509 425.77 239.97 424.15 239.584 422.608C239.199 421.066 239.276 419.601 239.661 419.37C239.97 419.061 240.664 418.907 241.049 418.907ZM198.486 419.678C198.872 419.678 199.18 421.22 199.18 423.148C199.18 425.692 198.872 426.618 198.023 426.618C197.406 426.618 196.867 426.155 196.867 425.615C196.867 425.076 197.021 423.533 197.329 422.146C197.561 420.758 198.1 419.678 198.486 419.678ZM203.883 419.678C204.269 419.678 204.577 421.22 204.577 423.148C204.577 425.692 204.269 426.618 203.421 426.618C202.804 426.618 202.264 426.155 202.264 425.615C202.264 425.076 202.418 423.533 202.727 422.146C202.958 420.758 203.498 419.678 203.883 419.678ZM230.948 420.064C231.334 420.295 231.642 421.914 231.642 423.533C231.565 425.692 231.257 426.618 230.408 426.618C229.56 426.618 229.175 425.692 229.098 423.611C229.02 421.991 229.252 420.449 229.56 420.218C229.946 419.909 230.563 419.909 230.948 420.064ZM235.42 419.678C235.806 419.678 236.346 420.141 236.577 420.835C236.808 421.452 236.962 422.994 236.962 424.305C236.962 425.847 236.577 426.618 235.806 426.618C234.958 426.618 234.649 425.692 234.649 423.148C234.649 421.22 234.958 419.678 235.42 419.678ZM208.973 420.449C209.589 420.449 209.975 421.452 209.975 423.533C209.975 425.77 209.667 426.618 208.818 426.618C207.97 426.618 207.662 425.77 207.816 423.533C207.893 421.529 208.279 420.449 208.973 420.449ZM214.139 420.449C215.064 420.449 215.372 421.297 215.372 423.919C215.372 426.309 215.064 427.312 214.37 427.08C213.907 427.003 213.368 425.384 213.213 423.611C212.982 421.143 213.213 420.449 214.139 420.449ZM219.613 420.449C220.462 420.449 220.77 421.297 220.77 423.533C220.77 425.23 220.384 426.772 219.999 427.003C219.536 427.158 219.074 426.849 218.842 426.232C218.611 425.538 218.457 423.996 218.457 422.762C218.457 421.22 218.842 420.449 219.613 420.449ZM224.934 420.449C225.859 420.449 226.09 421.143 225.936 423.688C225.859 425.461 225.396 427.003 225.011 427.003C224.548 427.003 224.163 425.461 224.008 423.688C223.777 421.143 224.008 420.449 224.934 420.449Z" fill="#f4f4f4"/>
</svg>
