<svg width="430" height="430" fill="none" xmlns="http://www.w3.org/2000/svg"><path fill-rule="evenodd" clip-rule="evenodd" d="M200.925 10.6997c1.156 0 1.465.5398 1.388 2.4675-.077 1.3879-.617 2.6216-1.311 2.8529-.848.2314-1.003 0-.54-.9252.309-.7711.231-1.1567-.231-.9253-.386.2313-.771-.4627-.771-1.5422 0-1.3879.385-1.9277 1.465-1.9277Zm-28.993 4.0096c.54.2313 1.08 1.5422 1.234 3.0072.232 2.3903.077 2.5445-1.388 2.0048-.925-.3084-1.619-.2313-1.619.2313s-.694.6169-1.542.3855c-.848-.2313-1.542-.0771-1.542.3856 0 .4626-.617.771-1.311.771-.925 0-1.08-.2056-.463-.6168.54-.3084.771-1.3108.617-2.3132-.231-1.0795-.694-1.4651-1.311-1.1566-.668.4112-.796.2827-.385-.3856.308-.4626.925-.771 1.311-.5397.462.2313 1.465 0 2.39-.5398 1.465-.8481 1.542-.771.54.4627-.849 1.1566-.849 1.3108.385 1.2337.694 0 1.465-.694 1.697-1.6193.231-.9252.848-1.465 1.387-1.3108Zm-12.954 3.7012c.617 0 1.388.9252 1.62 2.0819.231 1.2337.231 2.3132 0 2.5445-.232.2313-1.003.1542-1.62-.2313-.616-.3085-1.156-1.388-1.156-2.4675 0-1.2337.463-1.9276 1.156-1.9276Zm-26.293 11.7974c.694 1.1566 1.079 2.3132.848 2.6216-.231.3855-.385.1542-.385-.3855 0-.4627-.617-.9253-1.311-.9253-.771-.0771-1.928.4626-2.545 1.1566-1.002 1.0795-1.002 1.2337.386 1.2337 1.156-.0771 1.002.2313-.771 1.0795-1.234.694-2.622 1.1566-3.085 1.1566-.385 0-.231-.3855.386-.7711.771-.514.848-.771.231-.771-.539 0-1.002-.5398-1.002-1.2338 0-.771-.309-.9252-.925-.5397-.617.4112-.771.2313-.463-.5398.231-.6168.925-1.0795 1.696-1.0023.694.1542 1.234-.1543 1.234-.5398 0-.4626.694-.9253 1.542-1.1566.848-.2313 1.697-.0771 1.928.3855.231.3856.771.7711 1.156.7711.463 0 .54-.6169.309-1.3879-.231-.694.154-.3856.771.771v.0772Zm-13.494 4.4722c.925 0 1.774.5397 2.005 1.1566.231.6168.386 1.6963.386 2.3132 0 .6169-.54 1.1566-1.157 1.1566s-1.157-.3855-1.157-.7711c0-.3855.463-.5397 1.003-.2313.539.2313.617.1542.308-.2313-.385-.3856-1.079-.694-1.542-.694-.54 0-1.002-.6168-1.157-1.3879-.231-.9253.232-1.3108 1.311-1.3108ZM94.7482 50.1015c.5398 0 1.388.8482 1.9277 1.9277.8482 1.6192.8482 2.0048 0 2.4674-.6169.3084-1.6192 1.0795-2.2361 1.7735-1.0795 1.0024-1.3879 1.0024-2.4674 0-1.1566-1.0024-1.3109-1.0024-1.2337.1542 0 .7711.3855 1.3879.9252 1.3879.6169 0 .694.2827.2314.8482-.4627.4626-1.2337.6169-1.6964.3855-.6168-.3084-.7711-1.0795-.4626-2.2361.4626-1.3879.3084-1.6192-.7711-1.1566-.7711.3855-1.3108.3084-1.3108-.1542 0-.3855.5397-.7711 1.1566-.7711.6168 0 1.3108-.5397 1.5421-1.1566.2313-.6168.9253-1.1566 1.5422-1.1566.6168 0 1.3108-.5397 1.5421-1.1566.1542-.6169.7711-1.1566 1.3108-1.1566Zm-10.3323 8.4818c1.0795 0 1.1566.1542.1542.694-.9253.5397-.8482.771.6168 1.1566.9253.2313 1.6964 1.0024 1.6964 1.6192 0 .6169-.5398 1.1566-1.1566 1.1566-.6169 0-1.6964-.7711-2.3132-1.7734-.6169-.9253-.9253-1.9277-.694-2.3133.2313-.3084 1.0024-.5397 1.6964-.5397ZM63.3656 79.4022c.694 0 1.1566.7711 1.1566 1.9277 0 1.0795.3856 1.7735.7711 1.5421.4626-.2313.2313.4627-.3855 1.5422-.6169 1.0795-1.4651 1.9277-1.9277 1.9277-.3856 0-.6169-.5398-.3856-1.1566.2314-.6169.0771-1.1566-.3855-1.1566-.3855 0-1.0795.771-1.3879 1.6963-.6169 1.6964-.694 1.6964-1.8506-1.3108l-.5397 1.5421c-.3085.8482-.7711 1.1566-1.0024.7711-.3085-.3855.3855-1.6964 1.3879-2.9301 1.0024-1.1566 1.8506-1.6963 1.8506-1.3108 0 .3855.6939.7711 1.5421.7711 1.0795 0 1.5421-.5398 1.5421-1.7735 0-1.3108-.1542-1.465-.771-.5397-.3856.6168-.8482.9252-1.0795.5397-.2313-.3084-.3085-.9253-.0771-1.3108.3084-.3855 1.0024-.7711 1.5421-.7711Zm-9.0215 10.0239c.3084 0 1.3879.6169 2.3903 1.388 1.0024.6939 1.6193 1.6963 1.3108 2.2361-.2313.5397-.7711 1.0024-1.2337 1.0024-.3855 0-.6169-.3856-.3855-.7711.2313-.3855-.0771-.5397-.5398-.3084-.5397.2313-1.465-.1542-1.9277-.7711-.5397-.694-.8481-1.6192-.6168-2.0048.3084-.3855.694-.7711 1.0024-.7711Zm-10.795 13.1079c.3084 0 1.6963.694 3.0843 1.543 2.3903 1.465 2.3903 1.619 1.3108 3.469-.6169 1.08-1.6193 1.928-2.0819 1.928-.5398 0-1.8506-.54-2.9301-1.311-1.0795-.694-2.0819-1.388-2.3132-1.465-.2313-.154.2313-1.156 1.0024-2.236.694-1.079 1.6192-1.928 1.9277-1.928Zm-26.2936 56.52 3.2385.848c3.0072.771 3.2385 1.002 3.0072 3.161-.2313 2.159-.3855 2.314-3.3156 2.082-1.6963-.077-3.3156-.462-3.5469-.771-.2313-.308-.2313-1.619.0771-2.93l.5397-2.39Zm-2.93 22.901c1.0795 0 2.6987.231 3.5469.462 1.3879.386 1.465.771.7711 4.781-.3856 2.467-.694 14.265-.694 26.371 0 19.508.1542 23.055 1.7735 31.614.9253 5.32 2.6987 13.493 3.9324 18.12 1.1566 4.703 3.3927 11.951 4.9349 16.192 1.5421 4.241 2.7758 7.865 2.7758 8.097 0 .231-1.3108.848-2.93 1.387-1.5422.617-3.0843.772-3.3927.386-.3856-.308-1.8506-4.087-3.3927-8.328-1.4651-4.24-3.3928-10.332-4.2409-13.493-.8482-3.162-2.3904-9.947-3.3928-15.036-1.0024-5.089-2.159-12.723-2.6216-16.964-.3855-4.241-1.0024-11.026-1.2337-15.036-.3085-4.009-.1542-12.491.3084-18.891.4627-6.323 1.0795-13.339 1.3108-15.576.4627-3.778.6169-4.086 2.5446-4.086Zm18.8141 110.34c.3084 0 .9253.617 1.3108 1.465.4627.848.7711 1.928.7711 2.313 0 .463-1.3108 1.465-5.783 3.779l-.9253-1.851c-.5398-1.079-1.0795-2.236-1.1566-2.699-.0771-.385 1.0795-1.233 2.5445-1.85 1.465-.617 2.9301-1.08 3.2385-1.157Zm4.0096 9.253c.4626-.077 1.2337.848 1.7734 2.082.5398 1.156.9253 2.159.7711 2.236-.0771 0-1.3108.617-2.6987 1.311-1.388.694-2.6988 1.233-2.9301 1.233-.1542 0-.8482-.925-1.465-2.081-1.0024-2.082-1.0024-2.159 1.3879-3.47 1.3108-.694 2.7758-1.311 3.1614-1.311Zm354.3078 4.549c.308 0 .462.386.308.771-.154.463.154.617.694.463.54-.231 1.465-.077 2.082.308.771.386 1.002 1.157.617 1.928-.54 1.08-.848 1.08-2.93 0-1.542-.771-2.159-1.542-1.851-2.313.231-.617.771-1.157 1.08-1.157ZM42.1612 310.03c.2313-.077.8481.771 1.3879 1.85.5397 1.08.9253 2.159.9253 2.314 0 .231-1.1566 1.079-2.6988 1.927-1.465.848-2.7758 1.619-2.853 1.619-.1542 0-.6939-1.079-1.3879-2.313-.6168-1.311-.9253-2.467-.7711-2.621.2314-.155 1.4651-.849 2.6988-1.543 1.3108-.694 2.5445-1.233 2.6988-1.233Zm346.1338 1.465c.231 0 .771.617 1.234 1.233.617 1.003.54 1.157-.54.772-.925-.257-1.388-.026-1.388.694 0 .693-.385 1.31-.925 1.465-.771.154-.771.308 0 .771.54.231 1.465 0 2.082-.694.694-.617 1.156-.849 1.156-.54 0 .308.54.077 1.157-.617.925-.771 1.234-.848 1.234-.154 0 .54-.54 1.156-1.234 1.311-.617.231-1.002.694-.771 1.002.154.308-.077 1.08-.463 1.696-.694 1.003-.771.926-.385-.154.308-.771.231-1.388-.077-1.388-.309 0-1.157.463-1.928 1.003-.925.694-1.157 1.31-.617 2.082.514.771.771.848.771.231 0-.54.386-.771.771-.617.463.231.617.771.386 1.157-.154.462-.848.771-1.542.771-.617 0-1.311-.694-1.542-1.542-.232-.849-.772-1.311-1.311-1.08-.54.231-.463 0 .154-.54.694-.617 1.234-1.388 1.234-1.85 0-.386.462-1.697 1.079-2.853.54-1.157 1.234-2.159 1.465-2.159Zm-341.4303 6.939c.3855 0 2.159 2.236 3.9325 4.858 1.7734 2.622 4.9348 7.094 7.0167 9.793 2.0819 2.776 7.2481 8.867 11.5661 13.494 4.3951 4.703 10.6408 11.026 14.0335 14.033 3.3927 3.084 9.3299 7.865 13.1082 10.795 3.8553 2.853 10.1013 7.171 13.8793 9.561 3.855 2.391 10.872 6.323 15.653 8.713 4.78 2.391 12.028 5.706 16.192 7.326 4.087 1.696 10.487 3.932 14.034 5.089 3.624 1.079 10.409 2.853 15.036 3.932 4.703 1.003 11.874 2.39 16.038 3.007 4.087.694 9.253 1.157 11.335 1.157 2.159 0 4.009.308 4.241.617.154.308.077 1.002-.232 1.542-.385.848-2.005.848-8.25.154-4.241-.463-10.795-1.388-14.651-2.005-3.778-.694-10.024-2.004-13.879-3.007-3.778-1.002-11.103-3.238-16.192-4.935-5.089-1.773-12.338-4.549-16.193-6.245-3.778-1.697-11.103-5.398-16.192-8.251-5.089-2.93-11.489-6.785-14.265-8.636-2.699-1.85-8.2507-6.014-12.3373-9.176-4.0096-3.238-11.4119-9.792-16.4239-14.727-5.0119-4.935-11.8745-12.414-15.2672-16.655-3.3156-4.241-7.7878-10.255-9.9468-13.494-2.0819-3.161-3.624-6.014-3.3927-6.323.2313-.308.7711-.617 1.1566-.617Zm322.7703 24.135c1.003.925 1.619 2.005 1.388 2.313-.231.309-.771.617-1.311.617-.539 0-1.542-.617-2.313-1.388-1.002-1.002-1.156-1.542-.462-2.313.771-.771 1.31-.617 2.698.771Zm-5.783 3.316c.463.231.771 1.079.694 1.927-.051 1.028.309 1.388 1.08 1.08.694-.154 1.156-.077 1.156.231s-1.388 1.928-6.168 6.708l-1.542-1.542c-.849-.848-1.543-1.927-1.543-2.467s.54-1.003 1.157-1.003c.694 0 1.157-.308 1.157-.771 0-.385.462-.462 1.002-.154.54.309.694.231.386-.231-.309-.386 0-1.542.694-2.468.616-1.002 1.542-1.542 1.927-1.31Zm-26.525 24.365c.617.155 1.542.771 1.928 1.388.463.694.54 1.851.308 2.699-.539 1.542-.616 1.542-2.544-.385-1.234-1.157-1.774-2.314-1.465-2.931.308-.539 1.156-.848 1.773-.771Zm-5.166 3.779c.232 0 .463.231.463.539.077.309.154 1.234.154 2.082.077 1.311.231 1.388.771.386.54-.848.771-.925 1.157-.154.308.539-.077 1.388-.694 1.927-.694.54-1.157.694-1.157.386 0-.309-.694.077-1.542.925-1.08 1.157-1.851 1.388-2.699.771-.848-.54-1.156-.385-1.311.54-.154 1.079-.462.925-2.93-2.853l2.391.617c1.927.462 2.313.308 2.313-.771-.077-.771-.463-1.388-1.003-1.388-.539 0 .078-.617 1.311-1.465 1.311-.771 2.545-1.465 2.776-1.542Zm-31.305 18.428c.694 0 1.542.848 2.004 1.774.617 1.233.617 1.927 0 2.467-.616.54-1.233.309-2.004-.771-.617-.848-1.157-1.928-1.157-2.467 0-.54.54-1.003 1.157-1.003Zm-5.783 2.391c.385 0 .539.308.385.771-.154.385-.154 1.233.077 1.927.232.617.771.849 1.311.54.617-.36.771-.154.463.617-.232.617-1.003 1.002-1.697.925-.694-.077-1.233.154-1.233.617 0 .386-.386.771-.771.771-.463 0-.617-.385-.386-.771.231-.463-.154-.771-.771-.771s-1.311.694-1.542 1.542c-.231.848-.771 1.542-1.157 1.542-.462 0-1.156-.925-1.542-1.927-.463-1.08-.617-2.314-.385-2.699.231-.463.694-.771 1.002-.771.385 0 .54.385.308.925-.154.54.155.386.771-.385.54-.772 1.62-1.311 2.391-1.311.694 0 1.465-.386 1.696-.771.231-.463.771-.771 1.08-.771Zm-32.617 12.568c.54.925 1.003 2.082 1.08 2.622 0 .539-.694 1.002-1.542 1.002-1.08 0-1.697-.694-2.005-2.159-.231-1.234 0-2.313.54-2.622.616-.385 1.388.078 1.927 1.157Zm-7.248-.154c.386-.077.617.231.617.694 0 .385-.463.462-.925.154-.694-.386-.848-.154-.386.771.309.771.54 1.696.54 2.159 0 .386.308.54.771.386.386-.232.771-.077.771.385 0 .386-.694.54-1.542.386-.848-.232-1.696-.077-1.928.385-.231.386-1.002.54-1.773.386-.694-.232-1.851 0-2.468.54-1.002.848-1.002.848 0-.386 1.003-1.234 1.003-1.388-.231-1.388-.694 0-1.311-.308-1.311-.694 0-.463.309-.617.771-.385.386.154.771 0 .771-.386 0-.463-.462-1.002-1.002-1.157-.463-.231-.154-.231.771 0 1.002.155 1.774 0 1.774-.385 0-.463.925-.925 2.081-1.08 1.234-.154 2.391-.308 2.699-.385Zm-23.209 1.542c.231-.077.308.694.077 1.619-.231.926-1.002 3.316-1.696 5.244-.771 1.85-1.697 3.546-2.082 3.624-.309.154-1.542-1.697-2.776-4.01-1.157-2.39-2.082-4.626-2.082-5.012 0-.463 1.851-.925 4.01-1.079 2.236-.078 4.318-.309 4.549-.386Zm-22.438 1.465c2.082 0 3.855.154 3.855.386 0 .154-.848 2.081-1.928 4.24-1.079 2.082-2.081 3.856-2.313 3.856-.231 0-1.079-1.619-1.927-3.47-.849-1.928-1.543-3.855-1.543-4.241 0-.463 1.697-.771 3.856-.771Z" fill="#B3B3B3"/></svg>