<svg width="450" height="450" fill="none" xmlns="http://www.w3.org/2000/svg"><path fill-rule="evenodd" clip-rule="evenodd" d="M68.0015 79.5421c1.465 1.1567 2.6216 2.3133 2.6216 2.6217 0 .3855-.4626.8482-.9253 1.0795-.5397.3084-2.0047-.5398-3.2385-1.6964-1.2337-1.3108-1.9277-2.6216-1.6963-3.1614.3855-.771 1.3108-.3855 3.2385 1.1566Zm-6.0144 2.4675c.3084 0 1.6964 1.0024 3.0843 2.159 1.7478 1.3879 2.3646 2.3389 1.8506 2.853-.5141.514-1.6964.0514-3.547-1.388-1.5421-1.1566-2.6216-2.4674-2.3903-2.853.3084-.3855.694-.771 1.0024-.771Zm-2.6987 4.318c.5397.3084 1.6963 1.2337 2.6987 2.159.9253.9253 1.6964 1.8506 1.6964 2.159 0 .3855-.4627.6169-.9253.6169-.5398-.0772-2.0048-.8482-3.3156-1.8506-1.4651-1.1566-2.0819-2.159-1.6964-2.6988.3855-.4626 1.0795-.6168 1.5422-.3855Zm-3.7783 4.1638c.4626 0 1.9277.9253 3.1614 2.0048 1.5421 1.3108 2.0819 2.2361 1.5421 2.6987-.4626.4627-1.7734 0-3.624-1.3879-1.6192-1.2337-2.6988-2.3903-2.3903-2.7759.2313-.3084.8482-.5397 1.3108-.5397Zm-3.7783 3.8553c.2314 0 1.4651.7711 2.6988 1.6964 1.3108 1.0024 2.3132 2.2361 2.3132 2.6988 0 .5397-.1542 1.0024-.3855 1.0024s-1.5422-.7711-2.853-1.6964c-1.3879-.9253-2.6216-1.7735-2.6987-1.9277-.1543-.1542-.0772-.6168.1542-1.0024.3084-.3855.6168-.7711.771-.7711Zm-3.0842 4.6265c.2313 0 1.5421.771 3.0071 1.6968 1.6193 1.079 2.4675 2.159 2.159 2.698-.3855.694-1.3108.463-3.3927-.925-1.6192-1.08-2.7758-2.313-2.5445-2.6987.3084-.3856.6168-.7711.7711-.7711ZM45.409 103.6c.4627 0 2.0819.848 3.4699 1.773 1.6963 1.131 2.2875 1.953 1.7734 2.468-.514.514-1.6706.179-3.4698-1.003-1.5421-.925-2.7758-2.082-2.7758-2.467 0-.386.4626-.771 1.0023-.771Zm-2.3132 4.318c.5398.308 1.9277 1.31 3.0843 2.159 1.4394 1.079 1.902 1.876 1.3879 2.39-.514.514-1.6192.154-3.3156-1.08-1.3879-1.079-2.6216-2.004-2.6987-2.159-.1542-.154 0-.616.2313-1.002.2313-.463.8482-.54 1.3108-.308Zm-3.7011 4.163c.2313 0 1.6192.694 3.0843 1.543 1.465.848 2.6987 1.927 2.6987 2.313 0 .385-.2313.925-.5397 1.079-.3856.232-1.7735-.308-3.0843-1.156-1.388-.771-2.5446-2.005-2.5446-2.622s.1543-1.157.3856-1.157Zm.3084 6.323c1.5422.926 2.853 1.774 3.0072 1.928.0771.154 0 .54-.2313 1.002-.2314.463-1.6964.077-3.4699-1.002-1.6963-.925-3.1614-1.928-3.2385-2.159-.0771-.231.1543-.694.5398-.925.3084-.309 1.8506.231 3.3927 1.156Zm-5.3204 3.701c.4626 0 1.8506.54 3.0843 1.157 1.3108.617 2.3132 1.696 2.3132 2.313 0 .925-.5397.925-3.0843-.385-1.6963-.849-3.0843-1.851-3.0843-2.314 0-.462.3856-.771.7711-.771Zm-2.853 4.627c.0771 0 1.5422.462 3.2385 1.156 1.8506.694 3.0072 1.62 2.853 2.314-.0771.616-.3084 1.156-.5397 1.156-.2314 0-1.7735-.694-3.4699-1.542-1.6963-.848-2.93-1.85-2.6987-2.313.3084-.463.5397-.771.6168-.771Zm-2.159 4.626c.2314 0 1.6193.617 3.0843 1.311 1.5422.771 2.6988 1.851 2.6988 2.313 0 .54-.1542 1.003-.3856 1.003-.2313 0-1.7734-.694-3.4698-1.542-1.6963-.849-2.9301-1.851-2.6987-2.314.3084-.462.6168-.771.771-.771Zm.2314 6.015c1.6963.616 3.0842 1.619 3.1614 2.236 0 .539-.2314 1.002-.694 1.002-.3856 0-1.9277-.617-3.3927-1.388-1.4651-.694-2.5446-1.696-2.3904-2.159.2314-.694 1.1567-.54 3.3157.309Zm-4.6265 4.009c.3084 0 1.8506.463 3.4698 1.157 1.5422.617 2.853 1.465 2.853 1.927 0 .463-.4626.772-.9253.772-.5397 0-2.159-.309-3.4698-.772-1.3879-.385-2.5445-1.31-2.5445-1.927s.2313-1.157.6168-1.157Zm.7711 5.86c1.6192.617 2.9301 1.08 3.0843 1.08.0771 0 .1542.54.1542 1.156 0 .617-.1542 1.157-.3855 1.157-.2314 0-1.7735-.54-3.4699-1.157-1.6963-.616-3.1614-1.465-3.2385-1.773-.0771-.386.1542-.848.4627-1.157.3084-.231 1.8505 0 3.3927.694Zm-4.4722 4.164c.4626 0 2.0048.54 3.4698 1.157 1.465.617 2.6987 1.465 2.6987 1.927 0 .463-.4626.772-.9252.772-.5398 0-2.159-.463-3.547-1.003-1.3879-.463-2.4674-1.388-2.4674-1.928 0-.462.3855-.925.7711-.925Zm-1.3109 5.398c.5398 0 2.0819.308 3.4699.771 1.6963.539 2.3132 1.156 2.0819 1.927-.3085 1.003-.7711 1.003-3.8554 0-1.9277-.616-3.3156-1.465-3.0843-1.927.3084-.463.8482-.771 1.3879-.771Zm.3085 5.551c1.6192.463 3.3156.926 3.7011 1.157.5141.257.5141.643 0 1.157-.4626.462-2.0048.308-4.0867-.309-1.7734-.54-3.3156-1.234-3.3927-1.465-.0771-.231.1542-.617.3856-.848.3084-.231 1.8505-.077 3.3927.308Zm-2.2361 4.935c1.1566.309 2.6987.771 3.3927 1.003.7711.231 1.0795.848.7711 1.388-.3856.771-1.1567.771-3.4699 0-1.5421-.54-2.8529-1.388-2.8529-1.928 0-.617.6939-.771 2.159-.463Zm-2.7759 4.935c.5398 0 2.0819.309 3.4698.771 1.388.463 2.5446 1.157 2.5446 1.542 0 .463-.694.771-1.5422.771-.8482 0-2.3903-.308-3.4698-.771-1.0795-.385-1.9277-1.079-1.9277-1.542 0-.385.3855-.771.9253-.771Zm-1.5421 5.398c.5397 0 2.159.231 3.5469.616 1.3879.309 2.4674 1.003 2.4674 1.543 0 .539-.3084.925-.6168.925-.3085 0-1.8506-.309-3.4699-.771-1.5421-.386-2.8529-1.08-2.8529-1.542 0-.386.3855-.771.9253-.771Zm1.6963 5.706c1.6964.231 3.3156.616 3.547.848.2313.231-.0001.771-.3856 1.156-.5397.463-1.8506.463-3.7011 0-1.5422-.385-2.7759-1.156-2.7759-1.619.1028-.565 1.208-.694 3.3156-.385Zm-2.7758 4.626c.6939.154 2.3132.54 3.5469.771 1.2337.308 2.159.925 2.0819 1.465-.0771.694-1.0795.771-3.7783.386-2.0048-.309-3.7011-.771-3.8553-1.003-.0771-.154.0771-.771.3084-1.156.2313-.463 1.0024-.694 1.6964-.463Zm.3855 5.552c1.3108.231 2.853.617 3.3927.771.5398.154 1.0024.694 1.0024 1.079 0 .463-1.0024.771-2.159.771-1.1566 0-2.853-.154-3.8554-.385-1.0795-.231-1.5421-.771-1.3108-1.465.3084-.848 1.1566-1.003 2.9301-.771Zm-1.465 5.243c.9252.231 2.3903.463 3.3156.463 1.0795 0 1.7734.462 1.7734 1.156 0 .617-.6168 1.157-1.3879 1.157-.694 0-2.4674-.154-3.8554-.386-1.9276-.308-2.3903-.694-1.9276-1.619.3084-.771 1.0795-1.002 2.0819-.771Zm0 5.398c1.3108.308 2.7758.462 3.3156.462.5397 0 1.0024.54 1.0024 1.157s-.4627 1.156-1.0024 1.156c-.5398 0-2.0819-.231-3.4699-.539-1.465-.386-2.4674-1.08-2.3903-1.697.0771-.771.8482-.925 2.5446-.539Zm-.694 5.397c.8482.231 2.159.463 2.853.463.771 0 1.3879.462 1.3879 1.002 0 .617-1.1566.848-3.4698.771-1.9277-.154-3.547-.54-3.624-.848-.0772-.386.2312-.925.6168-1.234.3084-.308 1.3879-.385 2.2361-.154Zm-.0771 5.398c1.3108.308 2.7758.462 3.3156.462.5397 0 1.0024.386 1.0024.771 0 .463-1.5422.771-3.4698.771-2.7759 0-3.4699-.231-3.3928-1.233.1543-1.003.694-1.157 2.5446-.771Zm-.7711 5.397c.8482.231 2.3903.463 3.3156.463 1.0024 0 1.7735.385 1.7735.771 0 .462-1.5422.771-3.4698.771-2.7759 0-3.4699-.232-3.3928-1.234.0771-.848.6169-1.079 1.7735-.771Zm1.3879 5.243c1.7735.155 3.3156.694 3.4699 1.234.1542.617-.8482.925-3.2385.925-2.6217 0-3.4699-.308-3.4699-1.156.0771-.926.7711-1.157 3.2385-1.003Zm.2314 5.244c2.5445 0 3.4698.308 3.4698 1.156 0 .848-.9253 1.157-3.4698 1.157-2.5446 0-3.4699-.309-3.4699-1.157 0-.848.9253-1.156 3.4699-1.156Zm0 5.397c2.5445 0 3.4698.309 3.4698 1.157 0 .848-.9253 1.156-3.4698 1.156-2.5446 0-3.4699-.308-3.4699-1.156 0-.848.9253-1.157 3.4699-1.157Zm.771 5.398c1.9277 0 3.4699.385 3.4699.771 0 .462-.5398.925-1.1567 1.156-.6168.232-2.2361.386-3.4698.386-1.5421 0-2.3132-.386-2.3132-1.157 0-.848.9253-1.156 3.4698-1.156Zm3.3156 5.783c.1543.462-.1542 1.079-.771 1.388-.5398.308-2.0048.462-3.1614.385-1.1566-.154-2.159-.54-2.159-1.002 0-.386 1.3108-.925 2.93-1.157 1.6193-.231 3.0072 0 3.1614.386Zm-.4626 4.395c.7711-.077 1.3879.385 1.3879 1.002s-.771 1.311-1.7734 1.542c-.9253.232-2.4675.386-3.4699.386-1.0024 0-1.6963-.463-1.6963-1.157s.8482-1.233 2.0819-1.388c1.1566-.154 2.7758-.385 3.4698-.385Zm.7711 5.397c.771-.077 1.3879.309 1.3879.849 0 .539-1.0795 1.233-2.4674 1.542-1.388.308-3.0072.539-3.547.539-.5397 0-.9253-.539-.9253-1.156 0-.694.8482-1.234 2.0819-1.388 1.1567-.154 2.7759-.386 3.4699-.386Zm420.8518 2.93c1.233 0 2.853.155 3.47.386.616.231 1.156.925 1.156 1.542 0 .848-.54 1.08-2.159.694-1.157-.231-2.699-.617-3.47-.771-.694-.154-1.311-.617-1.311-1.08 0-.385 1.003-.771 2.314-.771Zm-420.4663 2.391c1.0024 0 1.7735.385 1.7735.925s-1.3108 1.157-2.853 1.465c-1.6192.308-3.2385.386-3.5469.231-.3085-.231-.5398-.694-.5398-1.156 0-.386.7711-.925 1.6964-1.08 1.0024-.154 2.5445-.308 3.4698-.385Zm419.8493 3.007c1.388 0 3.084.308 3.701.694.617.385.848 1.079.54 1.542-.386.617-1.465.617-3.624.077-1.697-.385-3.085-1.079-3.085-1.542 0-.386 1.08-.771 2.468-.771Zm-417.3047 2.699c.3855.462.3084 1.002-.2314 1.31-.5397.232-2.159.617-3.5469.772-1.465.154-2.7759-.078-2.9301-.54-.1542-.386 1.1566-1.08 2.9301-1.542 2.159-.54 3.3927-.54 3.7783 0Zm415.4537 2.236c.694.154 2.236.54 3.393.771 1.465.308 2.005.848 1.773 1.619-.308 1.003-.848 1.003-3.315.309-1.542-.463-3.162-1.003-3.47-1.157-.308-.154-.308-.694-.077-1.08.231-.462 1.002-.694 1.696-.462Zm-414.914 2.082c.5398 0 1.0024.462 1.0024 1.079s-.7711 1.311-1.7735 1.542c-.9253.232-2.4674.386-3.4698.386-.9253 0-1.7735-.309-1.8506-.771-.0771-.386 1.0024-1.08 2.4675-1.465 1.465-.386 3.0842-.694 3.624-.771Zm414.914 3.392c1.542.232 3.162.849 3.624 1.234.386.386.617.848.386 1.157-.231.231-1.774.154-3.393-.232-1.696-.308-3.161-1.079-3.315-1.696-.155-.848.385-.925 2.698-.463Zm-413.7574 2.005c.7711 0 1.3879.309 1.3879.694 0 .463-.8481 1.157-1.9276 1.542-1.0795.463-2.6217.771-3.4699.771-.9253 0-1.3879-.385-1.1566-.925.2313-.54 1.1566-1.157 2.159-1.465.9253-.308 2.3132-.54 3.0072-.617Zm413.0634 3.239c1.62.385 3.007 1.233 3.085 1.85.077.54-.155 1.003-.463 1.003-.308 0-1.928-.386-3.47-.926-1.619-.539-3.007-1.156-3.084-1.388 0-.308.154-.694.385-.925.309-.231 1.851-.077 3.547.386Zm-410.8273 2.467c.3856.463.2313 1.003-.3084 1.311-.4627.231-2.0048.694-3.3927.925-1.7735.386-2.5446.232-2.5446-.462 0-.54 1.2337-1.311 2.7759-1.774 1.9277-.54 3.0072-.54 3.4698 0Zm406.1243 1.928c.308 0 1.85.385 3.47.771 1.696.463 2.853 1.311 2.853 1.928 0 .848-.463 1.079-1.697.694-1.002-.232-2.544-.772-3.47-1.157-1.002-.386-1.773-1.002-1.773-1.465 0-.386.308-.771.617-.771Zm-405.5845 2.544c.6168.077 1.0795.54 1.0795.926 0 .462-1.3108 1.233-2.9301 1.773-2.0048.617-3.2385.694-3.7783.231-.4626-.514.18-1.156 1.9277-1.927 1.5422-.617 3.1614-1.08 3.7012-1.003Zm406.4325 3.162c1.542.308 3.161.848 3.547 1.233.463.463.54 1.08.231 1.388-.385.309-2.005.155-3.701-.385-1.696-.54-3.007-1.388-2.93-1.851.077-.539 1.079-.694 2.853-.385Zm-403.7338 1.773c.3856.232.694.694.6169 1.08 0 .385-1.6193 1.233-3.547 1.85-3.1613 1.08-3.3927 1.08-3.0842-.077.2313-.694 1.5421-1.696 2.8529-2.236 1.3109-.463 2.7759-.771 3.1614-.617Zm399.9558 2.545c.462 0 2.004.54 3.47 1.156 1.542.694 2.698 1.543 2.698 1.928 0 .463-.231.771-.539.771-.309 0-1.928-.385-3.47-.925-1.62-.54-2.93-1.388-2.93-1.928s.385-1.002.771-1.002Zm-398.7992 2.39c.5398 0 .9253.309.9253.694 0 .463-1.1566 1.311-2.6987 1.928-1.4651.694-3.0072 1.156-3.4699 1.156-.3855 0-.8481-.462-.9252-1.002-.0772-.617 1.0023-1.388 2.5445-1.851 1.465-.462 3.0843-.848 3.624-.925Zm399.2612 3.316c1.62.462 3.085 1.31 3.316 1.85.308.54.308 1.157.077 1.311-.154.231-1.773-.231-3.547-.925-1.773-.771-3.084-1.774-2.93-2.236.154-.617 1.002-.617 3.084 0Zm-396.5624 1.773c.3855.231.694.617.694.925-.0772.232-1.388 1.003-3.0072 1.62-1.6193.694-3.1614 1.233-3.4699 1.388-.3084.077-.6168-.309-.6939-.926-.0771-.539 1.1566-1.542 2.7758-2.159 1.6193-.694 3.3157-1.002 3.7012-.848Zm392.2444 2.545c.463 0 2.005.539 3.47 1.156 1.542.694 2.699 1.542 2.699 1.928 0 .463-.309.771-.771.771-.386 0-1.928-.463-3.47-1.157-1.465-.616-2.699-1.465-2.699-1.927 0-.386.386-.771.771-.771Zm-391.4733 2.39c.6939 0 1.3108.308 1.3108.694 0 .463-1.3108 1.311-2.853 2.005-1.9277.771-3.1614.925-3.7011.462-.4627-.539.0771-1.156 1.5421-1.927 1.3108-.694 2.9301-1.234 3.7012-1.234Zm389.3913 2.236c.078 0 1.543.54 3.239 1.157 1.696.694 3.007 1.465 2.93 1.773-.077.309-.463.848-.771 1.157-.308.308-1.928-.154-3.47-1.003-1.619-.848-2.699-1.85-2.467-2.313.231-.385.462-.771.539-.771Zm-386.6926 2.39c.5398 0 .9253.309.9253.694 0 .463-1.3879 1.465-3.0843 2.314-1.8506.925-3.2385 1.233-3.4698.771-.1542-.386-.3084-.848-.1542-1.003.0771-.154 1.2337-.848 2.4674-1.542 1.3108-.694 2.7759-1.234 3.3156-1.234Zm384.6116 2.237c.154 0 1.542.616 3.084 1.387 1.465.772 2.699 1.774 2.699 2.314-.078.539-.463.925-1.003.925-.54 0-2.082-.694-3.47-1.542-1.388-.848-2.313-1.851-2.082-2.313.232-.386.54-.771.772-.771Zm-382.6068 2.621c.3855.077.8482.463 1.0024.848.1542.463-1.0024 1.388-2.6216 2.082-1.6193.771-3.1614 1.157-3.4699 1.003-.3084-.232-.6939-.617-.771-1.003-.0772-.308 1.0795-1.156 2.5445-1.85 1.465-.694 2.9301-1.157 3.3156-1.08Zm382.9918 3.624c1.696.848 3.084 1.851 3.084 2.313 0 .386-.385.694-.848.694-.385 0-1.85-.539-3.238-1.233-1.388-.694-2.622-1.388-2.699-1.542-.154-.155 0-.617.231-1.08.232-.385 1.619-.077 3.47.848Zm-379.9846.771c.3084 0 .5397.386.6168.926 0 .539-1.3108 1.542-2.93 2.313-1.8506.925-3.1614 1.156-3.7012.694-.4626-.54.3085-1.311 2.3132-2.313 1.6964-.926 3.3928-1.62 3.7012-1.62Zm377.6716 3.856c1.696.848 3.084 1.773 3.084 2.082 0 .308-.308.848-.617 1.156-.308.309-1.927-.231-3.47-1.156-1.619-1.003-3.007-1.928-3.084-2.159 0-.309.154-.694.463-.926.385-.308 2.005.155 3.624 1.003Zm-375.3584.771c.3084 0 .5398.385.5398.925.0771.54-1.0024 1.542-2.3133 2.313-1.2337.771-2.6216 1.311-3.0842 1.311-.3856 0-.8482-.463-.9253-1.002-.0771-.54 1.0795-1.542 2.5445-2.236 1.465-.694 2.9301-1.311 3.2385-1.311Zm369.4984 2.236c.231 0 1.619.694 3.084 1.542 1.542.848 2.699 1.851 2.776 2.159 0 .308-.154.848-.386 1.157-.231.308-1.619-.155-3.161-1.003-1.465-.848-2.699-2.005-2.699-2.699 0-.616.231-1.156.386-1.156Zm-367.1852 2.39c.3085 0 .7711.309.9253.694.2313.463-.694 1.465-2.0819 2.313-1.3879.849-2.9301 1.543-3.4698 1.543-.5398 0-1.0024-.309-1.0024-.772 0-.385 1.1566-1.387 2.5445-2.236 1.388-.771 2.7759-1.465 3.0843-1.542Zm367.7242 3.933c1.697.925 3.085 1.927 3.085 2.159-.077.231-.386.694-.694 1.002-.309.309-1.774-.231-3.316-1.079-1.465-.926-2.776-1.851-2.853-1.928-.154-.154 0-.617.232-1.08.308-.462 1.619-.154 3.546.926Zm-364.6399.617c.3084 0 .5398.462.5398 1.002.0771.54-1.0024 1.542-2.3132 2.313-1.2338.771-2.6217 1.311-3.0843 1.311-.3856 0-.7711-.308-.8482-.771-.0771-.386 1.0795-1.465 2.5445-2.313 1.3879-.848 2.853-1.542 3.1614-1.542Zm358.9349 2.39c.308 0 1.696.694 3.084 1.542 1.388.848 2.39 1.928 2.236 2.467-.154.54-.463.849-.771.772-.309-.078-1.697-.926-3.239-1.774-1.465-.848-2.467-1.851-2.236-2.313.232-.386.617-.694.926-.694Zm-356.2361 2.313c.5397 0 .9253.309.9253.694 0 .463-1.0024 1.465-2.3133 2.313-1.2337.848-2.6216 1.542-3.0842 1.542-.3856 0-.7711-.385-.8482-.925-.0771-.54.8482-1.619 2.0819-2.313 1.2337-.694 2.6987-1.311 3.2385-1.311Zm353.3051 2.236c.463 0 1.851.694 3.085 1.542 1.311.848 2.313 1.928 2.313 2.314 0 .462-.386.848-.925.848-.54 0-1.928-.694-3.085-1.542-1.156-.849-2.159-1.928-2.159-2.391 0-.385.386-.771.771-.771Zm-349.8353 2.005c.3855.231.694.771.6169 1.157 0 .385-1.3109 1.542-2.7759 2.467-1.8506 1.157-3.0072 1.465-3.4698.925-.5398-.462.2313-1.465 2.0048-2.853 1.5421-1.079 3.1614-1.85 3.624-1.696Zm349.4503 3.624c1.542.925 2.699 2.159 2.699 2.699s-.386.925-.926.925c-.539 0-2.004-.848-3.315-1.851-1.311-1.079-2.005-2.159-1.697-2.621.386-.617 1.465-.309 3.239.848Zm-347.1371.617c.3084 0 .7711.308.9253.694.2313.462-.694 1.696-2.0819 2.699-1.3879 1.079-2.7759 1.927-3.0843 1.927-.3084 0-.6939-.462-.7711-1.079-.0771-.617.8482-1.774 2.159-2.622 1.2338-.925 2.5446-1.619 2.853-1.619Zm341.2001 2.313c.308 0 1.696.694 3.084 1.542 1.388.848 2.467 1.851 2.467 2.236 0 .463-.231.926-.539 1.157-.309.154-1.697-.386-3.085-1.388-1.388-.925-2.467-2.082-2.467-2.622-.077-.539.231-.925.54-.925Zm-337.1905 2.313c.5397.54.0771 1.388-1.5421 2.622-1.2338 1.079-2.6988 1.928-3.2386 1.928-.5397 0-1.0795-.309-1.1566-.694-.0771-.386 1.0795-1.62 2.4675-2.622 1.7477-1.336 2.9043-1.748 3.4698-1.234Zm337.1125 3.547c1.466 1.08 2.699 2.313 2.622 2.699 0 .308-.463.617-1.002.617-.54 0-2.005-.771-3.239-1.696-1.388-1.08-2.005-2.082-1.696-2.699.463-.694 1.311-.463 3.315 1.079Zm-334.568.309c.5398 0 .9253.231 1.0024.539 0 .309-1.0795 1.62-2.3132 2.853-1.8506 1.851-2.6216 2.159-3.3156 1.465-.7711-.771-.4626-1.387 1.3108-2.93 1.3108-1.079 2.7759-1.927 3.3156-1.927Zm328.323 2.236c.154 0 1.388.694 2.621 1.542 1.311.848 2.314 2.082 2.314 2.699 0 .694-.155 1.156-.386 1.156-.154 0-1.542-.848-3.084-1.927-1.465-1.003-2.468-2.236-2.236-2.699.231-.386.539-.771.771-.771Zm-324.8531 1.619c.3084 0 .6939.231.9253.54.2313.308-.694 1.619-1.9277 2.853-1.6193 1.773-2.6217 2.159-3.6241 1.696-1.2337-.54-1.0024-.848 1.3109-2.853 1.5421-1.234 3.0071-2.236 3.3156-2.236Zm321.5371 2.236c.54 0 1.928 1.08 3.084 2.313 1.157 1.311 1.774 2.545 1.311 2.699-.385.231-1.773-.54-3.084-1.696-1.234-1.157-2.313-2.391-2.313-2.699 0-.308.462-.617 1.002-.617Zm-317.5276 2.468c.5398.539 0 1.465-1.9276 3.007-1.8506 1.542-2.9301 2.005-3.4699 1.465-.4626-.54.0771-1.542 1.9277-3.084 1.8506-1.466 2.9301-1.928 3.4698-1.388Zm314.0576 1.388c.309 0 1.543 1.079 2.699 2.313 1.157 1.311 1.928 2.776 1.619 3.315-.308.617-1.31.077-3.007-1.773-1.465-1.465-2.467-2.93-2.236-3.239.231-.308.617-.616.925-.616Zm-311.2046 1.542c.3856 0 .8482.385 1.0024.771.2313.462-.694 1.85-2.0819 3.084-1.6192 1.388-2.7759 2.005-3.3156 1.542-.4626-.462.0771-1.542 1.5421-3.084 1.2338-1.234 2.5446-2.313 2.853-2.313Zm307.3496 2.39c.308 0 1.542.848 2.699 1.928 1.156 1.002 2.082 2.236 2.082 2.621 0 .463-.386.771-.926.771-.539 0-1.773-.771-2.698-1.696-1.003-1.002-1.774-2.159-1.774-2.699 0-.539.309-.925.617-.925Zm-303.4942 1.465c.3855 0 .771.308 1.0024.617.2313.308-.7711 1.773-2.2361 3.238-1.7735 1.851-2.6988 2.391-3.0843 1.774-.2313-.54.4626-2.005 1.6192-3.316 1.1566-1.233 2.3903-2.313 2.6988-2.313Zm299.7932 2.313c.463 0 1.619 1.003 2.699 2.159 1.079 1.157 1.927 2.391 1.927 2.699 0 .308-.385.617-.925.617s-1.773-1.08-2.699-2.313c-1.002-1.311-1.773-2.545-1.773-2.776 0-.154.385-.386.771-.386Zm-295.9379 1.542c.3856 0 .7711.309 1.0024.617.2314.309-.771 1.774-2.2361 3.239-1.7734 1.85-2.6987 2.39-3.0843 1.773-.2313-.54.4627-2.005 1.6193-3.315 1.1566-1.234 2.3903-2.314 2.6987-2.314Zm294.6269 3.624c1.157 1.234 2.159 2.622 2.159 3.162-.077.54-.308 1.002-.617 1.002-.308 0-1.542-1.079-2.699-2.313-1.156-1.311-1.85-2.699-1.619-3.161.386-.54 1.388-.078 2.776 1.31Zm-290.7715.232c.3855 0 .6169.462.6169 1.002s-.7711 1.774-1.6964 2.699c-1.0024 1.002-2.159 1.773-2.6988 1.773-.5397 0-1.0795-.308-1.1566-.616-.0771-.232.8482-1.466 2.0819-2.699 1.2337-1.157 2.5446-2.159 2.853-2.159Zm284.2175 1.542c.308 0 1.542 1.079 2.699 2.313 1.156 1.311 1.927 2.699 1.696 3.084-.154.463-1.388-.154-2.699-1.31-1.233-1.157-2.313-2.545-2.313-3.085 0-.539.308-1.002.617-1.002Zm-280.4392 1.542c.3855 0 .6939.463.6939 1.002 0 .54-.8482 2.005-1.8506 3.239-1.0795 1.388-2.1589 2.082-2.6987 1.773-.5397-.385-.1542-1.465 1.1566-3.315 1.1566-1.465 2.3132-2.699 2.6988-2.699Zm276.5842 2.313c.308 0 1.542 1.08 2.698 2.314 1.157 1.31 1.928 2.698 1.697 3.084-.155.462-1.388-.154-2.699-1.311-1.234-1.157-2.313-2.545-2.313-3.084 0-.54.308-1.003.617-1.003Zm-272.8831 1.542c.2313 0 .7711.155 1.0795.386.3084.231-.3855 1.619-1.5421 3.084s-2.3904 2.468-2.6988 2.313c-.3084-.231-.6168-.616-.694-1.002 0-.385.694-1.619 1.6193-2.699.9253-1.156 1.9277-2.082 2.2361-2.082Zm269.0271 1.543c.309 0 1.542 1.233 2.699 2.698 1.542 2.005 1.851 2.853 1.157 3.239-.617.308-1.851-.54-3.085-2.082-1.156-1.465-1.927-2.93-1.696-3.239.231-.308.617-.616.925-.616Zm-264.2464 1.542c.3855 0 .6939.308.6939.617 0 .308-.771 1.696-1.6963 3.084-1.0024 1.388-2.0048 2.467-2.3133 2.467-.3084 0-.771-.308-1.0023-.771-.1543-.385.5397-1.773 1.6192-3.084 1.0795-1.234 2.3132-2.313 2.6988-2.313Zm262.2414 3.855c1.234 1.542 2.237 3.007 2.159 3.316 0 .308-.385.617-.925.617s-1.773-1.08-2.699-2.314c-1.002-1.31-1.542-2.776-1.233-3.315.385-.694 1.233-.077 2.698 1.696Zm-258.309-.771c.3856 0 .771.308 1.002.617.155.308-.5393 1.696-1.5417 3.084-1.0795 1.388-2.2361 2.468-2.6988 2.468-.3855 0-.771-.309-.771-.771 0-.386.771-1.774 1.6963-3.085.9253-1.233 1.9277-2.313 2.3132-2.313Zm251.832 1.542c.309.077 1.465 1.234 2.468 2.776 1.285 1.799 1.67 2.956 1.156 3.47-.462.462-1.465-.232-2.853-2.159-1.156-1.619-1.85-3.162-1.696-3.47.231-.308.617-.617.925-.617Zm-246.974 2.236c.54.54.231 1.465-.925 3.162-1.003 1.31-2.237 2.313-2.931 2.313-.6164 0-1.1562-.231-1.1562-.463-.0771-.308.8482-1.696 2.0822-3.161 1.465-1.774 2.39-2.39 2.93-1.851Zm244.584 2.93c1.002 1.234 1.774 2.622 1.774 3.162 0 .539-.232 1.079-.54 1.311-.309.154-1.388-.849-2.313-2.314-1.003-1.465-1.465-3.084-1.157-3.547.385-.539 1.157-.077 2.236 1.388Zm-241.037-.539c.385 0 .848.308 1.079.616.154.309-.385 1.697-1.388 3.085-.925 1.388-2.082 2.467-2.621 2.467-.54 0-1.003-.154-1.08-.462-.077-.232.617-1.62 1.542-3.085 1.003-1.388 2.082-2.621 2.468-2.621Zm234.946 1.619c.308 0 1.31 1.156 2.313 2.699.925 1.465 1.696 2.853 1.696 3.007 0 .231-.462.385-1.156.385-.617 0-1.774-1.079-2.622-2.467-.848-1.388-1.311-2.776-1.08-3.084.155-.309.54-.617.849-.54Zm-230.397 1.465c.463 0 .771.385.771.771 0 .463-.617 1.851-1.311 3.161-.771 1.234-1.773 2.314-2.313 2.314-.54-.078-1.002-.309-1.002-.617 0-.309.694-1.697 1.542-3.085.848-1.388 1.928-2.544 2.313-2.544Zm226.079 1.542c.385 0 1.31 1.157 2.159 2.545.848 1.387 1.542 2.775 1.542 3.084 0 .308-.463.54-1.157.54-.617 0-1.85-1.157-2.699-2.699-.848-1.465-1.31-2.853-1.002-3.084.308-.155.771-.386 1.157-.386Zm-220.99 1.465c.54.54.309 1.619-.771 3.316-.848 1.31-2.005 2.544-2.544 2.698-.463.155-1.003-.077-1.08-.616-.077-.463.694-2.082 1.696-3.47 1.311-1.851 2.082-2.468 2.699-1.928Zm216.209.848c.231 0 1.234 1.388 2.159 3.085 1.079 1.85 1.465 3.315 1.002 3.546-.462.155-.925.232-1.002.155-.154-.077-1.002-1.388-1.928-2.853-.925-1.542-1.465-3.007-1.156-3.316.231-.308.694-.54.925-.617Zm-211.968 1.62c.386 0 .771.308.771.771 0 .385-.694 1.927-1.542 3.469-.848 1.465-1.928 2.468-2.313 2.314-.463-.232-.771-.694-.771-1.003 0-.308.694-1.696 1.542-3.084.848-1.388 1.85-2.467 2.313-2.467Zm207.419 1.542c.385 0 1.465 1.079 2.313 2.467.771 1.388 1.465 2.776 1.542 3.084 0 .309-.54.617-1.157.617-.616 0-1.696-1.079-2.313-2.313-.617-1.311-1.156-2.699-1.156-3.084 0-.463.308-.771.771-.771Zm-202.561 1.233c.308.386 0 2.005-.771 3.547-.771 1.62-1.62 2.93-2.005 2.93-.308 0-.694-.385-.925-.771-.232-.462.385-2.005 1.31-3.547.926-1.542 2.005-2.467 2.391-2.159Zm198.088 1.08c.309 0 1.311 1.388 2.159 3.084 1.311 2.622 1.388 3.084.386 3.47-.771.231-1.696-.617-2.699-2.545-.848-1.619-1.311-3.161-1.002-3.469.231-.309.771-.54 1.156-.54Zm-193.462 1.234c.386.385.077 1.85-.694 3.392-.694 1.465-1.388 2.776-1.542 2.853-.154.077-.694 0-1.079-.154-.463-.231-.077-1.696.925-3.624 1.002-1.773 2.005-2.853 2.39-2.467Zm188.605 1.002c.231 0 1.079 1.311 1.85 2.93.925 1.851 1.08 3.161.617 3.701-.463.463-1.311-.308-2.313-2.313-.848-1.696-1.388-3.393-1.08-3.701.232-.309.694-.54.926-.617Zm-183.824 1.542c.54.54.308 1.696-.617 3.547-.694 1.465-1.696 2.699-2.082 2.699-.463 0-.771-.386-.771-.771 0-.463.617-2.005 1.311-3.547.925-1.928 1.619-2.468 2.159-1.928Zm178.889.848c.617 0 1.619 1.234 2.236 2.853.617 1.62.925 3.162.771 3.47-.154.309-.54.617-.925.617-.309 0-1.157-1.234-1.928-2.699-.694-1.542-1.311-3.084-1.311-3.47 0-.462.54-.771 1.157-.771Zm-174.725.694c.231 0 .694.154 1.002.386.386.231 0 1.85-.771 3.547-.694 1.696-1.542 3.084-1.928 3.084-.308 0-.694-.386-.925-.771-.231-.463.154-2.005.848-3.47.694-1.542 1.542-2.776 1.774-2.776Zm169.867 1.542c.54 0 1.465 1.234 1.928 2.699.539 1.542.771 3.162.462 3.701-.308.617-1.002 0-1.85-1.696-.771-1.542-1.388-3.161-1.465-3.701 0-.54.462-.926.925-1.003Zm-164.701.849c.617 0 1.079.308 1.079.771 0 .385-.539 1.85-1.233 3.238-.694 1.388-1.388 2.622-1.543 2.699-.154.077-.693 0-1.079-.154-.463-.309-.308-1.542.463-3.47.694-1.696 1.773-3.084 2.313-3.084Zm160.075.771c.308 0 1.156 1.388 1.773 3.084.617 1.696 1.157 3.238 1.157 3.47 0 .154-.463.385-1.003.385-.462 0-1.542-1.388-2.313-3.084-.694-1.696-1.079-3.316-.771-3.47.231-.231.771-.385 1.157-.385Zm-155.449 1.542c.617 0 1.08.308 1.08.771 0 .385-.54 2.005-1.157 3.624-.771 1.928-1.465 2.622-1.927 2.159-.463-.54-.463-1.851.154-3.701.462-1.619 1.311-2.853 1.85-2.853Zm150.205.771c.771 0 1.542 1.079 2.082 2.853.54 2.005.54 3.161 0 3.701-.54.463-1.002.154-1.465-1.157-.385-1.079-1.002-2.775-1.311-3.701-.385-1.311-.231-1.696.694-1.696Zm-144.961.771c.462 0 .694.771.539 1.696-.154.926-.617 2.545-.925 3.47-.385.925-.925 1.774-1.311 1.774-.308 0-.771-.155-1.156-.386-.309-.231 0-1.773.694-3.47.694-1.696 1.619-3.084 2.159-3.084Zm140.026.771c.386 0 1.08.771 1.465 1.696.309.926.849 2.545 1.157 3.47.308 1.234.154 1.774-.694 1.774-.617 0-1.542-1.157-1.928-2.545-.462-1.388-.771-2.93-.771-3.47 0-.539.309-.925.771-.925Zm-134.937.771c.385 0 .771.386.771.925 0 .54-.309 2.082-.771 3.47-.463 1.388-1.311 2.545-1.928 2.545-.848 0-1.002-.54-.694-1.774.308-.925.771-2.544 1.157-3.47.385-.925 1.002-1.696 1.465-1.696Zm130.465.771c.463 0 1.157 1.234 1.465 2.853.386 1.619.694 3.162.694 3.47 0 .308-.462.617-1.002.617-.463 0-1.311-1.311-1.851-2.93-.54-1.542-.771-3.162-.54-3.47.232-.309.772-.54 1.234-.54Zm-125.916.694c.231 0 .694.231 1.002.463.386.231.309 1.773-.154 3.47-.462 1.85-1.234 3.084-1.928 3.084-.616 0-1.156-.308-1.156-.617 0-.308.385-1.851.848-3.47.463-1.619 1.08-2.93 1.388-2.93Zm120.519.848c.308 0 .925 1.08 1.388 2.468.462 1.388.771 2.93.771 3.47 0 .539-.463 1.002-1.003 1.002-.462 0-1.465-1.388-2.005-3.084-.616-1.697-.848-3.239-.462-3.47.308-.231.925-.386 1.311-.386Zm-115.044.771c.462 0 .771.694.771 1.543 0 .848-.386 2.39-.771 3.469-.463 1.003-1.157 1.928-1.543 1.928-.462 0-.616-1.234-.308-2.93.231-1.619.617-3.161.771-3.47.231-.308.694-.54 1.08-.54Zm109.955.771c1.002 0 1.388.772 1.619 3.239.154 1.773.077 3.47-.154 3.701-.232.154-.694 0-1.08-.385-.385-.463-.925-2.082-1.156-3.702-.463-2.39-.309-2.853.771-2.853Zm-104.866.772c.617 0 1.079.385 1.079.925s-.308 2.082-.771 3.47c-.463 1.388-1.156 2.544-1.542 2.544-.463 0-.771-.462-.771-1.002s.154-2.082.463-3.47c.231-1.388.925-2.467 1.542-2.467Zm5.012.771c.385 0 .848.231 1.002.617.154.385 0 1.927-.385 3.469-.386 1.697-1.157 2.853-1.851 2.853s-1.002-.539-.848-1.388c.231-.771.617-2.313.848-3.469.308-1.157.848-2.082 1.234-2.082Zm94.302 0c.694 0 1.388.771 1.619 1.696.154.925.463 2.39.54 3.238.154.772-.231 1.543-.771 1.697-.54.154-1.08-.617-1.388-1.851-.231-1.156-.54-2.698-.771-3.47-.309-.873-.052-1.31.771-1.31Zm-4.781.771c.309 0 .771.385.925.925.155.54.54 2.082.772 3.47.308 1.773.154 2.544-.54 2.544-.463 0-1.465-1.388-2.005-3.084-.617-1.696-.848-3.238-.463-3.47.309-.231.926-.385 1.311-.385Zm-84.201.771c.463 0 .771.771.771 1.696 0 .925-.231 2.545-.385 3.47-.232.925-.926 1.773-1.543 1.773-.616 0-1.156-.308-1.156-.616 0-.309.385-1.851.771-3.47.463-1.619 1.157-2.853 1.542-2.853Zm79.498.462c.231.386.694 1.928 1.002 3.547.386 2.314.231 2.93-.694 2.93-.771 0-1.311-1.002-1.542-2.698-.231-1.542-.154-3.085.154-3.547.309-.463.771-.54 1.08-.232Zm-74.1.309c.462 0 .771.771.771 1.696 0 .925-.232 2.545-.386 3.47-.231.925-.925 1.773-1.542 1.773-.925 0-1.08-.616-.694-2.93.308-1.619.617-3.161.848-3.469.154-.309.617-.54 1.003-.54Zm5.012.771c.616 0 1.156.385 1.156.925s-.231 2.082-.54 3.47c-.385 1.465-1.079 2.545-1.773 2.545-.925 0-1.002-.54-.54-2.545.309-1.388.54-2.93.54-3.47s.54-.925 1.157-.925Zm59.218 2.853c.385 1.619.463 3.316.231 3.855-.231.54-.694 1.003-1.079 1.003-.309 0-.926-1.465-1.311-3.316-.617-2.622-.54-3.316.308-3.778.849-.463 1.311.077 1.851 2.236Zm4.01-2.853c1.079 0 1.542.617 1.696 2.467.154 1.388.231 2.93.231 3.47s-.54 1.003-1.156 1.003c-.617 0-1.157-.463-1.157-1.003 0-.54-.231-2.082-.54-3.47-.385-2.082-.231-2.467.926-2.467Zm-57.985.771c.617 0 .925.694.771 1.696-.077.926-.231 2.545-.231 3.47 0 1.157-.463 1.774-1.388 1.774-1.08 0-1.234-.386-.694-2.545.308-1.388.539-2.93.539-3.47 0-.539.463-.925 1.003-.925Zm47.806 0c.463 0 .926 1.08 1.157 2.467.154 1.388.154 3.239-.154 4.087-.309.925-.771 1.234-1.157.771-.385-.462-.925-2.082-1.311-3.624-.385-1.542-.308-3.007.077-3.238.309-.309 1.003-.463 1.388-.463Zm-42.563.771c.386 0 .694 1.542.694 3.47 0 2.544-.308 3.47-1.157 3.47-.616 0-1.156-.463-1.156-1.003 0-.539.154-2.082.463-3.469.231-1.388.771-2.468 1.156-2.468Zm5.398 0c.385 0 .694 1.542.694 3.47 0 2.544-.309 3.47-1.157 3.47-.617 0-1.157-.463-1.157-1.003 0-.539.155-2.082.463-3.469.231-1.388.771-2.468 1.157-2.468Zm27.064.386c.386.231.694 1.85.694 3.469-.077 2.159-.385 3.085-1.233 3.085-.849 0-1.234-.926-1.311-3.007-.077-1.62.154-3.162.462-3.393.386-.309 1.003-.309 1.388-.154Zm4.473-.386c.385 0 .925.463 1.156 1.157.231.617.386 2.159.386 3.469 0 1.543-.386 2.314-1.157 2.314-.848 0-1.157-.926-1.157-3.47 0-1.928.309-3.47.772-3.47Zm-26.448.771c.617 0 1.002 1.003 1.002 3.084 0 2.237-.308 3.085-1.156 3.085-.849 0-1.157-.848-1.003-3.085.077-2.004.463-3.084 1.157-3.084Zm5.166 0c.925 0 1.234.848 1.234 3.47 0 2.39-.309 3.393-1.003 3.161-.462-.077-1.002-1.696-1.156-3.469-.232-2.468 0-3.162.925-3.162Zm5.475 0c.848 0 1.156.848 1.156 3.084 0 1.697-.385 3.239-.771 3.47-.463.154-.925-.154-1.157-.771-.231-.694-.385-2.236-.385-3.47 0-1.542.385-2.313 1.157-2.313Zm5.32 0c.925 0 1.157.694 1.002 3.239-.077 1.773-.539 3.315-.925 3.315-.463 0-.848-1.542-1.002-3.315-.232-2.545 0-3.239.925-3.239Z" fill="#B3B3B3"/></svg>