<svg viewBox="0 0 18 10">
  <g id="chevrones">
    <path id="chevrone_1" d="M1.23639 0.154633C0.953415 -0.0489707 0.495047 -0.0489707 0.212073 0.154633C-0.0704818 0.357931 -0.0709004 0.68814 0.212073 0.891743L8.4878 6.84919C8.77078 7.05279 9.22914 7.05279 9.51212 6.84919L17.7878 0.891743C18.0706 0.68814 18.0708 0.358236 17.7878 0.154633C17.5049 -0.0489707 17.0465 -0.0489706 16.7635 0.154328L8.99996 5.58755L1.23639 0.154633Z" fill="white"/>
    <!-- <path id="chevrone_2" d="M1.23639 10.1765C0.953415 9.94376 0.495047 9.94376 0.212073 10.1765C-0.0704818 10.4088 -0.0709004 10.7862 0.212073 11.0189L8.4878 17.8274C8.77078 18.0601 9.22914 18.0601 9.51212 17.8274L17.7878 11.0189C18.0706 10.7862 18.0708 10.4091 17.7878 10.1765C17.5049 9.94376 17.0465 9.94376 16.7635 10.1761L8.99996 16.3855L1.23639 10.1765Z" fill="white"/> -->
    <!-- <path id="chevrone_3" d="M1.23639 21.1546C0.953415 20.951 0.495047 20.951 0.212073 21.1546C-0.0704818 21.3579 -0.0709004 21.6881 0.212073 21.8917L8.4878 27.8492C8.77078 28.0528 9.22914 28.0528 9.51212 27.8492L17.7878 21.8917C18.0706 21.6881 18.0708 21.3582 17.7878 21.1546C17.5049 20.951 17.0465 20.951 16.7635 21.1543L8.99996 26.5876L1.23639 21.1546Z" fill="white"/> -->
  </g>
</svg>
