<svg viewBox="0 0 800 800">
<g id="hid-05" clip-path="url(#clip0_2459_56)">
<g id="Vector">
<path d="M86.7666 644.983C90.9749 650.475 96.4749 657.267 98.9416 660.2C101.983 663.7 103.033 665.692 102.217 666.633C101.4 667.45 100.108 666.867 97.9999 664.875C96.3582 663.233 90.5166 656.092 85.0166 649.075C79.3999 641.933 70.6249 629.65 65.2416 621.567C59.9749 613.492 52.6082 601.075 48.7416 594.058C44.9916 586.917 39.2582 575.333 35.9916 568.308C32.7082 561.175 27.5582 549.108 24.6416 541.383C21.7166 533.658 17.3916 520.792 15.0499 512.708C12.6999 504.633 9.31658 490.475 7.44158 481.108C5.56658 471.742 3.80824 462.025 3.45824 459.45C3.10824 456.875 2.04991 448.8 0.999911 441.542C-0.175089 432.758 -0.758423 418.95 -0.758423 399.4C-0.758423 377.275 -0.175089 366.383 1.58325 352.925C2.87491 343.208 4.74991 330.575 5.79158 324.842C6.84158 318.992 8.13324 313.142 8.71658 311.617C9.30824 310.092 10.4749 309.275 11.5332 309.625C12.9332 310.092 13.0582 310.908 12.1166 313.95C11.5332 316.058 9.89158 324.133 8.71658 331.858C7.43324 339.583 5.44158 354.567 4.39158 365.225C2.99158 379.617 2.63324 390.392 3.10824 407.367C3.45824 419.892 4.62491 436.742 5.56658 444.825C6.61658 452.9 8.25824 464.133 9.19158 469.983C10.2416 475.725 12.9332 488.125 15.1499 497.492C17.4999 506.858 21.7082 521.258 24.6332 529.683C27.5582 538 32.3582 550.4 35.1666 557.192C38.0999 563.975 42.6582 573.925 45.4666 579.425C48.1582 584.925 53.4249 594.525 57.0582 600.725C60.6749 607.058 67.1249 617.35 71.3332 623.55C75.6582 629.883 82.5666 639.475 86.7749 644.983H86.7666Z" fill="currentColor"/>
<path d="M116.017 680.208C116.133 680.558 114.492 682.317 108.992 687.817L101.392 680.325L103.733 677.75C105.025 676.458 107.017 674.825 108.175 674.242C109.7 673.425 110.867 674.008 113.083 676.342C114.725 678.217 116.017 679.858 116.017 680.208Z" fill="currentColor"/>
<path d="M131.108 694.25L128.058 697.767C126.425 699.633 124.433 701.275 123.733 701.158C123.033 701.158 121.042 699.75 116.017 694.725L123.733 687.117L131.108 694.25Z" fill="currentColor"/>
</g>
</g>
<defs>
<clipPath id="clip0_2459_56">
<rect width="800" height="800" fill="white"/>
</clipPath>
</defs>
</svg>
