<svg viewBox="0 0 800 800">
<g id="hid-04">
<g id="Vector">
<path d="M611.075 82.8918C619.266 88.2751 631.666 97.4001 638.916 103.133C647.458 110.042 651.783 114.258 651.316 115.308C650.966 116.242 650.5 116.95 650.266 117.067C650.033 117.067 644.65 112.958 638.441 107.933C632.125 102.783 623.233 96.1168 618.791 92.9501C614.341 89.7835 606.391 84.4001 601.233 81.1335C596.091 77.8501 584.266 71.1835 574.9 66.3835C565.541 61.4751 552.208 55.1418 545.066 52.2251C537.933 49.4085 526.458 45.0835 519.325 42.8585C512.183 40.5168 500.141 37.0085 492.408 35.1335C484.683 33.2585 473.575 30.9085 467.833 29.8668C462.1 28.8085 449.925 27.2918 440.916 26.3585C431.908 25.4251 415.291 24.6001 404.058 24.6001C392.833 24.6001 377.5 25.1918 370.125 25.8918C362.75 26.4751 350.125 28.1168 342.05 29.4001C333.975 30.6835 321.341 33.2668 313.966 35.1335C306.6 37.0085 296.066 39.9251 290.566 41.5668C285.066 43.3251 274.3 47.3001 266.583 50.3501C258.858 53.3918 245.641 59.3585 237.333 63.4585C229.025 67.6668 217.092 74.1085 211 77.8501C204.917 81.4835 194.85 88.0335 188.767 92.2501C182.683 96.5751 172.858 103.95 167.125 108.75C161.392 113.55 149.808 124.083 141.5 132.167C133.308 140.242 122.183 152.175 116.808 158.617C111.542 165.058 103.117 176.067 98.0832 183.2C93.1665 190.225 86.1499 201.117 82.5165 207.2C79.0165 213.283 73.0415 224.408 69.2999 231.783C65.6665 239.158 60.1665 250.983 57.3665 258.125C54.4415 265.142 50.2332 277.092 47.7749 284.467C45.4249 291.842 42.1582 303.2 40.6332 309.633C39.1082 316.067 36.7749 327.425 35.4915 334.8C34.0832 342.175 32.3249 356.925 31.3915 367.575C30.4499 378.233 29.6332 392.633 29.6332 399.767C29.6332 406.908 30.4499 421.067 31.3915 431.375C32.3249 441.675 33.1499 450.808 33.1499 451.517C33.1499 452.333 34.3165 453.033 35.8415 453.033C38.1832 453.033 38.5332 453.967 40.5165 464.383C41.5749 470.708 44.1499 481.942 46.0165 489.317C47.8915 496.692 51.2749 508.508 53.6165 515.65C55.9665 522.683 60.5249 534.85 63.7999 542.575C67.0832 550.3 71.6415 560.608 74.0999 565.4C76.5665 570.2 81.0082 578.275 83.9332 583.2C86.8665 588.225 89.3165 592.783 89.3165 593.492C89.3165 594.075 87.4415 595.717 85.2249 597.008C82.9999 598.292 80.8999 599.233 80.6665 599C80.5499 598.883 78.1999 595.017 75.6332 590.567C73.0582 586 68.2665 577.1 64.9832 570.667C61.8165 564.233 56.6749 553.117 53.6332 546.092C50.6999 538.942 46.3749 527.708 44.0332 520.925C41.8082 514.133 38.4165 502.542 36.5415 495.167C34.5499 487.8 32.2165 477.492 31.1665 472.342C30.2249 467.2 29.2915 459.242 29.1749 454.783C28.9415 450.225 28.1165 439.45 27.2999 430.792C26.3582 420.25 26.0082 406.325 26.4749 388.642C26.9499 371.083 27.9999 357.042 29.5249 346.5C30.9332 337.842 33.0332 325.433 34.4332 319C35.8415 312.567 38.9915 300.158 41.5749 291.5C44.0332 282.833 49.0582 268.317 52.5749 259.308C56.1999 250.292 63.1082 235.075 68.0165 225.358C72.9332 215.758 82.0582 200.192 88.2582 190.825C94.3415 181.458 103.825 168.35 109.2 161.558C114.583 154.775 127.458 140.842 137.75 130.542C148.167 120.242 162.675 107.133 170.042 101.4C177.417 95.6668 187.95 88.0585 193.442 84.3085C198.942 80.6835 208.183 74.9418 213.917 71.4335C219.65 68.0335 228.891 63.0085 234.391 60.3085C239.883 57.5001 249.833 52.9335 256.625 50.1251C263.408 47.1918 274.641 42.8668 281.783 40.5251C288.917 38.0585 301.783 34.3168 310.441 31.9751C319.1 29.7501 334.433 26.7085 344.383 25.0751C354.325 23.5501 371.758 21.6751 382.991 21.1001C396.566 20.2751 410.258 20.2751 423.366 20.9835C434.25 21.6835 450.616 23.2085 459.633 24.6001C468.641 26.0085 482.333 28.5835 490.05 30.4501C497.775 32.2085 510.875 35.9501 519.3 38.7668C527.725 41.4585 541.3 46.4918 549.725 50.0085C558.15 53.4085 572.075 60.0751 580.616 64.7501C589.275 69.4335 602.958 77.6251 611.033 82.9001L611.075 82.8918Z" fill="currentColor"/>
<path d="M365.241 768.583C371.441 768.942 377.758 769.408 379.283 769.758C381.508 770.217 381.858 771.042 381.858 780.758L376.366 780.167C373.2 779.933 366.533 779.35 352.025 778.192L352.958 774.558C353.433 772.442 353.783 770.108 353.783 769.292C353.783 768.233 356.475 768 365.241 768.583Z" fill="currentColor"/>
<path d="M320.316 765.542L321.017 761.442L314.233 759.808C310.483 758.983 299.025 755.467 288.725 752.083C278.425 748.683 263.683 743.183 255.958 739.9C248.233 736.517 235.833 730.533 228.467 726.558C221.092 722.575 208.808 715.083 200.975 709.942C193.25 704.792 186.233 700.217 185.408 699.633C184.475 699.05 182.95 700.342 181.192 703.15L178.267 707.592C200.375 722.233 209.975 728.433 213.833 730.65C217.7 733 226.933 737.792 234.3 741.542C241.675 745.292 254.083 750.792 261.808 753.833C269.525 756.875 280.875 760.967 286.967 762.958C293.05 764.833 302.408 767.767 307.675 769.167C314.108 771.042 317.733 771.508 318.441 770.808C319.025 770.1 319.85 767.767 320.316 765.542Z" fill="currentColor"/>
</g>
</g>
</svg>
