<svg viewBox="0 0 800 800">
  <g id="hid-01">
    <g id="Vector">
      <path d="M352.142 196.2C354.484 195.733 356 194.8 356 193.742C356 192.683 354.825 191.983 353.067 191.983C351.425 191.983 344.409 193.858 337.509 196.083C330.609 198.433 318.9 203.225 311.525 206.742C304.159 210.25 293.625 216.108 288.125 219.733C282.634 223.35 275.842 228.158 272.917 230.5C269.984 232.733 264.375 237.525 260.517 241.158C256.542 244.675 250.217 250.875 246.475 254.967L239.575 262.342L250.109 271.475C264.617 256.608 271.992 249.583 275.734 246.425C281.934 241.042 282.525 240.342 281.234 237.875C280.534 236.467 280.175 234.725 280.534 234.133C280.884 233.433 285.792 229.925 291.417 226.175C297.15 222.542 306.859 217.158 313.059 214.242C320.9 210.608 324.292 208.392 324.292 206.867C324.409 205.458 326.4 204.175 330.492 202.65C333.884 201.475 339.267 199.717 342.534 198.667C345.7 197.608 350.025 196.558 352.134 196.2H352.142Z" fill="currentColor"/>
      <path d="M394.842 620.4C399.875 620.4 403.975 619.925 403.975 619.458C403.975 618.875 403.625 617.933 403.15 617.467C402.8 616.883 399.167 616.533 395.317 616.65C391.334 616.767 382.325 616.058 375.309 615.125C368.175 614.075 357.4 611.967 351.325 610.442C345.242 608.925 335.409 606 329.675 604.008C323.825 601.9 314.35 597.925 308.617 595.108C302.767 592.3 292.592 586.45 285.8 582.008C279.017 577.55 268.717 570.058 262.984 565.15C257.142 560.225 250 553.675 247.075 550.633C244.142 547.467 240.05 542.908 238.059 540.45C234.667 536.592 234.434 535.883 236.067 534.008C237.009 532.958 237.825 531.433 237.825 530.85C237.825 530.142 235.6 526.517 232.8 522.65C229.992 518.792 225.309 511.775 222.5 507.083C218.75 500.883 216.884 498.775 215.6 499.242C214.075 499.942 214.075 499.825 215.6 497.967C217.234 496.092 217.117 496.092 213.842 496.792C210.909 497.492 209.975 497.142 208.459 494.917C207.409 493.392 204.709 487.425 202.492 481.692C200.15 475.833 197.467 468.808 196.534 465.892C195.592 462.958 193.95 457.225 193.025 453.008C191.967 448.8 190.684 442.717 189.975 439.55C189.275 436.275 188.225 428.9 187.517 423.158C186.934 417.308 186.35 406.3 186.35 398.575C186.35 390.85 187.167 378.45 188.109 371.075C189.042 363.7 191.15 352.342 192.784 345.908C194.3 339.467 197.692 328.7 200.267 321.908C203.667 312.892 204.592 309.392 203.55 308.8C202.734 308.333 201.792 308.333 201.325 308.8C200.975 309.275 198.75 314.65 196.534 320.733C194.184 326.825 191.034 337.125 189.392 343.558C187.75 350 185.534 360.533 184.6 366.975C183.309 374.467 182.609 385.942 182.725 399.167C182.725 412.15 183.309 423.867 184.6 431.358C185.534 437.792 187.642 448.092 189.159 454.175C190.8 460.267 193.484 469.275 195.242 474.083C196.884 478.875 200.15 486.842 202.259 491.633C205.309 498.308 205.884 500.65 204.842 501.233C204.017 501.7 202.85 502.175 202.375 502.175C201.909 502.175 201.559 502.758 201.559 503.575C201.559 504.4 202.967 507.667 204.6 510.95C206.359 514.108 210.8 521.375 214.55 526.992C218.417 532.608 221.925 537.517 222.625 537.867C223.209 538.225 226.017 536.817 228.709 534.833L233.734 531.2C225.9 538.1 223.909 540.567 224.259 541.033C224.609 541.5 226.25 541.033 227.892 539.858C229.842 538.533 232.459 539.825 235.725 543.733C238.309 546.883 244.509 553.433 249.417 558.242C254.325 562.917 262.517 570.175 267.675 574.158C272.817 578.258 281.475 584.225 286.975 587.617C292.467 591.008 302.184 596.4 308.617 599.558C315.05 602.717 326.642 607.283 334.367 609.742C342.084 612.317 352.384 615.125 357.184 616.175C361.975 617.117 370.4 618.525 375.909 619.108C381.4 619.808 389.942 620.4 394.867 620.4H394.842Z" fill="currentColor"/>
      <path d="M267.425 229.208C268.95 230.375 269.417 230.258 269.417 228.967C269.417 228.033 268.95 226.975 268.484 226.742C268.017 226.392 266.725 226.742 265.55 227.567C264.15 228.5 263.8 229.675 264.267 231.183C264.967 233.183 264.85 233.3 263.442 232.125C262.042 230.95 261.334 231.067 259.709 232.708C257.717 234.583 257.717 234.817 259.592 236.458C261.35 238.1 261.467 237.983 260.642 235.292C259.942 232.942 260.059 232.592 261.35 233.883C262.634 235.058 263.342 234.933 264.975 233.533C266.267 232.475 266.734 231.067 266.267 229.783C265.567 228.025 265.684 227.908 267.442 229.192L267.425 229.208Z" fill="currentColor"/>
    </g>
  </g>
</svg>
