<svg viewBox="0 0 800 800" fill="none">
<g id="hid-group">
  <g id="hid-05" clip-path="url(#clip0_2459_132)" class="halo">
    <path d="M86.7666 644.983C90.9749 650.475 96.4749 657.267 98.9416 660.2C101.983 663.7 103.033 665.692 102.217 666.633C101.4 667.45 100.108 666.867 97.9999 664.875C96.3582 663.233 90.5166 656.092 85.0166 649.075C79.3999 641.933 70.6249 629.65 65.2416 621.567C59.9749 613.492 52.6082 601.075 48.7416 594.058C44.9916 586.917 39.2582 575.333 35.9916 568.308C32.7082 561.175 27.5582 549.108 24.6416 541.383C21.7166 533.658 17.3916 520.792 15.0499 512.708C12.6999 504.633 9.31658 490.475 7.44158 481.108C5.56658 471.742 3.80824 462.025 3.45824 459.45C3.10824 456.875 2.04991 448.8 0.999911 441.542C-0.175089 432.758 -0.758423 418.95 -0.758423 399.4C-0.758423 377.275 -0.175089 366.383 1.58325 352.925C2.87491 343.208 4.74991 330.575 5.79158 324.842C6.84158 318.992 8.13324 313.142 8.71658 311.617C9.30824 310.092 10.4749 309.275 11.5332 309.625C12.9332 310.092 13.0582 310.908 12.1166 313.95C11.5332 316.058 9.89158 324.133 8.71658 331.858C7.43324 339.583 5.44158 354.567 4.39158 365.225C2.99158 379.617 2.63324 390.392 3.10824 407.367C3.45824 419.892 4.62491 436.742 5.56658 444.825C6.61658 452.9 8.25824 464.133 9.19158 469.983C10.2416 475.725 12.9332 488.125 15.1499 497.492C17.4999 506.858 21.7082 521.258 24.6332 529.683C27.5582 538 32.3582 550.4 35.1666 557.192C38.0999 563.975 42.6582 573.925 45.4666 579.425C48.1582 584.925 53.4249 594.525 57.0582 600.725C60.6749 607.058 67.1249 617.35 71.3332 623.55C75.6582 629.883 82.5666 639.475 86.7749 644.983H86.7666Z" fill="currentColor"/>
    <path d="M116.017 680.208C116.133 680.558 114.492 682.317 108.992 687.817L101.392 680.325L103.733 677.75C105.025 676.458 107.017 674.825 108.175 674.242C109.7 673.425 110.867 674.008 113.083 676.342C114.725 678.217 116.017 679.858 116.017 680.208Z" fill="currentColor"/>
    <path d="M131.108 694.25L128.058 697.767C126.425 699.633 124.433 701.275 123.733 701.158C123.033 701.158 121.042 699.75 116.017 694.725L123.733 687.117L131.108 694.25Z" fill="currentColor"/>
  </g>
  <g id="hid-04" class="halo">
    <path d="M611.075 82.8918C619.266 88.2751 631.666 97.4001 638.916 103.133C647.458 110.042 651.783 114.258 651.316 115.308C650.966 116.242 650.5 116.95 650.266 117.067C650.033 117.067 644.65 112.958 638.441 107.933C632.125 102.783 623.233 96.1168 618.791 92.9501C614.341 89.7835 606.391 84.4001 601.233 81.1335C596.091 77.8501 584.266 71.1835 574.9 66.3835C565.541 61.4751 552.208 55.1418 545.066 52.2251C537.933 49.4085 526.458 45.0835 519.325 42.8585C512.183 40.5168 500.141 37.0085 492.408 35.1335C484.683 33.2585 473.575 30.9085 467.833 29.8668C462.1 28.8085 449.925 27.2918 440.916 26.3585C431.908 25.4251 415.291 24.6001 404.058 24.6001C392.833 24.6001 377.5 25.1918 370.125 25.8918C362.75 26.4751 350.125 28.1168 342.05 29.4001C333.975 30.6835 321.341 33.2668 313.966 35.1335C306.6 37.0085 296.066 39.9251 290.566 41.5668C285.066 43.3251 274.3 47.3001 266.583 50.3501C258.858 53.3918 245.641 59.3585 237.333 63.4585C229.025 67.6668 217.092 74.1085 211 77.8501C204.917 81.4835 194.85 88.0335 188.767 92.2501C182.683 96.5751 172.858 103.95 167.125 108.75C161.392 113.55 149.808 124.083 141.5 132.167C133.308 140.242 122.183 152.175 116.808 158.617C111.542 165.058 103.117 176.067 98.0832 183.2C93.1665 190.225 86.1499 201.117 82.5165 207.2C79.0165 213.283 73.0415 224.408 69.2999 231.783C65.6665 239.158 60.1665 250.983 57.3665 258.125C54.4415 265.142 50.2332 277.092 47.7749 284.467C45.4249 291.842 42.1582 303.2 40.6332 309.633C39.1082 316.067 36.7749 327.425 35.4915 334.8C34.0832 342.175 32.3249 356.925 31.3915 367.575C30.4499 378.233 29.6332 392.633 29.6332 399.767C29.6332 406.908 30.4499 421.067 31.3915 431.375C32.3249 441.675 33.1499 450.808 33.1499 451.517C33.1499 452.333 34.3165 453.033 35.8415 453.033C38.1832 453.033 38.5332 453.967 40.5165 464.383C41.5749 470.708 44.1499 481.942 46.0165 489.317C47.8915 496.692 51.2749 508.508 53.6165 515.65C55.9665 522.683 60.5249 534.85 63.7999 542.575C67.0832 550.3 71.6415 560.608 74.0999 565.4C76.5665 570.2 81.0082 578.275 83.9332 583.2C86.8665 588.225 89.3165 592.783 89.3165 593.492C89.3165 594.075 87.4415 595.717 85.2249 597.008C82.9999 598.292 80.8999 599.233 80.6665 599C80.5499 598.883 78.1999 595.017 75.6332 590.567C73.0582 586 68.2665 577.1 64.9832 570.667C61.8165 564.233 56.6749 553.117 53.6332 546.092C50.6999 538.942 46.3749 527.708 44.0332 520.925C41.8082 514.133 38.4165 502.542 36.5415 495.167C34.5499 487.8 32.2165 477.492 31.1665 472.342C30.2249 467.2 29.2915 459.242 29.1749 454.783C28.9415 450.225 28.1165 439.45 27.2999 430.792C26.3582 420.25 26.0082 406.325 26.4749 388.642C26.9499 371.083 27.9999 357.042 29.5249 346.5C30.9332 337.842 33.0332 325.433 34.4332 319C35.8415 312.567 38.9915 300.158 41.5749 291.5C44.0332 282.833 49.0582 268.317 52.5749 259.308C56.1999 250.292 63.1082 235.075 68.0165 225.358C72.9332 215.758 82.0582 200.192 88.2582 190.825C94.3415 181.458 103.825 168.35 109.2 161.558C114.583 154.775 127.458 140.842 137.75 130.542C148.167 120.242 162.675 107.133 170.042 101.4C177.417 95.6668 187.95 88.0585 193.442 84.3085C198.942 80.6835 208.183 74.9418 213.917 71.4335C219.65 68.0335 228.891 63.0085 234.391 60.3085C239.883 57.5001 249.833 52.9335 256.625 50.1251C263.408 47.1918 274.641 42.8668 281.783 40.5251C288.917 38.0585 301.783 34.3168 310.441 31.9751C319.1 29.7501 334.433 26.7085 344.383 25.0751C354.325 23.5501 371.758 21.6751 382.991 21.1001C396.566 20.2751 410.258 20.2751 423.366 20.9835C434.25 21.6835 450.616 23.2085 459.633 24.6001C468.641 26.0085 482.333 28.5835 490.05 30.4501C497.775 32.2085 510.875 35.9501 519.3 38.7668C527.725 41.4585 541.3 46.4918 549.725 50.0085C558.15 53.4085 572.075 60.0751 580.616 64.7501C589.275 69.4335 602.958 77.6251 611.033 82.9001L611.075 82.8918Z" fill="currentColor"/>
    <path d="M365.241 768.583C371.441 768.942 377.758 769.408 379.283 769.758C381.508 770.217 381.858 771.042 381.858 780.758L376.366 780.167C373.2 779.933 366.533 779.35 352.025 778.192L352.958 774.558C353.433 772.442 353.783 770.108 353.783 769.292C353.783 768.233 356.475 768 365.241 768.583Z" fill="currentColor"/>
    <path d="M320.316 765.542L321.017 761.442L314.233 759.808C310.483 758.983 299.025 755.467 288.725 752.083C278.425 748.683 263.683 743.183 255.958 739.9C248.233 736.517 235.833 730.533 228.467 726.558C221.092 722.575 208.808 715.083 200.975 709.942C193.25 704.792 186.233 700.217 185.408 699.633C184.475 699.05 182.95 700.342 181.192 703.15L178.267 707.592C200.375 722.233 209.975 728.433 213.833 730.65C217.7 733 226.933 737.792 234.3 741.542C241.675 745.292 254.083 750.792 261.808 753.833C269.525 756.875 280.875 760.967 286.967 762.958C293.05 764.833 302.408 767.767 307.675 769.167C314.108 771.042 317.733 771.508 318.441 770.808C319.025 770.1 319.85 767.767 320.316 765.542Z" fill="currentColor"/>
  </g>
  <g id="hid-03" class="halo">
    <path id="Vector_3" fill-rule="evenodd" clip-rule="evenodd" d="M623.2 158.75C621.441 160.975 619.683 162.725 619.216 162.725C618.633 162.725 617.925 162.017 617.575 161.317C617.108 160.5 618.4 158.267 620.158 156.4C622.15 154.525 624.125 153.475 624.95 153.825C626.116 154.408 625.533 155.817 623.191 158.742L623.2 158.75ZM619.45 149.617C619.45 150.083 617.925 152.192 616.175 154.292C614.066 156.95 612.616 157.875 611.85 157.108C611.066 156.325 611.766 154.525 613.958 151.725C615.708 149.383 617.691 147.742 618.283 148.1C618.866 148.575 619.45 149.158 619.45 149.625V149.617ZM612.9 145.517C612.433 146.333 611.025 148.092 609.616 149.617C608.216 151.025 606.808 152.192 606.341 152.192C605.758 152.192 605.4 151.492 605.4 150.792C605.516 149.967 606.691 147.742 608.216 145.758C609.975 143.533 611.491 142.592 612.316 143.183C613.016 143.767 613.25 144.817 612.9 145.525V145.517ZM606.583 139.783C606.583 140.483 605.175 142.708 603.541 144.575C601.55 146.917 600.141 147.742 599.45 146.917C598.741 146.217 599.45 144.225 601.558 141.425C603.433 138.958 605.175 137.333 605.766 137.8C606.233 138.15 606.583 139.083 606.583 139.792V139.783ZM600.733 134.05C600.733 134.4 599.566 136.275 598.158 138.15C596.633 140.142 594.758 141.658 594.066 141.658C593.25 141.658 592.541 141.425 592.541 141.067C592.541 140.717 593.716 138.725 595.125 136.742C596.525 134.633 597.816 132.767 598.05 132.65C598.283 132.417 598.991 132.533 599.575 132.883C600.158 133.358 600.75 133.825 600.75 134.058L600.733 134.05ZM593.716 129.367C593.716 129.725 592.541 131.717 591.141 133.933C589.5 136.392 587.858 137.683 587.041 137.208C585.983 136.625 586.333 135.217 588.441 132.067C590.083 129.6 591.958 127.858 592.533 128.208C593.125 128.675 593.708 129.142 593.708 129.383L593.716 129.367ZM586.7 124.458C586.7 125.158 585.408 127.625 584 129.725C582.283 132.3 581.033 133.2 580.266 132.417C579.483 131.633 579.991 129.875 581.783 127.15C583.191 124.808 584.95 122.933 585.525 122.933C586.1 122.933 586.7 123.633 586.7 124.458ZM580.15 120.95C579.675 121.775 578.158 123.883 576.875 125.625C575.233 127.817 574.025 128.517 573.241 127.742C572.466 126.958 573.008 125.275 574.883 122.708C576.525 120.6 577.933 118.725 578.166 118.608C578.4 118.375 579.1 118.608 579.683 118.958C580.391 119.308 580.508 120.25 580.158 120.95H580.15ZM573.833 115.333C573.833 115.683 572.775 117.8 571.483 120.017C570.2 122.242 568.558 124.117 567.975 124.117C567.383 124.117 566.566 123.767 566.333 123.292C565.983 122.708 566.8 120.6 568.091 118.617C569.258 116.508 571.133 114.75 572.075 114.75C573.008 114.75 573.833 114.983 573.833 115.333ZM564.233 115.8C562.825 118.15 561.541 120.133 561.3 120.375C561.066 120.492 560.483 120.375 559.783 120.025C559.075 119.675 559.666 117.442 561.3 114.758C562.708 112.183 564.233 109.967 564.583 109.85C564.933 109.725 565.641 110.083 565.991 110.667C566.458 111.133 565.641 113.483 564.233 115.817V115.8ZM558.616 107.725C558.616 108.433 557.8 110.542 556.858 112.408C555.925 114.4 554.283 115.908 553.35 115.908C551.941 115.908 551.941 115.092 553.933 111.233C555.225 108.658 556.741 106.558 557.45 106.558C558.15 106.558 558.616 107.142 558.616 107.725ZM551.6 103.4C551.6 103.517 550.9 105.742 549.841 108.317C548.783 111.125 547.383 112.875 546.325 112.642C545.391 112.525 544.566 112.167 544.566 111.817C544.566 111.467 545.625 109.125 546.916 106.558C548.2 103.975 549.725 102.108 550.425 102.45C551.133 102.925 551.6 103.275 551.6 103.392V103.4ZM544.583 100.117C544.583 100.467 543.641 102.583 542.591 104.8C541.416 107.142 539.775 108.9 539.075 108.9C538.25 108.9 537.55 108.667 537.55 108.317C537.55 107.958 538.608 105.617 539.891 103.05C541.183 100.467 542.708 98.6085 543.408 98.9501C544.108 99.4168 544.583 99.8835 544.583 100.117ZM535.45 100.467C534.516 103.05 532.991 105.15 532.05 105.267C531.233 105.267 530.533 104.917 530.533 104.208C530.533 103.625 531.466 101.283 532.641 99.0668C533.691 96.8335 535.216 95.2085 535.916 95.4335C536.975 95.7835 536.741 97.1918 535.45 100.458V100.467ZM529.366 93.4501C529.366 93.9168 528.666 96.2585 527.608 98.7085C526.675 101.058 525.383 103.042 524.683 103.042C523.983 103.042 523.508 102.333 523.508 101.633C523.508 100.808 523.983 98.3501 524.683 96.3668C525.266 94.2585 526.675 92.5001 527.608 92.5001C528.55 92.5001 529.366 92.8501 529.366 93.4418V93.4501ZM520.475 94.6168C519.541 97.0835 518.833 99.0668 518.833 99.3001C518.833 99.4168 518.016 99.5335 517.075 99.5335C516.141 99.5335 515.316 99.3001 515.316 98.9501C515.316 98.5918 516.141 96.2501 517.075 93.6835C518.016 91.1001 519.3 88.8835 519.775 88.7668C520.358 88.6501 521.058 89.0001 521.533 89.4751C521.883 89.9418 521.533 92.2835 520.475 94.6168ZM514.158 87.8335C514.158 88.5335 513.341 90.8835 512.4 93.1001C511.466 95.3251 510.175 97.2001 509.475 97.2001C508.766 97.2001 508.3 96.4918 508.3 95.7918C508.3 94.9751 509 92.5085 509.825 90.4085C510.525 88.3001 511.933 86.6585 512.75 86.6585C513.458 86.6585 514.158 87.2501 514.158 87.8335ZM505.966 85.8418C505.966 86.6585 505.5 89.0001 504.791 91.1001C503.975 93.6835 503.041 94.6168 501.866 94.2668C500.341 93.8001 500.341 93.1001 501.866 88.4168C502.8 85.4918 504.091 83.3918 504.791 83.7418C505.5 84.2085 505.966 85.0251 505.966 85.8501V85.8418ZM497.541 86.3085C496.841 88.7668 496.133 91.3418 495.783 91.9251C495.391 92.7085 494.808 92.7085 494.025 91.9251C493.325 91.2251 493.558 88.8751 494.491 85.7251C495.316 83.0251 496.366 80.6918 496.725 80.5751C497.075 80.4585 497.658 80.8085 498.008 81.1585C498.358 81.6335 498.125 83.9751 497.541 86.3085ZM490.05 82.9085C489.583 84.6668 488.883 87.0001 488.533 88.0585C488.175 89.2251 487.241 89.7001 486.425 89.2251C485.25 88.6418 485.25 87.4668 486.425 83.9668C487.241 81.6168 488.533 79.6418 489.35 79.6418C490.291 79.6418 490.525 80.6918 490.05 82.9168V82.9085ZM482.566 78.6918C482.566 79.5085 482.1 81.8585 481.391 83.9585C480.691 86.0668 479.633 87.8251 479.05 87.8251C478.35 87.8251 477.875 86.7668 477.875 85.4751C477.875 84.1918 478.35 81.8418 479.05 80.2168C479.633 78.5751 480.691 77.2835 481.391 77.2835C481.983 77.2835 482.566 77.8668 482.566 78.6918ZM474.375 76.3501C474.375 77.1668 474.025 79.6251 473.433 81.7251C472.966 83.8335 471.916 85.4751 471.091 85.4751C470.275 85.4751 469.691 85.0085 469.691 84.5418C469.691 84.0751 470.158 81.7251 470.858 79.2751C471.441 76.9335 472.5 74.9501 473.2 74.9501C473.791 74.9501 474.375 75.5335 474.375 76.3585V76.3501ZM465.716 78.9251C465.366 81.5001 464.775 83.9585 464.425 84.3085C464.075 84.6585 463.25 84.3085 462.666 83.7168C461.966 82.9001 461.966 80.9085 462.666 78.1085C463.25 75.7585 464.425 73.8835 465.125 73.8835C465.991 74.0418 466.183 75.7251 465.716 78.9168V78.9251ZM458.691 74.7085C458.458 75.7585 457.875 78.2251 457.525 80.0835C457.058 81.9585 456.116 83.3668 455.3 83.2501C454.241 83.1335 454.125 81.6085 454.708 77.5168C455.183 74.4751 455.883 71.9001 456.233 71.6668C456.466 71.5501 457.408 71.7835 457.991 72.1335C458.691 72.4918 459.05 73.6585 458.691 74.7168V74.7085ZM450.266 75.2918C449.916 77.2835 449.333 79.6168 449.1 80.4418C448.866 81.2585 448.041 81.9585 447.458 81.9585C446.758 81.9585 446.283 80.4418 446.283 78.6835C446.283 76.9251 446.516 74.3501 446.875 72.8335C447.225 71.1918 448.041 70.4835 449.1 70.8418C450.383 71.3085 450.616 72.6001 450.266 75.2835V75.2918ZM442.308 73.0668C441.958 74.4751 441.608 76.7001 441.608 78.0918C441.608 79.7335 440.908 80.7918 439.85 80.7918C438.916 80.7918 438.091 79.8501 438.091 78.6835C438.091 77.6251 438.333 74.9418 438.683 72.8335C439.15 69.9001 439.733 69.2001 441.141 69.9001C442.308 70.3668 442.666 71.5418 442.308 73.0668ZM434.125 73.0668C433.65 75.0585 433.416 77.2835 433.416 78.0918C433.416 78.9085 432.6 79.6168 431.658 79.6168C430.725 79.6168 429.9 78.9168 429.9 78.0918C429.9 77.2751 430.258 74.9335 430.725 72.8335C431.308 70.6001 432.366 69.0835 433.3 69.2001C434.475 69.3168 434.708 70.4835 434.125 73.0585V73.0668ZM425.933 72.0085C425.575 73.3001 425.225 75.2918 425.225 76.3335C425.225 77.5085 424.525 78.4501 423.708 78.4501C422.766 78.4501 422.416 76.6918 422.533 73.1835C422.766 70.2501 423.35 67.8001 423.825 67.6835C424.408 67.5668 425.225 68.0335 425.7 68.6251C426.166 69.0918 426.283 70.7335 425.933 72.0168V72.0085ZM417.741 71.8918C417.266 73.8835 417.033 76.1001 417.033 76.9251C417.033 77.7418 416.45 78.4501 415.866 78.4501C415.158 78.4501 414.691 76.1001 414.691 73.1835C414.691 68.9751 415.041 67.9168 416.566 68.0335C418.091 68.2668 418.325 69.0918 417.741 71.8918ZM409.55 70.7168C409.2 72.0085 408.841 74.3501 408.841 75.7501C408.841 77.2751 408.258 78.4501 407.675 78.4501C406.966 78.4501 406.5 76.1001 406.5 73.1835C406.5 68.9751 406.85 67.9168 408.375 68.0335C409.666 68.1501 410.016 68.9751 409.55 70.7335V70.7168ZM401.591 72.8335C401.358 75.5251 400.533 77.8585 399.716 78.0918C398.783 78.3251 398.308 76.8085 398.308 73.1835C398.308 69.2085 398.783 67.9168 400.066 67.9168C401.475 68.0335 401.825 69.0918 401.591 72.8335ZM393.633 73.1835C393.633 77.0501 393.166 78.4501 391.875 78.4501C390.591 78.4501 390.116 77.0418 390.116 73.1835C390.116 69.3251 390.591 67.9168 391.875 67.9168C393.166 67.9168 393.633 69.3251 393.633 73.1835ZM385.441 73.1835C385.441 77.0501 384.975 78.4501 383.683 78.4501C382.4 78.4501 381.925 77.0418 381.925 73.1835C381.925 69.3251 382.4 67.9168 383.683 67.9168C384.975 67.9168 385.441 69.3251 385.441 73.1835ZM377.25 74.3501C377.25 77.2835 376.666 79.6168 376.083 79.6168C375.375 79.6168 374.675 78.8001 374.325 77.8585C373.975 76.9251 373.733 74.4751 373.733 72.6001C373.733 70.2501 374.325 69.0918 375.491 69.0918C376.783 69.0918 377.25 70.5001 377.25 74.3501ZM368.475 79.3835C367.775 79.6168 366.833 79.1501 366.366 78.2085C365.9 77.3918 365.666 75.1668 365.783 73.4168C366.016 71.6585 366.6 70.1335 367.3 70.1335C367.891 70.1335 368.708 72.1251 369.058 74.5751C369.408 77.0418 369.058 79.1418 368.475 79.3751V79.3835ZM361.808 78.6835C361.925 79.8501 361.225 80.7918 360.283 80.7918C359.35 80.7918 358.291 79.6168 357.941 78.0918C357.591 76.6918 357.358 74.3501 357.358 72.8335C357.358 71.3085 358.058 70.2501 359.108 70.2501C360.166 70.2501 360.983 71.5418 361.225 73.4168C361.458 75.1751 361.808 77.6251 361.808 78.6835ZM353.616 79.8501C353.733 81.0251 353.15 81.9585 352.325 81.9585C351.508 81.9585 350.45 80.3251 349.983 78.2251C349.516 76.1085 349.166 73.6585 349.166 72.8418C349.166 72.0168 349.983 71.4335 350.925 71.4335C351.975 71.4335 352.791 72.7251 353.033 74.6001C353.266 76.3585 353.616 78.8168 353.616 79.8585V79.8501ZM349.175 718.717C349.175 720.592 348.941 723.042 348.591 723.983C348.233 724.917 347.183 725.742 346.241 725.742C344.958 725.742 344.608 724.917 345.191 722.458C345.541 720.708 346.125 718.367 346.358 717.192C346.6 716.142 347.3 715.2 348 715.2C348.591 715.2 349.175 716.725 349.175 718.717ZM345.55 80.4418C345.55 81.9585 344.966 83.1335 344.141 83.1335C343.325 83.1335 342.391 81.1418 341.916 78.8085C341.45 76.3501 341.333 73.8918 341.566 73.4251C341.916 72.9585 342.625 72.6085 343.325 72.6085C343.908 72.6085 344.733 73.7751 344.966 75.1835C345.2 76.7085 345.433 79.0501 345.55 80.4501V80.4418ZM340.991 717.783C340.991 719.892 340.525 722.458 339.941 723.4C339.35 724.333 338.3 724.683 337.591 724.217C336.658 723.633 336.658 722 337.475 718.717C338.066 716.142 339.116 714.042 339.816 714.042C340.408 714.042 340.991 715.675 340.991 717.783ZM336.891 84.3001C336.191 84.8835 335.366 84.7668 334.9 83.9418C334.55 83.1251 333.966 80.6751 333.725 78.5668C333.491 76.3335 333.841 74.3501 334.55 74.1168C335.133 73.8835 336.191 75.8751 336.891 78.5668C337.708 81.8418 337.708 83.7085 336.891 84.3001ZM333.491 714.967C333.258 716.025 332.675 718.367 332.325 720.125C331.858 722.342 331.033 723.167 329.866 722.808C328.341 722.342 328.341 721.533 329.391 717.783C330.1 715.433 330.916 712.983 331.15 712.517C331.383 712.05 332.208 712.05 332.791 712.4C333.491 712.75 333.841 713.925 333.491 714.967ZM330.333 85.1168C330.333 85.9335 329.625 86.6418 328.691 86.6418C327.75 86.6418 326.7 85.4668 326.35 83.9418C326 82.5418 325.758 80.2085 325.758 78.6835C325.758 77.2751 326.233 75.9835 326.933 75.8668C327.516 75.7501 328.575 77.3918 329.158 79.6168C329.741 81.8418 330.216 84.3001 330.333 85.1168ZM325.183 714.967C324.833 717.308 323.9 719.775 323.308 720.475C322.725 721.067 322.025 721.417 321.558 721.067C321.2 720.708 321.316 718.367 321.908 715.908C322.375 713.333 323.55 711.108 324.483 710.875C325.775 710.642 325.891 711.458 325.183 714.967ZM322.141 86.8751C322.141 88.0501 321.675 88.9835 321.083 88.9835C320.383 88.9835 319.325 87.6918 318.741 86.0585C318.041 84.4168 317.575 82.0668 317.575 80.7918C317.575 79.3835 318.158 78.6835 318.975 79.0335C319.8 79.3835 320.733 80.7918 321.2 82.3001C321.675 83.7085 322.025 85.8168 322.141 86.8668V86.8751ZM317.233 713.925C316.641 716.375 315.358 718.483 314.416 718.6C313.6 718.717 312.891 718.367 312.891 717.9C312.891 717.433 313.483 714.967 314.3 712.633C315.116 710.175 316.058 708.067 316.408 707.95C316.875 707.95 317.466 708.183 317.816 708.533C318.166 709 317.933 711.342 317.233 713.925ZM313.491 90.2668C312.783 90.8501 311.966 90.6168 311.5 89.7918C311.15 89.0918 310.441 86.7501 310.091 84.6501C309.508 81.9501 309.741 80.7918 310.791 80.7918C311.616 80.7918 312.783 82.6668 313.491 85.0085C314.308 87.9418 314.308 89.5668 313.491 90.2751V90.2668ZM310.558 706.783C310.558 707.242 309.975 709.583 309.391 712.05C308.683 714.617 307.4 716.375 306.458 716.375C305.175 716.375 304.816 715.675 305.408 713.808C305.758 712.283 306.575 709.942 307.166 708.533C307.75 707.008 308.683 705.85 309.391 705.85C309.975 705.85 310.558 706.317 310.558 706.783ZM306.691 91.0835C306.575 92.0251 305.875 92.7251 305.291 92.7251C304.583 92.7251 303.416 90.7335 302.591 88.2835C301.658 85.2335 301.541 83.3668 302.241 82.5501C303.025 81.8418 304 82.8251 305.175 85.4751C306.108 87.8251 306.808 90.2751 306.691 91.0918V91.0835ZM301.9 708.067C301.433 710.408 300.616 712.867 300.025 713.458C299.325 714.158 298.383 714.275 297.916 713.808C297.45 713.217 297.683 710.758 298.5 708.183C299.325 705.608 300.616 703.617 301.316 703.733C302.133 703.85 302.366 705.375 301.9 708.067ZM299.208 95.1835C298.858 95.7751 298.15 96.2418 297.566 96.1251C296.983 96.1251 295.691 93.6668 294.758 90.7418C293.116 85.9501 293.116 85.5918 294.875 86.0668C295.925 86.4168 297.45 88.4085 298.266 90.3918C298.975 92.3835 299.441 94.6085 299.208 95.1835ZM295.341 702.333C295.341 703.033 294.516 705.375 293.583 707.592C292.525 709.942 291.241 711.7 290.658 711.7C289.95 711.7 289.483 711.342 289.483 710.875C289.483 710.408 290.066 707.95 290.891 705.608C291.708 703.15 293 701.158 293.816 701.158C294.641 701.158 295.341 701.742 295.341 702.333ZM291.716 96.9335C291.716 97.7585 291.25 98.3418 290.666 98.3418C289.958 98.3418 288.675 96.5835 287.733 94.2418C286.683 92.0085 285.975 89.6751 285.975 88.9751C285.975 88.3918 286.683 87.6835 287.5 87.5668C288.441 87.4501 289.608 89.0918 290.316 91.4335C291.016 93.6668 291.6 96.1168 291.716 96.9335ZM286.691 703.033C285.991 705.492 284.7 707.708 283.875 708.067C283.058 708.533 282.125 708.533 281.883 708.183C281.533 707.95 282.241 705.492 283.291 702.8C284.466 700.1 285.991 698.125 286.683 698.358C287.616 698.592 287.616 699.867 286.683 703.033H286.691ZM284 101.033C283.641 101.625 283.058 102.092 282.591 102.092C282.241 101.975 281.066 99.9835 280.133 97.5335C279.075 95.0668 278.258 92.7335 278.025 92.2668C277.9 91.8001 278.491 91.3251 279.425 91.2085C280.25 91.0918 281.766 92.9668 282.708 95.4251C283.758 97.8835 284.233 100.45 284 101.033ZM280.133 696.483C280.133 697.183 279.308 699.517 278.375 701.742C277.316 704.092 276.033 705.85 275.441 705.85C274.741 705.85 274.275 705.375 274.275 704.675C274.275 704.092 274.975 701.742 276.033 699.4C276.966 697.183 278.258 695.308 278.958 695.308C279.541 695.308 280.133 695.892 280.133 696.483ZM276.508 102.208C276.508 103.267 276.041 104.2 275.45 104.2C274.75 104.2 273.458 102.208 272.408 99.8751C271.233 96.9418 271 95.0751 271.708 94.2585C272.525 93.5585 273.458 94.3751 274.633 96.6001C275.691 98.5918 276.508 101.05 276.508 102.217V102.208ZM273.108 693.317C273.108 693.433 272.291 695.658 271.35 698.242C270.3 700.808 269.125 702.8 268.658 702.683C268.191 702.567 267.366 701.975 266.9 701.508C266.433 701.042 267.133 698.592 268.425 696.25C269.716 693.783 271.233 692.142 271.941 692.492C272.525 692.85 273.108 693.2 273.108 693.317ZM269.491 106.3C269.491 107.125 269.016 107.708 268.433 107.708C267.733 107.708 266.208 105.6 264.925 103.033C263.525 100.217 263.058 98.1168 263.758 97.7668C264.341 97.5335 265.05 97.3001 265.283 97.5335C265.516 97.6501 266.566 99.4085 267.625 101.283C268.675 103.275 269.5 105.492 269.5 106.308L269.491 106.3ZM266.091 690.158C266.091 690.392 265.15 692.492 263.983 694.842C262.808 697.067 261.283 698.942 260.466 698.942C259.65 698.825 259.058 698.242 259.058 697.417C259.058 696.6 260.116 694.25 261.408 692.142C262.691 690.042 264.216 688.642 264.916 688.992C265.508 689.342 266.091 689.808 266.091 690.158ZM262.108 109.35C261.991 109.933 261.408 110.633 260.816 110.875C260.116 111.108 258.708 109.35 257.658 106.883C256.483 104.425 255.9 102.092 256.133 101.625C256.483 101.15 257.066 100.567 257.658 100.45C258.125 100.333 259.416 102.092 260.466 104.308C261.525 106.533 262.225 108.75 262.108 109.342V109.35ZM256.608 690.75C255.325 693.317 253.8 695.425 253.1 695.425C252.508 695.425 252.041 694.842 252.041 694.133C252.041 693.55 252.858 691.333 253.916 689.225C254.966 687.117 256.025 685.242 256.258 685.125C256.491 684.883 257.2 685.125 257.9 685.475C258.483 685.825 258.016 687.933 256.608 690.75ZM255.441 113.908C255.441 114.375 254.85 114.733 254.033 114.85C253.216 114.85 251.691 112.858 250.516 110.392C249.116 107.583 248.758 105.6 249.466 104.775C250.283 104.075 251.458 105.25 252.966 108.292C254.375 110.875 255.433 113.442 255.433 113.908H255.441ZM249.591 687.233C248.3 689.808 246.9 691.908 246.425 691.908C245.958 691.908 245.141 691.442 244.666 690.983C244.2 690.517 245.025 688.05 246.425 685.708C247.95 683.258 249.358 681.15 249.708 681.033C250.175 681.033 250.766 681.267 251.116 681.733C251.583 682.317 250.883 684.767 249.591 687.233ZM248.416 117.425C248.416 117.892 247.833 118.242 247.016 118.242C246.191 118.367 244.666 116.725 243.5 114.733C242.325 112.858 241.508 110.758 241.508 110.05C241.508 109.467 242.208 108.758 243.033 108.642C243.85 108.525 245.375 110.283 246.416 112.517C247.475 114.742 248.408 116.958 248.408 117.425H248.416ZM245.025 678.333C245.025 678.683 243.966 680.792 242.675 683.025C241.391 685.358 239.866 687.117 239.408 687.233C238.941 687.233 238.116 687 237.65 686.642C237.183 686.292 237.883 684.183 239.175 681.85C240.466 679.625 242.216 677.75 243.275 677.75C244.208 677.75 245.033 678.1 245.033 678.333H245.025ZM241.391 120.933C241.391 121.4 240.925 122.1 240.333 122.342C239.633 122.692 238.108 121.283 236.825 119.175C235.533 117.067 234.475 114.733 234.475 113.908C234.475 113.092 234.95 112.383 235.65 112.383C236.233 112.383 237.758 114.142 239.05 116.25C240.216 118.367 241.275 120.467 241.391 120.933ZM235.425 679.158C234.016 681.733 232.5 683.833 232.141 683.833C231.791 683.717 231.091 683.258 230.625 682.783C230.15 682.317 230.975 680.092 232.258 677.75C233.666 675.533 235.075 673.542 235.191 673.425C235.425 673.183 236.125 673.425 236.833 673.775C237.533 674.242 237.066 676.225 235.425 679.158ZM234.491 125.617C234.491 126.092 233.783 126.442 232.966 126.442C232.141 126.558 230.625 124.917 229.45 122.925C228.275 121.05 227.458 118.942 227.458 118.242C227.458 117.658 227.925 117.075 228.633 116.958C229.216 116.842 230.858 118.6 232.133 120.825C233.425 122.933 234.475 125.15 234.475 125.617H234.491ZM230.858 670.492C230.858 670.958 229.8 673.067 228.516 675.183C227.225 677.275 225.583 678.8 224.766 678.567C223.941 678.333 223.475 677.867 223.591 677.4C223.708 676.925 225 674.825 226.283 672.483C227.575 670.258 229.1 668.733 229.791 669.083C230.375 669.433 230.85 670.025 230.85 670.492H230.858ZM227.341 129.708C227.341 130.533 226.875 131.117 226.283 131.117C225.583 131.117 224.058 129.592 222.775 127.6C221.483 125.725 220.433 123.617 220.433 122.925C220.433 122.342 221.016 121.75 221.833 121.633C222.658 121.517 224.291 122.925 225.35 124.8C226.408 126.675 227.341 128.892 227.341 129.708ZM223.95 666.05C223.95 666.75 222.9 668.85 221.608 670.725C220.325 672.717 218.683 674.242 218.1 674.242C217.391 674.242 216.808 673.658 216.808 672.833C216.808 672.017 217.858 669.908 219.15 668.158C220.441 666.4 222.083 664.875 222.783 664.875C223.366 664.875 223.95 665.458 223.95 666.05ZM220.908 134.983C220.558 135.575 219.733 136.042 219.15 135.925C218.566 135.925 216.808 133.933 215.4 131.717C213.641 128.9 213.175 127.15 213.991 126.45C214.7 125.633 216.225 126.8 218.316 129.5C219.958 131.842 221.133 134.292 220.9 134.992L220.908 134.983ZM215.408 665.458C214.008 667.808 212.133 669.55 211.316 669.55C210.508 669.55 209.916 668.967 209.916 668.158C209.916 667.35 211.2 665.108 212.725 663.117C214.366 661.125 216.008 660.083 216.708 660.542C217.65 661.125 217.175 662.767 215.425 665.458H215.408ZM214.475 138.492C214.475 138.958 214.008 139.667 213.416 139.9C212.716 140.25 210.841 138.842 209.316 136.733C207.675 134.625 206.391 132.525 206.391 132.058C206.391 131.583 207.091 131 208.033 130.883C208.966 130.767 210.725 132.175 212.016 134.167C213.416 136.042 214.475 138.033 214.475 138.492ZM210.958 656.45C210.958 656.917 209.908 659.025 208.616 661.125C207.325 663.233 205.808 664.875 205.225 664.875C204.525 664.875 203.825 664.525 203.475 664.058C203.233 663.583 204.058 661.475 205.583 659.375C206.983 657.267 208.741 655.625 209.566 655.625C210.383 655.508 210.966 655.975 210.966 656.45H210.958ZM207.458 144.575C206.633 145.4 205.341 144.692 203.475 142.233C201.833 140.358 200.541 138.142 200.541 137.317C200.541 136.5 201.008 135.683 201.6 135.558C202.183 135.442 204.058 137.2 205.566 139.308C207.6 141.967 208.225 143.717 207.441 144.575H207.458ZM202.075 656.333C200.433 658.558 198.558 660.425 197.975 660.317C197.508 660.317 197.033 659.608 197.033 658.792C197.033 657.967 198.208 655.742 199.616 653.867C201.258 651.767 202.775 650.833 203.716 651.3C204.766 652 204.416 653.283 202.075 656.333ZM201.608 148.442C201.608 149.267 201.258 149.85 200.783 149.967C200.316 149.967 198.325 148.325 196.458 146.45C193.65 143.642 193.183 142.475 194.233 141.425C195.408 140.25 196.341 140.717 198.675 143.417C200.316 145.408 201.608 147.625 201.608 148.442ZM198.208 646.85C198.208 647.083 197.158 648.958 195.866 650.833C194.575 652.817 192.7 654.333 191.766 654.333C190.708 654.333 190.008 654.1 190.008 653.75C190.008 653.517 191.3 651.417 192.933 649.075C194.458 646.85 196.333 645.325 197.025 645.675C197.616 646.025 198.2 646.492 198.2 646.85H198.208ZM195.75 153.708C195.75 154.175 195.4 154.767 194.925 155.117C194.458 155.467 192.466 154.058 190.6 152.183C187.908 149.725 187.325 148.2 188.025 146.683C188.85 144.808 189.316 145.167 192.35 148.675C194.225 151.025 195.75 153.242 195.75 153.708ZM192.35 641.817C192.35 642.633 190.708 644.75 188.833 646.492C186.841 648.25 184.983 649.192 184.733 648.483C184.383 647.9 185.558 645.792 187.316 643.808C189.066 641.933 190.941 640.292 191.416 640.292C191.883 640.292 192.35 641 192.35 641.817ZM188.6 159.792C187.783 160.617 186.375 159.792 184.041 156.867C181.7 154.05 181 152.417 181.816 151.6C182.633 150.892 184.158 151.717 186.491 154.525C188.716 157.342 189.425 158.975 188.6 159.792ZM186.491 636.55C186.491 637.025 184.85 638.883 182.975 640.642C180.983 642.4 178.758 643.575 177.95 643.108C177.016 642.633 177.833 641.117 180.641 638.533C182.875 636.317 185.091 634.792 185.558 635.142C186.025 635.5 186.491 636.083 186.491 636.55ZM184.15 164.133C184.15 164.717 183.566 165.417 182.975 165.65C182.275 166.008 180.166 164.6 178.3 162.492C176.191 160.025 175.258 158.267 175.958 157.458C176.658 156.758 178.3 157.575 180.633 159.8C182.508 161.675 184.141 163.658 184.141 164.133H184.15ZM180.525 630.692C180.525 631.158 179.242 633.033 177.6 634.792C176.075 636.55 174.2 637.95 173.625 637.95C172.925 637.95 172.458 637.367 172.458 636.55C172.458 635.742 173.625 633.858 175.033 632.45C176.558 630.925 178.308 629.758 179.133 629.758C179.95 629.758 180.541 630.225 180.541 630.692H180.525ZM178.3 169.983C178.3 170.567 177.833 171.15 177.367 171.5C176.9 171.858 174.666 170.333 172.45 168.108C169.641 165.408 168.833 164.008 169.758 163.425C170.583 163.075 172.808 164.133 174.783 165.892C176.658 167.642 178.3 169.517 178.3 169.983ZM174.791 625.075C174.791 625.783 173.267 627.542 171.508 629.175C169.75 630.808 167.875 632.1 167.416 632.1C166.958 632.1 166.483 631.517 166.483 630.692C166.483 629.875 168.117 628.008 169.992 626.6C171.983 625.075 173.85 623.908 174.208 623.908C174.441 623.908 174.8 624.492 174.8 625.075H174.791ZM172.441 175.833C172.441 176.417 171.975 177 171.508 177.35C171.041 177.708 168.816 176.183 166.6 173.958C163.783 171.258 162.975 169.85 163.9 169.275C164.725 168.925 166.95 169.983 168.933 171.742C170.808 173.492 172.433 175.375 172.433 175.842L172.441 175.833ZM166.95 623.083C165.075 624.842 162.975 626.367 162.158 626.367C161.333 626.25 160.633 625.9 160.633 625.425C160.633 624.958 162.275 623.083 164.15 621.333C166.142 619.575 168.25 618.525 168.941 618.875C169.758 619.458 169.058 620.983 166.95 623.083ZM166.6 181.683C166.6 182.267 165.892 182.617 165.075 182.617C164.25 182.617 162.375 181.442 160.975 180.042C159.45 178.517 158.275 176.767 158.275 175.95C158.275 175.125 158.75 174.308 159.216 174.192C159.567 174.075 161.441 175.475 163.316 177.35C165.075 179.225 166.6 181.225 166.6 181.683ZM164.25 613.133C164.25 613.6 162.617 615.467 160.742 617.225C158.75 618.983 156.65 620.15 156.058 619.8C155.358 619.567 156.3 617.692 158.05 615.7C159.808 613.833 161.908 612.192 162.733 612.192C163.55 612.192 164.25 612.667 164.25 613.133ZM161.908 187.417C161.908 188 161.208 188.467 160.383 188.467C159.566 188.467 157.341 187.175 155.475 185.658C153.367 184.017 152.317 182.375 152.783 181.55C153.367 180.733 155.008 181.317 157.808 183.308C160.033 185.067 161.9 186.825 161.9 187.417H161.908ZM158.392 607.275C158.392 607.742 156.758 609.617 154.883 611.375C152.892 613.133 150.783 614.292 150.208 613.95C149.5 613.717 150.442 611.842 152.2 609.85C153.95 607.975 156.058 606.333 156.875 606.333C157.683 606.333 158.392 606.8 158.392 607.275ZM156.05 193.025C156.05 193.383 155.816 194.2 155.466 194.667C155.117 195.142 153.008 194.083 150.792 192.325C148.567 190.567 147.05 188.692 147.283 188.233C147.633 187.767 148.225 187.3 148.808 187.175C149.392 187.175 151.267 188.233 152.908 189.642C154.667 191.05 156.058 192.567 156.058 193.042L156.05 193.025ZM153.708 601.425C153.708 601.892 151.833 603.767 149.617 605.525C146.575 607.858 145.292 608.325 144.708 607.275C144.242 606.333 145.525 604.467 147.875 602.592C150.1 600.833 152.317 599.667 152.783 600.017C153.25 600.367 153.716 600.95 153.716 601.425H153.708ZM151.367 200.283C151.367 200.875 150.9 201.342 150.425 201.342C149.958 201.342 147.85 200.167 145.75 198.758C143.642 197.242 142.017 195.717 142.017 195.258C142.017 194.8 142.483 194.083 143.183 193.733C143.767 193.5 145.883 194.55 147.858 196.192C149.733 197.833 151.367 199.708 151.367 200.292V200.283ZM145.517 598.383C143.175 600.25 140.958 601.775 140.492 601.658C140.025 601.658 139.55 601.067 139.55 600.25C139.55 599.433 141.192 597.567 143.067 596.158C145.058 594.633 147.283 593.817 148.091 594.283C149.15 594.867 148.216 596.158 145.517 598.383ZM146.692 206.25C146.692 206.842 146.225 207.425 145.75 207.775C145.283 208.008 143.175 206.958 141.075 205.433C138.967 203.792 137.325 202.042 137.325 201.342C137.325 200.758 137.792 200.167 138.5 200.167C139.083 200.167 141.192 201.342 143.175 202.75C145.05 204.15 146.692 205.675 146.692 206.25ZM144.35 588.55C144.233 589.017 142.475 590.775 140.125 592.292C137.392 594.242 135.65 594.825 134.867 594.05C134.167 593.342 135.217 591.825 138.15 589.725C140.608 587.967 142.942 586.908 143.408 587.142C143.875 587.492 144.35 588.083 144.35 588.55ZM140.95 213.625C140.125 214.45 138.725 213.975 136.158 212.217C134.167 210.7 132.65 208.825 132.65 207.775C132.65 206.842 133 206.017 133.35 206.017C133.825 205.9 135.933 207.308 138.15 209.183C140.842 211.408 141.775 212.817 140.958 213.625H140.95ZM136.508 584.917C134.633 586.442 132.525 587.608 131.717 587.608C130.9 587.608 130.075 587.258 129.725 586.792C129.483 586.325 131.008 584.683 133.225 583.275C135.45 581.758 137.9 581.058 138.608 581.525C139.425 582.117 138.725 583.275 136.5 584.917H136.508ZM137.325 219.017C137.325 219.6 136.858 220.308 136.392 220.658C135.925 220.892 133.808 220.075 131.717 218.55C129.608 217.142 127.967 215.383 127.967 214.575C127.967 213.767 128.2 213.05 128.667 212.933C129.017 212.817 131.125 213.875 133.342 215.275C135.45 216.8 137.325 218.442 137.325 219.025V219.017ZM134.867 575.667C134.867 576.133 133.108 577.658 130.767 579.183C128.542 580.592 126.442 581.758 126.208 581.758C125.858 581.758 125.625 581.058 125.625 580C125.625 579.067 127.258 577.308 129.358 576.017C131.467 574.742 133.575 574.033 134.033 574.392C134.508 574.625 134.975 575.208 134.858 575.667H134.867ZM132.642 225.925C132.642 226.625 132.058 227.092 131.467 227.092C130.767 227.092 128.658 226.158 126.675 225.1C124.8 223.933 123.158 222.408 123.158 221.583C123.275 220.767 123.633 220.067 124.1 220.067C124.567 220.067 126.675 221.117 128.775 222.408C130.883 223.7 132.642 225.333 132.642 225.925ZM130.3 569.117C130.3 569.7 128.542 571.108 126.433 572.392C124.325 573.683 122.217 574.742 121.758 574.742C121.3 574.742 120.933 574.033 120.933 572.983C120.933 572.042 122.692 570.167 125.033 568.883C127.258 567.6 129.358 566.9 129.708 567.367C129.95 567.825 130.3 568.525 130.3 569.117ZM128.075 233.65C127.25 234.467 125.608 234.117 123.042 232.475C121.05 231.183 119.175 229.433 118.942 228.608C118.708 227.908 119.058 227.083 119.883 226.967C120.583 226.85 123.042 228.025 125.142 229.55C127.958 231.542 128.892 232.708 128.075 233.65ZM126.783 561.858C126.783 562.208 124.675 563.733 122.108 565.142C119.292 566.783 117.075 567.367 116.725 566.658C116.492 565.958 116.375 565.258 116.492 565.142C116.608 564.908 118.6 563.617 120.817 562.208C123.158 560.8 125.375 559.983 125.842 560.45C126.317 560.8 126.667 561.508 126.783 561.858ZM124.325 240.083C124.325 240.675 123.85 241.258 123.15 241.258C122.567 241.258 120.225 240.2 117.892 238.917C115.667 237.625 114.15 235.983 114.375 235.4C114.725 234.692 115.425 234.225 115.9 234.225C116.367 234.225 118.475 235.283 120.575 236.567C122.683 237.858 124.317 239.383 124.317 240.083H124.325ZM121.983 554.95C121.983 555.542 120.342 557.175 118.233 558.467C116.125 559.642 114.025 560.683 113.55 560.8C113.083 560.8 112.617 559.992 112.617 559.05C112.617 558.117 114.258 556.475 116.133 555.542C118.125 554.6 120.233 553.783 120.808 553.783C121.508 553.783 121.983 554.25 121.983 554.95ZM120.108 247.458C119.517 247.925 117.058 247.458 114.725 246.283C112.267 245.117 110.283 243.825 110.283 243.242C110.283 242.775 110.867 242.183 111.458 241.833C112.158 241.483 114.5 242.417 116.833 243.825C119.175 245.233 120.583 246.875 120.117 247.45L120.108 247.458ZM118.467 548.167C118.467 548.633 116.358 550.158 113.792 551.45C109.817 553.425 109.108 553.542 108.525 552.033C108.175 550.858 109.467 549.45 112.392 547.933C114.85 546.642 117.183 545.942 117.658 546.408C118.125 546.758 118.475 547.575 118.475 548.167H118.467ZM116.592 254.483C116.008 255.067 113.775 254.6 111.442 253.425C109.217 252.375 107.233 251.317 107.117 251.083C107 250.85 107.117 250.025 107.358 249.442C107.708 248.742 109.933 249.325 112.85 250.85C115.542 252.375 117.175 253.892 116.6 254.475L116.592 254.483ZM115.067 540.792C115.067 541.142 113.075 542.433 110.625 543.6C107.817 545 105.833 545.233 105.008 544.533C104.308 543.842 105.483 542.55 108.517 541.025C111.092 539.733 113.658 538.917 114.133 539.383C114.6 539.733 114.95 540.442 115.067 540.792ZM112.725 261.742C111.9 262.558 110.15 262.208 107.342 260.8C105.117 259.742 103.25 258.225 103.25 257.633C103.25 256.933 103.842 256.467 104.425 256.467C105.125 256.467 107.475 257.4 109.808 258.458C112.733 259.858 113.542 260.917 112.733 261.742H112.725ZM111.433 533.3C111.433 534.233 109.558 535.758 107.108 536.7C104.65 537.625 102.317 538.092 101.85 537.858C101.383 537.625 100.908 537.042 100.908 536.467C100.908 535.992 102.783 534.708 105.008 533.533C107.358 532.475 109.692 531.542 110.275 531.542C110.975 531.542 111.442 532.358 111.442 533.3H111.433ZM110.383 268.058C110.383 268.408 110.15 269.108 109.792 269.583C109.442 270.167 106.983 269.583 104.417 268.408C101.842 267.35 99.7415 266.067 99.7415 265.475C99.7415 265.008 100.325 264.425 100.908 264.075C101.617 263.717 103.958 264.308 106.175 265.358C108.517 266.417 110.392 267.708 110.392 268.058H110.383ZM108.042 525.925C108.042 526.75 106.167 528.15 103.95 528.858C101.6 529.667 99.1498 530.017 98.3332 529.55C97.3998 529.083 98.3332 528.033 100.908 526.75C103.25 525.575 105.708 524.633 106.525 524.517C107.342 524.517 107.933 525.225 108.05 525.925H108.042ZM106.75 275.9C106.75 276.833 106.283 277.542 105.575 277.542C104.992 277.542 102.767 276.717 100.667 275.667C98.5582 274.608 96.6832 273.558 96.5665 273.325C96.4498 273.083 96.5665 272.267 96.7998 271.683C97.2665 270.975 99.1415 271.208 102.067 272.383C104.642 273.442 106.742 275.075 106.742 275.892L106.75 275.9ZM105.575 518.9C105.575 519.375 103.467 520.658 100.9 521.592C98.3248 522.525 95.9915 523.35 95.6415 523.35C95.4082 523.35 95.0498 522.642 95.0498 521.825C95.0498 521.133 97.1582 519.492 99.7332 518.317C102.308 517.267 104.758 516.675 104.992 517.142C105.342 517.5 105.575 518.317 105.575 518.9ZM103.233 282.925C103.233 283.858 102.767 284.558 102.067 284.558C101.475 284.558 99.0165 283.742 96.5665 282.808C93.6415 281.633 92.5915 280.575 93.2998 279.875C94.1165 279.175 96.1082 279.175 98.9082 280.108C101.367 280.808 103.242 282.1 103.242 282.925H103.233ZM102.067 510.942C102.067 512.117 100.425 513.292 97.7415 514.1C94.6915 514.917 92.9415 514.917 92.1248 514.1C91.4248 513.292 91.8915 512.583 93.8832 511.883C95.5248 511.292 98.0915 510.358 99.4915 509.892C101.483 509.3 102.075 509.533 102.075 510.942H102.067ZM100.892 290.883C100.892 291.583 99.7165 291.933 98.3165 291.7C96.9082 291.467 94.4582 290.767 93.0498 290.292C91.6415 289.708 90.3582 288.892 90.3582 288.3C90.3582 287.833 90.5915 287.133 90.9415 286.542C91.2915 286.075 93.6332 286.542 96.2082 287.6C98.7832 288.658 100.883 290.058 100.883 290.883H100.892ZM99.7165 503.45C99.7165 504.042 98.5498 505.092 97.1415 505.683C95.7332 506.142 93.2832 506.958 91.8832 507.425C90.0082 507.9 89.1832 507.658 89.1832 506.375C89.1832 505.442 90.9415 504.042 93.0498 503.45C95.1582 502.75 97.4915 502.283 98.3165 502.283C99.1332 502.283 99.7165 502.75 99.7165 503.45ZM98.5498 298.608C98.5498 299.192 97.9582 299.775 97.1415 299.775C96.3248 299.775 93.9832 299.308 91.8832 298.608C89.7748 297.9 88.0165 296.617 88.0165 295.675C88.0165 294.392 88.8332 294.15 90.7082 294.625C92.1165 295.092 94.5748 295.792 95.9665 296.383C97.3748 296.967 98.5498 297.9 98.5498 298.608ZM97.3748 496.667C97.3748 497.367 95.4998 498.417 93.0498 498.883C90.5915 499.467 88.2582 499.933 87.7915 499.933C87.3165 499.933 86.8498 499.233 86.8498 498.417C86.8498 497.717 88.8415 496.433 91.2915 495.608C93.6332 494.792 96.0915 494.442 96.5582 494.792C97.0248 495.142 97.3748 495.958 97.3748 496.667ZM96.3248 305.525C96.3248 305.875 95.9665 306.575 95.6165 307.042C95.2665 307.633 92.9248 307.517 90.3582 306.808C87.5415 306.108 85.6832 304.933 85.6832 303.883C85.6832 302.942 86.1498 302.125 86.6165 302.125C87.0832 302.125 89.4332 302.708 91.8832 303.408C94.3415 304.117 96.3248 305.05 96.3248 305.525ZM95.0332 488.467C95.0332 488.942 93.3915 489.875 91.2832 490.567C89.1748 491.275 86.8415 491.742 86.0248 491.742C85.1998 491.742 84.4998 491.042 84.4998 490.225C84.4998 489.525 86.6082 488 89.1748 487.183C91.7498 486.242 94.0832 485.892 94.4415 486.475C94.7915 486.95 95.0248 487.883 95.0248 488.467H95.0332ZM93.8582 313.825C93.8582 314.525 92.8082 314.992 91.5165 314.992C90.2332 314.992 87.8998 314.408 86.2582 313.825C84.7332 313.117 83.3248 312.067 83.3248 311.475C83.3248 310.775 85.1998 310.542 87.7665 311.008C90.2332 311.358 92.5665 311.95 93.0332 312.183C93.4998 312.533 93.8498 313.233 93.8498 313.825H93.8582ZM92.6915 480.742C92.6915 482.267 91.5165 482.842 87.7832 483.2C85.0832 483.433 82.5165 483.317 82.1665 482.958C81.9332 482.617 82.1665 481.917 82.7498 481.333C83.4582 480.742 85.9165 479.925 88.3665 479.575C91.9832 478.867 92.6915 479.1 92.6915 480.742ZM91.5165 321.55C91.5165 322.483 90.9332 323.192 90.1165 323.192C89.2915 323.192 86.9498 322.717 84.8498 322.017C82.7415 321.317 80.9832 320.258 80.9832 319.675C80.9832 318.967 81.6832 318.5 82.5082 318.5C83.3248 318.5 85.6582 318.733 87.7665 319.208C89.8748 319.558 91.5082 320.608 91.5082 321.55H91.5165ZM90.3498 329.158C90.3498 329.742 89.9915 330.45 89.4082 330.683C88.8248 330.917 86.4832 330.683 84.1498 330.092C81.5665 329.508 79.8248 328.333 79.8248 327.283C79.8248 326.225 80.6415 325.758 81.9332 325.992C83.0998 326.342 85.4498 326.933 87.1915 327.283C88.9498 327.75 90.3498 328.567 90.3498 329.158ZM90.3498 472.317C90.3498 473.375 89.1748 474.425 87.7665 474.775C86.3665 475 84.1415 475.475 82.8582 475.592C81.6832 475.825 80.5165 475.233 80.2832 474.425C80.0499 473.608 81.2165 472.783 83.0915 472.317C84.8498 471.967 87.1915 471.5 88.3582 471.142C89.6832 470.675 90.3498 471.067 90.3498 472.317ZM89.1748 465.058C89.1748 465.525 88.5915 466.233 87.7665 466.467C86.9498 466.7 84.6082 467.275 82.5082 467.625C79.8165 468.1 78.6415 467.867 78.6415 466.817C78.6415 466.117 80.7498 464.592 83.3165 463.767C85.8915 462.833 88.2248 462.483 88.5832 463.067C88.9332 463.533 89.1665 464.475 89.1665 465.058H89.1748ZM87.9998 337.233C87.9998 337.933 86.8332 338.408 85.4248 338.408C84.0248 338.408 81.5582 338.058 80.1665 337.817C78.7582 337.467 77.4665 336.417 77.4665 335.475C77.4665 334.542 77.9415 333.717 78.4082 333.717C78.8748 333.717 81.2165 334.3 83.6665 334.892C86.1332 335.592 87.9915 336.65 87.9915 337.233H87.9998ZM87.2998 457.917C86.7165 458.275 84.3748 458.975 81.9248 459.442C78.4165 460.017 77.4832 459.783 77.4832 458.392C77.4832 457.217 78.9998 456.4 81.5665 456.042C83.9165 455.692 86.2498 455.808 86.9498 456.283C87.6498 456.75 87.7665 457.45 87.2998 457.917ZM86.8332 345.425C86.8332 346.133 85.6582 346.6 84.2582 346.6C82.8498 346.6 80.3915 346.25 78.9915 346.017C77.5832 345.658 76.2998 344.608 76.2998 343.667C76.2998 342.267 77.2332 342.033 80.7415 342.617C83.1998 343.083 85.5332 343.55 85.9998 343.908C86.4748 344.142 86.8248 344.842 86.8248 345.425H86.8332ZM85.6582 353.033C85.6582 353.975 85.0748 354.792 84.2582 354.792C83.4332 354.792 81.0915 354.442 78.9915 353.975C76.7665 353.392 75.1248 352.333 75.1248 351.275C75.1248 349.875 75.9498 349.758 78.9915 350.458C81.0998 350.925 83.4332 351.275 84.2582 351.275C85.0748 351.275 85.6582 352.1 85.6582 353.033ZM81.3332 442.942C78.8748 443.525 76.3082 443.642 75.4915 443.292C74.6665 442.942 73.9665 442.233 73.9665 441.65C73.9665 441.183 76.1915 440.242 78.9915 439.658C82.9748 438.717 84.0248 438.833 84.7248 440.125C85.4248 441.417 84.6082 442.117 81.3248 442.942H81.3332ZM85.6582 449.025C85.6582 450.667 84.7248 451.367 81.9082 451.6C79.7998 451.825 77.4665 451.942 76.6498 451.942C75.8332 451.942 75.1248 451.133 75.1248 450.192C75.1248 449.258 75.8332 448.433 76.6498 448.433C77.4665 448.433 79.8165 448.083 81.9082 447.617C85.0748 447.033 85.6582 447.267 85.6582 449.025ZM84.4915 361C84.4915 361.933 83.4332 362.4 81.9082 362.167C80.5082 362.05 78.0582 361.817 76.6498 361.817C74.8915 361.817 73.9582 361.117 73.9582 359.708C73.9582 358.067 74.5415 357.833 77.8248 358.65C79.9332 359.117 82.2665 359.475 83.0832 359.475C83.8998 359.475 84.4915 360.175 84.4915 361ZM84.4915 433.575C84.4915 434.275 82.8498 434.975 80.7415 435.333C78.6332 435.567 75.8332 435.567 74.5415 435.092C73.1332 434.625 72.6665 433.925 73.3665 433.342C74.0748 432.75 76.5332 431.933 78.8665 431.342C81.2082 430.758 83.4248 430.875 83.7748 431.458C84.2415 431.933 84.4832 432.983 84.4832 433.575H84.4915ZM83.3165 368.958C83.3165 369.542 80.9748 370.008 78.0582 370.008C74.1915 370.008 72.7915 369.542 72.7915 368.25C72.7915 367.317 73.4998 366.492 74.3165 366.492C75.1332 366.492 77.4832 366.725 79.5748 367.2C81.6832 367.55 83.3248 368.367 83.3248 368.958H83.3165ZM83.3165 377.15C83.3165 377.733 80.9748 378.208 78.0582 378.208C74.1915 378.208 72.7915 377.733 72.7915 376.45C72.7915 375.508 73.4998 374.692 74.3165 374.692C75.1332 374.692 77.4832 374.925 79.5748 375.392C81.6832 375.742 83.3248 376.567 83.3248 377.15H83.3165ZM82.7332 418.242C82.3832 418.825 79.9165 419.292 77.4665 419.292C74.1915 419.175 72.7915 418.708 72.7915 417.417C72.7915 416.125 74.1999 415.542 77.3498 415.425C79.8165 415.308 82.1498 415.658 82.4998 416.125C82.9665 416.717 82.9665 417.65 82.7332 418.242ZM83.3165 425.025C83.3165 425.608 82.6165 426.433 81.5582 426.783C80.6248 427.133 78.2832 427.367 76.2998 427.367C73.9582 427.367 72.7832 426.783 72.7832 425.608C72.7832 424.325 74.1915 423.858 78.0498 423.858C80.9748 423.858 83.3082 424.325 83.3082 425.025H83.3165ZM82.1498 384.875C82.1498 385.817 80.6248 386.4 77.4665 386.4C74.0748 386.4 72.7915 385.933 72.7915 384.642C72.7915 383.35 74.0832 382.883 77.4665 383.117C80.5165 383.233 82.1498 383.817 82.1498 384.875ZM82.1498 392.717C82.1498 394.125 80.8582 394.592 76.8832 394.592C73.2499 394.592 71.7415 394.125 72.0915 393.067C72.2082 392.367 74.6665 391.55 77.3498 391.308C81.0915 390.958 82.1498 391.308 82.1498 392.717ZM82.1498 401.033C82.1498 402.317 80.8582 402.792 77.4665 402.792C74.8915 402.792 72.5582 402.2 72.2082 401.617C71.9748 400.908 72.4415 400.208 73.3832 399.858C74.4332 399.508 76.7748 399.275 78.6415 399.275C80.9832 399.275 82.1498 399.858 82.1498 401.033ZM82.1498 409.108C82.1498 410.517 81.0915 410.867 77.2332 410.633C74.5415 410.517 72.2082 409.808 72.2082 409.225C72.2082 408.517 74.5498 407.933 77.2332 407.7C81.0998 407.35 82.1498 407.7 82.1498 409.108Z" fill="currentColor"/>
  </g>
  <g id="hid-02" class="halo">
    <path d="M140.122 331.855C141.02 328.837 141.67 325.76 141.487 324.718C141.324 323.799 140.484 323.109 139.679 323.251C138.867 323.395 137.246 327.014 136.118 331.368C134.97 335.607 133.275 343.513 132.325 348.918C131.371 354.308 130.011 366.081 129.325 375.002C128.659 384.038 128.352 398.469 128.593 407.227C129.043 418.563 130.303 429.739 133.069 445.422C136.665 465.816 137.085 467.527 138.931 467.201C140.77 466.877 140.67 465.592 137.857 451.703C136.144 443.331 134.131 429.902 133.542 421.806C132.848 413.839 132.426 401.322 132.458 394.064C132.503 386.932 133.18 375.27 133.841 368.266C134.643 361.346 135.992 351.479 136.871 346.34C137.885 341.295 139.334 334.727 140.131 331.862L140.122 331.855Z" fill="currentColor"/>
    <path fill-rule="evenodd" clip-rule="evenodd" d="M705.477 322.016C705.782 323.748 705.051 324.351 702.15 324.744C700.054 324.995 698.073 324.515 697.545 323.533C696.976 322.322 697.28 322.031 698.79 322.484C700.02 322.741 700.574 322.525 700.107 321.888C699.661 321.375 700.602 320.616 702.21 320.333C704.286 319.967 705.2 320.398 705.485 322.015L705.477 322.016ZM691.844 279.733C691.641 280.598 689.823 281.756 687.672 282.372C684.163 283.346 683.885 283.159 684.303 280.826C684.518 279.358 684.219 278.336 683.53 278.457C682.832 278.58 682.42 277.587 682.549 276.252C682.669 274.92 682.257 273.926 681.559 274.049C680.87 274.171 680.247 273.324 680.065 272.29C679.82 270.903 680.083 270.62 680.861 271.431C681.464 272.162 683.026 272.242 684.487 271.747C686.043 271.118 686.495 270.319 685.873 269.481C685.081 268.588 685.237 268.366 686.346 268.805C687.117 269.143 687.747 269.979 687.496 270.624C687.273 271.374 687.883 272.816 688.94 274.059C690.598 276.026 690.495 276.163 688.392 274.985C686.436 274.018 686.207 274.059 686.647 275.885C686.831 276.927 688.069 277.902 689.517 278.002C690.964 278.102 691.931 278.88 691.844 279.733ZM682.898 261.34C683.06 262.259 681.877 263.661 680.214 264.31C678.429 264.98 676.812 265.265 676.406 264.981C675.993 264.699 675.912 263.52 676.324 262.499C676.62 261.491 678.095 260.402 679.712 260.117C681.558 259.791 682.714 260.298 682.898 261.34ZM658.338 225.138C656.789 226.478 655.159 227.357 654.646 227.092C654.003 226.85 654.315 226.558 655.12 226.417C655.809 226.295 656.343 225.245 656.161 224.211C656.072 223.033 654.954 221.445 653.758 220.708C651.876 219.491 651.646 219.532 652.012 221.608C652.433 223.319 651.933 223.171 650.192 220.736C648.832 219.072 647.768 217.119 647.648 216.437C647.547 215.863 648.162 215.991 648.907 216.808C649.882 217.829 650.28 217.877 650.118 216.958C649.975 216.146 650.665 215.313 651.7 215.131C652.857 214.927 653.004 214.418 652.267 213.601C651.488 212.782 651.719 212.504 652.95 212.769C653.938 212.95 654.81 213.863 654.899 215.04C654.853 216.123 655.455 216.846 656.029 216.745C656.727 216.622 657.6 217.543 658.167 218.746C658.736 219.957 658.731 221.27 658.102 221.736C657.588 222.182 657.149 223.097 657.25 223.672C657.372 224.361 658.32 224.312 659.408 223.765C660.389 223.237 660.031 223.892 658.463 225.125L658.348 225.145L658.338 225.138ZM648.093 206.146C648.337 207.532 647.756 208.938 646.891 209.454C646.032 209.961 644.456 210.476 643.545 210.637C642.634 210.797 641.67 210.13 641.508 209.21C641.345 208.283 641.778 207.378 642.36 207.275C642.935 207.173 643.286 207.822 642.97 208.716C642.767 209.581 642.902 209.676 643.395 209.115C643.869 208.439 644.144 207.316 644.023 206.626C643.88 205.814 644.685 204.961 645.794 204.528C647.12 203.939 647.816 204.527 648.101 206.144L648.093 206.146ZM618.605 173.664C618.748 174.477 617.7 175.973 616.233 177.061C614.028 178.761 613.454 178.863 612.54 177.712C611.919 176.874 610.497 175.576 609.291 174.833C607.512 173.479 607.431 173.02 608.641 171.148C609.838 169.151 609.797 168.922 608.086 169.342C606.937 169.544 606.112 170.291 606.254 171.095C606.418 172.022 606.019 172.211 605.051 171.662C604.232 171.096 603.798 169.979 604.021 169.229C604.325 168.219 605.434 167.787 607.247 167.941C609.446 168.273 609.75 167.982 608.776 166.487C607.997 165.431 607.97 164.607 608.66 164.485C609.234 164.384 609.958 165.085 610.122 166.013C610.284 166.932 611.272 167.832 612.252 168.015C613.24 168.196 614.228 169.097 614.39 170.016C614.554 170.943 615.549 171.834 616.53 172.025C617.498 172.091 618.464 172.868 618.607 173.681L618.605 173.664ZM603.21 160.453C603.495 162.07 603.286 162.226 602.208 160.867C601.161 159.63 600.836 159.806 600.648 162.098C600.54 163.547 599.594 164.899 598.666 165.063C597.747 165.225 596.793 164.564 596.629 163.636C596.467 162.717 597.339 160.896 598.678 159.704C599.903 158.54 601.315 157.817 601.959 158.059C602.479 158.323 603.028 159.419 603.21 160.453ZM566.549 134.467C566.733 135.509 565.697 136.402 563.965 136.708C562.357 136.991 561.417 137.758 561.863 138.271C562.33 138.9 561.235 138.738 559.456 138.103C557.676 137.461 556.189 136.42 556.066 135.723C555.965 135.148 556.708 134.662 557.688 134.844C558.676 135.025 559.44 134.654 559.317 133.956C559.216 133.382 557.884 132.55 556.415 132.327C553.717 131.855 553.697 131.74 557.889 129.216L555.439 128.81C554.086 128.574 553.505 127.966 554.019 127.52C554.519 126.95 556.664 127.646 558.759 128.825C560.756 130.022 561.791 131.142 561.208 131.245C560.634 131.346 560.243 132.49 560.466 133.754C560.751 135.37 561.678 135.926 563.525 135.601C565.486 135.255 565.675 134.984 564.125 134.302C563.105 133.889 562.522 133.273 563.036 132.827C563.435 132.401 564.342 132.123 564.977 132.366C565.632 132.724 566.399 133.664 566.541 134.468L566.549 134.467ZM549.194 123.624C549.276 124.092 548.633 125.864 547.739 127.561C546.97 129.245 545.63 130.429 544.745 130.112C543.871 129.91 543.04 129.227 542.917 128.53C542.816 127.955 543.33 127.509 543.973 127.751C544.608 127.995 544.757 127.495 544.289 126.858C543.803 126.114 544.133 124.626 544.93 123.775C545.829 122.779 547.135 122.074 547.771 122.318C548.428 122.684 549.112 123.156 549.193 123.616L549.194 123.624ZM526.76 110.943C526.841 111.403 526.173 113.662 525.265 115.954C523.704 119.91 523.474 119.951 520.425 118.83C518.654 118.195 517.117 116.917 516.994 116.219C516.852 115.415 517.311 113.312 518.184 111.499C518.941 109.699 519.711 108.015 519.765 107.65C519.934 107.265 521.557 107.689 523.378 108.561C525.178 109.318 526.685 110.474 526.768 110.942L526.76 110.943ZM435.365 86.5265L434.945 91.5845C434.589 96.2844 434.305 96.6899 431.019 96.9139C427.723 97.1311 427.453 96.9419 427.035 92.5055C426.702 89.9493 426.85 87.4271 427.249 87.0013C427.647 86.5756 429.609 86.2298 431.643 86.3449L435.356 86.5279L435.365 86.5265ZM400.362 88.1798C400.647 89.7965 400.73 92.2865 400.607 93.6029C400.399 95.7805 399.836 95.9981 393.663 96.0205C389.877 96.0957 372.166 98.7362 354.07 101.927C324.92 107.067 319.667 108.23 307.293 112.917C299.585 115.706 287.841 120.51 281.255 123.567C274.536 126.537 264.284 131.789 258.355 135.212C252.426 138.635 247.327 141.438 246.99 141.497C246.654 141.557 245.38 139.759 244.142 137.489C242.817 135.345 242.18 133.08 242.674 132.519C243.032 131.863 248.292 128.677 254.222 125.262C260.17 121.945 268.773 117.467 273.268 115.362C277.762 113.258 287.501 109.172 294.845 106.337C302.179 103.495 313.291 99.7587 319.505 97.9522C325.738 96.2524 335.719 93.5446 341.65 92.1436C347.558 90.6194 360.278 88.6135 369.962 87.6253C379.529 86.649 390.173 85.7285 393.582 85.4828C399.35 85.1766 399.85 85.3253 400.358 88.2059L400.362 88.1798ZM240.431 145.379C240.514 145.847 239.756 146.928 238.586 147.727C237.437 148.648 235.901 149.393 235.326 149.494C234.637 149.616 232.789 147.919 228.155 141.84L230.686 139.972C232.159 138.875 233.749 137.765 234.418 137.529C234.972 137.312 236.55 138.82 237.855 140.849C239.169 142.877 240.243 144.938 240.439 145.377L240.431 145.379ZM227.661 153.816C227.897 154.485 226.722 155.886 225.018 157.015C223.428 158.125 222.029 158.972 221.873 158.763C221.853 158.648 220.608 156.964 219.201 155.079C217.8 153.177 216.641 151.359 216.582 151.022C216.542 150.793 217.746 149.514 219.314 148.281C222.152 146.233 222.266 146.212 224.859 149.445C226.247 151.222 227.551 153.243 227.654 153.826L227.661 153.816ZM314.263 684.701C314.344 685.161 313.81 685.492 313.187 685.365C312.457 685.257 312.309 685.757 312.68 686.52C313.167 687.264 313.182 688.691 312.769 689.712C312.399 690.97 311.302 691.519 310.044 691.148C308.292 690.62 308.211 690.16 309.271 686.766C310.022 684.256 311.015 683.125 312.239 683.391C313.227 683.572 314.173 684.235 314.255 684.703L314.263 684.701ZM216.31 163.543C216.486 163.868 215.384 165.01 213.911 166.107C212.436 167.196 210.929 168.055 210.699 168.095C210.354 168.156 208.777 166.649 207.106 164.565C205.448 162.598 203.955 160.848 203.934 160.733C203.894 160.503 205.359 159.407 207.015 158.049C208.813 156.776 210.464 156.011 210.734 156.2C211.025 156.504 212.392 158.167 213.752 159.831C215.142 161.617 216.269 163.305 216.31 163.543ZM305.36 681.38C305.421 681.725 304.645 682.699 303.839 683.552C302.499 684.736 302.249 684.662 302.547 682.942C302.681 681.497 302.215 680.869 301.14 681.058C300.065 681.248 299.077 680.829 298.705 680.066C298.272 678.949 298.042 678.99 297.548 680.27C297.345 681.135 297.933 682.453 299.138 683.188C300.24 684.068 300.715 684.695 300.247 684.778C299.788 684.859 300.275 685.611 301.48 686.346C302.873 687.53 303.069 687.97 302.035 688.152C301.223 688.295 300.162 687.653 299.748 686.651C299.241 685.793 298.441 685.333 298.044 685.767C297.625 686.078 296.407 685.937 295.385 685.517C293.701 684.748 293.795 684.612 295.513 684.902C296.752 685.157 297.65 684.88 297.569 684.421C297.488 683.961 296.575 682.811 295.56 681.805C294.283 680.609 293.293 680.419 292.287 681.434C291.266 682.41 291.219 682.816 292.147 682.652C292.951 682.51 293.395 683.016 293.267 683.631C293.044 684.381 292.272 684.754 291.637 684.511C290.907 684.403 290.265 683.449 290.082 682.415C289.92 681.496 290.771 680.272 291.982 679.703C293.185 679.135 293.739 678.2 293.253 677.456C292.757 676.706 293.13 676.759 294.098 677.544C295.199 678.416 296.499 679.025 297.189 678.903C297.772 678.8 299.854 679.144 301.733 679.769C303.607 680.268 305.291 681.037 305.352 681.382L305.36 681.38ZM204.985 172.784C205.087 173.366 202.223 176.605 198.766 179.939C195.312 183.29 189.456 189.188 185.976 193.017C182.382 196.866 174.642 206.193 168.869 213.862C162.995 221.676 155.196 232.681 151.592 238.537C147.882 244.421 142.308 254.56 138.922 260.987C135.679 267.499 130.859 277.979 128.293 284.253C125.73 290.645 121.705 302.177 119.394 309.947C117.093 317.723 114.039 329.439 112.715 336.087C111.257 342.648 109.605 352.806 108.806 358.405C108.145 364.106 107.292 374.724 106.894 381.919C106.64 389.216 106.464 400.306 106.633 406.691C106.676 412.979 107.341 420.833 107.89 423.943C108.44 427.061 108.486 430.015 108.089 430.449C107.67 430.76 106.608 430.828 105.721 430.503C104.347 430.152 103.921 427.731 103.317 418.217C102.89 411.759 102.547 401.708 102.451 395.785C102.497 389.955 102.812 380.269 103.282 374.246C103.788 368.335 105.196 356.79 106.391 348.736C107.7 340.661 109.933 329.089 111.461 322.879C113.001 316.786 116.594 304.864 119.512 296.505C122.551 288.117 126.625 277.532 128.66 272.9C130.714 268.374 135.473 258.989 139.112 252.035C142.898 245.19 150.737 232.393 156.793 223.599C162.85 214.805 172.219 202.576 177.66 196.387C183.122 190.313 190.938 182.047 195.202 177.961C199.371 174.01 203.233 170.96 203.762 171.222C204.283 171.494 204.885 172.217 204.986 172.792L204.985 172.784ZM254.008 661.673C252.885 663.419 251.431 664.624 250.91 664.36C250.39 664.096 249.78 663.375 249.637 662.562C249.495 661.758 250.158 660.093 251.103 658.733C252.343 656.983 253.113 656.601 254.446 657.441C255.804 658.378 255.718 659.231 254.008 661.673ZM247.525 653.897C247.304 654.655 246.113 655.339 244.829 655.447C243.273 655.646 242.833 656.273 243.497 657.349C243.909 658.343 243.917 659.06 243.458 659.141C242.99 659.224 240.203 657.575 231.803 651.685L233.702 648.973C234.75 647.476 236.175 646.151 236.987 646.007C237.791 645.866 238.632 646.555 238.794 647.474C238.978 648.516 239.559 649.125 240.248 649.003C240.823 648.902 241.069 649.578 240.743 650.464C240.427 651.358 240.582 651.567 241.189 650.978C241.691 650.416 243.503 650.57 245.058 651.371C246.72 652.017 247.769 653.262 247.525 653.897ZM204.12 620.663C204.054 621.631 203.379 623.18 202.553 623.918C201.641 624.789 199.929 625.21 198.613 625.086C196.157 624.69 196.136 624.575 198.516 621.177C199.923 619.034 201.513 617.924 202.505 618.223C203.39 618.541 204.082 619.73 204.12 620.663ZM197.12 613.934C197.181 614.279 196.899 614.693 196.431 614.775C195.991 614.971 194.625 615.331 193.361 615.554C191.42 616.014 191.345 616.264 192.989 616.804C194.396 617.393 194.572 617.718 193.524 618.495C192.794 619.106 191.428 618.746 190.453 617.97C189.465 617.07 189.114 616.421 189.573 616.34C190.033 616.259 189.275 615.318 187.781 614.287C185.765 612.975 185.216 611.879 185.919 610.443C186.5 609.038 186.188 608.61 184.761 608.625C183.103 608.68 183.252 608.18 188.249 603.5L187.959 607.232C187.769 610.235 188.102 610.778 189.718 610.492C190.855 610.174 191.672 609.429 191.53 608.625C191.387 607.812 192.478 608.576 194.067 610.2C195.57 611.957 196.936 613.612 197.112 613.936L197.12 613.934ZM161.327 571.996C161.51 573.03 160.47 574.525 159.205 575.459C157.52 576.704 156.486 576.886 155.512 576.11C154.544 575.325 154.727 574.345 156.141 572.911C157.242 571.769 158.716 570.671 159.52 570.529C160.316 570.389 161.157 571.078 161.319 571.997L161.327 571.996ZM156.234 563.984C156.335 564.558 155.908 564.871 155.178 564.762C154.563 564.634 153.291 564.858 152.317 565.385C151.451 565.893 151.248 566.758 151.849 567.482C152.555 568.313 152.283 568.598 151.052 568.333C150.064 568.152 149.287 567.104 149.219 566.05C149.152 564.996 148.664 564.244 147.974 564.366C147.392 564.468 146.716 563.995 146.615 563.421C146.492 562.723 147.026 562.392 147.669 562.634C148.419 562.857 148.778 562.202 148.615 561.282C148.452 560.355 147.236 559.503 145.904 559.391C144.57 559.263 143.394 558.641 143.293 558.066C143.17 557.369 144.366 556.091 145.765 555.244C147.26 554.269 149.066 553.714 149.702 553.957C150.46 554.179 151.043 554.796 151.124 555.255C151.225 555.83 150.691 556.161 149.818 555.959C148.973 555.871 149.284 556.29 150.596 557.015C151.895 557.615 152.983 559.082 153.186 560.231C153.369 561.273 154.156 562.328 154.791 562.571C155.542 562.794 156.153 563.524 156.234 563.984ZM128.842 518.533C127.605 519.581 125.996 520.584 125.204 520.842C124.4 520.984 123.527 520.063 123.302 518.791C123.017 517.174 123.891 516.081 126.001 515.235C127.787 514.565 129.464 514.624 130.064 515.339C130.81 516.164 130.315 517.436 128.842 518.533ZM127.17 507.658C127.384 508.204 126.977 508.632 126.288 508.753C125.714 508.854 125.479 508.194 125.817 507.423C126.207 506.28 125.822 506.111 124.558 507.053C123.49 507.715 122.164 508.304 121.475 508.426C120.892 508.528 120.743 509.029 121.093 509.669C121.549 510.19 121.412 510.806 120.723 510.928C120.148 511.029 119.736 510.035 119.743 508.731C119.863 507.398 119.411 506.175 118.659 505.944C118.016 505.702 117.583 504.593 117.609 503.396C117.77 502.292 117.123 500.638 116.155 499.853C115.133 499 115.322 498.967 116.73 499.751C118.841 500.927 119.071 500.887 118.745 499.04C118.561 497.998 118.859 496.998 119.442 496.895C120.131 496.774 120.442 497.193 120.219 497.943C120.092 498.566 120.423 499.1 120.997 498.999C121.695 498.876 122.377 498.045 122.464 497.192C122.687 496.441 122.768 496.901 122.668 498.349C122.703 499.891 123.134 500.991 123.708 500.89C124.406 500.767 125.34 502.032 125.875 503.723C126.43 505.529 126.965 507.221 127.17 507.658ZM118.737 473.368C118.913 473.693 117.784 474.01 116.336 473.91C114.887 473.802 111.123 473.281 108.05 472.748C105.082 472.087 102.31 471.146 102.092 470.583C101.781 470.164 104.222 467.83 107.351 465.374C110.616 463.013 113.711 461.037 114.286 460.936C114.983 460.813 116.162 463.465 116.96 466.65C117.664 469.97 118.557 473.019 118.733 473.344L118.737 473.368ZM110.63 440.206C111.179 443.316 111.416 446.007 111.072 446.068C110.842 446.109 107.729 445.346 104.227 444.297C100.823 443.23 97.9157 442.194 97.8549 441.849C97.7942 441.504 99.9908 439.806 102.534 438.054C105.19 436.274 107.879 434.725 108.461 434.623C109.151 434.501 110.059 436.964 110.626 440.181L110.63 440.206Z" fill="currentColor"/>
  </g>
  <g id="hid-01" class="halo">
    <path d="M352.142 196.2C354.484 195.733 356 194.8 356 193.742C356 192.683 354.825 191.983 353.067 191.983C351.425 191.983 344.409 193.858 337.509 196.083C330.609 198.433 318.9 203.225 311.525 206.742C304.159 210.25 293.625 216.108 288.125 219.733C282.634 223.35 275.842 228.158 272.917 230.5C269.984 232.733 264.375 237.525 260.517 241.158C256.542 244.675 250.217 250.875 246.475 254.967L239.575 262.342L250.109 271.475C264.617 256.608 271.992 249.583 275.734 246.425C281.934 241.042 282.525 240.342 281.234 237.875C280.534 236.467 280.175 234.725 280.534 234.133C280.884 233.433 285.792 229.925 291.417 226.175C297.15 222.542 306.859 217.158 313.059 214.242C320.9 210.608 324.292 208.392 324.292 206.867C324.409 205.458 326.4 204.175 330.492 202.65C333.884 201.475 339.267 199.717 342.534 198.667C345.7 197.608 350.025 196.558 352.134 196.2H352.142Z" fill="currentColor"/>
    <path d="M394.842 620.4C399.875 620.4 403.975 619.925 403.975 619.458C403.975 618.875 403.625 617.933 403.15 617.467C402.8 616.883 399.167 616.533 395.317 616.65C391.334 616.767 382.325 616.058 375.309 615.125C368.175 614.075 357.4 611.967 351.325 610.442C345.242 608.925 335.409 606 329.675 604.008C323.825 601.9 314.35 597.925 308.617 595.108C302.767 592.3 292.592 586.45 285.8 582.008C279.017 577.55 268.717 570.058 262.984 565.15C257.142 560.225 250 553.675 247.075 550.633C244.142 547.467 240.05 542.908 238.059 540.45C234.667 536.592 234.434 535.883 236.067 534.008C237.009 532.958 237.825 531.433 237.825 530.85C237.825 530.142 235.6 526.517 232.8 522.65C229.992 518.792 225.309 511.775 222.5 507.083C218.75 500.883 216.884 498.775 215.6 499.242C214.075 499.942 214.075 499.825 215.6 497.967C217.234 496.092 217.117 496.092 213.842 496.792C210.909 497.492 209.975 497.142 208.459 494.917C207.409 493.392 204.709 487.425 202.492 481.692C200.15 475.833 197.467 468.808 196.534 465.892C195.592 462.958 193.95 457.225 193.025 453.008C191.967 448.8 190.684 442.717 189.975 439.55C189.275 436.275 188.225 428.9 187.517 423.158C186.934 417.308 186.35 406.3 186.35 398.575C186.35 390.85 187.167 378.45 188.109 371.075C189.042 363.7 191.15 352.342 192.784 345.908C194.3 339.467 197.692 328.7 200.267 321.908C203.667 312.892 204.592 309.392 203.55 308.8C202.734 308.333 201.792 308.333 201.325 308.8C200.975 309.275 198.75 314.65 196.534 320.733C194.184 326.825 191.034 337.125 189.392 343.558C187.75 350 185.534 360.533 184.6 366.975C183.309 374.467 182.609 385.942 182.725 399.167C182.725 412.15 183.309 423.867 184.6 431.358C185.534 437.792 187.642 448.092 189.159 454.175C190.8 460.267 193.484 469.275 195.242 474.083C196.884 478.875 200.15 486.842 202.259 491.633C205.309 498.308 205.884 500.65 204.842 501.233C204.017 501.7 202.85 502.175 202.375 502.175C201.909 502.175 201.559 502.758 201.559 503.575C201.559 504.4 202.967 507.667 204.6 510.95C206.359 514.108 210.8 521.375 214.55 526.992C218.417 532.608 221.925 537.517 222.625 537.867C223.209 538.225 226.017 536.817 228.709 534.833L233.734 531.2C225.9 538.1 223.909 540.567 224.259 541.033C224.609 541.5 226.25 541.033 227.892 539.858C229.842 538.533 232.459 539.825 235.725 543.733C238.309 546.883 244.509 553.433 249.417 558.242C254.325 562.917 262.517 570.175 267.675 574.158C272.817 578.258 281.475 584.225 286.975 587.617C292.467 591.008 302.184 596.4 308.617 599.558C315.05 602.717 326.642 607.283 334.367 609.742C342.084 612.317 352.384 615.125 357.184 616.175C361.975 617.117 370.4 618.525 375.909 619.108C381.4 619.808 389.942 620.4 394.867 620.4H394.842Z" fill="currentColor"/>
    <path d="M267.425 229.208C268.95 230.375 269.417 230.258 269.417 228.967C269.417 228.033 268.95 226.975 268.484 226.742C268.017 226.392 266.725 226.742 265.55 227.567C264.15 228.5 263.8 229.675 264.267 231.183C264.967 233.183 264.85 233.3 263.442 232.125C262.042 230.95 261.334 231.067 259.709 232.708C257.717 234.583 257.717 234.817 259.592 236.458C261.35 238.1 261.467 237.983 260.642 235.292C259.942 232.942 260.059 232.592 261.35 233.883C262.634 235.058 263.342 234.933 264.975 233.533C266.267 232.475 266.734 231.067 266.267 229.783C265.567 228.025 265.684 227.908 267.442 229.192L267.425 229.208Z" fill="currentColor"/>
  </g>
</g>
  <defs>
    <clipPath id="clip0_2459_132">
      <rect width="800" height="800" fill="white"/>
    </clipPath>
  </defs>
</svg>
