<svg viewBox="0 0 800 800">
<g id="hid-03">
<path id="Vector" fill-rule="evenodd" clip-rule="evenodd" d="M623.2 158.75C621.441 160.975 619.683 162.725 619.216 162.725C618.633 162.725 617.925 162.017 617.575 161.317C617.108 160.5 618.4 158.267 620.158 156.4C622.15 154.525 624.125 153.475 624.95 153.825C626.116 154.408 625.533 155.817 623.191 158.742L623.2 158.75ZM619.45 149.617C619.45 150.083 617.925 152.192 616.175 154.292C614.066 156.95 612.616 157.875 611.85 157.108C611.066 156.325 611.766 154.525 613.958 151.725C615.708 149.383 617.691 147.742 618.283 148.1C618.866 148.575 619.45 149.158 619.45 149.625V149.617ZM612.9 145.517C612.433 146.333 611.025 148.092 609.616 149.617C608.216 151.025 606.808 152.192 606.341 152.192C605.758 152.192 605.4 151.492 605.4 150.792C605.516 149.967 606.691 147.742 608.216 145.758C609.975 143.533 611.491 142.592 612.316 143.183C613.016 143.767 613.25 144.817 612.9 145.525V145.517ZM606.583 139.783C606.583 140.483 605.175 142.708 603.541 144.575C601.55 146.917 600.141 147.742 599.45 146.917C598.741 146.217 599.45 144.225 601.558 141.425C603.433 138.958 605.175 137.333 605.766 137.8C606.233 138.15 606.583 139.083 606.583 139.792V139.783ZM600.733 134.05C600.733 134.4 599.566 136.275 598.158 138.15C596.633 140.142 594.758 141.658 594.066 141.658C593.25 141.658 592.541 141.425 592.541 141.067C592.541 140.717 593.716 138.725 595.125 136.742C596.525 134.633 597.816 132.767 598.05 132.65C598.283 132.417 598.991 132.533 599.575 132.883C600.158 133.358 600.75 133.825 600.75 134.058L600.733 134.05ZM593.716 129.367C593.716 129.725 592.541 131.717 591.141 133.933C589.5 136.392 587.858 137.683 587.041 137.208C585.983 136.625 586.333 135.217 588.441 132.067C590.083 129.6 591.958 127.858 592.533 128.208C593.125 128.675 593.708 129.142 593.708 129.383L593.716 129.367ZM586.7 124.458C586.7 125.158 585.408 127.625 584 129.725C582.283 132.3 581.033 133.2 580.266 132.417C579.483 131.633 579.991 129.875 581.783 127.15C583.191 124.808 584.95 122.933 585.525 122.933C586.1 122.933 586.7 123.633 586.7 124.458ZM580.15 120.95C579.675 121.775 578.158 123.883 576.875 125.625C575.233 127.817 574.025 128.517 573.241 127.742C572.466 126.958 573.008 125.275 574.883 122.708C576.525 120.6 577.933 118.725 578.166 118.608C578.4 118.375 579.1 118.608 579.683 118.958C580.391 119.308 580.508 120.25 580.158 120.95H580.15ZM573.833 115.333C573.833 115.683 572.775 117.8 571.483 120.017C570.2 122.242 568.558 124.117 567.975 124.117C567.383 124.117 566.566 123.767 566.333 123.292C565.983 122.708 566.8 120.6 568.091 118.617C569.258 116.508 571.133 114.75 572.075 114.75C573.008 114.75 573.833 114.983 573.833 115.333ZM564.233 115.8C562.825 118.15 561.541 120.133 561.3 120.375C561.066 120.492 560.483 120.375 559.783 120.025C559.075 119.675 559.666 117.442 561.3 114.758C562.708 112.183 564.233 109.967 564.583 109.85C564.933 109.725 565.641 110.083 565.991 110.667C566.458 111.133 565.641 113.483 564.233 115.817V115.8ZM558.616 107.725C558.616 108.433 557.8 110.542 556.858 112.408C555.925 114.4 554.283 115.908 553.35 115.908C551.941 115.908 551.941 115.092 553.933 111.233C555.225 108.658 556.741 106.558 557.45 106.558C558.15 106.558 558.616 107.142 558.616 107.725ZM551.6 103.4C551.6 103.517 550.9 105.742 549.841 108.317C548.783 111.125 547.383 112.875 546.325 112.642C545.391 112.525 544.566 112.167 544.566 111.817C544.566 111.467 545.625 109.125 546.916 106.558C548.2 103.975 549.725 102.108 550.425 102.45C551.133 102.925 551.6 103.275 551.6 103.392V103.4ZM544.583 100.117C544.583 100.467 543.641 102.583 542.591 104.8C541.416 107.142 539.775 108.9 539.075 108.9C538.25 108.9 537.55 108.667 537.55 108.317C537.55 107.958 538.608 105.617 539.891 103.05C541.183 100.467 542.708 98.6085 543.408 98.9501C544.108 99.4168 544.583 99.8835 544.583 100.117ZM535.45 100.467C534.516 103.05 532.991 105.15 532.05 105.267C531.233 105.267 530.533 104.917 530.533 104.208C530.533 103.625 531.466 101.283 532.641 99.0668C533.691 96.8335 535.216 95.2085 535.916 95.4335C536.975 95.7835 536.741 97.1918 535.45 100.458V100.467ZM529.366 93.4501C529.366 93.9168 528.666 96.2585 527.608 98.7085C526.675 101.058 525.383 103.042 524.683 103.042C523.983 103.042 523.508 102.333 523.508 101.633C523.508 100.808 523.983 98.3501 524.683 96.3668C525.266 94.2585 526.675 92.5001 527.608 92.5001C528.55 92.5001 529.366 92.8501 529.366 93.4418V93.4501ZM520.475 94.6168C519.541 97.0835 518.833 99.0668 518.833 99.3001C518.833 99.4168 518.016 99.5335 517.075 99.5335C516.141 99.5335 515.316 99.3001 515.316 98.9501C515.316 98.5918 516.141 96.2501 517.075 93.6835C518.016 91.1001 519.3 88.8835 519.775 88.7668C520.358 88.6501 521.058 89.0001 521.533 89.4751C521.883 89.9418 521.533 92.2835 520.475 94.6168ZM514.158 87.8335C514.158 88.5335 513.341 90.8835 512.4 93.1001C511.466 95.3251 510.175 97.2001 509.475 97.2001C508.766 97.2001 508.3 96.4918 508.3 95.7918C508.3 94.9751 509 92.5085 509.825 90.4085C510.525 88.3001 511.933 86.6585 512.75 86.6585C513.458 86.6585 514.158 87.2501 514.158 87.8335ZM505.966 85.8418C505.966 86.6585 505.5 89.0001 504.791 91.1001C503.975 93.6835 503.041 94.6168 501.866 94.2668C500.341 93.8001 500.341 93.1001 501.866 88.4168C502.8 85.4918 504.091 83.3918 504.791 83.7418C505.5 84.2085 505.966 85.0251 505.966 85.8501V85.8418ZM497.541 86.3085C496.841 88.7668 496.133 91.3418 495.783 91.9251C495.391 92.7085 494.808 92.7085 494.025 91.9251C493.325 91.2251 493.558 88.8751 494.491 85.7251C495.316 83.0251 496.366 80.6918 496.725 80.5751C497.075 80.4585 497.658 80.8085 498.008 81.1585C498.358 81.6335 498.125 83.9751 497.541 86.3085ZM490.05 82.9085C489.583 84.6668 488.883 87.0001 488.533 88.0585C488.175 89.2251 487.241 89.7001 486.425 89.2251C485.25 88.6418 485.25 87.4668 486.425 83.9668C487.241 81.6168 488.533 79.6418 489.35 79.6418C490.291 79.6418 490.525 80.6918 490.05 82.9168V82.9085ZM482.566 78.6918C482.566 79.5085 482.1 81.8585 481.391 83.9585C480.691 86.0668 479.633 87.8251 479.05 87.8251C478.35 87.8251 477.875 86.7668 477.875 85.4751C477.875 84.1918 478.35 81.8418 479.05 80.2168C479.633 78.5751 480.691 77.2835 481.391 77.2835C481.983 77.2835 482.566 77.8668 482.566 78.6918ZM474.375 76.3501C474.375 77.1668 474.025 79.6251 473.433 81.7251C472.966 83.8335 471.916 85.4751 471.091 85.4751C470.275 85.4751 469.691 85.0085 469.691 84.5418C469.691 84.0751 470.158 81.7251 470.858 79.2751C471.441 76.9335 472.5 74.9501 473.2 74.9501C473.791 74.9501 474.375 75.5335 474.375 76.3585V76.3501ZM465.716 78.9251C465.366 81.5001 464.775 83.9585 464.425 84.3085C464.075 84.6585 463.25 84.3085 462.666 83.7168C461.966 82.9001 461.966 80.9085 462.666 78.1085C463.25 75.7585 464.425 73.8835 465.125 73.8835C465.991 74.0418 466.183 75.7251 465.716 78.9168V78.9251ZM458.691 74.7085C458.458 75.7585 457.875 78.2251 457.525 80.0835C457.058 81.9585 456.116 83.3668 455.3 83.2501C454.241 83.1335 454.125 81.6085 454.708 77.5168C455.183 74.4751 455.883 71.9001 456.233 71.6668C456.466 71.5501 457.408 71.7835 457.991 72.1335C458.691 72.4918 459.05 73.6585 458.691 74.7168V74.7085ZM450.266 75.2918C449.916 77.2835 449.333 79.6168 449.1 80.4418C448.866 81.2585 448.041 81.9585 447.458 81.9585C446.758 81.9585 446.283 80.4418 446.283 78.6835C446.283 76.9251 446.516 74.3501 446.875 72.8335C447.225 71.1918 448.041 70.4835 449.1 70.8418C450.383 71.3085 450.616 72.6001 450.266 75.2835V75.2918ZM442.308 73.0668C441.958 74.4751 441.608 76.7001 441.608 78.0918C441.608 79.7335 440.908 80.7918 439.85 80.7918C438.916 80.7918 438.091 79.8501 438.091 78.6835C438.091 77.6251 438.333 74.9418 438.683 72.8335C439.15 69.9001 439.733 69.2001 441.141 69.9001C442.308 70.3668 442.666 71.5418 442.308 73.0668ZM434.125 73.0668C433.65 75.0585 433.416 77.2835 433.416 78.0918C433.416 78.9085 432.6 79.6168 431.658 79.6168C430.725 79.6168 429.9 78.9168 429.9 78.0918C429.9 77.2751 430.258 74.9335 430.725 72.8335C431.308 70.6001 432.366 69.0835 433.3 69.2001C434.475 69.3168 434.708 70.4835 434.125 73.0585V73.0668ZM425.933 72.0085C425.575 73.3001 425.225 75.2918 425.225 76.3335C425.225 77.5085 424.525 78.4501 423.708 78.4501C422.766 78.4501 422.416 76.6918 422.533 73.1835C422.766 70.2501 423.35 67.8001 423.825 67.6835C424.408 67.5668 425.225 68.0335 425.7 68.6251C426.166 69.0918 426.283 70.7335 425.933 72.0168V72.0085ZM417.741 71.8918C417.266 73.8835 417.033 76.1001 417.033 76.9251C417.033 77.7418 416.45 78.4501 415.866 78.4501C415.158 78.4501 414.691 76.1001 414.691 73.1835C414.691 68.9751 415.041 67.9168 416.566 68.0335C418.091 68.2668 418.325 69.0918 417.741 71.8918ZM409.55 70.7168C409.2 72.0085 408.841 74.3501 408.841 75.7501C408.841 77.2751 408.258 78.4501 407.675 78.4501C406.966 78.4501 406.5 76.1001 406.5 73.1835C406.5 68.9751 406.85 67.9168 408.375 68.0335C409.666 68.1501 410.016 68.9751 409.55 70.7335V70.7168ZM401.591 72.8335C401.358 75.5251 400.533 77.8585 399.716 78.0918C398.783 78.3251 398.308 76.8085 398.308 73.1835C398.308 69.2085 398.783 67.9168 400.066 67.9168C401.475 68.0335 401.825 69.0918 401.591 72.8335ZM393.633 73.1835C393.633 77.0501 393.166 78.4501 391.875 78.4501C390.591 78.4501 390.116 77.0418 390.116 73.1835C390.116 69.3251 390.591 67.9168 391.875 67.9168C393.166 67.9168 393.633 69.3251 393.633 73.1835ZM385.441 73.1835C385.441 77.0501 384.975 78.4501 383.683 78.4501C382.4 78.4501 381.925 77.0418 381.925 73.1835C381.925 69.3251 382.4 67.9168 383.683 67.9168C384.975 67.9168 385.441 69.3251 385.441 73.1835ZM377.25 74.3501C377.25 77.2835 376.666 79.6168 376.083 79.6168C375.375 79.6168 374.675 78.8001 374.325 77.8585C373.975 76.9251 373.733 74.4751 373.733 72.6001C373.733 70.2501 374.325 69.0918 375.491 69.0918C376.783 69.0918 377.25 70.5001 377.25 74.3501ZM368.475 79.3835C367.775 79.6168 366.833 79.1501 366.366 78.2085C365.9 77.3918 365.666 75.1668 365.783 73.4168C366.016 71.6585 366.6 70.1335 367.3 70.1335C367.891 70.1335 368.708 72.1251 369.058 74.5751C369.408 77.0418 369.058 79.1418 368.475 79.3751V79.3835ZM361.808 78.6835C361.925 79.8501 361.225 80.7918 360.283 80.7918C359.35 80.7918 358.291 79.6168 357.941 78.0918C357.591 76.6918 357.358 74.3501 357.358 72.8335C357.358 71.3085 358.058 70.2501 359.108 70.2501C360.166 70.2501 360.983 71.5418 361.225 73.4168C361.458 75.1751 361.808 77.6251 361.808 78.6835ZM353.616 79.8501C353.733 81.0251 353.15 81.9585 352.325 81.9585C351.508 81.9585 350.45 80.3251 349.983 78.2251C349.516 76.1085 349.166 73.6585 349.166 72.8418C349.166 72.0168 349.983 71.4335 350.925 71.4335C351.975 71.4335 352.791 72.7251 353.033 74.6001C353.266 76.3585 353.616 78.8168 353.616 79.8585V79.8501ZM349.175 718.717C349.175 720.592 348.941 723.042 348.591 723.983C348.233 724.917 347.183 725.742 346.241 725.742C344.958 725.742 344.608 724.917 345.191 722.458C345.541 720.708 346.125 718.367 346.358 717.192C346.6 716.142 347.3 715.2 348 715.2C348.591 715.2 349.175 716.725 349.175 718.717ZM345.55 80.4418C345.55 81.9585 344.966 83.1335 344.141 83.1335C343.325 83.1335 342.391 81.1418 341.916 78.8085C341.45 76.3501 341.333 73.8918 341.566 73.4251C341.916 72.9585 342.625 72.6085 343.325 72.6085C343.908 72.6085 344.733 73.7751 344.966 75.1835C345.2 76.7085 345.433 79.0501 345.55 80.4501V80.4418ZM340.991 717.783C340.991 719.892 340.525 722.458 339.941 723.4C339.35 724.333 338.3 724.683 337.591 724.217C336.658 723.633 336.658 722 337.475 718.717C338.066 716.142 339.116 714.042 339.816 714.042C340.408 714.042 340.991 715.675 340.991 717.783ZM336.891 84.3001C336.191 84.8835 335.366 84.7668 334.9 83.9418C334.55 83.1251 333.966 80.6751 333.725 78.5668C333.491 76.3335 333.841 74.3501 334.55 74.1168C335.133 73.8835 336.191 75.8751 336.891 78.5668C337.708 81.8418 337.708 83.7085 336.891 84.3001ZM333.491 714.967C333.258 716.025 332.675 718.367 332.325 720.125C331.858 722.342 331.033 723.167 329.866 722.808C328.341 722.342 328.341 721.533 329.391 717.783C330.1 715.433 330.916 712.983 331.15 712.517C331.383 712.05 332.208 712.05 332.791 712.4C333.491 712.75 333.841 713.925 333.491 714.967ZM330.333 85.1168C330.333 85.9335 329.625 86.6418 328.691 86.6418C327.75 86.6418 326.7 85.4668 326.35 83.9418C326 82.5418 325.758 80.2085 325.758 78.6835C325.758 77.2751 326.233 75.9835 326.933 75.8668C327.516 75.7501 328.575 77.3918 329.158 79.6168C329.741 81.8418 330.216 84.3001 330.333 85.1168ZM325.183 714.967C324.833 717.308 323.9 719.775 323.308 720.475C322.725 721.067 322.025 721.417 321.558 721.067C321.2 720.708 321.316 718.367 321.908 715.908C322.375 713.333 323.55 711.108 324.483 710.875C325.775 710.642 325.891 711.458 325.183 714.967ZM322.141 86.8751C322.141 88.0501 321.675 88.9835 321.083 88.9835C320.383 88.9835 319.325 87.6918 318.741 86.0585C318.041 84.4168 317.575 82.0668 317.575 80.7918C317.575 79.3835 318.158 78.6835 318.975 79.0335C319.8 79.3835 320.733 80.7918 321.2 82.3001C321.675 83.7085 322.025 85.8168 322.141 86.8668V86.8751ZM317.233 713.925C316.641 716.375 315.358 718.483 314.416 718.6C313.6 718.717 312.891 718.367 312.891 717.9C312.891 717.433 313.483 714.967 314.3 712.633C315.116 710.175 316.058 708.067 316.408 707.95C316.875 707.95 317.466 708.183 317.816 708.533C318.166 709 317.933 711.342 317.233 713.925ZM313.491 90.2668C312.783 90.8501 311.966 90.6168 311.5 89.7918C311.15 89.0918 310.441 86.7501 310.091 84.6501C309.508 81.9501 309.741 80.7918 310.791 80.7918C311.616 80.7918 312.783 82.6668 313.491 85.0085C314.308 87.9418 314.308 89.5668 313.491 90.2751V90.2668ZM310.558 706.783C310.558 707.242 309.975 709.583 309.391 712.05C308.683 714.617 307.4 716.375 306.458 716.375C305.175 716.375 304.816 715.675 305.408 713.808C305.758 712.283 306.575 709.942 307.166 708.533C307.75 707.008 308.683 705.85 309.391 705.85C309.975 705.85 310.558 706.317 310.558 706.783ZM306.691 91.0835C306.575 92.0251 305.875 92.7251 305.291 92.7251C304.583 92.7251 303.416 90.7335 302.591 88.2835C301.658 85.2335 301.541 83.3668 302.241 82.5501C303.025 81.8418 304 82.8251 305.175 85.4751C306.108 87.8251 306.808 90.2751 306.691 91.0918V91.0835ZM301.9 708.067C301.433 710.408 300.616 712.867 300.025 713.458C299.325 714.158 298.383 714.275 297.916 713.808C297.45 713.217 297.683 710.758 298.5 708.183C299.325 705.608 300.616 703.617 301.316 703.733C302.133 703.85 302.366 705.375 301.9 708.067ZM299.208 95.1835C298.858 95.7751 298.15 96.2418 297.566 96.1251C296.983 96.1251 295.691 93.6668 294.758 90.7418C293.116 85.9501 293.116 85.5918 294.875 86.0668C295.925 86.4168 297.45 88.4085 298.266 90.3918C298.975 92.3835 299.441 94.6085 299.208 95.1835ZM295.341 702.333C295.341 703.033 294.516 705.375 293.583 707.592C292.525 709.942 291.241 711.7 290.658 711.7C289.95 711.7 289.483 711.342 289.483 710.875C289.483 710.408 290.066 707.95 290.891 705.608C291.708 703.15 293 701.158 293.816 701.158C294.641 701.158 295.341 701.742 295.341 702.333ZM291.716 96.9335C291.716 97.7585 291.25 98.3418 290.666 98.3418C289.958 98.3418 288.675 96.5835 287.733 94.2418C286.683 92.0085 285.975 89.6751 285.975 88.9751C285.975 88.3918 286.683 87.6835 287.5 87.5668C288.441 87.4501 289.608 89.0918 290.316 91.4335C291.016 93.6668 291.6 96.1168 291.716 96.9335ZM286.691 703.033C285.991 705.492 284.7 707.708 283.875 708.067C283.058 708.533 282.125 708.533 281.883 708.183C281.533 707.95 282.241 705.492 283.291 702.8C284.466 700.1 285.991 698.125 286.683 698.358C287.616 698.592 287.616 699.867 286.683 703.033H286.691ZM284 101.033C283.641 101.625 283.058 102.092 282.591 102.092C282.241 101.975 281.066 99.9835 280.133 97.5335C279.075 95.0668 278.258 92.7335 278.025 92.2668C277.9 91.8001 278.491 91.3251 279.425 91.2085C280.25 91.0918 281.766 92.9668 282.708 95.4251C283.758 97.8835 284.233 100.45 284 101.033ZM280.133 696.483C280.133 697.183 279.308 699.517 278.375 701.742C277.316 704.092 276.033 705.85 275.441 705.85C274.741 705.85 274.275 705.375 274.275 704.675C274.275 704.092 274.975 701.742 276.033 699.4C276.966 697.183 278.258 695.308 278.958 695.308C279.541 695.308 280.133 695.892 280.133 696.483ZM276.508 102.208C276.508 103.267 276.041 104.2 275.45 104.2C274.75 104.2 273.458 102.208 272.408 99.8751C271.233 96.9418 271 95.0751 271.708 94.2585C272.525 93.5585 273.458 94.3751 274.633 96.6001C275.691 98.5918 276.508 101.05 276.508 102.217V102.208ZM273.108 693.317C273.108 693.433 272.291 695.658 271.35 698.242C270.3 700.808 269.125 702.8 268.658 702.683C268.191 702.567 267.366 701.975 266.9 701.508C266.433 701.042 267.133 698.592 268.425 696.25C269.716 693.783 271.233 692.142 271.941 692.492C272.525 692.85 273.108 693.2 273.108 693.317ZM269.491 106.3C269.491 107.125 269.016 107.708 268.433 107.708C267.733 107.708 266.208 105.6 264.925 103.033C263.525 100.217 263.058 98.1168 263.758 97.7668C264.341 97.5335 265.05 97.3001 265.283 97.5335C265.516 97.6501 266.566 99.4085 267.625 101.283C268.675 103.275 269.5 105.492 269.5 106.308L269.491 106.3ZM266.091 690.158C266.091 690.392 265.15 692.492 263.983 694.842C262.808 697.067 261.283 698.942 260.466 698.942C259.65 698.825 259.058 698.242 259.058 697.417C259.058 696.6 260.116 694.25 261.408 692.142C262.691 690.042 264.216 688.642 264.916 688.992C265.508 689.342 266.091 689.808 266.091 690.158ZM262.108 109.35C261.991 109.933 261.408 110.633 260.816 110.875C260.116 111.108 258.708 109.35 257.658 106.883C256.483 104.425 255.9 102.092 256.133 101.625C256.483 101.15 257.066 100.567 257.658 100.45C258.125 100.333 259.416 102.092 260.466 104.308C261.525 106.533 262.225 108.75 262.108 109.342V109.35ZM256.608 690.75C255.325 693.317 253.8 695.425 253.1 695.425C252.508 695.425 252.041 694.842 252.041 694.133C252.041 693.55 252.858 691.333 253.916 689.225C254.966 687.117 256.025 685.242 256.258 685.125C256.491 684.883 257.2 685.125 257.9 685.475C258.483 685.825 258.016 687.933 256.608 690.75ZM255.441 113.908C255.441 114.375 254.85 114.733 254.033 114.85C253.216 114.85 251.691 112.858 250.516 110.392C249.116 107.583 248.758 105.6 249.466 104.775C250.283 104.075 251.458 105.25 252.966 108.292C254.375 110.875 255.433 113.442 255.433 113.908H255.441ZM249.591 687.233C248.3 689.808 246.9 691.908 246.425 691.908C245.958 691.908 245.141 691.442 244.666 690.983C244.2 690.517 245.025 688.05 246.425 685.708C247.95 683.258 249.358 681.15 249.708 681.033C250.175 681.033 250.766 681.267 251.116 681.733C251.583 682.317 250.883 684.767 249.591 687.233ZM248.416 117.425C248.416 117.892 247.833 118.242 247.016 118.242C246.191 118.367 244.666 116.725 243.5 114.733C242.325 112.858 241.508 110.758 241.508 110.05C241.508 109.467 242.208 108.758 243.033 108.642C243.85 108.525 245.375 110.283 246.416 112.517C247.475 114.742 248.408 116.958 248.408 117.425H248.416ZM245.025 678.333C245.025 678.683 243.966 680.792 242.675 683.025C241.391 685.358 239.866 687.117 239.408 687.233C238.941 687.233 238.116 687 237.65 686.642C237.183 686.292 237.883 684.183 239.175 681.85C240.466 679.625 242.216 677.75 243.275 677.75C244.208 677.75 245.033 678.1 245.033 678.333H245.025ZM241.391 120.933C241.391 121.4 240.925 122.1 240.333 122.342C239.633 122.692 238.108 121.283 236.825 119.175C235.533 117.067 234.475 114.733 234.475 113.908C234.475 113.092 234.95 112.383 235.65 112.383C236.233 112.383 237.758 114.142 239.05 116.25C240.216 118.367 241.275 120.467 241.391 120.933ZM235.425 679.158C234.016 681.733 232.5 683.833 232.141 683.833C231.791 683.717 231.091 683.258 230.625 682.783C230.15 682.317 230.975 680.092 232.258 677.75C233.666 675.533 235.075 673.542 235.191 673.425C235.425 673.183 236.125 673.425 236.833 673.775C237.533 674.242 237.066 676.225 235.425 679.158ZM234.491 125.617C234.491 126.092 233.783 126.442 232.966 126.442C232.141 126.558 230.625 124.917 229.45 122.925C228.275 121.05 227.458 118.942 227.458 118.242C227.458 117.658 227.925 117.075 228.633 116.958C229.216 116.842 230.858 118.6 232.133 120.825C233.425 122.933 234.475 125.15 234.475 125.617H234.491ZM230.858 670.492C230.858 670.958 229.8 673.067 228.516 675.183C227.225 677.275 225.583 678.8 224.766 678.567C223.941 678.333 223.475 677.867 223.591 677.4C223.708 676.925 225 674.825 226.283 672.483C227.575 670.258 229.1 668.733 229.791 669.083C230.375 669.433 230.85 670.025 230.85 670.492H230.858ZM227.341 129.708C227.341 130.533 226.875 131.117 226.283 131.117C225.583 131.117 224.058 129.592 222.775 127.6C221.483 125.725 220.433 123.617 220.433 122.925C220.433 122.342 221.016 121.75 221.833 121.633C222.658 121.517 224.291 122.925 225.35 124.8C226.408 126.675 227.341 128.892 227.341 129.708ZM223.95 666.05C223.95 666.75 222.9 668.85 221.608 670.725C220.325 672.717 218.683 674.242 218.1 674.242C217.391 674.242 216.808 673.658 216.808 672.833C216.808 672.017 217.858 669.908 219.15 668.158C220.441 666.4 222.083 664.875 222.783 664.875C223.366 664.875 223.95 665.458 223.95 666.05ZM220.908 134.983C220.558 135.575 219.733 136.042 219.15 135.925C218.566 135.925 216.808 133.933 215.4 131.717C213.641 128.9 213.175 127.15 213.991 126.45C214.7 125.633 216.225 126.8 218.316 129.5C219.958 131.842 221.133 134.292 220.9 134.992L220.908 134.983ZM215.408 665.458C214.008 667.808 212.133 669.55 211.316 669.55C210.508 669.55 209.916 668.967 209.916 668.158C209.916 667.35 211.2 665.108 212.725 663.117C214.366 661.125 216.008 660.083 216.708 660.542C217.65 661.125 217.175 662.767 215.425 665.458H215.408ZM214.475 138.492C214.475 138.958 214.008 139.667 213.416 139.9C212.716 140.25 210.841 138.842 209.316 136.733C207.675 134.625 206.391 132.525 206.391 132.058C206.391 131.583 207.091 131 208.033 130.883C208.966 130.767 210.725 132.175 212.016 134.167C213.416 136.042 214.475 138.033 214.475 138.492ZM210.958 656.45C210.958 656.917 209.908 659.025 208.616 661.125C207.325 663.233 205.808 664.875 205.225 664.875C204.525 664.875 203.825 664.525 203.475 664.058C203.233 663.583 204.058 661.475 205.583 659.375C206.983 657.267 208.741 655.625 209.566 655.625C210.383 655.508 210.966 655.975 210.966 656.45H210.958ZM207.458 144.575C206.633 145.4 205.341 144.692 203.475 142.233C201.833 140.358 200.541 138.142 200.541 137.317C200.541 136.5 201.008 135.683 201.6 135.558C202.183 135.442 204.058 137.2 205.566 139.308C207.6 141.967 208.225 143.717 207.441 144.575H207.458ZM202.075 656.333C200.433 658.558 198.558 660.425 197.975 660.317C197.508 660.317 197.033 659.608 197.033 658.792C197.033 657.967 198.208 655.742 199.616 653.867C201.258 651.767 202.775 650.833 203.716 651.3C204.766 652 204.416 653.283 202.075 656.333ZM201.608 148.442C201.608 149.267 201.258 149.85 200.783 149.967C200.316 149.967 198.325 148.325 196.458 146.45C193.65 143.642 193.183 142.475 194.233 141.425C195.408 140.25 196.341 140.717 198.675 143.417C200.316 145.408 201.608 147.625 201.608 148.442ZM198.208 646.85C198.208 647.083 197.158 648.958 195.866 650.833C194.575 652.817 192.7 654.333 191.766 654.333C190.708 654.333 190.008 654.1 190.008 653.75C190.008 653.517 191.3 651.417 192.933 649.075C194.458 646.85 196.333 645.325 197.025 645.675C197.616 646.025 198.2 646.492 198.2 646.85H198.208ZM195.75 153.708C195.75 154.175 195.4 154.767 194.925 155.117C194.458 155.467 192.466 154.058 190.6 152.183C187.908 149.725 187.325 148.2 188.025 146.683C188.85 144.808 189.316 145.167 192.35 148.675C194.225 151.025 195.75 153.242 195.75 153.708ZM192.35 641.817C192.35 642.633 190.708 644.75 188.833 646.492C186.841 648.25 184.983 649.192 184.733 648.483C184.383 647.9 185.558 645.792 187.316 643.808C189.066 641.933 190.941 640.292 191.416 640.292C191.883 640.292 192.35 641 192.35 641.817ZM188.6 159.792C187.783 160.617 186.375 159.792 184.041 156.867C181.7 154.05 181 152.417 181.816 151.6C182.633 150.892 184.158 151.717 186.491 154.525C188.716 157.342 189.425 158.975 188.6 159.792ZM186.491 636.55C186.491 637.025 184.85 638.883 182.975 640.642C180.983 642.4 178.758 643.575 177.95 643.108C177.016 642.633 177.833 641.117 180.641 638.533C182.875 636.317 185.091 634.792 185.558 635.142C186.025 635.5 186.491 636.083 186.491 636.55ZM184.15 164.133C184.15 164.717 183.566 165.417 182.975 165.65C182.275 166.008 180.166 164.6 178.3 162.492C176.191 160.025 175.258 158.267 175.958 157.458C176.658 156.758 178.3 157.575 180.633 159.8C182.508 161.675 184.141 163.658 184.141 164.133H184.15ZM180.525 630.692C180.525 631.158 179.242 633.033 177.6 634.792C176.075 636.55 174.2 637.95 173.625 637.95C172.925 637.95 172.458 637.367 172.458 636.55C172.458 635.742 173.625 633.858 175.033 632.45C176.558 630.925 178.308 629.758 179.133 629.758C179.95 629.758 180.541 630.225 180.541 630.692H180.525ZM178.3 169.983C178.3 170.567 177.833 171.15 177.367 171.5C176.9 171.858 174.666 170.333 172.45 168.108C169.641 165.408 168.833 164.008 169.758 163.425C170.583 163.075 172.808 164.133 174.783 165.892C176.658 167.642 178.3 169.517 178.3 169.983ZM174.791 625.075C174.791 625.783 173.267 627.542 171.508 629.175C169.75 630.808 167.875 632.1 167.416 632.1C166.958 632.1 166.483 631.517 166.483 630.692C166.483 629.875 168.117 628.008 169.992 626.6C171.983 625.075 173.85 623.908 174.208 623.908C174.441 623.908 174.8 624.492 174.8 625.075H174.791ZM172.441 175.833C172.441 176.417 171.975 177 171.508 177.35C171.041 177.708 168.816 176.183 166.6 173.958C163.783 171.258 162.975 169.85 163.9 169.275C164.725 168.925 166.95 169.983 168.933 171.742C170.808 173.492 172.433 175.375 172.433 175.842L172.441 175.833ZM166.95 623.083C165.075 624.842 162.975 626.367 162.158 626.367C161.333 626.25 160.633 625.9 160.633 625.425C160.633 624.958 162.275 623.083 164.15 621.333C166.142 619.575 168.25 618.525 168.941 618.875C169.758 619.458 169.058 620.983 166.95 623.083ZM166.6 181.683C166.6 182.267 165.892 182.617 165.075 182.617C164.25 182.617 162.375 181.442 160.975 180.042C159.45 178.517 158.275 176.767 158.275 175.95C158.275 175.125 158.75 174.308 159.216 174.192C159.567 174.075 161.441 175.475 163.316 177.35C165.075 179.225 166.6 181.225 166.6 181.683ZM164.25 613.133C164.25 613.6 162.617 615.467 160.742 617.225C158.75 618.983 156.65 620.15 156.058 619.8C155.358 619.567 156.3 617.692 158.05 615.7C159.808 613.833 161.908 612.192 162.733 612.192C163.55 612.192 164.25 612.667 164.25 613.133ZM161.908 187.417C161.908 188 161.208 188.467 160.383 188.467C159.566 188.467 157.341 187.175 155.475 185.658C153.367 184.017 152.317 182.375 152.783 181.55C153.367 180.733 155.008 181.317 157.808 183.308C160.033 185.067 161.9 186.825 161.9 187.417H161.908ZM158.392 607.275C158.392 607.742 156.758 609.617 154.883 611.375C152.892 613.133 150.783 614.292 150.208 613.95C149.5 613.717 150.442 611.842 152.2 609.85C153.95 607.975 156.058 606.333 156.875 606.333C157.683 606.333 158.392 606.8 158.392 607.275ZM156.05 193.025C156.05 193.383 155.816 194.2 155.466 194.667C155.117 195.142 153.008 194.083 150.792 192.325C148.567 190.567 147.05 188.692 147.283 188.233C147.633 187.767 148.225 187.3 148.808 187.175C149.392 187.175 151.267 188.233 152.908 189.642C154.667 191.05 156.058 192.567 156.058 193.042L156.05 193.025ZM153.708 601.425C153.708 601.892 151.833 603.767 149.617 605.525C146.575 607.858 145.292 608.325 144.708 607.275C144.242 606.333 145.525 604.467 147.875 602.592C150.1 600.833 152.317 599.667 152.783 600.017C153.25 600.367 153.716 600.95 153.716 601.425H153.708ZM151.367 200.283C151.367 200.875 150.9 201.342 150.425 201.342C149.958 201.342 147.85 200.167 145.75 198.758C143.642 197.242 142.017 195.717 142.017 195.258C142.017 194.8 142.483 194.083 143.183 193.733C143.767 193.5 145.883 194.55 147.858 196.192C149.733 197.833 151.367 199.708 151.367 200.292V200.283ZM145.517 598.383C143.175 600.25 140.958 601.775 140.492 601.658C140.025 601.658 139.55 601.067 139.55 600.25C139.55 599.433 141.192 597.567 143.067 596.158C145.058 594.633 147.283 593.817 148.091 594.283C149.15 594.867 148.216 596.158 145.517 598.383ZM146.692 206.25C146.692 206.842 146.225 207.425 145.75 207.775C145.283 208.008 143.175 206.958 141.075 205.433C138.967 203.792 137.325 202.042 137.325 201.342C137.325 200.758 137.792 200.167 138.5 200.167C139.083 200.167 141.192 201.342 143.175 202.75C145.05 204.15 146.692 205.675 146.692 206.25ZM144.35 588.55C144.233 589.017 142.475 590.775 140.125 592.292C137.392 594.242 135.65 594.825 134.867 594.05C134.167 593.342 135.217 591.825 138.15 589.725C140.608 587.967 142.942 586.908 143.408 587.142C143.875 587.492 144.35 588.083 144.35 588.55ZM140.95 213.625C140.125 214.45 138.725 213.975 136.158 212.217C134.167 210.7 132.65 208.825 132.65 207.775C132.65 206.842 133 206.017 133.35 206.017C133.825 205.9 135.933 207.308 138.15 209.183C140.842 211.408 141.775 212.817 140.958 213.625H140.95ZM136.508 584.917C134.633 586.442 132.525 587.608 131.717 587.608C130.9 587.608 130.075 587.258 129.725 586.792C129.483 586.325 131.008 584.683 133.225 583.275C135.45 581.758 137.9 581.058 138.608 581.525C139.425 582.117 138.725 583.275 136.5 584.917H136.508ZM137.325 219.017C137.325 219.6 136.858 220.308 136.392 220.658C135.925 220.892 133.808 220.075 131.717 218.55C129.608 217.142 127.967 215.383 127.967 214.575C127.967 213.767 128.2 213.05 128.667 212.933C129.017 212.817 131.125 213.875 133.342 215.275C135.45 216.8 137.325 218.442 137.325 219.025V219.017ZM134.867 575.667C134.867 576.133 133.108 577.658 130.767 579.183C128.542 580.592 126.442 581.758 126.208 581.758C125.858 581.758 125.625 581.058 125.625 580C125.625 579.067 127.258 577.308 129.358 576.017C131.467 574.742 133.575 574.033 134.033 574.392C134.508 574.625 134.975 575.208 134.858 575.667H134.867ZM132.642 225.925C132.642 226.625 132.058 227.092 131.467 227.092C130.767 227.092 128.658 226.158 126.675 225.1C124.8 223.933 123.158 222.408 123.158 221.583C123.275 220.767 123.633 220.067 124.1 220.067C124.567 220.067 126.675 221.117 128.775 222.408C130.883 223.7 132.642 225.333 132.642 225.925ZM130.3 569.117C130.3 569.7 128.542 571.108 126.433 572.392C124.325 573.683 122.217 574.742 121.758 574.742C121.3 574.742 120.933 574.033 120.933 572.983C120.933 572.042 122.692 570.167 125.033 568.883C127.258 567.6 129.358 566.9 129.708 567.367C129.95 567.825 130.3 568.525 130.3 569.117ZM128.075 233.65C127.25 234.467 125.608 234.117 123.042 232.475C121.05 231.183 119.175 229.433 118.942 228.608C118.708 227.908 119.058 227.083 119.883 226.967C120.583 226.85 123.042 228.025 125.142 229.55C127.958 231.542 128.892 232.708 128.075 233.65ZM126.783 561.858C126.783 562.208 124.675 563.733 122.108 565.142C119.292 566.783 117.075 567.367 116.725 566.658C116.492 565.958 116.375 565.258 116.492 565.142C116.608 564.908 118.6 563.617 120.817 562.208C123.158 560.8 125.375 559.983 125.842 560.45C126.317 560.8 126.667 561.508 126.783 561.858ZM124.325 240.083C124.325 240.675 123.85 241.258 123.15 241.258C122.567 241.258 120.225 240.2 117.892 238.917C115.667 237.625 114.15 235.983 114.375 235.4C114.725 234.692 115.425 234.225 115.9 234.225C116.367 234.225 118.475 235.283 120.575 236.567C122.683 237.858 124.317 239.383 124.317 240.083H124.325ZM121.983 554.95C121.983 555.542 120.342 557.175 118.233 558.467C116.125 559.642 114.025 560.683 113.55 560.8C113.083 560.8 112.617 559.992 112.617 559.05C112.617 558.117 114.258 556.475 116.133 555.542C118.125 554.6 120.233 553.783 120.808 553.783C121.508 553.783 121.983 554.25 121.983 554.95ZM120.108 247.458C119.517 247.925 117.058 247.458 114.725 246.283C112.267 245.117 110.283 243.825 110.283 243.242C110.283 242.775 110.867 242.183 111.458 241.833C112.158 241.483 114.5 242.417 116.833 243.825C119.175 245.233 120.583 246.875 120.117 247.45L120.108 247.458ZM118.467 548.167C118.467 548.633 116.358 550.158 113.792 551.45C109.817 553.425 109.108 553.542 108.525 552.033C108.175 550.858 109.467 549.45 112.392 547.933C114.85 546.642 117.183 545.942 117.658 546.408C118.125 546.758 118.475 547.575 118.475 548.167H118.467ZM116.592 254.483C116.008 255.067 113.775 254.6 111.442 253.425C109.217 252.375 107.233 251.317 107.117 251.083C107 250.85 107.117 250.025 107.358 249.442C107.708 248.742 109.933 249.325 112.85 250.85C115.542 252.375 117.175 253.892 116.6 254.475L116.592 254.483ZM115.067 540.792C115.067 541.142 113.075 542.433 110.625 543.6C107.817 545 105.833 545.233 105.008 544.533C104.308 543.842 105.483 542.55 108.517 541.025C111.092 539.733 113.658 538.917 114.133 539.383C114.6 539.733 114.95 540.442 115.067 540.792ZM112.725 261.742C111.9 262.558 110.15 262.208 107.342 260.8C105.117 259.742 103.25 258.225 103.25 257.633C103.25 256.933 103.842 256.467 104.425 256.467C105.125 256.467 107.475 257.4 109.808 258.458C112.733 259.858 113.542 260.917 112.733 261.742H112.725ZM111.433 533.3C111.433 534.233 109.558 535.758 107.108 536.7C104.65 537.625 102.317 538.092 101.85 537.858C101.383 537.625 100.908 537.042 100.908 536.467C100.908 535.992 102.783 534.708 105.008 533.533C107.358 532.475 109.692 531.542 110.275 531.542C110.975 531.542 111.442 532.358 111.442 533.3H111.433ZM110.383 268.058C110.383 268.408 110.15 269.108 109.792 269.583C109.442 270.167 106.983 269.583 104.417 268.408C101.842 267.35 99.7415 266.067 99.7415 265.475C99.7415 265.008 100.325 264.425 100.908 264.075C101.617 263.717 103.958 264.308 106.175 265.358C108.517 266.417 110.392 267.708 110.392 268.058H110.383ZM108.042 525.925C108.042 526.75 106.167 528.15 103.95 528.858C101.6 529.667 99.1498 530.017 98.3332 529.55C97.3998 529.083 98.3332 528.033 100.908 526.75C103.25 525.575 105.708 524.633 106.525 524.517C107.342 524.517 107.933 525.225 108.05 525.925H108.042ZM106.75 275.9C106.75 276.833 106.283 277.542 105.575 277.542C104.992 277.542 102.767 276.717 100.667 275.667C98.5582 274.608 96.6832 273.558 96.5665 273.325C96.4498 273.083 96.5665 272.267 96.7998 271.683C97.2665 270.975 99.1415 271.208 102.067 272.383C104.642 273.442 106.742 275.075 106.742 275.892L106.75 275.9ZM105.575 518.9C105.575 519.375 103.467 520.658 100.9 521.592C98.3248 522.525 95.9915 523.35 95.6415 523.35C95.4082 523.35 95.0498 522.642 95.0498 521.825C95.0498 521.133 97.1582 519.492 99.7332 518.317C102.308 517.267 104.758 516.675 104.992 517.142C105.342 517.5 105.575 518.317 105.575 518.9ZM103.233 282.925C103.233 283.858 102.767 284.558 102.067 284.558C101.475 284.558 99.0165 283.742 96.5665 282.808C93.6415 281.633 92.5915 280.575 93.2998 279.875C94.1165 279.175 96.1082 279.175 98.9082 280.108C101.367 280.808 103.242 282.1 103.242 282.925H103.233ZM102.067 510.942C102.067 512.117 100.425 513.292 97.7415 514.1C94.6915 514.917 92.9415 514.917 92.1248 514.1C91.4248 513.292 91.8915 512.583 93.8832 511.883C95.5248 511.292 98.0915 510.358 99.4915 509.892C101.483 509.3 102.075 509.533 102.075 510.942H102.067ZM100.892 290.883C100.892 291.583 99.7165 291.933 98.3165 291.7C96.9082 291.467 94.4582 290.767 93.0498 290.292C91.6415 289.708 90.3582 288.892 90.3582 288.3C90.3582 287.833 90.5915 287.133 90.9415 286.542C91.2915 286.075 93.6332 286.542 96.2082 287.6C98.7832 288.658 100.883 290.058 100.883 290.883H100.892ZM99.7165 503.45C99.7165 504.042 98.5498 505.092 97.1415 505.683C95.7332 506.142 93.2832 506.958 91.8832 507.425C90.0082 507.9 89.1832 507.658 89.1832 506.375C89.1832 505.442 90.9415 504.042 93.0498 503.45C95.1582 502.75 97.4915 502.283 98.3165 502.283C99.1332 502.283 99.7165 502.75 99.7165 503.45ZM98.5498 298.608C98.5498 299.192 97.9582 299.775 97.1415 299.775C96.3248 299.775 93.9832 299.308 91.8832 298.608C89.7748 297.9 88.0165 296.617 88.0165 295.675C88.0165 294.392 88.8332 294.15 90.7082 294.625C92.1165 295.092 94.5748 295.792 95.9665 296.383C97.3748 296.967 98.5498 297.9 98.5498 298.608ZM97.3748 496.667C97.3748 497.367 95.4998 498.417 93.0498 498.883C90.5915 499.467 88.2582 499.933 87.7915 499.933C87.3165 499.933 86.8498 499.233 86.8498 498.417C86.8498 497.717 88.8415 496.433 91.2915 495.608C93.6332 494.792 96.0915 494.442 96.5582 494.792C97.0248 495.142 97.3748 495.958 97.3748 496.667ZM96.3248 305.525C96.3248 305.875 95.9665 306.575 95.6165 307.042C95.2665 307.633 92.9248 307.517 90.3582 306.808C87.5415 306.108 85.6832 304.933 85.6832 303.883C85.6832 302.942 86.1498 302.125 86.6165 302.125C87.0832 302.125 89.4332 302.708 91.8832 303.408C94.3415 304.117 96.3248 305.05 96.3248 305.525ZM95.0332 488.467C95.0332 488.942 93.3915 489.875 91.2832 490.567C89.1748 491.275 86.8415 491.742 86.0248 491.742C85.1998 491.742 84.4998 491.042 84.4998 490.225C84.4998 489.525 86.6082 488 89.1748 487.183C91.7498 486.242 94.0832 485.892 94.4415 486.475C94.7915 486.95 95.0248 487.883 95.0248 488.467H95.0332ZM93.8582 313.825C93.8582 314.525 92.8082 314.992 91.5165 314.992C90.2332 314.992 87.8998 314.408 86.2582 313.825C84.7332 313.117 83.3248 312.067 83.3248 311.475C83.3248 310.775 85.1998 310.542 87.7665 311.008C90.2332 311.358 92.5665 311.95 93.0332 312.183C93.4998 312.533 93.8498 313.233 93.8498 313.825H93.8582ZM92.6915 480.742C92.6915 482.267 91.5165 482.842 87.7832 483.2C85.0832 483.433 82.5165 483.317 82.1665 482.958C81.9332 482.617 82.1665 481.917 82.7498 481.333C83.4582 480.742 85.9165 479.925 88.3665 479.575C91.9832 478.867 92.6915 479.1 92.6915 480.742ZM91.5165 321.55C91.5165 322.483 90.9332 323.192 90.1165 323.192C89.2915 323.192 86.9498 322.717 84.8498 322.017C82.7415 321.317 80.9832 320.258 80.9832 319.675C80.9832 318.967 81.6832 318.5 82.5082 318.5C83.3248 318.5 85.6582 318.733 87.7665 319.208C89.8748 319.558 91.5082 320.608 91.5082 321.55H91.5165ZM90.3498 329.158C90.3498 329.742 89.9915 330.45 89.4082 330.683C88.8248 330.917 86.4832 330.683 84.1498 330.092C81.5665 329.508 79.8248 328.333 79.8248 327.283C79.8248 326.225 80.6415 325.758 81.9332 325.992C83.0998 326.342 85.4498 326.933 87.1915 327.283C88.9498 327.75 90.3498 328.567 90.3498 329.158ZM90.3498 472.317C90.3498 473.375 89.1748 474.425 87.7665 474.775C86.3665 475 84.1415 475.475 82.8582 475.592C81.6832 475.825 80.5165 475.233 80.2832 474.425C80.0499 473.608 81.2165 472.783 83.0915 472.317C84.8498 471.967 87.1915 471.5 88.3582 471.142C89.6832 470.675 90.3498 471.067 90.3498 472.317ZM89.1748 465.058C89.1748 465.525 88.5915 466.233 87.7665 466.467C86.9498 466.7 84.6082 467.275 82.5082 467.625C79.8165 468.1 78.6415 467.867 78.6415 466.817C78.6415 466.117 80.7498 464.592 83.3165 463.767C85.8915 462.833 88.2248 462.483 88.5832 463.067C88.9332 463.533 89.1665 464.475 89.1665 465.058H89.1748ZM87.9998 337.233C87.9998 337.933 86.8332 338.408 85.4248 338.408C84.0248 338.408 81.5582 338.058 80.1665 337.817C78.7582 337.467 77.4665 336.417 77.4665 335.475C77.4665 334.542 77.9415 333.717 78.4082 333.717C78.8748 333.717 81.2165 334.3 83.6665 334.892C86.1332 335.592 87.9915 336.65 87.9915 337.233H87.9998ZM87.2998 457.917C86.7165 458.275 84.3748 458.975 81.9248 459.442C78.4165 460.017 77.4832 459.783 77.4832 458.392C77.4832 457.217 78.9998 456.4 81.5665 456.042C83.9165 455.692 86.2498 455.808 86.9498 456.283C87.6498 456.75 87.7665 457.45 87.2998 457.917ZM86.8332 345.425C86.8332 346.133 85.6582 346.6 84.2582 346.6C82.8498 346.6 80.3915 346.25 78.9915 346.017C77.5832 345.658 76.2998 344.608 76.2998 343.667C76.2998 342.267 77.2332 342.033 80.7415 342.617C83.1998 343.083 85.5332 343.55 85.9998 343.908C86.4748 344.142 86.8248 344.842 86.8248 345.425H86.8332ZM85.6582 353.033C85.6582 353.975 85.0748 354.792 84.2582 354.792C83.4332 354.792 81.0915 354.442 78.9915 353.975C76.7665 353.392 75.1248 352.333 75.1248 351.275C75.1248 349.875 75.9498 349.758 78.9915 350.458C81.0998 350.925 83.4332 351.275 84.2582 351.275C85.0748 351.275 85.6582 352.1 85.6582 353.033ZM81.3332 442.942C78.8748 443.525 76.3082 443.642 75.4915 443.292C74.6665 442.942 73.9665 442.233 73.9665 441.65C73.9665 441.183 76.1915 440.242 78.9915 439.658C82.9748 438.717 84.0248 438.833 84.7248 440.125C85.4248 441.417 84.6082 442.117 81.3248 442.942H81.3332ZM85.6582 449.025C85.6582 450.667 84.7248 451.367 81.9082 451.6C79.7998 451.825 77.4665 451.942 76.6498 451.942C75.8332 451.942 75.1248 451.133 75.1248 450.192C75.1248 449.258 75.8332 448.433 76.6498 448.433C77.4665 448.433 79.8165 448.083 81.9082 447.617C85.0748 447.033 85.6582 447.267 85.6582 449.025ZM84.4915 361C84.4915 361.933 83.4332 362.4 81.9082 362.167C80.5082 362.05 78.0582 361.817 76.6498 361.817C74.8915 361.817 73.9582 361.117 73.9582 359.708C73.9582 358.067 74.5415 357.833 77.8248 358.65C79.9332 359.117 82.2665 359.475 83.0832 359.475C83.8998 359.475 84.4915 360.175 84.4915 361ZM84.4915 433.575C84.4915 434.275 82.8498 434.975 80.7415 435.333C78.6332 435.567 75.8332 435.567 74.5415 435.092C73.1332 434.625 72.6665 433.925 73.3665 433.342C74.0748 432.75 76.5332 431.933 78.8665 431.342C81.2082 430.758 83.4248 430.875 83.7748 431.458C84.2415 431.933 84.4832 432.983 84.4832 433.575H84.4915ZM83.3165 368.958C83.3165 369.542 80.9748 370.008 78.0582 370.008C74.1915 370.008 72.7915 369.542 72.7915 368.25C72.7915 367.317 73.4998 366.492 74.3165 366.492C75.1332 366.492 77.4832 366.725 79.5748 367.2C81.6832 367.55 83.3248 368.367 83.3248 368.958H83.3165ZM83.3165 377.15C83.3165 377.733 80.9748 378.208 78.0582 378.208C74.1915 378.208 72.7915 377.733 72.7915 376.45C72.7915 375.508 73.4998 374.692 74.3165 374.692C75.1332 374.692 77.4832 374.925 79.5748 375.392C81.6832 375.742 83.3248 376.567 83.3248 377.15H83.3165ZM82.7332 418.242C82.3832 418.825 79.9165 419.292 77.4665 419.292C74.1915 419.175 72.7915 418.708 72.7915 417.417C72.7915 416.125 74.1999 415.542 77.3498 415.425C79.8165 415.308 82.1498 415.658 82.4998 416.125C82.9665 416.717 82.9665 417.65 82.7332 418.242ZM83.3165 425.025C83.3165 425.608 82.6165 426.433 81.5582 426.783C80.6248 427.133 78.2832 427.367 76.2998 427.367C73.9582 427.367 72.7832 426.783 72.7832 425.608C72.7832 424.325 74.1915 423.858 78.0498 423.858C80.9748 423.858 83.3082 424.325 83.3082 425.025H83.3165ZM82.1498 384.875C82.1498 385.817 80.6248 386.4 77.4665 386.4C74.0748 386.4 72.7915 385.933 72.7915 384.642C72.7915 383.35 74.0832 382.883 77.4665 383.117C80.5165 383.233 82.1498 383.817 82.1498 384.875ZM82.1498 392.717C82.1498 394.125 80.8582 394.592 76.8832 394.592C73.2499 394.592 71.7415 394.125 72.0915 393.067C72.2082 392.367 74.6665 391.55 77.3498 391.308C81.0915 390.958 82.1498 391.308 82.1498 392.717ZM82.1498 401.033C82.1498 402.317 80.8582 402.792 77.4665 402.792C74.8915 402.792 72.5582 402.2 72.2082 401.617C71.9748 400.908 72.4415 400.208 73.3832 399.858C74.4332 399.508 76.7748 399.275 78.6415 399.275C80.9832 399.275 82.1498 399.858 82.1498 401.033ZM82.1498 409.108C82.1498 410.517 81.0915 410.867 77.2332 410.633C74.5415 410.517 72.2082 409.808 72.2082 409.225C72.2082 408.517 74.5498 407.933 77.2332 407.7C81.0998 407.35 82.1498 407.7 82.1498 409.108Z" fill="currentColor"/>
</g>
</svg>
