<svg viewBox="0 0 800 800">
<g id="hid-02">
<g id="Vector">
<path d="M140.122 331.855C141.02 328.837 141.67 325.76 141.487 324.718C141.324 323.799 140.484 323.109 139.679 323.251C138.867 323.395 137.246 327.014 136.118 331.368C134.97 335.607 133.275 343.513 132.325 348.918C131.371 354.308 130.011 366.081 129.325 375.002C128.659 384.038 128.352 398.469 128.593 407.227C129.043 418.563 130.303 429.739 133.069 445.422C136.665 465.816 137.085 467.527 138.931 467.201C140.77 466.877 140.67 465.592 137.857 451.703C136.144 443.331 134.131 429.902 133.542 421.806C132.848 413.839 132.426 401.322 132.458 394.064C132.503 386.932 133.18 375.27 133.841 368.266C134.643 361.346 135.992 351.479 136.871 346.34C137.885 341.295 139.334 334.727 140.131 331.862L140.122 331.855Z" fill="currentColor"/>
<path fill-rule="evenodd" clip-rule="evenodd" d="M705.477 322.016C705.782 323.748 705.051 324.351 702.15 324.744C700.054 324.995 698.073 324.515 697.545 323.533C696.976 322.322 697.28 322.031 698.79 322.484C700.02 322.741 700.574 322.525 700.107 321.888C699.661 321.375 700.602 320.616 702.21 320.333C704.286 319.967 705.2 320.398 705.485 322.015L705.477 322.016ZM691.844 279.733C691.641 280.598 689.823 281.756 687.672 282.372C684.163 283.346 683.885 283.159 684.303 280.826C684.518 279.358 684.219 278.336 683.53 278.457C682.832 278.58 682.42 277.587 682.549 276.252C682.669 274.92 682.257 273.926 681.559 274.049C680.87 274.171 680.247 273.324 680.065 272.29C679.82 270.903 680.083 270.62 680.861 271.431C681.464 272.162 683.026 272.242 684.487 271.747C686.043 271.118 686.495 270.319 685.873 269.481C685.081 268.588 685.237 268.366 686.346 268.805C687.117 269.143 687.747 269.979 687.496 270.624C687.273 271.374 687.883 272.816 688.94 274.059C690.598 276.026 690.495 276.163 688.392 274.985C686.436 274.018 686.207 274.059 686.647 275.885C686.831 276.927 688.069 277.902 689.517 278.002C690.964 278.102 691.931 278.88 691.844 279.733ZM682.898 261.34C683.06 262.259 681.877 263.661 680.214 264.31C678.429 264.98 676.812 265.265 676.406 264.981C675.993 264.699 675.912 263.52 676.324 262.499C676.62 261.491 678.095 260.402 679.712 260.117C681.558 259.791 682.714 260.298 682.898 261.34ZM658.338 225.138C656.789 226.478 655.159 227.357 654.646 227.092C654.003 226.85 654.315 226.558 655.12 226.417C655.809 226.295 656.343 225.245 656.161 224.211C656.072 223.033 654.954 221.445 653.758 220.708C651.876 219.491 651.646 219.532 652.012 221.608C652.433 223.319 651.933 223.171 650.192 220.736C648.832 219.072 647.768 217.119 647.648 216.437C647.547 215.863 648.162 215.991 648.907 216.808C649.882 217.829 650.28 217.877 650.118 216.958C649.975 216.146 650.665 215.313 651.7 215.131C652.857 214.927 653.004 214.418 652.267 213.601C651.488 212.782 651.719 212.504 652.95 212.769C653.938 212.95 654.81 213.863 654.899 215.04C654.853 216.123 655.455 216.846 656.029 216.745C656.727 216.622 657.6 217.543 658.167 218.746C658.736 219.957 658.731 221.27 658.102 221.736C657.588 222.182 657.149 223.097 657.25 223.672C657.372 224.361 658.32 224.312 659.408 223.765C660.389 223.237 660.031 223.892 658.463 225.125L658.348 225.145L658.338 225.138ZM648.093 206.146C648.337 207.532 647.756 208.938 646.891 209.454C646.032 209.961 644.456 210.476 643.545 210.637C642.634 210.797 641.67 210.13 641.508 209.21C641.345 208.283 641.778 207.378 642.36 207.275C642.935 207.173 643.286 207.822 642.97 208.716C642.767 209.581 642.902 209.676 643.395 209.115C643.869 208.439 644.144 207.316 644.023 206.626C643.88 205.814 644.685 204.961 645.794 204.528C647.12 203.939 647.816 204.527 648.101 206.144L648.093 206.146ZM618.605 173.664C618.748 174.477 617.7 175.973 616.233 177.061C614.028 178.761 613.454 178.863 612.54 177.712C611.919 176.874 610.497 175.576 609.291 174.833C607.512 173.479 607.431 173.02 608.641 171.148C609.838 169.151 609.797 168.922 608.086 169.342C606.937 169.544 606.112 170.291 606.254 171.095C606.418 172.022 606.019 172.211 605.051 171.662C604.232 171.096 603.798 169.979 604.021 169.229C604.325 168.219 605.434 167.787 607.247 167.941C609.446 168.273 609.75 167.982 608.776 166.487C607.997 165.431 607.97 164.607 608.66 164.485C609.234 164.384 609.958 165.085 610.122 166.013C610.284 166.932 611.272 167.832 612.252 168.015C613.24 168.196 614.228 169.097 614.39 170.016C614.554 170.943 615.549 171.834 616.53 172.025C617.498 172.091 618.464 172.868 618.607 173.681L618.605 173.664ZM603.21 160.453C603.495 162.07 603.286 162.226 602.208 160.867C601.161 159.63 600.836 159.806 600.648 162.098C600.54 163.547 599.594 164.899 598.666 165.063C597.747 165.225 596.793 164.564 596.629 163.636C596.467 162.717 597.339 160.896 598.678 159.704C599.903 158.54 601.315 157.817 601.959 158.059C602.479 158.323 603.028 159.419 603.21 160.453ZM566.549 134.467C566.733 135.509 565.697 136.402 563.965 136.708C562.357 136.991 561.417 137.758 561.863 138.271C562.33 138.9 561.235 138.738 559.456 138.103C557.676 137.461 556.189 136.42 556.066 135.723C555.965 135.148 556.708 134.662 557.688 134.844C558.676 135.025 559.44 134.654 559.317 133.956C559.216 133.382 557.884 132.55 556.415 132.327C553.717 131.855 553.697 131.74 557.889 129.216L555.439 128.81C554.086 128.574 553.505 127.966 554.019 127.52C554.519 126.95 556.664 127.646 558.759 128.825C560.756 130.022 561.791 131.142 561.208 131.245C560.634 131.346 560.243 132.49 560.466 133.754C560.751 135.37 561.678 135.926 563.525 135.601C565.486 135.255 565.675 134.984 564.125 134.302C563.105 133.889 562.522 133.273 563.036 132.827C563.435 132.401 564.342 132.123 564.977 132.366C565.632 132.724 566.399 133.664 566.541 134.468L566.549 134.467ZM549.194 123.624C549.276 124.092 548.633 125.864 547.739 127.561C546.97 129.245 545.63 130.429 544.745 130.112C543.871 129.91 543.04 129.227 542.917 128.53C542.816 127.955 543.33 127.509 543.973 127.751C544.608 127.995 544.757 127.495 544.289 126.858C543.803 126.114 544.133 124.626 544.93 123.775C545.829 122.779 547.135 122.074 547.771 122.318C548.428 122.684 549.112 123.156 549.193 123.616L549.194 123.624ZM526.76 110.943C526.841 111.403 526.173 113.662 525.265 115.954C523.704 119.91 523.474 119.951 520.425 118.83C518.654 118.195 517.117 116.917 516.994 116.219C516.852 115.415 517.311 113.312 518.184 111.499C518.941 109.699 519.711 108.015 519.765 107.65C519.934 107.265 521.557 107.689 523.378 108.561C525.178 109.318 526.685 110.474 526.768 110.942L526.76 110.943ZM435.365 86.5265L434.945 91.5845C434.589 96.2844 434.305 96.6899 431.019 96.9139C427.723 97.1311 427.453 96.9419 427.035 92.5055C426.702 89.9493 426.85 87.4271 427.249 87.0013C427.647 86.5756 429.609 86.2298 431.643 86.3449L435.356 86.5279L435.365 86.5265ZM400.362 88.1798C400.647 89.7965 400.73 92.2865 400.607 93.6029C400.399 95.7805 399.836 95.9981 393.663 96.0205C389.877 96.0957 372.166 98.7362 354.07 101.927C324.92 107.067 319.667 108.23 307.293 112.917C299.585 115.706 287.841 120.51 281.255 123.567C274.536 126.537 264.284 131.789 258.355 135.212C252.426 138.635 247.327 141.438 246.99 141.497C246.654 141.557 245.38 139.759 244.142 137.489C242.817 135.345 242.18 133.08 242.674 132.519C243.032 131.863 248.292 128.677 254.222 125.262C260.17 121.945 268.773 117.467 273.268 115.362C277.762 113.258 287.501 109.172 294.845 106.337C302.179 103.495 313.291 99.7587 319.505 97.9522C325.738 96.2524 335.719 93.5446 341.65 92.1436C347.558 90.6194 360.278 88.6135 369.962 87.6253C379.529 86.649 390.173 85.7285 393.582 85.4828C399.35 85.1766 399.85 85.3253 400.358 88.2059L400.362 88.1798ZM240.431 145.379C240.514 145.847 239.756 146.928 238.586 147.727C237.437 148.648 235.901 149.393 235.326 149.494C234.637 149.616 232.789 147.919 228.155 141.84L230.686 139.972C232.159 138.875 233.749 137.765 234.418 137.529C234.972 137.312 236.55 138.82 237.855 140.849C239.169 142.877 240.243 144.938 240.439 145.377L240.431 145.379ZM227.661 153.816C227.897 154.485 226.722 155.886 225.018 157.015C223.428 158.125 222.029 158.972 221.873 158.763C221.853 158.648 220.608 156.964 219.201 155.079C217.8 153.177 216.641 151.359 216.582 151.022C216.542 150.793 217.746 149.514 219.314 148.281C222.152 146.233 222.266 146.212 224.859 149.445C226.247 151.222 227.551 153.243 227.654 153.826L227.661 153.816ZM314.263 684.701C314.344 685.161 313.81 685.492 313.187 685.365C312.457 685.257 312.309 685.757 312.68 686.52C313.167 687.264 313.182 688.691 312.769 689.712C312.399 690.97 311.302 691.519 310.044 691.148C308.292 690.62 308.211 690.16 309.271 686.766C310.022 684.256 311.015 683.125 312.239 683.391C313.227 683.572 314.173 684.235 314.255 684.703L314.263 684.701ZM216.31 163.543C216.486 163.868 215.384 165.01 213.911 166.107C212.436 167.196 210.929 168.055 210.699 168.095C210.354 168.156 208.777 166.649 207.106 164.565C205.448 162.598 203.955 160.848 203.934 160.733C203.894 160.503 205.359 159.407 207.015 158.049C208.813 156.776 210.464 156.011 210.734 156.2C211.025 156.504 212.392 158.167 213.752 159.831C215.142 161.617 216.269 163.305 216.31 163.543ZM305.36 681.38C305.421 681.725 304.645 682.699 303.839 683.552C302.499 684.736 302.249 684.662 302.547 682.942C302.681 681.497 302.215 680.869 301.14 681.058C300.065 681.248 299.077 680.829 298.705 680.066C298.272 678.949 298.042 678.99 297.548 680.27C297.345 681.135 297.933 682.453 299.138 683.188C300.24 684.068 300.715 684.695 300.247 684.778C299.788 684.859 300.275 685.611 301.48 686.346C302.873 687.53 303.069 687.97 302.035 688.152C301.223 688.295 300.162 687.653 299.748 686.651C299.241 685.793 298.441 685.333 298.044 685.767C297.625 686.078 296.407 685.937 295.385 685.517C293.701 684.748 293.795 684.612 295.513 684.902C296.752 685.157 297.65 684.88 297.569 684.421C297.488 683.961 296.575 682.811 295.56 681.805C294.283 680.609 293.293 680.419 292.287 681.434C291.266 682.41 291.219 682.816 292.147 682.652C292.951 682.51 293.395 683.016 293.267 683.631C293.044 684.381 292.272 684.754 291.637 684.511C290.907 684.403 290.265 683.449 290.082 682.415C289.92 681.496 290.771 680.272 291.982 679.703C293.185 679.135 293.739 678.2 293.253 677.456C292.757 676.706 293.13 676.759 294.098 677.544C295.199 678.416 296.499 679.025 297.189 678.903C297.772 678.8 299.854 679.144 301.733 679.769C303.607 680.268 305.291 681.037 305.352 681.382L305.36 681.38ZM204.985 172.784C205.087 173.366 202.223 176.605 198.766 179.939C195.312 183.29 189.456 189.188 185.976 193.017C182.382 196.866 174.642 206.193 168.869 213.862C162.995 221.676 155.196 232.681 151.592 238.537C147.882 244.421 142.308 254.56 138.922 260.987C135.679 267.499 130.859 277.979 128.293 284.253C125.73 290.645 121.705 302.177 119.394 309.947C117.093 317.723 114.039 329.439 112.715 336.087C111.257 342.648 109.605 352.806 108.806 358.405C108.145 364.106 107.292 374.724 106.894 381.919C106.64 389.216 106.464 400.306 106.633 406.691C106.676 412.979 107.341 420.833 107.89 423.943C108.44 427.061 108.486 430.015 108.089 430.449C107.67 430.76 106.608 430.828 105.721 430.503C104.347 430.152 103.921 427.731 103.317 418.217C102.89 411.759 102.547 401.708 102.451 395.785C102.497 389.955 102.812 380.269 103.282 374.246C103.788 368.335 105.196 356.79 106.391 348.736C107.7 340.661 109.933 329.089 111.461 322.879C113.001 316.786 116.594 304.864 119.512 296.505C122.551 288.117 126.625 277.532 128.66 272.9C130.714 268.374 135.473 258.989 139.112 252.035C142.898 245.19 150.737 232.393 156.793 223.599C162.85 214.805 172.219 202.576 177.66 196.387C183.122 190.313 190.938 182.047 195.202 177.961C199.371 174.01 203.233 170.96 203.762 171.222C204.283 171.494 204.885 172.217 204.986 172.792L204.985 172.784ZM254.008 661.673C252.885 663.419 251.431 664.624 250.91 664.36C250.39 664.096 249.78 663.375 249.637 662.562C249.495 661.758 250.158 660.093 251.103 658.733C252.343 656.983 253.113 656.601 254.446 657.441C255.804 658.378 255.718 659.231 254.008 661.673ZM247.525 653.897C247.304 654.655 246.113 655.339 244.829 655.447C243.273 655.646 242.833 656.273 243.497 657.349C243.909 658.343 243.917 659.06 243.458 659.141C242.99 659.224 240.203 657.575 231.803 651.685L233.702 648.973C234.75 647.476 236.175 646.151 236.987 646.007C237.791 645.866 238.632 646.555 238.794 647.474C238.978 648.516 239.559 649.125 240.248 649.003C240.823 648.902 241.069 649.578 240.743 650.464C240.427 651.358 240.582 651.567 241.189 650.978C241.691 650.416 243.503 650.57 245.058 651.371C246.72 652.017 247.769 653.262 247.525 653.897ZM204.12 620.663C204.054 621.631 203.379 623.18 202.553 623.918C201.641 624.789 199.929 625.21 198.613 625.086C196.157 624.69 196.136 624.575 198.516 621.177C199.923 619.034 201.513 617.924 202.505 618.223C203.39 618.541 204.082 619.73 204.12 620.663ZM197.12 613.934C197.181 614.279 196.899 614.693 196.431 614.775C195.991 614.971 194.625 615.331 193.361 615.554C191.42 616.014 191.345 616.264 192.989 616.804C194.396 617.393 194.572 617.718 193.524 618.495C192.794 619.106 191.428 618.746 190.453 617.97C189.465 617.07 189.114 616.421 189.573 616.34C190.033 616.259 189.275 615.318 187.781 614.287C185.765 612.975 185.216 611.879 185.919 610.443C186.5 609.038 186.188 608.61 184.761 608.625C183.103 608.68 183.252 608.18 188.249 603.5L187.959 607.232C187.769 610.235 188.102 610.778 189.718 610.492C190.855 610.174 191.672 609.429 191.53 608.625C191.387 607.812 192.478 608.576 194.067 610.2C195.57 611.957 196.936 613.612 197.112 613.936L197.12 613.934ZM161.327 571.996C161.51 573.03 160.47 574.525 159.205 575.459C157.52 576.704 156.486 576.886 155.512 576.11C154.544 575.325 154.727 574.345 156.141 572.911C157.242 571.769 158.716 570.671 159.52 570.529C160.316 570.389 161.157 571.078 161.319 571.997L161.327 571.996ZM156.234 563.984C156.335 564.558 155.908 564.871 155.178 564.762C154.563 564.634 153.291 564.858 152.317 565.385C151.451 565.893 151.248 566.758 151.849 567.482C152.555 568.313 152.283 568.598 151.052 568.333C150.064 568.152 149.287 567.104 149.219 566.05C149.152 564.996 148.664 564.244 147.974 564.366C147.392 564.468 146.716 563.995 146.615 563.421C146.492 562.723 147.026 562.392 147.669 562.634C148.419 562.857 148.778 562.202 148.615 561.282C148.452 560.355 147.236 559.503 145.904 559.391C144.57 559.263 143.394 558.641 143.293 558.066C143.17 557.369 144.366 556.091 145.765 555.244C147.26 554.269 149.066 553.714 149.702 553.957C150.46 554.179 151.043 554.796 151.124 555.255C151.225 555.83 150.691 556.161 149.818 555.959C148.973 555.871 149.284 556.29 150.596 557.015C151.895 557.615 152.983 559.082 153.186 560.231C153.369 561.273 154.156 562.328 154.791 562.571C155.542 562.794 156.153 563.524 156.234 563.984ZM128.842 518.533C127.605 519.581 125.996 520.584 125.204 520.842C124.4 520.984 123.527 520.063 123.302 518.791C123.017 517.174 123.891 516.081 126.001 515.235C127.787 514.565 129.464 514.624 130.064 515.339C130.81 516.164 130.315 517.436 128.842 518.533ZM127.17 507.658C127.384 508.204 126.977 508.632 126.288 508.753C125.714 508.854 125.479 508.194 125.817 507.423C126.207 506.28 125.822 506.111 124.558 507.053C123.49 507.715 122.164 508.304 121.475 508.426C120.892 508.528 120.743 509.029 121.093 509.669C121.549 510.19 121.412 510.806 120.723 510.928C120.148 511.029 119.736 510.035 119.743 508.731C119.863 507.398 119.411 506.175 118.659 505.944C118.016 505.702 117.583 504.593 117.609 503.396C117.77 502.292 117.123 500.638 116.155 499.853C115.133 499 115.322 498.967 116.73 499.751C118.841 500.927 119.071 500.887 118.745 499.04C118.561 497.998 118.859 496.998 119.442 496.895C120.131 496.774 120.442 497.193 120.219 497.943C120.092 498.566 120.423 499.1 120.997 498.999C121.695 498.876 122.377 498.045 122.464 497.192C122.687 496.441 122.768 496.901 122.668 498.349C122.703 499.891 123.134 500.991 123.708 500.89C124.406 500.767 125.34 502.032 125.875 503.723C126.43 505.529 126.965 507.221 127.17 507.658ZM118.737 473.368C118.913 473.693 117.784 474.01 116.336 473.91C114.887 473.802 111.123 473.281 108.05 472.748C105.082 472.087 102.31 471.146 102.092 470.583C101.781 470.164 104.222 467.83 107.351 465.374C110.616 463.013 113.711 461.037 114.286 460.936C114.983 460.813 116.162 463.465 116.96 466.65C117.664 469.97 118.557 473.019 118.733 473.344L118.737 473.368ZM110.63 440.206C111.179 443.316 111.416 446.007 111.072 446.068C110.842 446.109 107.729 445.346 104.227 444.297C100.823 443.23 97.9157 442.194 97.8549 441.849C97.7942 441.504 99.9908 439.806 102.534 438.054C105.19 436.274 107.879 434.725 108.461 434.623C109.151 434.501 110.059 436.964 110.626 440.181L110.63 440.206Z" fill="currentColor"/>
</g>
</g>
</svg>
