<svg width="42" height="42" viewBox="0 0 42 42" fill="none" xmlns="http://www.w3.org/2000/svg">
<path d="M21.8679 36.1684C29.8548 35.7186 36.1928 29.0995 36.1928 21C36.1928 12.6093 29.3907 5.80728 21 5.80728C13.3091 5.80728 6.95292 11.522 5.94615 18.9367L4.71314 18.8381C5.77156 10.787 12.66 4.57219 21 4.57219C30.0728 4.57219 37.4278 11.9272 37.4278 21C37.4278 29.7818 30.5373 36.9541 21.8678 37.4054L21.8679 36.1684Z" fill="#F4F4F4"/>
<path d="M21.8679 35.0624C29.2446 34.6141 35.0886 28.4895 35.0886 21C35.0886 13.2191 28.7809 6.91144 21 6.91144C15.1183 6.91144 10.0784 10.5157 7.96845 15.6361L8.90089 15.9676C10.8737 11.2301 15.5479 7.89951 21 7.89951C28.2352 7.89951 34.1005 13.7648 34.1005 21C34.1005 27.9437 28.6985 33.6256 21.8679 34.0723L21.8679 35.0624Z" fill="#F4F4F4"/>
<path d="M21.8679 32.7178C27.9516 32.2737 32.7494 27.1971 32.7494 21C32.7494 14.511 27.489 9.25067 21 9.25067C17.47 9.25067 14.3036 10.8074 12.1498 13.2718L13.0413 13.9414C14.99 11.7458 17.8335 10.3623 21 10.3623C26.8751 10.3623 31.6378 15.125 31.6378 21C31.6378 26.5829 27.3371 31.1613 21.8679 31.6029L21.8679 32.7178Z" fill="#F4F4F4"/>
<path d="M21.8679 30.3707C26.6581 29.9326 30.4101 25.9045 30.4101 21C30.4101 15.803 26.1971 11.5899 21 11.5899C19.4618 11.5899 18.0099 11.959 16.7279 12.6133L17.3908 13.6628C18.4793 13.1264 19.7045 12.825 21 12.825C25.5149 12.825 29.175 16.4851 29.175 21C29.175 25.2218 25.9748 28.6962 21.8679 29.1296L21.8679 30.3707Z" fill="#F4F4F4"/>
<path d="M21.8679 28.1253C25.4225 27.6969 28.1772 24.6702 28.1772 21.0001C28.1772 17.33 25.4225 14.3032 21.8679 13.8748V14.8713C24.8752 15.2933 27.1891 17.8764 27.1891 21.0001C27.1891 24.1237 24.8752 26.7068 21.8679 27.1288L21.8679 28.1253Z" fill="#F4F4F4"/>
<path d="M21.8679 25.9763C24.2438 25.5649 26.0506 23.4934 26.0506 21C26.0506 19.4601 25.3615 18.0812 24.2748 17.1548L23.6984 18.1304C24.4622 18.8488 24.9391 19.8687 24.9391 21C24.9391 22.8773 23.6259 24.4478 21.868 24.8431L21.8679 25.9763Z" fill="#F4F4F4"/>
<path d="M21.868 23.9043C22.8507 23.611 23.6242 22.8325 23.9105 21.8468H22.7223C22.5388 22.2194 22.2379 22.5238 21.868 22.7118L21.868 23.9043Z" fill="#F4F4F4"/>
<path fill-rule="evenodd" clip-rule="evenodd" d="M21 42C32.598 42 42 32.598 42 21C42 9.40202 32.598 0 21 0C9.40202 0 0 9.40202 0 21C0 32.598 9.40202 42 21 42ZM21 41.506C32.3251 41.506 41.506 32.3251 41.506 21C41.506 9.67487 32.3251 0.494033 21 0.494033C9.67487 0.494033 0.494033 9.67487 0.494033 21C0.494033 32.3251 9.67487 41.506 21 41.506Z" fill="#F4F4F4"/>
</svg>
