<svg width="26" height="26" viewBox="0 0 26 26" fill="none" xmlns="http://www.w3.org/2000/svg">
<path d="M14.168 3.16699C14.168 3.16699 16.5513 3.38366 19.5846 6.41699C22.618 9.45033 22.8346 11.8337 22.8346 11.8337" stroke="#F4F4F4" stroke-width="1.125" stroke-linecap="round"/>
<path d="M14.3906 6.99707C14.3906 6.99707 15.4631 7.30349 17.0718 8.91215C18.6804 10.5208 18.9869 11.5933 18.9869 11.5933" stroke="#F4F4F4" stroke-width="1.125" stroke-linecap="round"/>
<path d="M3.33913 9.59386C3.26076 11.661 3.78392 15.1715 7.30538 18.693C8.15494 19.5426 9.00386 20.2176 9.83203 20.7518M4.99799 6.34834C6.50702 4.83931 8.91463 5.04207 9.87277 6.75886L10.5759 8.0187C11.2104 9.15564 10.9557 10.6471 9.95629 11.6465C9.95629 11.6465 8.74424 12.8587 10.9419 15.0565C13.1389 17.2535 14.3519 16.0421 14.3519 16.0421C15.3513 15.0427 16.8427 14.788 17.9797 15.4225L19.2395 16.1256C20.9564 17.0837 21.159 19.4913 19.6501 21.0004C18.7433 21.9071 17.6325 22.6127 16.4045 22.6592C15.5227 22.6927 14.378 22.6166 13.082 22.245" stroke="#F4F4F4" stroke-width="1.125" stroke-linecap="round"/>
</svg>
